G04 (created by PCBNEW (2013-07-07 BZR 4022)-stable) date 7/8/2014 5:22:45 PM*
%MOIN*%
G04 Gerber Fmt 3.4, Leading zero omitted, Abs format*
%FSLAX34Y34*%
G01*
G70*
G90*
G04 APERTURE LIST*
%ADD10C,0.00590551*%
%ADD11C,0.005*%
%ADD12C,0.0059*%
%ADD13C,0.0047*%
%ADD14C,0.0001*%
%ADD15C,0.0045*%
%ADD16C,0.00393701*%
%ADD17C,0.00472441*%
G04 APERTURE END LIST*
G54D10*
G54D11*
X78003Y-34340D02*
G75*
G03X78003Y-34340I-111J0D01*
G74*
G01*
X79641Y-35840D02*
X77641Y-35840D01*
X77641Y-35840D02*
X77641Y-34040D01*
X77641Y-34040D02*
X79641Y-34040D01*
X79641Y-34040D02*
X79641Y-35840D01*
G54D12*
X74425Y-40795D02*
X74425Y-39141D01*
X74307Y-40795D02*
X74307Y-39141D01*
X77693Y-40795D02*
X77693Y-39141D01*
X76786Y-39139D02*
X77686Y-39139D01*
X77686Y-40797D02*
X76786Y-40797D01*
X75213Y-40797D02*
X74313Y-40797D01*
X74314Y-39139D02*
X75214Y-39139D01*
X80622Y-40795D02*
X80622Y-39141D01*
X80503Y-40795D02*
X80503Y-39141D01*
X83889Y-40795D02*
X83889Y-39141D01*
X82982Y-39139D02*
X83882Y-39139D01*
X83882Y-40797D02*
X82982Y-40797D01*
X81409Y-40797D02*
X80509Y-40797D01*
X80510Y-39139D02*
X81410Y-39139D01*
G54D11*
X76386Y-50906D02*
G75*
G03X76386Y-50906I-70J0D01*
G74*
G01*
X76365Y-49006D02*
X76365Y-48356D01*
X76365Y-48356D02*
X77965Y-48356D01*
X77965Y-48356D02*
X77965Y-49006D01*
X77965Y-50206D02*
X77965Y-50856D01*
X77965Y-50856D02*
X76365Y-50856D01*
X76365Y-50856D02*
X76365Y-50206D01*
X82496Y-45809D02*
X82596Y-45809D01*
X82596Y-45809D02*
X82596Y-46709D01*
X82596Y-46709D02*
X82496Y-46709D01*
X82496Y-45809D02*
X82496Y-46709D01*
X82496Y-46709D02*
X81846Y-46709D01*
X81146Y-45809D02*
X80496Y-45809D01*
X80496Y-45809D02*
X80496Y-46709D01*
X80496Y-46709D02*
X81146Y-46709D01*
X81846Y-45809D02*
X82496Y-45809D01*
G54D13*
X79921Y-46003D02*
X80196Y-46003D01*
X79527Y-46003D02*
X79252Y-46003D01*
X79921Y-46515D02*
X80196Y-46515D01*
X79252Y-46515D02*
X79527Y-46515D01*
X80196Y-46509D02*
X80196Y-46009D01*
X79252Y-46009D02*
X79252Y-46509D01*
X76181Y-42952D02*
X76456Y-42952D01*
X75787Y-42952D02*
X75512Y-42952D01*
X76181Y-43464D02*
X76456Y-43464D01*
X75512Y-43464D02*
X75787Y-43464D01*
X76456Y-43458D02*
X76456Y-42958D01*
X75512Y-42958D02*
X75512Y-43458D01*
X78838Y-37440D02*
X79113Y-37440D01*
X78444Y-37440D02*
X78169Y-37440D01*
X78838Y-37952D02*
X79113Y-37952D01*
X78169Y-37952D02*
X78444Y-37952D01*
X79113Y-37946D02*
X79113Y-37446D01*
X78169Y-37446D02*
X78169Y-37946D01*
X78248Y-36653D02*
X78523Y-36653D01*
X77854Y-36653D02*
X77579Y-36653D01*
X78248Y-37165D02*
X78523Y-37165D01*
X77579Y-37165D02*
X77854Y-37165D01*
X78523Y-37159D02*
X78523Y-36659D01*
X77579Y-36659D02*
X77579Y-37159D01*
X79035Y-37165D02*
X78760Y-37165D01*
X79429Y-37165D02*
X79704Y-37165D01*
X79035Y-36653D02*
X78760Y-36653D01*
X79704Y-36653D02*
X79429Y-36653D01*
X78760Y-36659D02*
X78760Y-37159D01*
X79704Y-37159D02*
X79704Y-36659D01*
X82382Y-42952D02*
X82657Y-42952D01*
X81988Y-42952D02*
X81713Y-42952D01*
X82382Y-43464D02*
X82657Y-43464D01*
X81713Y-43464D02*
X81988Y-43464D01*
X82657Y-43458D02*
X82657Y-42958D01*
X81713Y-42958D02*
X81713Y-43458D01*
X76633Y-47047D02*
X76633Y-47322D01*
X76633Y-46653D02*
X76633Y-46378D01*
X76121Y-47047D02*
X76121Y-47322D01*
X76121Y-46378D02*
X76121Y-46653D01*
X76127Y-47322D02*
X76627Y-47322D01*
X76627Y-46378D02*
X76127Y-46378D01*
G54D11*
X80064Y-61361D02*
X80064Y-62261D01*
X80064Y-62261D02*
X80564Y-62261D01*
X80564Y-62261D02*
X80564Y-61361D01*
X80564Y-61361D02*
X80064Y-61361D01*
X75646Y-59986D02*
X74746Y-59986D01*
X74746Y-59986D02*
X74746Y-60486D01*
X74746Y-60486D02*
X75646Y-60486D01*
X75646Y-60486D02*
X75646Y-59986D01*
X77612Y-62261D02*
X77612Y-61361D01*
X77612Y-61361D02*
X77112Y-61361D01*
X77112Y-61361D02*
X77112Y-62261D01*
X77112Y-62261D02*
X77612Y-62261D01*
X83411Y-61361D02*
X83411Y-62261D01*
X83411Y-62261D02*
X83911Y-62261D01*
X83911Y-62261D02*
X83911Y-61361D01*
X83911Y-61361D02*
X83411Y-61361D01*
X76324Y-61361D02*
X76324Y-62261D01*
X76324Y-62261D02*
X76824Y-62261D01*
X76824Y-62261D02*
X76824Y-61361D01*
X76824Y-61361D02*
X76324Y-61361D01*
X82733Y-59986D02*
X81833Y-59986D01*
X81833Y-59986D02*
X81833Y-60486D01*
X81833Y-60486D02*
X82733Y-60486D01*
X82733Y-60486D02*
X82733Y-59986D01*
X88329Y-59698D02*
X89229Y-59698D01*
X89229Y-59698D02*
X89229Y-59198D01*
X89229Y-59198D02*
X88329Y-59198D01*
X88329Y-59198D02*
X88329Y-59698D01*
X89229Y-59986D02*
X88329Y-59986D01*
X88329Y-59986D02*
X88329Y-60486D01*
X88329Y-60486D02*
X89229Y-60486D01*
X89229Y-60486D02*
X89229Y-59986D01*
X74553Y-41577D02*
X74553Y-42477D01*
X74553Y-42477D02*
X75053Y-42477D01*
X75053Y-42477D02*
X75053Y-41577D01*
X75053Y-41577D02*
X74553Y-41577D01*
X80773Y-41557D02*
X80773Y-42457D01*
X80773Y-42457D02*
X81273Y-42457D01*
X81273Y-42457D02*
X81273Y-41557D01*
X81273Y-41557D02*
X80773Y-41557D01*
X81746Y-48087D02*
X81746Y-47187D01*
X81746Y-47187D02*
X81246Y-47187D01*
X81246Y-47187D02*
X81246Y-48087D01*
X81246Y-48087D02*
X81746Y-48087D01*
X76912Y-46706D02*
X77812Y-46706D01*
X77812Y-46706D02*
X77812Y-46206D01*
X77812Y-46206D02*
X76912Y-46206D01*
X76912Y-46206D02*
X76912Y-46706D01*
X78993Y-46009D02*
X78093Y-46009D01*
X78093Y-46009D02*
X78093Y-46509D01*
X78093Y-46509D02*
X78993Y-46509D01*
X78993Y-46509D02*
X78993Y-46009D01*
X77415Y-47890D02*
X77415Y-46990D01*
X77415Y-46990D02*
X76915Y-46990D01*
X76915Y-46990D02*
X76915Y-47890D01*
X76915Y-47890D02*
X77415Y-47890D01*
X69828Y-61557D02*
X69828Y-62457D01*
X69828Y-62457D02*
X70328Y-62457D01*
X70328Y-62457D02*
X70328Y-61557D01*
X70328Y-61557D02*
X69828Y-61557D01*
X69150Y-59986D02*
X68250Y-59986D01*
X68250Y-59986D02*
X68250Y-60486D01*
X68250Y-60486D02*
X69150Y-60486D01*
X69150Y-60486D02*
X69150Y-59986D01*
X76479Y-34068D02*
X77379Y-34068D01*
X77379Y-34068D02*
X77379Y-33568D01*
X77379Y-33568D02*
X76479Y-33568D01*
X76479Y-33568D02*
X76479Y-34068D01*
G54D10*
X79591Y-47936D02*
X79591Y-46755D01*
X79591Y-46755D02*
X78252Y-46755D01*
X78252Y-46755D02*
X78252Y-47936D01*
X78252Y-47936D02*
X79591Y-47936D01*
G54D11*
X78599Y-47739D02*
G75*
G03X78599Y-47739I-111J0D01*
G74*
G01*
X82874Y-49512D02*
X82874Y-49592D01*
X83624Y-50112D02*
X83624Y-48312D01*
X83624Y-48312D02*
X83374Y-48312D01*
X82124Y-48952D02*
X83624Y-48952D01*
X82124Y-48822D02*
X83624Y-48822D01*
X82374Y-50112D02*
X82124Y-50112D01*
X82124Y-50112D02*
X82124Y-48312D01*
X82124Y-48312D02*
X82374Y-48312D01*
X83374Y-50112D02*
X83624Y-50112D01*
X82874Y-49262D02*
X83061Y-49512D01*
X83061Y-49512D02*
X82874Y-49512D01*
X82874Y-49512D02*
X82687Y-49512D01*
X82687Y-49512D02*
X82874Y-49262D01*
X82874Y-49262D02*
X82999Y-49262D01*
X82999Y-49262D02*
X83061Y-49324D01*
X82874Y-49262D02*
X82749Y-49262D01*
X82749Y-49262D02*
X82687Y-49200D01*
X82874Y-49262D02*
X82874Y-48825D01*
G54D10*
X80314Y-48523D02*
X81102Y-48523D01*
X81102Y-48523D02*
X81102Y-51082D01*
X81102Y-51082D02*
X80314Y-51082D01*
X79133Y-51082D02*
X78346Y-51082D01*
X78346Y-51082D02*
X78346Y-48523D01*
X78346Y-48523D02*
X79133Y-48523D01*
G54D11*
X82546Y-41368D02*
X81846Y-41368D01*
X81846Y-41368D02*
X81846Y-42568D01*
X81846Y-42568D02*
X82546Y-42568D01*
X82546Y-42568D02*
X82546Y-41368D01*
X76350Y-41368D02*
X75650Y-41368D01*
X75650Y-41368D02*
X75650Y-42568D01*
X75650Y-42568D02*
X76350Y-42568D01*
X76350Y-42568D02*
X76350Y-41368D01*
G54D14*
G36*
X91107Y-32533D02*
X89840Y-32533D01*
X89840Y-30584D01*
X89821Y-30449D01*
X89761Y-30366D01*
X89661Y-30334D01*
X89640Y-30333D01*
X89532Y-30357D01*
X89466Y-30431D01*
X89440Y-30557D01*
X89440Y-30584D01*
X89463Y-30711D01*
X89528Y-30798D01*
X89627Y-30833D01*
X89640Y-30833D01*
X89705Y-30815D01*
X89766Y-30781D01*
X89816Y-30727D01*
X89838Y-30645D01*
X89840Y-30584D01*
X89840Y-32533D01*
X89375Y-32533D01*
X89375Y-30333D01*
X89323Y-30333D01*
X89323Y-28748D01*
X89323Y-28499D01*
X89323Y-28250D01*
X89140Y-28207D01*
X89025Y-28181D01*
X88929Y-28159D01*
X88890Y-28150D01*
X88841Y-28112D01*
X88787Y-28033D01*
X88739Y-27935D01*
X88710Y-27842D01*
X88707Y-27807D01*
X88724Y-27758D01*
X88770Y-27675D01*
X88823Y-27591D01*
X88884Y-27494D01*
X88927Y-27418D01*
X88940Y-27382D01*
X88918Y-27343D01*
X88859Y-27273D01*
X88777Y-27187D01*
X88775Y-27185D01*
X88610Y-27023D01*
X88396Y-27163D01*
X88181Y-27302D01*
X88035Y-27246D01*
X87943Y-27208D01*
X87878Y-27176D01*
X87864Y-27167D01*
X87845Y-27125D01*
X87821Y-27036D01*
X87796Y-26919D01*
X87795Y-26914D01*
X87753Y-26683D01*
X87490Y-26683D01*
X87227Y-26683D01*
X87185Y-26914D01*
X87160Y-27032D01*
X87135Y-27122D01*
X87117Y-27167D01*
X87116Y-27167D01*
X87071Y-27192D01*
X86988Y-27229D01*
X86944Y-27246D01*
X86799Y-27302D01*
X86584Y-27163D01*
X86369Y-27023D01*
X86205Y-27185D01*
X86122Y-27271D01*
X86063Y-27342D01*
X86040Y-27382D01*
X86057Y-27427D01*
X86103Y-27507D01*
X86157Y-27591D01*
X86218Y-27688D01*
X86260Y-27768D01*
X86273Y-27807D01*
X86257Y-27891D01*
X86216Y-27990D01*
X86163Y-28080D01*
X86111Y-28140D01*
X86090Y-28150D01*
X86021Y-28166D01*
X85915Y-28190D01*
X85840Y-28207D01*
X85657Y-28250D01*
X85657Y-28499D01*
X85657Y-28748D01*
X85896Y-28794D01*
X86135Y-28840D01*
X86208Y-29021D01*
X86282Y-29201D01*
X86161Y-29383D01*
X86099Y-29480D01*
X86055Y-29555D01*
X86040Y-29590D01*
X86062Y-29624D01*
X86119Y-29691D01*
X86201Y-29777D01*
X86212Y-29789D01*
X86384Y-29963D01*
X86578Y-29827D01*
X86680Y-29757D01*
X86745Y-29721D01*
X86789Y-29714D01*
X86831Y-29731D01*
X86859Y-29748D01*
X86923Y-29784D01*
X86958Y-29793D01*
X86959Y-29792D01*
X86976Y-29758D01*
X87013Y-29674D01*
X87065Y-29553D01*
X87126Y-29406D01*
X87136Y-29382D01*
X87301Y-28985D01*
X87175Y-28877D01*
X87056Y-28737D01*
X86998Y-28579D01*
X87000Y-28413D01*
X87062Y-28253D01*
X87158Y-28132D01*
X87229Y-28068D01*
X87293Y-28034D01*
X87373Y-28019D01*
X87490Y-28017D01*
X87611Y-28020D01*
X87690Y-28034D01*
X87753Y-28070D01*
X87822Y-28132D01*
X87934Y-28280D01*
X87985Y-28443D01*
X87976Y-28608D01*
X87907Y-28763D01*
X87805Y-28877D01*
X87679Y-28985D01*
X87843Y-29382D01*
X87906Y-29532D01*
X87960Y-29658D01*
X88000Y-29748D01*
X88020Y-29791D01*
X88021Y-29792D01*
X88055Y-29785D01*
X88118Y-29750D01*
X88121Y-29748D01*
X88169Y-29720D01*
X88210Y-29714D01*
X88262Y-29734D01*
X88342Y-29785D01*
X88402Y-29827D01*
X88596Y-29963D01*
X88768Y-29789D01*
X88851Y-29701D01*
X88913Y-29631D01*
X88939Y-29592D01*
X88940Y-29590D01*
X88923Y-29552D01*
X88878Y-29475D01*
X88819Y-29383D01*
X88698Y-29201D01*
X88771Y-29021D01*
X88845Y-28840D01*
X89084Y-28794D01*
X89323Y-28748D01*
X89323Y-30333D01*
X89208Y-30333D01*
X89101Y-30339D01*
X89037Y-30361D01*
X88992Y-30409D01*
X88986Y-30417D01*
X88947Y-30524D01*
X88951Y-30625D01*
X88993Y-30745D01*
X89067Y-30813D01*
X89165Y-30823D01*
X89210Y-30821D01*
X89232Y-30846D01*
X89239Y-30915D01*
X89240Y-30965D01*
X89238Y-31060D01*
X89224Y-31103D01*
X89187Y-31113D01*
X89144Y-31108D01*
X89048Y-31122D01*
X88981Y-31193D01*
X88945Y-31317D01*
X88940Y-31402D01*
X88945Y-31515D01*
X88965Y-31576D01*
X89006Y-31599D01*
X89027Y-31600D01*
X89057Y-31568D01*
X89075Y-31472D01*
X89080Y-31408D01*
X89089Y-31299D01*
X89104Y-31241D01*
X89133Y-31219D01*
X89157Y-31217D01*
X89195Y-31225D01*
X89217Y-31261D01*
X89229Y-31339D01*
X89233Y-31410D01*
X89242Y-31520D01*
X89257Y-31577D01*
X89284Y-31595D01*
X89300Y-31593D01*
X89320Y-31583D01*
X89335Y-31556D01*
X89346Y-31504D01*
X89354Y-31416D01*
X89359Y-31286D01*
X89363Y-31103D01*
X89366Y-30958D01*
X89375Y-30333D01*
X89375Y-32533D01*
X88903Y-32533D01*
X88903Y-30518D01*
X88864Y-30420D01*
X88785Y-30354D01*
X88689Y-30333D01*
X88589Y-30351D01*
X88523Y-30412D01*
X88521Y-30415D01*
X88477Y-30512D01*
X88491Y-30579D01*
X88566Y-30617D01*
X88632Y-30627D01*
X88718Y-30639D01*
X88768Y-30657D01*
X88773Y-30665D01*
X88746Y-30700D01*
X88688Y-30720D01*
X88635Y-30714D01*
X88580Y-30707D01*
X88547Y-30716D01*
X88510Y-30737D01*
X88526Y-30763D01*
X88555Y-30786D01*
X88661Y-30830D01*
X88764Y-30809D01*
X88837Y-30745D01*
X88896Y-30631D01*
X88903Y-30518D01*
X88903Y-32533D01*
X88899Y-32533D01*
X88899Y-31467D01*
X88886Y-31390D01*
X88826Y-31330D01*
X88727Y-31301D01*
X88704Y-31300D01*
X88627Y-31285D01*
X88607Y-31247D01*
X88628Y-31209D01*
X88698Y-31204D01*
X88785Y-31203D01*
X88843Y-31183D01*
X88857Y-31152D01*
X88835Y-31130D01*
X88754Y-31104D01*
X88654Y-31104D01*
X88569Y-31128D01*
X88540Y-31150D01*
X88510Y-31217D01*
X88486Y-31321D01*
X88474Y-31433D01*
X88478Y-31523D01*
X88483Y-31544D01*
X88527Y-31577D01*
X88611Y-31593D01*
X88711Y-31593D01*
X88802Y-31575D01*
X88855Y-31546D01*
X88899Y-31467D01*
X88899Y-32533D01*
X88407Y-32533D01*
X88407Y-31353D01*
X88407Y-31106D01*
X88407Y-30588D01*
X88407Y-30342D01*
X88241Y-30338D01*
X88131Y-30344D01*
X88061Y-30376D01*
X88023Y-30444D01*
X88008Y-30561D01*
X88007Y-30648D01*
X88011Y-30759D01*
X88026Y-30817D01*
X88056Y-30833D01*
X88057Y-30833D01*
X88089Y-30814D01*
X88104Y-30750D01*
X88107Y-30675D01*
X88117Y-30539D01*
X88147Y-30462D01*
X88202Y-30436D01*
X88227Y-30439D01*
X88264Y-30458D01*
X88286Y-30508D01*
X88298Y-30605D01*
X88300Y-30642D01*
X88311Y-30758D01*
X88332Y-30819D01*
X88358Y-30833D01*
X88384Y-30819D01*
X88399Y-30767D01*
X88406Y-30667D01*
X88407Y-30588D01*
X88407Y-31106D01*
X88240Y-31105D01*
X88145Y-31108D01*
X88085Y-31119D01*
X88074Y-31127D01*
X88104Y-31187D01*
X88177Y-31216D01*
X88190Y-31217D01*
X88228Y-31225D01*
X88250Y-31261D01*
X88262Y-31340D01*
X88266Y-31408D01*
X88275Y-31518D01*
X88291Y-31576D01*
X88320Y-31598D01*
X88341Y-31600D01*
X88375Y-31593D01*
X88394Y-31565D01*
X88404Y-31501D01*
X88406Y-31387D01*
X88407Y-31353D01*
X88407Y-32533D01*
X88072Y-32533D01*
X88072Y-31307D01*
X88040Y-31207D01*
X87978Y-31134D01*
X87893Y-31106D01*
X87869Y-31108D01*
X87804Y-31111D01*
X87778Y-31083D01*
X87773Y-31011D01*
X87761Y-30927D01*
X87733Y-30907D01*
X87733Y-30733D01*
X87721Y-30693D01*
X87671Y-30680D01*
X87607Y-30699D01*
X87529Y-30722D01*
X87465Y-30710D01*
X87440Y-30668D01*
X87468Y-30640D01*
X87509Y-30633D01*
X87622Y-30610D01*
X87690Y-30544D01*
X87707Y-30469D01*
X87689Y-30389D01*
X87654Y-30353D01*
X87559Y-30335D01*
X87454Y-30340D01*
X87377Y-30363D01*
X87344Y-30403D01*
X87365Y-30434D01*
X87429Y-30448D01*
X87490Y-30443D01*
X87576Y-30439D01*
X87605Y-30457D01*
X87578Y-30487D01*
X87497Y-30519D01*
X87482Y-30523D01*
X87396Y-30551D01*
X87357Y-30595D01*
X87345Y-30649D01*
X87362Y-30742D01*
X87425Y-30806D01*
X87517Y-30835D01*
X87620Y-30823D01*
X87692Y-30785D01*
X87733Y-30733D01*
X87733Y-30907D01*
X87723Y-30900D01*
X87700Y-30911D01*
X87685Y-30950D01*
X87677Y-31029D01*
X87674Y-31159D01*
X87673Y-31246D01*
X87673Y-31591D01*
X87822Y-31594D01*
X87927Y-31588D01*
X87992Y-31559D01*
X88022Y-31525D01*
X88068Y-31418D01*
X88072Y-31307D01*
X88072Y-32533D01*
X87595Y-32533D01*
X87595Y-31112D01*
X87594Y-31110D01*
X87549Y-31100D01*
X87501Y-31141D01*
X87465Y-31221D01*
X87459Y-31247D01*
X87434Y-31337D01*
X87407Y-31360D01*
X87377Y-31317D01*
X87354Y-31242D01*
X87316Y-31142D01*
X87273Y-31109D01*
X87273Y-30584D01*
X87254Y-30449D01*
X87195Y-30366D01*
X87094Y-30334D01*
X87073Y-30333D01*
X86965Y-30357D01*
X86899Y-30431D01*
X86874Y-30557D01*
X86873Y-30584D01*
X86897Y-30711D01*
X86962Y-30798D01*
X87061Y-30833D01*
X87073Y-30833D01*
X87139Y-30815D01*
X87199Y-30781D01*
X87250Y-30727D01*
X87271Y-30645D01*
X87273Y-30584D01*
X87273Y-31109D01*
X87271Y-31108D01*
X87223Y-31139D01*
X87175Y-31234D01*
X87167Y-31257D01*
X87116Y-31417D01*
X87074Y-31258D01*
X87037Y-31153D01*
X86996Y-31105D01*
X86973Y-31100D01*
X86942Y-31104D01*
X86931Y-31126D01*
X86940Y-31180D01*
X86969Y-31280D01*
X86977Y-31308D01*
X87020Y-31445D01*
X87048Y-31531D01*
X87069Y-31577D01*
X87088Y-31596D01*
X87111Y-31600D01*
X87120Y-31600D01*
X87161Y-31569D01*
X87201Y-31484D01*
X87215Y-31442D01*
X87260Y-31283D01*
X87311Y-31433D01*
X87357Y-31542D01*
X87400Y-31588D01*
X87444Y-31570D01*
X87491Y-31487D01*
X87536Y-31365D01*
X87570Y-31249D01*
X87591Y-31159D01*
X87595Y-31112D01*
X87595Y-32533D01*
X86900Y-32533D01*
X86900Y-31493D01*
X86900Y-31405D01*
X86866Y-31340D01*
X86807Y-31312D01*
X86719Y-31300D01*
X86718Y-31300D01*
X86644Y-31293D01*
X86624Y-31267D01*
X86629Y-31248D01*
X86675Y-31209D01*
X86753Y-31206D01*
X86830Y-31204D01*
X86856Y-31172D01*
X86857Y-31167D01*
X86828Y-31128D01*
X86807Y-31122D01*
X86807Y-30517D01*
X86804Y-30411D01*
X86791Y-30355D01*
X86763Y-30335D01*
X86740Y-30333D01*
X86701Y-30341D01*
X86681Y-30376D01*
X86674Y-30452D01*
X86673Y-30517D01*
X86671Y-30621D01*
X86660Y-30676D01*
X86631Y-30697D01*
X86590Y-30700D01*
X86542Y-30695D01*
X86517Y-30670D01*
X86508Y-30608D01*
X86507Y-30517D01*
X86504Y-30411D01*
X86491Y-30355D01*
X86463Y-30335D01*
X86440Y-30333D01*
X86404Y-30340D01*
X86384Y-30369D01*
X86375Y-30434D01*
X86373Y-30551D01*
X86373Y-30561D01*
X86376Y-30678D01*
X86382Y-30766D01*
X86391Y-30807D01*
X86451Y-30828D01*
X86545Y-30828D01*
X86645Y-30810D01*
X86725Y-30778D01*
X86742Y-30764D01*
X86784Y-30699D01*
X86804Y-30602D01*
X86807Y-30517D01*
X86807Y-31122D01*
X86740Y-31107D01*
X86724Y-31106D01*
X86621Y-31111D01*
X86554Y-31152D01*
X86519Y-31238D01*
X86507Y-31379D01*
X86507Y-31402D01*
X86507Y-31591D01*
X86663Y-31595D01*
X86766Y-31589D01*
X86844Y-31572D01*
X86863Y-31561D01*
X86900Y-31493D01*
X86900Y-32533D01*
X86407Y-32533D01*
X86407Y-31352D01*
X86407Y-31105D01*
X86309Y-31108D01*
X86309Y-30340D01*
X86150Y-30345D01*
X86050Y-30357D01*
X86002Y-30380D01*
X86010Y-30408D01*
X86079Y-30434D01*
X86080Y-30435D01*
X86124Y-30453D01*
X86149Y-30492D01*
X86162Y-30571D01*
X86167Y-30645D01*
X86175Y-30755D01*
X86191Y-30811D01*
X86218Y-30828D01*
X86233Y-30827D01*
X86264Y-30808D01*
X86284Y-30759D01*
X86295Y-30664D01*
X86300Y-30578D01*
X86309Y-30340D01*
X86309Y-31108D01*
X86248Y-31111D01*
X86147Y-31123D01*
X86098Y-31146D01*
X86106Y-31173D01*
X86175Y-31197D01*
X86192Y-31200D01*
X86247Y-31214D01*
X86278Y-31243D01*
X86292Y-31304D01*
X86300Y-31408D01*
X86311Y-31525D01*
X86332Y-31585D01*
X86358Y-31600D01*
X86384Y-31585D01*
X86399Y-31534D01*
X86406Y-31434D01*
X86407Y-31352D01*
X86407Y-32533D01*
X86073Y-32533D01*
X86073Y-31356D01*
X86060Y-31244D01*
X86018Y-31161D01*
X85975Y-31134D01*
X85975Y-30557D01*
X85948Y-30455D01*
X85884Y-30375D01*
X85789Y-30335D01*
X85763Y-30334D01*
X85673Y-30343D01*
X85611Y-30363D01*
X85579Y-30403D01*
X85600Y-30436D01*
X85661Y-30450D01*
X85705Y-30445D01*
X85794Y-30453D01*
X85847Y-30510D01*
X85855Y-30605D01*
X85850Y-30631D01*
X85826Y-30682D01*
X85778Y-30696D01*
X85719Y-30689D01*
X85629Y-30688D01*
X85584Y-30714D01*
X85592Y-30758D01*
X85624Y-30788D01*
X85729Y-30830D01*
X85835Y-30806D01*
X85896Y-30761D01*
X85959Y-30665D01*
X85975Y-30557D01*
X85975Y-31134D01*
X85932Y-31107D01*
X85836Y-31105D01*
X85748Y-31148D01*
X85689Y-31227D01*
X85673Y-31305D01*
X85678Y-31363D01*
X85704Y-31391D01*
X85768Y-31399D01*
X85827Y-31400D01*
X85918Y-31402D01*
X85955Y-31414D01*
X85948Y-31440D01*
X85939Y-31451D01*
X85868Y-31488D01*
X85804Y-31483D01*
X85727Y-31480D01*
X85690Y-31504D01*
X85703Y-31543D01*
X85731Y-31563D01*
X85842Y-31597D01*
X85954Y-31580D01*
X86012Y-31545D01*
X86057Y-31466D01*
X86073Y-31356D01*
X86073Y-32533D01*
X85539Y-32533D01*
X85539Y-30558D01*
X85517Y-30447D01*
X85485Y-30394D01*
X85400Y-30345D01*
X85297Y-30338D01*
X85205Y-30374D01*
X85192Y-30386D01*
X85153Y-30457D01*
X85140Y-30536D01*
X85144Y-30595D01*
X85169Y-30624D01*
X85233Y-30633D01*
X85294Y-30633D01*
X85385Y-30636D01*
X85421Y-30647D01*
X85414Y-30673D01*
X85405Y-30685D01*
X85335Y-30721D01*
X85271Y-30716D01*
X85194Y-30713D01*
X85157Y-30737D01*
X85170Y-30776D01*
X85197Y-30797D01*
X85313Y-30830D01*
X85423Y-30804D01*
X85473Y-30767D01*
X85524Y-30675D01*
X85539Y-30558D01*
X85539Y-32533D01*
X81438Y-32533D01*
X81438Y-29975D01*
X81431Y-29937D01*
X81412Y-29842D01*
X81382Y-29700D01*
X81343Y-29519D01*
X81298Y-29307D01*
X81248Y-29074D01*
X81246Y-29067D01*
X81055Y-28183D01*
X80706Y-28173D01*
X80542Y-28171D01*
X80387Y-28173D01*
X80262Y-28179D01*
X80213Y-28184D01*
X80056Y-28234D01*
X79941Y-28324D01*
X79870Y-28442D01*
X79845Y-28575D01*
X79867Y-28710D01*
X79938Y-28836D01*
X80059Y-28938D01*
X80112Y-28965D01*
X80249Y-29027D01*
X80145Y-29081D01*
X80025Y-29167D01*
X79960Y-29280D01*
X79945Y-29430D01*
X79948Y-29470D01*
X79996Y-29653D01*
X80099Y-29801D01*
X80254Y-29910D01*
X80418Y-29968D01*
X80490Y-29978D01*
X80605Y-29986D01*
X80748Y-29992D01*
X80906Y-29995D01*
X81065Y-29996D01*
X81212Y-29995D01*
X81332Y-29990D01*
X81412Y-29984D01*
X81438Y-29975D01*
X81438Y-32533D01*
X79725Y-32533D01*
X79725Y-29450D01*
X79697Y-29243D01*
X79620Y-29044D01*
X79502Y-28864D01*
X79356Y-28742D01*
X79175Y-28672D01*
X78953Y-28650D01*
X78811Y-28654D01*
X78714Y-28671D01*
X78642Y-28703D01*
X78619Y-28719D01*
X78480Y-28858D01*
X78399Y-29025D01*
X78377Y-29222D01*
X78413Y-29450D01*
X78423Y-29487D01*
X78501Y-29665D01*
X78622Y-29822D01*
X78768Y-29941D01*
X78875Y-29992D01*
X79003Y-30017D01*
X79155Y-30021D01*
X79307Y-30006D01*
X79436Y-29975D01*
X79502Y-29942D01*
X79627Y-29809D01*
X79701Y-29642D01*
X79725Y-29450D01*
X79725Y-32533D01*
X78757Y-32533D01*
X78225Y-32533D01*
X78225Y-29450D01*
X78197Y-29243D01*
X78120Y-29044D01*
X78002Y-28864D01*
X77856Y-28742D01*
X77675Y-28672D01*
X77453Y-28650D01*
X77311Y-28654D01*
X77214Y-28671D01*
X77142Y-28703D01*
X77119Y-28719D01*
X76980Y-28858D01*
X76899Y-29025D01*
X76877Y-29222D01*
X76913Y-29450D01*
X76923Y-29487D01*
X77001Y-29665D01*
X77122Y-29822D01*
X77268Y-29941D01*
X77375Y-29992D01*
X77503Y-30017D01*
X77655Y-30021D01*
X77807Y-30006D01*
X77936Y-29975D01*
X78002Y-29942D01*
X78127Y-29809D01*
X78201Y-29642D01*
X78225Y-29450D01*
X78225Y-32533D01*
X76797Y-32533D01*
X76797Y-29927D01*
X76795Y-29906D01*
X76776Y-29831D01*
X76759Y-29760D01*
X76739Y-29670D01*
X76602Y-29718D01*
X76432Y-29761D01*
X76298Y-29755D01*
X76238Y-29732D01*
X76178Y-29676D01*
X76183Y-29606D01*
X76253Y-29524D01*
X76350Y-29453D01*
X76476Y-29368D01*
X76555Y-29298D01*
X76600Y-29229D01*
X76624Y-29145D01*
X76629Y-29109D01*
X76616Y-28972D01*
X76549Y-28839D01*
X76441Y-28732D01*
X76389Y-28700D01*
X76317Y-28679D01*
X76206Y-28663D01*
X76074Y-28653D01*
X75941Y-28649D01*
X75825Y-28652D01*
X75744Y-28663D01*
X75721Y-28674D01*
X75713Y-28717D01*
X75718Y-28800D01*
X75723Y-28833D01*
X75744Y-28921D01*
X75771Y-28954D01*
X75800Y-28951D01*
X75929Y-28916D01*
X76053Y-28908D01*
X76150Y-28927D01*
X76184Y-28949D01*
X76228Y-29008D01*
X76229Y-29063D01*
X76181Y-29124D01*
X76079Y-29202D01*
X76048Y-29222D01*
X75943Y-29302D01*
X75857Y-29383D01*
X75812Y-29444D01*
X75783Y-29576D01*
X75807Y-29718D01*
X75878Y-29846D01*
X75883Y-29851D01*
X75999Y-29940D01*
X76160Y-30000D01*
X76347Y-30030D01*
X76544Y-30025D01*
X76683Y-29998D01*
X76768Y-29965D01*
X76797Y-29927D01*
X76797Y-32533D01*
X75537Y-32533D01*
X75537Y-28927D01*
X75527Y-28862D01*
X75512Y-28774D01*
X75507Y-28712D01*
X75476Y-28677D01*
X75394Y-28667D01*
X75323Y-28662D01*
X75286Y-28636D01*
X75267Y-28570D01*
X75259Y-28520D01*
X75242Y-28431D01*
X75212Y-28382D01*
X75149Y-28353D01*
X75080Y-28335D01*
X74973Y-28308D01*
X74884Y-28285D01*
X74860Y-28278D01*
X74831Y-28269D01*
X74814Y-28273D01*
X74810Y-28299D01*
X74818Y-28360D01*
X74840Y-28468D01*
X74862Y-28575D01*
X74870Y-28630D01*
X74853Y-28657D01*
X74794Y-28666D01*
X74727Y-28667D01*
X74633Y-28669D01*
X74591Y-28682D01*
X74584Y-28718D01*
X74592Y-28758D01*
X74619Y-28870D01*
X74646Y-28932D01*
X74689Y-28960D01*
X74763Y-28971D01*
X74799Y-28973D01*
X74955Y-28983D01*
X75018Y-29307D01*
X75050Y-29485D01*
X75063Y-29607D01*
X75056Y-29682D01*
X75025Y-29720D01*
X74970Y-29728D01*
X74923Y-29723D01*
X74847Y-29717D01*
X74813Y-29740D01*
X74813Y-29804D01*
X74836Y-29899D01*
X74886Y-29965D01*
X74981Y-30011D01*
X75103Y-30032D01*
X75231Y-30025D01*
X75340Y-29990D01*
X75417Y-29930D01*
X75463Y-29838D01*
X75477Y-29707D01*
X75463Y-29529D01*
X75437Y-29380D01*
X75405Y-29209D01*
X75385Y-29094D01*
X75379Y-29022D01*
X75388Y-28984D01*
X75411Y-28969D01*
X75450Y-28967D01*
X75461Y-28967D01*
X75520Y-28960D01*
X75537Y-28927D01*
X75537Y-32533D01*
X74553Y-32533D01*
X74553Y-29391D01*
X74509Y-29183D01*
X74458Y-29057D01*
X74359Y-28908D01*
X74227Y-28789D01*
X74073Y-28704D01*
X73908Y-28652D01*
X73743Y-28637D01*
X73589Y-28658D01*
X73457Y-28719D01*
X73358Y-28819D01*
X73319Y-28902D01*
X73300Y-29052D01*
X73342Y-29188D01*
X73439Y-29302D01*
X73585Y-29384D01*
X73632Y-29399D01*
X73735Y-29422D01*
X73870Y-29444D01*
X73965Y-29456D01*
X74094Y-29475D01*
X74160Y-29505D01*
X74167Y-29553D01*
X74119Y-29622D01*
X74087Y-29656D01*
X74026Y-29708D01*
X73963Y-29729D01*
X73870Y-29726D01*
X73839Y-29723D01*
X73716Y-29699D01*
X73602Y-29663D01*
X73570Y-29648D01*
X73500Y-29614D01*
X73475Y-29614D01*
X73480Y-29653D01*
X73485Y-29672D01*
X73502Y-29767D01*
X73506Y-29824D01*
X73537Y-29894D01*
X73620Y-29953D01*
X73739Y-29997D01*
X73880Y-30024D01*
X74029Y-30031D01*
X74170Y-30013D01*
X74249Y-29987D01*
X74393Y-29893D01*
X74493Y-29755D01*
X74547Y-29585D01*
X74553Y-29391D01*
X74553Y-32533D01*
X73240Y-32533D01*
X73240Y-29970D01*
X73233Y-29928D01*
X73215Y-29833D01*
X73187Y-29696D01*
X73153Y-29527D01*
X73123Y-29386D01*
X73084Y-29196D01*
X73051Y-29024D01*
X73025Y-28883D01*
X73010Y-28785D01*
X73007Y-28749D01*
X73002Y-28703D01*
X72979Y-28679D01*
X72921Y-28668D01*
X72812Y-28667D01*
X72807Y-28667D01*
X72607Y-28667D01*
X72606Y-28792D01*
X72606Y-28917D01*
X72542Y-28819D01*
X72430Y-28700D01*
X72292Y-28641D01*
X72228Y-28634D01*
X72170Y-28637D01*
X72146Y-28658D01*
X72145Y-28715D01*
X72155Y-28787D01*
X72176Y-28912D01*
X72199Y-28983D01*
X72232Y-29013D01*
X72286Y-29015D01*
X72325Y-29010D01*
X72403Y-29006D01*
X72467Y-29031D01*
X72544Y-29097D01*
X72553Y-29106D01*
X72603Y-29160D01*
X72642Y-29217D01*
X72675Y-29289D01*
X72707Y-29388D01*
X72742Y-29526D01*
X72784Y-29716D01*
X72789Y-29742D01*
X72844Y-30000D01*
X73042Y-30000D01*
X73147Y-29995D01*
X73219Y-29983D01*
X73240Y-29970D01*
X73240Y-32533D01*
X72138Y-32533D01*
X72138Y-29975D01*
X72131Y-29937D01*
X72112Y-29842D01*
X72082Y-29700D01*
X72043Y-29519D01*
X71998Y-29307D01*
X71948Y-29074D01*
X71946Y-29067D01*
X71755Y-28183D01*
X71406Y-28173D01*
X71242Y-28171D01*
X71087Y-28173D01*
X70962Y-28179D01*
X70913Y-28184D01*
X70756Y-28234D01*
X70641Y-28324D01*
X70570Y-28442D01*
X70545Y-28575D01*
X70567Y-28710D01*
X70638Y-28836D01*
X70759Y-28938D01*
X70812Y-28965D01*
X70949Y-29027D01*
X70845Y-29081D01*
X70725Y-29167D01*
X70660Y-29280D01*
X70645Y-29430D01*
X70648Y-29470D01*
X70696Y-29653D01*
X70799Y-29801D01*
X70954Y-29910D01*
X71118Y-29968D01*
X71190Y-29978D01*
X71305Y-29986D01*
X71448Y-29992D01*
X71606Y-29995D01*
X71765Y-29996D01*
X71912Y-29995D01*
X72032Y-29990D01*
X72112Y-29984D01*
X72138Y-29975D01*
X72138Y-32533D01*
X70425Y-32533D01*
X70425Y-29450D01*
X70397Y-29243D01*
X70320Y-29044D01*
X70202Y-28864D01*
X70056Y-28742D01*
X69875Y-28672D01*
X69653Y-28650D01*
X69511Y-28654D01*
X69414Y-28671D01*
X69342Y-28703D01*
X69319Y-28719D01*
X69180Y-28858D01*
X69099Y-29025D01*
X69077Y-29222D01*
X69113Y-29450D01*
X69123Y-29487D01*
X69201Y-29665D01*
X69322Y-29822D01*
X69468Y-29941D01*
X69575Y-29992D01*
X69703Y-30017D01*
X69855Y-30021D01*
X70007Y-30006D01*
X70136Y-29975D01*
X70202Y-29942D01*
X70327Y-29809D01*
X70401Y-29642D01*
X70425Y-29450D01*
X70425Y-32533D01*
X68903Y-32533D01*
X68903Y-28927D01*
X68894Y-28862D01*
X68879Y-28774D01*
X68873Y-28712D01*
X68842Y-28677D01*
X68760Y-28667D01*
X68690Y-28662D01*
X68653Y-28636D01*
X68633Y-28570D01*
X68625Y-28520D01*
X68608Y-28431D01*
X68578Y-28382D01*
X68516Y-28353D01*
X68447Y-28335D01*
X68339Y-28308D01*
X68251Y-28285D01*
X68227Y-28278D01*
X68197Y-28269D01*
X68180Y-28273D01*
X68176Y-28299D01*
X68185Y-28360D01*
X68207Y-28468D01*
X68229Y-28575D01*
X68237Y-28630D01*
X68219Y-28657D01*
X68161Y-28666D01*
X68093Y-28667D01*
X68000Y-28669D01*
X67958Y-28682D01*
X67951Y-28718D01*
X67959Y-28758D01*
X67986Y-28870D01*
X68013Y-28932D01*
X68056Y-28960D01*
X68130Y-28971D01*
X68166Y-28973D01*
X68322Y-28983D01*
X68385Y-29307D01*
X68417Y-29485D01*
X68430Y-29607D01*
X68422Y-29682D01*
X68392Y-29720D01*
X68337Y-29728D01*
X68289Y-29723D01*
X68214Y-29717D01*
X68180Y-29740D01*
X68180Y-29804D01*
X68203Y-29899D01*
X68253Y-29965D01*
X68348Y-30011D01*
X68469Y-30032D01*
X68597Y-30025D01*
X68707Y-29990D01*
X68784Y-29930D01*
X68829Y-29838D01*
X68844Y-29707D01*
X68829Y-29529D01*
X68804Y-29380D01*
X68771Y-29209D01*
X68752Y-29094D01*
X68746Y-29022D01*
X68754Y-28984D01*
X68778Y-28969D01*
X68817Y-28967D01*
X68827Y-28967D01*
X68886Y-28960D01*
X68903Y-28927D01*
X68903Y-32533D01*
X66407Y-32533D01*
X66407Y-29150D01*
X66407Y-25767D01*
X78757Y-25767D01*
X91107Y-25767D01*
X91107Y-29150D01*
X91107Y-32533D01*
X91107Y-32533D01*
X91107Y-32533D01*
G37*
G36*
X85965Y-31258D02*
X85948Y-31290D01*
X85877Y-31300D01*
X85807Y-31292D01*
X85791Y-31264D01*
X85795Y-31248D01*
X85838Y-31212D01*
X85903Y-31210D01*
X85956Y-31241D01*
X85965Y-31258D01*
X85965Y-31258D01*
X85965Y-31258D01*
G37*
G36*
X86798Y-31442D02*
X86757Y-31482D01*
X86692Y-31492D01*
X86638Y-31468D01*
X86628Y-31452D01*
X86630Y-31415D01*
X86680Y-31401D01*
X86710Y-31400D01*
X86784Y-31411D01*
X86798Y-31442D01*
X86798Y-31442D01*
X86798Y-31442D01*
G37*
G36*
X87923Y-31349D02*
X87915Y-31442D01*
X87886Y-31486D01*
X87865Y-31494D01*
X87806Y-31480D01*
X87787Y-31455D01*
X87777Y-31386D01*
X87779Y-31311D01*
X87802Y-31238D01*
X87856Y-31217D01*
X87857Y-31217D01*
X87900Y-31228D01*
X87919Y-31273D01*
X87923Y-31349D01*
X87923Y-31349D01*
X87923Y-31349D01*
G37*
G36*
X88773Y-31450D02*
X88747Y-31488D01*
X88689Y-31500D01*
X88633Y-31482D01*
X88629Y-31478D01*
X88607Y-31431D01*
X88646Y-31404D01*
X88690Y-31400D01*
X88757Y-31417D01*
X88773Y-31450D01*
X88773Y-31450D01*
X88773Y-31450D01*
G37*
G36*
X89233Y-30571D02*
X89225Y-30668D01*
X89185Y-30716D01*
X89121Y-30708D01*
X89109Y-30702D01*
X89083Y-30652D01*
X89079Y-30566D01*
X89079Y-30563D01*
X89096Y-30483D01*
X89135Y-30452D01*
X89157Y-30450D01*
X89204Y-30465D01*
X89227Y-30521D01*
X89233Y-30571D01*
X89233Y-30571D01*
X89233Y-30571D01*
G37*
G36*
X85432Y-30492D02*
X85414Y-30523D01*
X85340Y-30533D01*
X85263Y-30522D01*
X85248Y-30492D01*
X85288Y-30459D01*
X85340Y-30450D01*
X85406Y-30466D01*
X85432Y-30492D01*
X85432Y-30492D01*
X85432Y-30492D01*
G37*
G36*
X87157Y-30567D02*
X87148Y-30648D01*
X87116Y-30685D01*
X87081Y-30694D01*
X87012Y-30683D01*
X86987Y-30655D01*
X86976Y-30582D01*
X86979Y-30527D01*
X87007Y-30466D01*
X87073Y-30450D01*
X87130Y-30459D01*
X87153Y-30498D01*
X87157Y-30567D01*
X87157Y-30567D01*
X87157Y-30567D01*
G37*
G36*
X88773Y-30481D02*
X88744Y-30523D01*
X88687Y-30533D01*
X88624Y-30520D01*
X88615Y-30492D01*
X88652Y-30452D01*
X88710Y-30438D01*
X88759Y-30452D01*
X88773Y-30481D01*
X88773Y-30481D01*
X88773Y-30481D01*
G37*
G36*
X89735Y-30598D02*
X89728Y-30650D01*
X89683Y-30690D01*
X89617Y-30697D01*
X89562Y-30668D01*
X89553Y-30652D01*
X89540Y-30558D01*
X89567Y-30480D01*
X89627Y-30440D01*
X89630Y-30439D01*
X89692Y-30449D01*
X89724Y-30510D01*
X89726Y-30514D01*
X89735Y-30598D01*
X89735Y-30598D01*
X89735Y-30598D01*
G37*
G36*
X70007Y-29455D02*
X69986Y-29598D01*
X69931Y-29692D01*
X69847Y-29733D01*
X69743Y-29717D01*
X69680Y-29681D01*
X69592Y-29590D01*
X69529Y-29470D01*
X69493Y-29334D01*
X69485Y-29199D01*
X69507Y-29078D01*
X69558Y-28988D01*
X69630Y-28945D01*
X69739Y-28949D01*
X69839Y-29009D01*
X69922Y-29115D01*
X69980Y-29256D01*
X70006Y-29423D01*
X70007Y-29455D01*
X70007Y-29455D01*
X70007Y-29455D01*
G37*
G36*
X74121Y-29202D02*
X74103Y-29228D01*
X74034Y-29232D01*
X74030Y-29232D01*
X73920Y-29217D01*
X73818Y-29185D01*
X73729Y-29124D01*
X73686Y-29045D01*
X73695Y-28968D01*
X73708Y-28948D01*
X73781Y-28905D01*
X73874Y-28911D01*
X73969Y-28959D01*
X74052Y-29041D01*
X74101Y-29133D01*
X74121Y-29202D01*
X74121Y-29202D01*
X74121Y-29202D01*
G37*
G36*
X77807Y-29455D02*
X77786Y-29598D01*
X77731Y-29692D01*
X77647Y-29733D01*
X77543Y-29717D01*
X77480Y-29681D01*
X77392Y-29590D01*
X77329Y-29470D01*
X77293Y-29334D01*
X77285Y-29199D01*
X77307Y-29078D01*
X77358Y-28988D01*
X77430Y-28945D01*
X77539Y-28949D01*
X77639Y-29009D01*
X77722Y-29115D01*
X77780Y-29256D01*
X77806Y-29423D01*
X77807Y-29455D01*
X77807Y-29455D01*
X77807Y-29455D01*
G37*
G36*
X79307Y-29455D02*
X79286Y-29598D01*
X79231Y-29692D01*
X79147Y-29733D01*
X79043Y-29717D01*
X78980Y-29681D01*
X78892Y-29590D01*
X78829Y-29470D01*
X78793Y-29334D01*
X78785Y-29199D01*
X78807Y-29078D01*
X78858Y-28988D01*
X78930Y-28945D01*
X79039Y-28949D01*
X79139Y-29009D01*
X79222Y-29115D01*
X79280Y-29256D01*
X79306Y-29423D01*
X79307Y-29455D01*
X79307Y-29455D01*
X79307Y-29455D01*
G37*
G36*
X71660Y-29700D02*
X71492Y-29698D01*
X71376Y-29690D01*
X71275Y-29673D01*
X71243Y-29663D01*
X71141Y-29594D01*
X71084Y-29495D01*
X71077Y-29386D01*
X71125Y-29283D01*
X71140Y-29267D01*
X71207Y-29222D01*
X71307Y-29202D01*
X71383Y-29200D01*
X71559Y-29200D01*
X71609Y-29450D01*
X71660Y-29700D01*
X71660Y-29700D01*
X71660Y-29700D01*
G37*
G36*
X71470Y-28844D02*
X71451Y-28883D01*
X71402Y-28897D01*
X71332Y-28898D01*
X71223Y-28889D01*
X71133Y-28872D01*
X71117Y-28866D01*
X71043Y-28814D01*
X71009Y-28771D01*
X70975Y-28657D01*
X71002Y-28565D01*
X71083Y-28500D01*
X71213Y-28468D01*
X71261Y-28467D01*
X71401Y-28467D01*
X71437Y-28635D01*
X71463Y-28765D01*
X71470Y-28844D01*
X71470Y-28844D01*
X71470Y-28844D01*
G37*
G36*
X80960Y-29700D02*
X80792Y-29698D01*
X80676Y-29690D01*
X80575Y-29673D01*
X80543Y-29663D01*
X80441Y-29594D01*
X80384Y-29495D01*
X80377Y-29386D01*
X80425Y-29283D01*
X80440Y-29267D01*
X80507Y-29222D01*
X80607Y-29202D01*
X80683Y-29200D01*
X80859Y-29200D01*
X80909Y-29450D01*
X80960Y-29700D01*
X80960Y-29700D01*
X80960Y-29700D01*
G37*
G36*
X80770Y-28844D02*
X80751Y-28883D01*
X80702Y-28897D01*
X80632Y-28898D01*
X80523Y-28889D01*
X80433Y-28872D01*
X80417Y-28866D01*
X80343Y-28814D01*
X80309Y-28771D01*
X80275Y-28657D01*
X80302Y-28565D01*
X80383Y-28500D01*
X80513Y-28468D01*
X80561Y-28467D01*
X80701Y-28467D01*
X80737Y-28635D01*
X80763Y-28765D01*
X80770Y-28844D01*
X80770Y-28844D01*
X80770Y-28844D01*
G37*
G54D10*
X69527Y-62618D02*
X69301Y-62834D01*
X69448Y-60787D02*
X69527Y-60787D01*
X69448Y-60787D02*
X67874Y-60787D01*
X67874Y-60787D02*
X67874Y-62834D01*
X67874Y-62834D02*
X69299Y-62834D01*
X69527Y-62618D02*
X69527Y-60787D01*
X76023Y-62618D02*
X75797Y-62834D01*
X75944Y-60787D02*
X76023Y-60787D01*
X75944Y-60787D02*
X74370Y-60787D01*
X74370Y-60787D02*
X74370Y-62834D01*
X74370Y-62834D02*
X75795Y-62834D01*
X76023Y-62618D02*
X76023Y-60787D01*
X79566Y-62618D02*
X79340Y-62834D01*
X79488Y-60787D02*
X79566Y-60787D01*
X79488Y-60787D02*
X77913Y-60787D01*
X77913Y-60787D02*
X77913Y-62834D01*
X77913Y-62834D02*
X79338Y-62834D01*
X79566Y-62618D02*
X79566Y-60787D01*
X83110Y-62618D02*
X82883Y-62834D01*
X83031Y-60787D02*
X83110Y-60787D01*
X83031Y-60787D02*
X81456Y-60787D01*
X81456Y-60787D02*
X81456Y-62834D01*
X81456Y-62834D02*
X82881Y-62834D01*
X83110Y-62618D02*
X83110Y-60787D01*
X89606Y-62618D02*
X89379Y-62834D01*
X89527Y-60787D02*
X89606Y-60787D01*
X89527Y-60787D02*
X87952Y-60787D01*
X87952Y-60787D02*
X87952Y-62834D01*
X87952Y-62834D02*
X89377Y-62834D01*
X89606Y-62618D02*
X89606Y-60787D01*
G54D13*
X78872Y-34816D02*
X78872Y-34540D01*
X78624Y-34790D02*
X78636Y-34803D01*
X78669Y-34816D01*
X78692Y-34816D01*
X78726Y-34803D01*
X78748Y-34777D01*
X78759Y-34750D01*
X78770Y-34698D01*
X78770Y-34658D01*
X78759Y-34606D01*
X78748Y-34580D01*
X78726Y-34553D01*
X78692Y-34540D01*
X78669Y-34540D01*
X78636Y-34553D01*
X78624Y-34566D01*
X78400Y-34816D02*
X78534Y-34816D01*
X78467Y-34816D02*
X78467Y-34540D01*
X78490Y-34580D01*
X78512Y-34606D01*
X78534Y-34619D01*
G54D12*
X79861Y-35494D02*
X79861Y-35100D01*
X79767Y-35100D01*
X79711Y-35119D01*
X79673Y-35156D01*
X79654Y-35194D01*
X79636Y-35269D01*
X79636Y-35325D01*
X79654Y-35400D01*
X79673Y-35438D01*
X79711Y-35475D01*
X79767Y-35494D01*
X79861Y-35494D01*
X79242Y-35494D02*
X79373Y-35306D01*
X79467Y-35494D02*
X79467Y-35100D01*
X79317Y-35100D01*
X79279Y-35119D01*
X79260Y-35137D01*
X79242Y-35175D01*
X79242Y-35231D01*
X79260Y-35269D01*
X79279Y-35288D01*
X79317Y-35306D01*
X79467Y-35306D01*
X79129Y-35100D02*
X78998Y-35494D01*
X78866Y-35100D01*
X78679Y-35269D02*
X78716Y-35250D01*
X78735Y-35231D01*
X78754Y-35194D01*
X78754Y-35175D01*
X78735Y-35137D01*
X78716Y-35119D01*
X78679Y-35100D01*
X78604Y-35100D01*
X78566Y-35119D01*
X78547Y-35137D01*
X78529Y-35175D01*
X78529Y-35194D01*
X78547Y-35231D01*
X78566Y-35250D01*
X78604Y-35269D01*
X78679Y-35269D01*
X78716Y-35288D01*
X78735Y-35306D01*
X78754Y-35344D01*
X78754Y-35419D01*
X78735Y-35456D01*
X78716Y-35475D01*
X78679Y-35494D01*
X78604Y-35494D01*
X78566Y-35475D01*
X78547Y-35456D01*
X78529Y-35419D01*
X78529Y-35344D01*
X78547Y-35306D01*
X78566Y-35288D01*
X78604Y-35269D01*
X78304Y-35269D02*
X78341Y-35250D01*
X78360Y-35231D01*
X78379Y-35194D01*
X78379Y-35175D01*
X78360Y-35137D01*
X78341Y-35119D01*
X78304Y-35100D01*
X78228Y-35100D01*
X78191Y-35119D01*
X78172Y-35137D01*
X78153Y-35175D01*
X78153Y-35194D01*
X78172Y-35231D01*
X78191Y-35250D01*
X78228Y-35269D01*
X78304Y-35269D01*
X78341Y-35288D01*
X78360Y-35306D01*
X78379Y-35344D01*
X78379Y-35419D01*
X78360Y-35456D01*
X78341Y-35475D01*
X78304Y-35494D01*
X78228Y-35494D01*
X78191Y-35475D01*
X78172Y-35456D01*
X78153Y-35419D01*
X78153Y-35344D01*
X78172Y-35306D01*
X78191Y-35288D01*
X78228Y-35269D01*
X78022Y-35100D02*
X77778Y-35100D01*
X77910Y-35250D01*
X77853Y-35250D01*
X77816Y-35269D01*
X77797Y-35288D01*
X77778Y-35325D01*
X77778Y-35419D01*
X77797Y-35456D01*
X77816Y-35475D01*
X77853Y-35494D01*
X77966Y-35494D01*
X78003Y-35475D01*
X78022Y-35456D01*
X77647Y-35100D02*
X77403Y-35100D01*
X77534Y-35250D01*
X77478Y-35250D01*
X77440Y-35269D01*
X77422Y-35288D01*
X77403Y-35325D01*
X77403Y-35419D01*
X77422Y-35456D01*
X77440Y-35475D01*
X77478Y-35494D01*
X77591Y-35494D01*
X77628Y-35475D01*
X77647Y-35456D01*
G54D11*
X75793Y-39918D02*
X75810Y-39904D01*
X75826Y-39861D01*
X75826Y-39832D01*
X75810Y-39789D01*
X75776Y-39761D01*
X75743Y-39747D01*
X75676Y-39732D01*
X75626Y-39732D01*
X75560Y-39747D01*
X75526Y-39761D01*
X75493Y-39789D01*
X75476Y-39832D01*
X75476Y-39861D01*
X75493Y-39904D01*
X75510Y-39918D01*
X75476Y-40175D02*
X75476Y-40118D01*
X75493Y-40089D01*
X75510Y-40075D01*
X75560Y-40047D01*
X75626Y-40032D01*
X75760Y-40032D01*
X75793Y-40047D01*
X75810Y-40061D01*
X75826Y-40089D01*
X75826Y-40147D01*
X75810Y-40175D01*
X75793Y-40189D01*
X75760Y-40204D01*
X75676Y-40204D01*
X75643Y-40189D01*
X75626Y-40175D01*
X75610Y-40147D01*
X75610Y-40089D01*
X75626Y-40061D01*
X75643Y-40047D01*
X75676Y-40032D01*
X76325Y-39385D02*
X76558Y-39385D01*
X76192Y-39314D02*
X76442Y-39242D01*
X76442Y-39428D01*
X76525Y-39542D02*
X76542Y-39556D01*
X76558Y-39542D01*
X76542Y-39528D01*
X76525Y-39542D01*
X76558Y-39542D01*
X76208Y-39656D02*
X76208Y-39856D01*
X76558Y-39728D01*
X76325Y-40328D02*
X76558Y-40328D01*
X76325Y-40199D02*
X76508Y-40199D01*
X76542Y-40214D01*
X76558Y-40242D01*
X76558Y-40285D01*
X76542Y-40314D01*
X76525Y-40328D01*
X76375Y-40571D02*
X76375Y-40471D01*
X76558Y-40471D02*
X76208Y-40471D01*
X76208Y-40614D01*
G54D10*
X74293Y-39069D02*
X74084Y-39069D01*
X74189Y-39174D02*
X74189Y-38964D01*
G54D11*
X81990Y-39918D02*
X82006Y-39904D01*
X82023Y-39861D01*
X82023Y-39832D01*
X82006Y-39789D01*
X81973Y-39761D01*
X81940Y-39747D01*
X81873Y-39732D01*
X81823Y-39732D01*
X81756Y-39747D01*
X81723Y-39761D01*
X81690Y-39789D01*
X81673Y-39832D01*
X81673Y-39861D01*
X81690Y-39904D01*
X81706Y-39918D01*
X81673Y-40018D02*
X81673Y-40218D01*
X82023Y-40089D01*
X82546Y-39424D02*
X82779Y-39424D01*
X82412Y-39353D02*
X82662Y-39282D01*
X82662Y-39467D01*
X82746Y-39582D02*
X82762Y-39596D01*
X82779Y-39582D01*
X82762Y-39567D01*
X82746Y-39582D01*
X82779Y-39582D01*
X82429Y-39696D02*
X82429Y-39896D01*
X82779Y-39767D01*
X82546Y-40367D02*
X82779Y-40367D01*
X82546Y-40239D02*
X82729Y-40239D01*
X82762Y-40253D01*
X82779Y-40282D01*
X82779Y-40324D01*
X82762Y-40353D01*
X82746Y-40367D01*
X82596Y-40610D02*
X82596Y-40510D01*
X82779Y-40510D02*
X82429Y-40510D01*
X82429Y-40653D01*
G54D10*
X80490Y-39069D02*
X80280Y-39069D01*
X80385Y-39174D02*
X80385Y-38964D01*
G54D11*
X77215Y-50024D02*
X77229Y-50043D01*
X77272Y-50062D01*
X77301Y-50062D01*
X77343Y-50043D01*
X77372Y-50005D01*
X77386Y-49966D01*
X77401Y-49890D01*
X77401Y-49833D01*
X77386Y-49757D01*
X77372Y-49719D01*
X77343Y-49681D01*
X77301Y-49662D01*
X77272Y-49662D01*
X77229Y-49681D01*
X77215Y-49700D01*
X77043Y-49833D02*
X77072Y-49814D01*
X77086Y-49795D01*
X77101Y-49757D01*
X77101Y-49738D01*
X77086Y-49700D01*
X77072Y-49681D01*
X77043Y-49662D01*
X76986Y-49662D01*
X76958Y-49681D01*
X76943Y-49700D01*
X76929Y-49738D01*
X76929Y-49757D01*
X76943Y-49795D01*
X76958Y-49814D01*
X76986Y-49833D01*
X77043Y-49833D01*
X77072Y-49852D01*
X77086Y-49871D01*
X77101Y-49909D01*
X77101Y-49986D01*
X77086Y-50024D01*
X77072Y-50043D01*
X77043Y-50062D01*
X76986Y-50062D01*
X76958Y-50043D01*
X76943Y-50024D01*
X76929Y-49986D01*
X76929Y-49909D01*
X76943Y-49871D01*
X76958Y-49852D01*
X76986Y-49833D01*
X77658Y-49106D02*
X77643Y-49087D01*
X77615Y-49068D01*
X77543Y-49068D01*
X77515Y-49087D01*
X77501Y-49106D01*
X77486Y-49144D01*
X77486Y-49182D01*
X77501Y-49239D01*
X77672Y-49468D01*
X77486Y-49468D01*
X77372Y-49106D02*
X77358Y-49087D01*
X77329Y-49068D01*
X77258Y-49068D01*
X77229Y-49087D01*
X77215Y-49106D01*
X77201Y-49144D01*
X77201Y-49182D01*
X77215Y-49239D01*
X77386Y-49468D01*
X77201Y-49468D01*
X76943Y-49201D02*
X76943Y-49468D01*
X77072Y-49201D02*
X77072Y-49411D01*
X77058Y-49449D01*
X77029Y-49468D01*
X76986Y-49468D01*
X76958Y-49449D01*
X76943Y-49430D01*
X76701Y-49258D02*
X76801Y-49258D01*
X76801Y-49468D02*
X76801Y-49068D01*
X76658Y-49068D01*
X81688Y-46352D02*
X81703Y-46366D01*
X81746Y-46381D01*
X81774Y-46381D01*
X81817Y-46366D01*
X81846Y-46338D01*
X81860Y-46309D01*
X81874Y-46252D01*
X81874Y-46209D01*
X81860Y-46152D01*
X81846Y-46124D01*
X81817Y-46095D01*
X81774Y-46081D01*
X81746Y-46081D01*
X81703Y-46095D01*
X81688Y-46109D01*
X81403Y-46381D02*
X81574Y-46381D01*
X81488Y-46381D02*
X81488Y-46081D01*
X81517Y-46124D01*
X81546Y-46152D01*
X81574Y-46166D01*
X81117Y-46381D02*
X81288Y-46381D01*
X81203Y-46381D02*
X81203Y-46081D01*
X81231Y-46124D01*
X81260Y-46152D01*
X81288Y-46166D01*
G54D15*
X79786Y-46144D02*
X79795Y-46135D01*
X79805Y-46109D01*
X79805Y-46092D01*
X79795Y-46066D01*
X79776Y-46049D01*
X79757Y-46041D01*
X79719Y-46032D01*
X79691Y-46032D01*
X79652Y-46041D01*
X79633Y-46049D01*
X79614Y-46066D01*
X79605Y-46092D01*
X79605Y-46109D01*
X79614Y-46135D01*
X79624Y-46144D01*
X79805Y-46315D02*
X79805Y-46212D01*
X79805Y-46264D02*
X79605Y-46264D01*
X79633Y-46246D01*
X79652Y-46229D01*
X79662Y-46212D01*
X79605Y-46426D02*
X79605Y-46444D01*
X79614Y-46461D01*
X79624Y-46469D01*
X79643Y-46478D01*
X79681Y-46486D01*
X79729Y-46486D01*
X79767Y-46478D01*
X79786Y-46469D01*
X79795Y-46461D01*
X79805Y-46444D01*
X79805Y-46426D01*
X79795Y-46409D01*
X79786Y-46401D01*
X79767Y-46392D01*
X79729Y-46384D01*
X79681Y-46384D01*
X79643Y-46392D01*
X79624Y-46401D01*
X79614Y-46409D01*
X79605Y-46426D01*
X79155Y-46084D02*
X79155Y-45981D01*
X79155Y-46032D02*
X78955Y-46032D01*
X78983Y-46015D01*
X79002Y-45998D01*
X79012Y-45981D01*
X79022Y-46375D02*
X79155Y-46375D01*
X79022Y-46298D02*
X79126Y-46298D01*
X79145Y-46306D01*
X79155Y-46324D01*
X79155Y-46349D01*
X79145Y-46366D01*
X79136Y-46375D01*
X79050Y-46521D02*
X79050Y-46461D01*
X79155Y-46461D02*
X78955Y-46461D01*
X78955Y-46546D01*
X76046Y-43178D02*
X76055Y-43170D01*
X76065Y-43144D01*
X76065Y-43127D01*
X76055Y-43101D01*
X76036Y-43084D01*
X76017Y-43075D01*
X75979Y-43067D01*
X75950Y-43067D01*
X75912Y-43075D01*
X75893Y-43084D01*
X75874Y-43101D01*
X75865Y-43127D01*
X75865Y-43144D01*
X75874Y-43170D01*
X75884Y-43178D01*
X75884Y-43247D02*
X75874Y-43255D01*
X75865Y-43272D01*
X75865Y-43315D01*
X75874Y-43332D01*
X75884Y-43341D01*
X75903Y-43350D01*
X75922Y-43350D01*
X75950Y-43341D01*
X76065Y-43238D01*
X76065Y-43350D01*
X75214Y-42821D02*
X75205Y-42829D01*
X75195Y-42846D01*
X75195Y-42889D01*
X75205Y-42906D01*
X75214Y-42915D01*
X75234Y-42924D01*
X75253Y-42924D01*
X75281Y-42915D01*
X75395Y-42812D01*
X75395Y-42924D01*
X75376Y-43001D02*
X75386Y-43009D01*
X75395Y-43001D01*
X75386Y-42992D01*
X75376Y-43001D01*
X75395Y-43001D01*
X75214Y-43078D02*
X75205Y-43086D01*
X75195Y-43104D01*
X75195Y-43146D01*
X75205Y-43164D01*
X75214Y-43172D01*
X75234Y-43181D01*
X75253Y-43181D01*
X75281Y-43172D01*
X75395Y-43069D01*
X75395Y-43181D01*
X75262Y-43472D02*
X75395Y-43472D01*
X75262Y-43395D02*
X75367Y-43395D01*
X75386Y-43404D01*
X75395Y-43421D01*
X75395Y-43446D01*
X75386Y-43464D01*
X75376Y-43472D01*
X75291Y-43618D02*
X75291Y-43558D01*
X75395Y-43558D02*
X75195Y-43558D01*
X75195Y-43644D01*
X78703Y-37666D02*
X78713Y-37658D01*
X78722Y-37632D01*
X78722Y-37615D01*
X78713Y-37589D01*
X78694Y-37572D01*
X78675Y-37563D01*
X78636Y-37555D01*
X78608Y-37555D01*
X78570Y-37563D01*
X78551Y-37572D01*
X78532Y-37589D01*
X78522Y-37615D01*
X78522Y-37632D01*
X78532Y-37658D01*
X78541Y-37666D01*
X78722Y-37838D02*
X78722Y-37735D01*
X78722Y-37786D02*
X78522Y-37786D01*
X78551Y-37769D01*
X78570Y-37752D01*
X78579Y-37735D01*
X78072Y-37503D02*
X78072Y-37401D01*
X78072Y-37452D02*
X77872Y-37452D01*
X77901Y-37435D01*
X77920Y-37418D01*
X77929Y-37401D01*
X77872Y-37615D02*
X77872Y-37632D01*
X77882Y-37649D01*
X77891Y-37658D01*
X77910Y-37666D01*
X77948Y-37675D01*
X77996Y-37675D01*
X78034Y-37666D01*
X78053Y-37658D01*
X78063Y-37649D01*
X78072Y-37632D01*
X78072Y-37615D01*
X78063Y-37598D01*
X78053Y-37589D01*
X78034Y-37581D01*
X77996Y-37572D01*
X77948Y-37572D01*
X77910Y-37581D01*
X77891Y-37589D01*
X77882Y-37598D01*
X77872Y-37615D01*
X77939Y-37829D02*
X78072Y-37829D01*
X77939Y-37752D02*
X78044Y-37752D01*
X78063Y-37761D01*
X78072Y-37778D01*
X78072Y-37803D01*
X78063Y-37821D01*
X78053Y-37829D01*
X77967Y-37975D02*
X77967Y-37915D01*
X78072Y-37915D02*
X77872Y-37915D01*
X77872Y-38001D01*
X78113Y-36879D02*
X78122Y-36870D01*
X78132Y-36845D01*
X78132Y-36828D01*
X78122Y-36802D01*
X78103Y-36785D01*
X78084Y-36776D01*
X78046Y-36768D01*
X78017Y-36768D01*
X77979Y-36776D01*
X77960Y-36785D01*
X77941Y-36802D01*
X77932Y-36828D01*
X77932Y-36845D01*
X77941Y-36870D01*
X77951Y-36879D01*
X77998Y-37033D02*
X78132Y-37033D01*
X77922Y-36990D02*
X78065Y-36948D01*
X78065Y-37059D01*
X77301Y-36570D02*
X77291Y-36579D01*
X77282Y-36596D01*
X77282Y-36639D01*
X77291Y-36656D01*
X77301Y-36665D01*
X77320Y-36673D01*
X77339Y-36673D01*
X77367Y-36665D01*
X77482Y-36562D01*
X77482Y-36673D01*
X77463Y-36750D02*
X77472Y-36759D01*
X77482Y-36750D01*
X77472Y-36742D01*
X77463Y-36750D01*
X77482Y-36750D01*
X77301Y-36828D02*
X77291Y-36836D01*
X77282Y-36853D01*
X77282Y-36896D01*
X77291Y-36913D01*
X77301Y-36922D01*
X77320Y-36930D01*
X77339Y-36930D01*
X77367Y-36922D01*
X77482Y-36819D01*
X77482Y-36930D01*
X77348Y-37085D02*
X77482Y-37085D01*
X77348Y-37008D02*
X77453Y-37008D01*
X77472Y-37016D01*
X77482Y-37033D01*
X77482Y-37059D01*
X77472Y-37076D01*
X77463Y-37085D01*
X77377Y-37230D02*
X77377Y-37170D01*
X77482Y-37170D02*
X77282Y-37170D01*
X77282Y-37256D01*
X79294Y-36879D02*
X79303Y-36870D01*
X79313Y-36845D01*
X79313Y-36828D01*
X79303Y-36802D01*
X79284Y-36785D01*
X79265Y-36776D01*
X79227Y-36768D01*
X79198Y-36768D01*
X79160Y-36776D01*
X79141Y-36785D01*
X79122Y-36802D01*
X79113Y-36828D01*
X79113Y-36845D01*
X79122Y-36870D01*
X79132Y-36879D01*
X79113Y-37042D02*
X79113Y-36956D01*
X79208Y-36948D01*
X79198Y-36956D01*
X79189Y-36973D01*
X79189Y-37016D01*
X79198Y-37033D01*
X79208Y-37042D01*
X79227Y-37050D01*
X79275Y-37050D01*
X79294Y-37042D01*
X79303Y-37033D01*
X79313Y-37016D01*
X79313Y-36973D01*
X79303Y-36956D01*
X79294Y-36948D01*
X79763Y-36528D02*
X79763Y-36545D01*
X79772Y-36562D01*
X79782Y-36570D01*
X79801Y-36579D01*
X79839Y-36588D01*
X79887Y-36588D01*
X79925Y-36579D01*
X79944Y-36570D01*
X79953Y-36562D01*
X79963Y-36545D01*
X79963Y-36528D01*
X79953Y-36510D01*
X79944Y-36502D01*
X79925Y-36493D01*
X79887Y-36485D01*
X79839Y-36485D01*
X79801Y-36493D01*
X79782Y-36502D01*
X79772Y-36510D01*
X79763Y-36528D01*
X79944Y-36665D02*
X79953Y-36673D01*
X79963Y-36665D01*
X79953Y-36656D01*
X79944Y-36665D01*
X79963Y-36665D01*
X79763Y-36785D02*
X79763Y-36802D01*
X79772Y-36819D01*
X79782Y-36828D01*
X79801Y-36836D01*
X79839Y-36845D01*
X79887Y-36845D01*
X79925Y-36836D01*
X79944Y-36828D01*
X79953Y-36819D01*
X79963Y-36802D01*
X79963Y-36785D01*
X79953Y-36768D01*
X79944Y-36759D01*
X79925Y-36750D01*
X79887Y-36742D01*
X79839Y-36742D01*
X79801Y-36750D01*
X79782Y-36759D01*
X79772Y-36768D01*
X79763Y-36785D01*
X79963Y-37016D02*
X79963Y-36913D01*
X79963Y-36965D02*
X79763Y-36965D01*
X79791Y-36948D01*
X79810Y-36930D01*
X79820Y-36913D01*
X79829Y-37170D02*
X79963Y-37170D01*
X79829Y-37093D02*
X79934Y-37093D01*
X79953Y-37102D01*
X79963Y-37119D01*
X79963Y-37145D01*
X79953Y-37162D01*
X79944Y-37170D01*
X79858Y-37316D02*
X79858Y-37256D01*
X79963Y-37256D02*
X79763Y-37256D01*
X79763Y-37342D01*
X82246Y-43178D02*
X82256Y-43170D01*
X82265Y-43144D01*
X82265Y-43127D01*
X82256Y-43101D01*
X82237Y-43084D01*
X82218Y-43075D01*
X82180Y-43067D01*
X82151Y-43067D01*
X82113Y-43075D01*
X82094Y-43084D01*
X82075Y-43101D01*
X82065Y-43127D01*
X82065Y-43144D01*
X82075Y-43170D01*
X82085Y-43178D01*
X82065Y-43238D02*
X82065Y-43350D01*
X82142Y-43290D01*
X82142Y-43315D01*
X82151Y-43332D01*
X82161Y-43341D01*
X82180Y-43350D01*
X82227Y-43350D01*
X82246Y-43341D01*
X82256Y-43332D01*
X82265Y-43315D01*
X82265Y-43264D01*
X82256Y-43247D01*
X82246Y-43238D01*
X81615Y-43032D02*
X81615Y-42930D01*
X81615Y-42981D02*
X81415Y-42981D01*
X81444Y-42964D01*
X81463Y-42947D01*
X81473Y-42930D01*
X81482Y-43324D02*
X81615Y-43324D01*
X81482Y-43247D02*
X81587Y-43247D01*
X81606Y-43255D01*
X81615Y-43272D01*
X81615Y-43298D01*
X81606Y-43315D01*
X81596Y-43324D01*
X81511Y-43470D02*
X81511Y-43410D01*
X81615Y-43410D02*
X81415Y-43410D01*
X81415Y-43495D01*
X76407Y-46912D02*
X76416Y-46921D01*
X76442Y-46931D01*
X76459Y-46931D01*
X76485Y-46921D01*
X76502Y-46902D01*
X76510Y-46883D01*
X76519Y-46845D01*
X76519Y-46817D01*
X76510Y-46778D01*
X76502Y-46759D01*
X76485Y-46740D01*
X76459Y-46731D01*
X76442Y-46731D01*
X76416Y-46740D01*
X76407Y-46750D01*
X76322Y-46931D02*
X76287Y-46931D01*
X76270Y-46921D01*
X76262Y-46912D01*
X76245Y-46883D01*
X76236Y-46845D01*
X76236Y-46769D01*
X76245Y-46750D01*
X76253Y-46740D01*
X76270Y-46731D01*
X76305Y-46731D01*
X76322Y-46740D01*
X76330Y-46750D01*
X76339Y-46769D01*
X76339Y-46817D01*
X76330Y-46836D01*
X76322Y-46845D01*
X76305Y-46855D01*
X76270Y-46855D01*
X76253Y-46845D01*
X76245Y-46836D01*
X76236Y-46817D01*
X76750Y-46081D02*
X76639Y-46081D01*
X76699Y-46157D01*
X76673Y-46157D01*
X76656Y-46167D01*
X76647Y-46176D01*
X76639Y-46195D01*
X76639Y-46243D01*
X76647Y-46262D01*
X76656Y-46271D01*
X76673Y-46281D01*
X76725Y-46281D01*
X76742Y-46271D01*
X76750Y-46262D01*
X76553Y-46281D02*
X76519Y-46281D01*
X76502Y-46271D01*
X76493Y-46262D01*
X76476Y-46233D01*
X76467Y-46195D01*
X76467Y-46119D01*
X76476Y-46100D01*
X76485Y-46090D01*
X76502Y-46081D01*
X76536Y-46081D01*
X76553Y-46090D01*
X76562Y-46100D01*
X76570Y-46119D01*
X76570Y-46167D01*
X76562Y-46186D01*
X76553Y-46195D01*
X76536Y-46205D01*
X76502Y-46205D01*
X76485Y-46195D01*
X76476Y-46186D01*
X76467Y-46167D01*
X76253Y-46148D02*
X76253Y-46348D01*
X76253Y-46157D02*
X76236Y-46148D01*
X76202Y-46148D01*
X76185Y-46157D01*
X76176Y-46167D01*
X76167Y-46186D01*
X76167Y-46243D01*
X76176Y-46262D01*
X76185Y-46271D01*
X76202Y-46281D01*
X76236Y-46281D01*
X76253Y-46271D01*
X76030Y-46176D02*
X76090Y-46176D01*
X76090Y-46281D02*
X76090Y-46081D01*
X76005Y-46081D01*
X80395Y-61781D02*
X80300Y-61721D01*
X80395Y-61678D02*
X80195Y-61678D01*
X80195Y-61746D01*
X80205Y-61763D01*
X80214Y-61772D01*
X80234Y-61781D01*
X80262Y-61781D01*
X80281Y-61772D01*
X80291Y-61763D01*
X80300Y-61746D01*
X80300Y-61678D01*
X80281Y-61883D02*
X80272Y-61866D01*
X80262Y-61858D01*
X80243Y-61849D01*
X80234Y-61849D01*
X80214Y-61858D01*
X80205Y-61866D01*
X80195Y-61883D01*
X80195Y-61918D01*
X80205Y-61935D01*
X80214Y-61943D01*
X80234Y-61952D01*
X80243Y-61952D01*
X80262Y-61943D01*
X80272Y-61935D01*
X80281Y-61918D01*
X80281Y-61883D01*
X80291Y-61866D01*
X80300Y-61858D01*
X80319Y-61849D01*
X80357Y-61849D01*
X80376Y-61858D01*
X80386Y-61866D01*
X80395Y-61883D01*
X80395Y-61918D01*
X80386Y-61935D01*
X80376Y-61943D01*
X80357Y-61952D01*
X80319Y-61952D01*
X80300Y-61943D01*
X80291Y-61935D01*
X80281Y-61918D01*
X75226Y-60317D02*
X75286Y-60221D01*
X75329Y-60317D02*
X75329Y-60117D01*
X75261Y-60117D01*
X75243Y-60126D01*
X75235Y-60136D01*
X75226Y-60155D01*
X75226Y-60183D01*
X75235Y-60202D01*
X75243Y-60212D01*
X75261Y-60221D01*
X75329Y-60221D01*
X75166Y-60117D02*
X75046Y-60117D01*
X75123Y-60317D01*
X77443Y-61695D02*
X77347Y-61635D01*
X77443Y-61592D02*
X77243Y-61592D01*
X77243Y-61661D01*
X77252Y-61678D01*
X77262Y-61686D01*
X77281Y-61695D01*
X77309Y-61695D01*
X77328Y-61686D01*
X77338Y-61678D01*
X77347Y-61661D01*
X77347Y-61592D01*
X77443Y-61866D02*
X77443Y-61763D01*
X77443Y-61815D02*
X77243Y-61815D01*
X77271Y-61798D01*
X77290Y-61781D01*
X77300Y-61763D01*
X77443Y-62038D02*
X77443Y-61935D01*
X77443Y-61986D02*
X77243Y-61986D01*
X77271Y-61969D01*
X77290Y-61952D01*
X77300Y-61935D01*
X83742Y-61695D02*
X83647Y-61635D01*
X83742Y-61592D02*
X83542Y-61592D01*
X83542Y-61661D01*
X83551Y-61678D01*
X83561Y-61686D01*
X83580Y-61695D01*
X83609Y-61695D01*
X83628Y-61686D01*
X83637Y-61678D01*
X83647Y-61661D01*
X83647Y-61592D01*
X83742Y-61866D02*
X83742Y-61763D01*
X83742Y-61815D02*
X83542Y-61815D01*
X83570Y-61798D01*
X83589Y-61781D01*
X83599Y-61763D01*
X83561Y-61935D02*
X83551Y-61943D01*
X83542Y-61961D01*
X83542Y-62003D01*
X83551Y-62021D01*
X83561Y-62029D01*
X83580Y-62038D01*
X83599Y-62038D01*
X83628Y-62029D01*
X83742Y-61926D01*
X83742Y-62038D01*
X76655Y-61781D02*
X76560Y-61721D01*
X76655Y-61678D02*
X76455Y-61678D01*
X76455Y-61746D01*
X76465Y-61763D01*
X76474Y-61772D01*
X76493Y-61781D01*
X76522Y-61781D01*
X76541Y-61772D01*
X76550Y-61763D01*
X76560Y-61746D01*
X76560Y-61678D01*
X76455Y-61935D02*
X76455Y-61901D01*
X76465Y-61883D01*
X76474Y-61875D01*
X76503Y-61858D01*
X76541Y-61849D01*
X76617Y-61849D01*
X76636Y-61858D01*
X76646Y-61866D01*
X76655Y-61883D01*
X76655Y-61918D01*
X76646Y-61935D01*
X76636Y-61943D01*
X76617Y-61952D01*
X76570Y-61952D01*
X76550Y-61943D01*
X76541Y-61935D01*
X76531Y-61918D01*
X76531Y-61883D01*
X76541Y-61866D01*
X76550Y-61858D01*
X76570Y-61849D01*
X82399Y-60317D02*
X82459Y-60221D01*
X82502Y-60317D02*
X82502Y-60117D01*
X82433Y-60117D01*
X82416Y-60126D01*
X82407Y-60136D01*
X82399Y-60155D01*
X82399Y-60183D01*
X82407Y-60202D01*
X82416Y-60212D01*
X82433Y-60221D01*
X82502Y-60221D01*
X82227Y-60317D02*
X82330Y-60317D01*
X82279Y-60317D02*
X82279Y-60117D01*
X82296Y-60145D01*
X82313Y-60164D01*
X82330Y-60174D01*
X82167Y-60117D02*
X82056Y-60117D01*
X82116Y-60193D01*
X82090Y-60193D01*
X82073Y-60202D01*
X82064Y-60212D01*
X82056Y-60231D01*
X82056Y-60279D01*
X82064Y-60298D01*
X82073Y-60307D01*
X82090Y-60317D01*
X82142Y-60317D01*
X82159Y-60307D01*
X82167Y-60298D01*
X88895Y-59529D02*
X88955Y-59434D01*
X88998Y-59529D02*
X88998Y-59329D01*
X88929Y-59329D01*
X88912Y-59339D01*
X88903Y-59348D01*
X88895Y-59367D01*
X88895Y-59396D01*
X88903Y-59415D01*
X88912Y-59425D01*
X88929Y-59434D01*
X88998Y-59434D01*
X88723Y-59529D02*
X88826Y-59529D01*
X88775Y-59529D02*
X88775Y-59329D01*
X88792Y-59358D01*
X88809Y-59377D01*
X88826Y-59386D01*
X88569Y-59396D02*
X88569Y-59529D01*
X88612Y-59320D02*
X88655Y-59463D01*
X88543Y-59463D01*
X88895Y-60317D02*
X88955Y-60221D01*
X88998Y-60317D02*
X88998Y-60117D01*
X88929Y-60117D01*
X88912Y-60126D01*
X88903Y-60136D01*
X88895Y-60155D01*
X88895Y-60183D01*
X88903Y-60202D01*
X88912Y-60212D01*
X88929Y-60221D01*
X88998Y-60221D01*
X88723Y-60317D02*
X88826Y-60317D01*
X88775Y-60317D02*
X88775Y-60117D01*
X88792Y-60145D01*
X88809Y-60164D01*
X88826Y-60174D01*
X88560Y-60117D02*
X88646Y-60117D01*
X88655Y-60212D01*
X88646Y-60202D01*
X88629Y-60193D01*
X88586Y-60193D01*
X88569Y-60202D01*
X88560Y-60212D01*
X88552Y-60231D01*
X88552Y-60279D01*
X88560Y-60298D01*
X88569Y-60307D01*
X88586Y-60317D01*
X88629Y-60317D01*
X88646Y-60307D01*
X88655Y-60298D01*
X74884Y-41997D02*
X74788Y-41937D01*
X74884Y-41894D02*
X74684Y-41894D01*
X74684Y-41963D01*
X74693Y-41980D01*
X74703Y-41988D01*
X74722Y-41997D01*
X74750Y-41997D01*
X74769Y-41988D01*
X74779Y-41980D01*
X74788Y-41963D01*
X74788Y-41894D01*
X74884Y-42083D02*
X74884Y-42117D01*
X74874Y-42134D01*
X74865Y-42143D01*
X74836Y-42160D01*
X74798Y-42168D01*
X74722Y-42168D01*
X74703Y-42160D01*
X74693Y-42151D01*
X74684Y-42134D01*
X74684Y-42100D01*
X74693Y-42083D01*
X74703Y-42074D01*
X74722Y-42066D01*
X74769Y-42066D01*
X74788Y-42074D01*
X74798Y-42083D01*
X74807Y-42100D01*
X74807Y-42134D01*
X74798Y-42151D01*
X74788Y-42160D01*
X74769Y-42168D01*
X81104Y-41892D02*
X81009Y-41832D01*
X81104Y-41789D02*
X80904Y-41789D01*
X80904Y-41857D01*
X80914Y-41875D01*
X80923Y-41883D01*
X80942Y-41892D01*
X80971Y-41892D01*
X80990Y-41883D01*
X80999Y-41875D01*
X81009Y-41857D01*
X81009Y-41789D01*
X81104Y-42063D02*
X81104Y-41960D01*
X81104Y-42012D02*
X80904Y-42012D01*
X80933Y-41995D01*
X80952Y-41977D01*
X80961Y-41960D01*
X80904Y-42175D02*
X80904Y-42192D01*
X80914Y-42209D01*
X80923Y-42217D01*
X80942Y-42226D01*
X80980Y-42235D01*
X81028Y-42235D01*
X81066Y-42226D01*
X81085Y-42217D01*
X81095Y-42209D01*
X81104Y-42192D01*
X81104Y-42175D01*
X81095Y-42157D01*
X81085Y-42149D01*
X81066Y-42140D01*
X81028Y-42132D01*
X80980Y-42132D01*
X80942Y-42140D01*
X80923Y-42149D01*
X80914Y-42157D01*
X80904Y-42175D01*
X81577Y-47522D02*
X81481Y-47462D01*
X81577Y-47419D02*
X81377Y-47419D01*
X81377Y-47487D01*
X81386Y-47504D01*
X81396Y-47513D01*
X81415Y-47522D01*
X81443Y-47522D01*
X81462Y-47513D01*
X81472Y-47504D01*
X81481Y-47487D01*
X81481Y-47419D01*
X81396Y-47590D02*
X81386Y-47599D01*
X81377Y-47616D01*
X81377Y-47659D01*
X81386Y-47676D01*
X81396Y-47684D01*
X81415Y-47693D01*
X81434Y-47693D01*
X81462Y-47684D01*
X81577Y-47582D01*
X81577Y-47693D01*
X81396Y-47762D02*
X81386Y-47770D01*
X81377Y-47787D01*
X81377Y-47830D01*
X81386Y-47847D01*
X81396Y-47856D01*
X81415Y-47864D01*
X81434Y-47864D01*
X81462Y-47856D01*
X81577Y-47753D01*
X81577Y-47864D01*
X77477Y-46537D02*
X77537Y-46442D01*
X77580Y-46537D02*
X77580Y-46337D01*
X77512Y-46337D01*
X77495Y-46347D01*
X77486Y-46356D01*
X77477Y-46375D01*
X77477Y-46404D01*
X77486Y-46423D01*
X77495Y-46432D01*
X77512Y-46442D01*
X77580Y-46442D01*
X77409Y-46356D02*
X77400Y-46347D01*
X77383Y-46337D01*
X77340Y-46337D01*
X77323Y-46347D01*
X77315Y-46356D01*
X77306Y-46375D01*
X77306Y-46394D01*
X77315Y-46423D01*
X77417Y-46537D01*
X77306Y-46537D01*
X77195Y-46337D02*
X77177Y-46337D01*
X77160Y-46347D01*
X77152Y-46356D01*
X77143Y-46375D01*
X77135Y-46413D01*
X77135Y-46461D01*
X77143Y-46499D01*
X77152Y-46518D01*
X77160Y-46528D01*
X77177Y-46537D01*
X77195Y-46537D01*
X77212Y-46528D01*
X77220Y-46518D01*
X77229Y-46499D01*
X77237Y-46461D01*
X77237Y-46413D01*
X77229Y-46375D01*
X77220Y-46356D01*
X77212Y-46347D01*
X77195Y-46337D01*
X78659Y-46340D02*
X78719Y-46245D01*
X78761Y-46340D02*
X78761Y-46140D01*
X78693Y-46140D01*
X78676Y-46150D01*
X78667Y-46159D01*
X78659Y-46178D01*
X78659Y-46207D01*
X78667Y-46226D01*
X78676Y-46236D01*
X78693Y-46245D01*
X78761Y-46245D01*
X78590Y-46159D02*
X78581Y-46150D01*
X78564Y-46140D01*
X78521Y-46140D01*
X78504Y-46150D01*
X78496Y-46159D01*
X78487Y-46178D01*
X78487Y-46197D01*
X78496Y-46226D01*
X78599Y-46340D01*
X78487Y-46340D01*
X78316Y-46340D02*
X78419Y-46340D01*
X78367Y-46340D02*
X78367Y-46140D01*
X78384Y-46169D01*
X78401Y-46188D01*
X78419Y-46197D01*
X77246Y-47325D02*
X77151Y-47265D01*
X77246Y-47222D02*
X77046Y-47222D01*
X77046Y-47290D01*
X77055Y-47308D01*
X77065Y-47316D01*
X77084Y-47325D01*
X77112Y-47325D01*
X77132Y-47316D01*
X77141Y-47308D01*
X77151Y-47290D01*
X77151Y-47222D01*
X77246Y-47496D02*
X77246Y-47393D01*
X77246Y-47445D02*
X77046Y-47445D01*
X77074Y-47428D01*
X77093Y-47410D01*
X77103Y-47393D01*
X77246Y-47582D02*
X77246Y-47616D01*
X77236Y-47633D01*
X77227Y-47642D01*
X77198Y-47659D01*
X77160Y-47668D01*
X77084Y-47668D01*
X77065Y-47659D01*
X77055Y-47650D01*
X77046Y-47633D01*
X77046Y-47599D01*
X77055Y-47582D01*
X77065Y-47573D01*
X77084Y-47565D01*
X77132Y-47565D01*
X77151Y-47573D01*
X77160Y-47582D01*
X77170Y-47599D01*
X77170Y-47633D01*
X77160Y-47650D01*
X77151Y-47659D01*
X77132Y-47668D01*
X70159Y-61977D02*
X70064Y-61917D01*
X70159Y-61875D02*
X69959Y-61875D01*
X69959Y-61943D01*
X69969Y-61960D01*
X69978Y-61969D01*
X69997Y-61977D01*
X70026Y-61977D01*
X70045Y-61969D01*
X70054Y-61960D01*
X70064Y-61943D01*
X70064Y-61875D01*
X70159Y-62149D02*
X70159Y-62046D01*
X70159Y-62097D02*
X69959Y-62097D01*
X69988Y-62080D01*
X70007Y-62063D01*
X70016Y-62046D01*
X68730Y-60317D02*
X68790Y-60221D01*
X68833Y-60317D02*
X68833Y-60117D01*
X68765Y-60117D01*
X68747Y-60126D01*
X68739Y-60136D01*
X68730Y-60155D01*
X68730Y-60183D01*
X68739Y-60202D01*
X68747Y-60212D01*
X68765Y-60221D01*
X68833Y-60221D01*
X68576Y-60183D02*
X68576Y-60317D01*
X68619Y-60107D02*
X68662Y-60250D01*
X68550Y-60250D01*
X76959Y-33899D02*
X77019Y-33804D01*
X77061Y-33899D02*
X77061Y-33699D01*
X76993Y-33699D01*
X76976Y-33709D01*
X76967Y-33718D01*
X76959Y-33737D01*
X76959Y-33766D01*
X76967Y-33785D01*
X76976Y-33795D01*
X76993Y-33804D01*
X77061Y-33804D01*
X76796Y-33699D02*
X76881Y-33699D01*
X76890Y-33795D01*
X76881Y-33785D01*
X76864Y-33776D01*
X76821Y-33776D01*
X76804Y-33785D01*
X76796Y-33795D01*
X76787Y-33814D01*
X76787Y-33861D01*
X76796Y-33880D01*
X76804Y-33890D01*
X76821Y-33899D01*
X76864Y-33899D01*
X76881Y-33890D01*
X76890Y-33880D01*
G54D16*
X79261Y-47191D02*
X79104Y-47191D01*
X79246Y-47356D02*
X79254Y-47349D01*
X79261Y-47326D01*
X79261Y-47311D01*
X79254Y-47289D01*
X79239Y-47274D01*
X79224Y-47266D01*
X79194Y-47259D01*
X79171Y-47259D01*
X79141Y-47266D01*
X79126Y-47274D01*
X79111Y-47289D01*
X79104Y-47311D01*
X79104Y-47326D01*
X79111Y-47349D01*
X79119Y-47356D01*
X79156Y-47491D02*
X79261Y-47491D01*
X79096Y-47454D02*
X79209Y-47416D01*
X79209Y-47514D01*
G54D17*
X78860Y-46603D02*
X78860Y-46490D01*
X78623Y-46490D01*
X78860Y-46682D02*
X78623Y-46682D01*
X78792Y-46760D01*
X78623Y-46839D01*
X78860Y-46839D01*
X78860Y-47086D02*
X78747Y-47008D01*
X78860Y-46951D02*
X78623Y-46951D01*
X78623Y-47041D01*
X78635Y-47064D01*
X78646Y-47075D01*
X78668Y-47086D01*
X78702Y-47086D01*
X78725Y-47075D01*
X78736Y-47064D01*
X78747Y-47041D01*
X78747Y-46951D01*
X78623Y-47289D02*
X78623Y-47244D01*
X78635Y-47221D01*
X78646Y-47210D01*
X78680Y-47188D01*
X78725Y-47176D01*
X78815Y-47176D01*
X78837Y-47188D01*
X78848Y-47199D01*
X78860Y-47221D01*
X78860Y-47266D01*
X78848Y-47289D01*
X78837Y-47300D01*
X78815Y-47311D01*
X78758Y-47311D01*
X78736Y-47300D01*
X78725Y-47289D01*
X78713Y-47266D01*
X78713Y-47221D01*
X78725Y-47199D01*
X78736Y-47188D01*
X78758Y-47176D01*
X78860Y-47536D02*
X78860Y-47401D01*
X78860Y-47469D02*
X78623Y-47469D01*
X78657Y-47446D01*
X78680Y-47424D01*
X78691Y-47401D01*
X78702Y-47739D02*
X78860Y-47739D01*
X78612Y-47683D02*
X78781Y-47626D01*
X78781Y-47773D01*
X78646Y-47851D02*
X78635Y-47863D01*
X78623Y-47885D01*
X78623Y-47941D01*
X78635Y-47964D01*
X78646Y-47975D01*
X78668Y-47986D01*
X78691Y-47986D01*
X78725Y-47975D01*
X78860Y-47840D01*
X78860Y-47986D01*
X78725Y-48121D02*
X78713Y-48099D01*
X78702Y-48088D01*
X78680Y-48076D01*
X78668Y-48076D01*
X78646Y-48088D01*
X78635Y-48099D01*
X78623Y-48121D01*
X78623Y-48166D01*
X78635Y-48189D01*
X78646Y-48200D01*
X78668Y-48211D01*
X78680Y-48211D01*
X78702Y-48200D01*
X78713Y-48189D01*
X78725Y-48166D01*
X78725Y-48121D01*
X78736Y-48099D01*
X78747Y-48088D01*
X78770Y-48076D01*
X78815Y-48076D01*
X78837Y-48088D01*
X78848Y-48099D01*
X78860Y-48121D01*
X78860Y-48166D01*
X78848Y-48189D01*
X78837Y-48200D01*
X78815Y-48211D01*
X78770Y-48211D01*
X78747Y-48200D01*
X78736Y-48189D01*
X78725Y-48166D01*
G54D13*
X84057Y-48921D02*
X83663Y-48921D01*
X83663Y-49015D01*
X83682Y-49071D01*
X83719Y-49109D01*
X83757Y-49128D01*
X83832Y-49146D01*
X83888Y-49146D01*
X83963Y-49128D01*
X84001Y-49109D01*
X84038Y-49071D01*
X84057Y-49015D01*
X84057Y-48921D01*
X83794Y-49484D02*
X84057Y-49484D01*
X83644Y-49390D02*
X83926Y-49297D01*
X83926Y-49540D01*
X81931Y-47842D02*
X81537Y-47842D01*
X81537Y-47936D01*
X81556Y-47993D01*
X81593Y-48030D01*
X81631Y-48049D01*
X81706Y-48068D01*
X81762Y-48068D01*
X81837Y-48049D01*
X81875Y-48030D01*
X81912Y-47993D01*
X81931Y-47936D01*
X81931Y-47842D01*
X81931Y-48236D02*
X81537Y-48236D01*
X81537Y-48499D02*
X81537Y-48574D01*
X81556Y-48612D01*
X81593Y-48649D01*
X81668Y-48668D01*
X81800Y-48668D01*
X81875Y-48649D01*
X81912Y-48612D01*
X81931Y-48574D01*
X81931Y-48499D01*
X81912Y-48462D01*
X81875Y-48424D01*
X81800Y-48405D01*
X81668Y-48405D01*
X81593Y-48424D01*
X81556Y-48462D01*
X81537Y-48499D01*
X81931Y-48837D02*
X81537Y-48837D01*
X81537Y-48931D01*
X81556Y-48987D01*
X81593Y-49024D01*
X81631Y-49043D01*
X81706Y-49062D01*
X81762Y-49062D01*
X81837Y-49043D01*
X81875Y-49024D01*
X81912Y-48987D01*
X81931Y-48931D01*
X81931Y-48837D01*
X81725Y-49231D02*
X81725Y-49362D01*
X81931Y-49418D02*
X81931Y-49231D01*
X81537Y-49231D01*
X81537Y-49418D01*
X81912Y-49569D02*
X81931Y-49625D01*
X81931Y-49719D01*
X81912Y-49756D01*
X81893Y-49775D01*
X81856Y-49794D01*
X81818Y-49794D01*
X81781Y-49775D01*
X81762Y-49756D01*
X81743Y-49719D01*
X81725Y-49644D01*
X81706Y-49606D01*
X81687Y-49587D01*
X81650Y-49569D01*
X81612Y-49569D01*
X81575Y-49587D01*
X81556Y-49606D01*
X81537Y-49644D01*
X81537Y-49737D01*
X81556Y-49794D01*
X81893Y-50188D02*
X81912Y-50169D01*
X81931Y-50113D01*
X81931Y-50075D01*
X81912Y-50019D01*
X81875Y-49981D01*
X81837Y-49963D01*
X81762Y-49944D01*
X81706Y-49944D01*
X81631Y-49963D01*
X81593Y-49981D01*
X81556Y-50019D01*
X81537Y-50075D01*
X81537Y-50113D01*
X81556Y-50169D01*
X81575Y-50188D01*
X81931Y-50357D02*
X81537Y-50357D01*
X81725Y-50357D02*
X81725Y-50582D01*
X81931Y-50582D02*
X81537Y-50582D01*
G54D10*
X79790Y-47994D02*
X79977Y-47994D01*
X79977Y-47600D01*
X79452Y-47994D02*
X79677Y-47994D01*
X79565Y-47994D02*
X79565Y-47600D01*
X79602Y-47656D01*
X79640Y-47694D01*
X79677Y-47712D01*
X80464Y-51222D02*
X80539Y-51222D01*
X80577Y-51241D01*
X80596Y-51259D01*
X80633Y-51316D01*
X80652Y-51391D01*
X80652Y-51541D01*
X80633Y-51578D01*
X80614Y-51597D01*
X80577Y-51616D01*
X80502Y-51616D01*
X80464Y-51597D01*
X80446Y-51578D01*
X80427Y-51541D01*
X80427Y-51447D01*
X80446Y-51409D01*
X80464Y-51391D01*
X80502Y-51372D01*
X80577Y-51372D01*
X80614Y-51391D01*
X80633Y-51409D01*
X80652Y-51447D01*
X80258Y-51578D02*
X80239Y-51597D01*
X80258Y-51616D01*
X80277Y-51597D01*
X80258Y-51578D01*
X80258Y-51616D01*
X80014Y-51391D02*
X80052Y-51372D01*
X80071Y-51353D01*
X80089Y-51316D01*
X80089Y-51297D01*
X80071Y-51259D01*
X80052Y-51241D01*
X80014Y-51222D01*
X79940Y-51222D01*
X79902Y-51241D01*
X79883Y-51259D01*
X79865Y-51297D01*
X79865Y-51316D01*
X79883Y-51353D01*
X79902Y-51372D01*
X79940Y-51391D01*
X80014Y-51391D01*
X80052Y-51409D01*
X80071Y-51428D01*
X80089Y-51466D01*
X80089Y-51541D01*
X80071Y-51578D01*
X80052Y-51597D01*
X80014Y-51616D01*
X79940Y-51616D01*
X79902Y-51597D01*
X79883Y-51578D01*
X79865Y-51541D01*
X79865Y-51466D01*
X79883Y-51428D01*
X79902Y-51409D01*
X79940Y-51391D01*
X79227Y-51353D02*
X79227Y-51616D01*
X79396Y-51353D02*
X79396Y-51559D01*
X79377Y-51597D01*
X79340Y-51616D01*
X79283Y-51616D01*
X79246Y-51597D01*
X79227Y-51578D01*
X79040Y-51616D02*
X79040Y-51222D01*
X79040Y-51409D02*
X78815Y-51409D01*
X78815Y-51616D02*
X78815Y-51222D01*
G54D11*
X82558Y-41203D02*
X82558Y-40953D01*
X82296Y-41179D02*
X82308Y-41191D01*
X82344Y-41203D01*
X82368Y-41203D01*
X82404Y-41191D01*
X82427Y-41167D01*
X82439Y-41144D01*
X82451Y-41096D01*
X82451Y-41060D01*
X82439Y-41013D01*
X82427Y-40989D01*
X82404Y-40965D01*
X82368Y-40953D01*
X82344Y-40953D01*
X82308Y-40965D01*
X82296Y-40977D01*
X82213Y-40953D02*
X82058Y-40953D01*
X82142Y-41048D01*
X82106Y-41048D01*
X82082Y-41060D01*
X82070Y-41072D01*
X82058Y-41096D01*
X82058Y-41156D01*
X82070Y-41179D01*
X82082Y-41191D01*
X82106Y-41203D01*
X82177Y-41203D01*
X82201Y-41191D01*
X82213Y-41179D01*
X82048Y-41057D02*
X82048Y-41200D01*
X82298Y-41129D02*
X82048Y-41129D01*
X82298Y-41283D02*
X82048Y-41283D01*
X82048Y-41379D01*
X82059Y-41403D01*
X82071Y-41414D01*
X82095Y-41426D01*
X82131Y-41426D01*
X82155Y-41414D01*
X82167Y-41403D01*
X82178Y-41379D01*
X82178Y-41283D01*
X82286Y-41522D02*
X82298Y-41557D01*
X82298Y-41617D01*
X82286Y-41641D01*
X82274Y-41653D01*
X82250Y-41664D01*
X82226Y-41664D01*
X82202Y-41653D01*
X82190Y-41641D01*
X82178Y-41617D01*
X82167Y-41569D01*
X82155Y-41545D01*
X82143Y-41533D01*
X82119Y-41522D01*
X82095Y-41522D01*
X82071Y-41533D01*
X82059Y-41545D01*
X82048Y-41569D01*
X82048Y-41629D01*
X82059Y-41664D01*
X82048Y-41748D02*
X82048Y-41914D01*
X82298Y-41807D01*
X82048Y-41986D02*
X82048Y-42153D01*
X82298Y-42045D01*
X82048Y-42295D02*
X82048Y-42319D01*
X82059Y-42343D01*
X82071Y-42355D01*
X82095Y-42367D01*
X82143Y-42379D01*
X82202Y-42379D01*
X82250Y-42367D01*
X82274Y-42355D01*
X82286Y-42343D01*
X82298Y-42319D01*
X82298Y-42295D01*
X82286Y-42272D01*
X82274Y-42260D01*
X82250Y-42248D01*
X82202Y-42236D01*
X82143Y-42236D01*
X82095Y-42248D01*
X82071Y-42260D01*
X82059Y-42272D01*
X82048Y-42295D01*
X82048Y-42605D02*
X82048Y-42486D01*
X82167Y-42474D01*
X82155Y-42486D01*
X82143Y-42510D01*
X82143Y-42569D01*
X82155Y-42593D01*
X82167Y-42605D01*
X82190Y-42617D01*
X82250Y-42617D01*
X82274Y-42605D01*
X82286Y-42593D01*
X82298Y-42569D01*
X82298Y-42510D01*
X82286Y-42486D01*
X82274Y-42474D01*
X82048Y-42772D02*
X82048Y-42795D01*
X82059Y-42819D01*
X82071Y-42831D01*
X82095Y-42843D01*
X82143Y-42855D01*
X82202Y-42855D01*
X82250Y-42843D01*
X82274Y-42831D01*
X82286Y-42819D01*
X82298Y-42795D01*
X82298Y-42772D01*
X82286Y-42748D01*
X82274Y-42736D01*
X82250Y-42724D01*
X82202Y-42712D01*
X82143Y-42712D01*
X82095Y-42724D01*
X82071Y-42736D01*
X82059Y-42748D01*
X82048Y-42772D01*
X76362Y-41203D02*
X76362Y-40953D01*
X76100Y-41179D02*
X76112Y-41191D01*
X76147Y-41203D01*
X76171Y-41203D01*
X76207Y-41191D01*
X76231Y-41167D01*
X76243Y-41144D01*
X76254Y-41096D01*
X76254Y-41060D01*
X76243Y-41013D01*
X76231Y-40989D01*
X76207Y-40965D01*
X76171Y-40953D01*
X76147Y-40953D01*
X76112Y-40965D01*
X76100Y-40977D01*
X76004Y-40977D02*
X75993Y-40965D01*
X75969Y-40953D01*
X75909Y-40953D01*
X75885Y-40965D01*
X75873Y-40977D01*
X75862Y-41001D01*
X75862Y-41025D01*
X75873Y-41060D01*
X76016Y-41203D01*
X75862Y-41203D01*
X75851Y-41057D02*
X75851Y-41200D01*
X76101Y-41129D02*
X75851Y-41129D01*
X76101Y-41283D02*
X75851Y-41283D01*
X75851Y-41379D01*
X75863Y-41403D01*
X75875Y-41414D01*
X75898Y-41426D01*
X75934Y-41426D01*
X75958Y-41414D01*
X75970Y-41403D01*
X75982Y-41379D01*
X75982Y-41283D01*
X76089Y-41522D02*
X76101Y-41557D01*
X76101Y-41617D01*
X76089Y-41641D01*
X76077Y-41653D01*
X76053Y-41664D01*
X76029Y-41664D01*
X76005Y-41653D01*
X75994Y-41641D01*
X75982Y-41617D01*
X75970Y-41569D01*
X75958Y-41545D01*
X75946Y-41533D01*
X75922Y-41522D01*
X75898Y-41522D01*
X75875Y-41533D01*
X75863Y-41545D01*
X75851Y-41569D01*
X75851Y-41629D01*
X75863Y-41664D01*
X75851Y-41748D02*
X75851Y-41914D01*
X76101Y-41807D01*
X75851Y-41986D02*
X75851Y-42153D01*
X76101Y-42045D01*
X75851Y-42295D02*
X75851Y-42319D01*
X75863Y-42343D01*
X75875Y-42355D01*
X75898Y-42367D01*
X75946Y-42379D01*
X76005Y-42379D01*
X76053Y-42367D01*
X76077Y-42355D01*
X76089Y-42343D01*
X76101Y-42319D01*
X76101Y-42295D01*
X76089Y-42272D01*
X76077Y-42260D01*
X76053Y-42248D01*
X76005Y-42236D01*
X75946Y-42236D01*
X75898Y-42248D01*
X75875Y-42260D01*
X75863Y-42272D01*
X75851Y-42295D01*
X75851Y-42462D02*
X75851Y-42617D01*
X75946Y-42533D01*
X75946Y-42569D01*
X75958Y-42593D01*
X75970Y-42605D01*
X75994Y-42617D01*
X76053Y-42617D01*
X76077Y-42605D01*
X76089Y-42593D01*
X76101Y-42569D01*
X76101Y-42498D01*
X76089Y-42474D01*
X76077Y-42462D01*
X75851Y-42700D02*
X75851Y-42855D01*
X75946Y-42772D01*
X75946Y-42807D01*
X75958Y-42831D01*
X75970Y-42843D01*
X75994Y-42855D01*
X76053Y-42855D01*
X76077Y-42843D01*
X76089Y-42831D01*
X76101Y-42807D01*
X76101Y-42736D01*
X76089Y-42712D01*
X76077Y-42700D01*
G54D10*
X69942Y-61426D02*
X69549Y-61426D01*
X69942Y-61839D02*
X69755Y-61707D01*
X69942Y-61614D02*
X69549Y-61614D01*
X69549Y-61764D01*
X69567Y-61801D01*
X69586Y-61820D01*
X69624Y-61839D01*
X69680Y-61839D01*
X69717Y-61820D01*
X69736Y-61801D01*
X69755Y-61764D01*
X69755Y-61614D01*
X69942Y-62214D02*
X69942Y-61989D01*
X69942Y-62101D02*
X69549Y-62101D01*
X69605Y-62064D01*
X69642Y-62026D01*
X69661Y-61989D01*
X76438Y-61426D02*
X76045Y-61426D01*
X76438Y-61839D02*
X76251Y-61707D01*
X76438Y-61614D02*
X76045Y-61614D01*
X76045Y-61764D01*
X76063Y-61801D01*
X76082Y-61820D01*
X76120Y-61839D01*
X76176Y-61839D01*
X76213Y-61820D01*
X76232Y-61801D01*
X76251Y-61764D01*
X76251Y-61614D01*
X76082Y-61989D02*
X76063Y-62007D01*
X76045Y-62045D01*
X76045Y-62139D01*
X76063Y-62176D01*
X76082Y-62195D01*
X76120Y-62214D01*
X76157Y-62214D01*
X76213Y-62195D01*
X76438Y-61970D01*
X76438Y-62214D01*
X79982Y-61426D02*
X79588Y-61426D01*
X79982Y-61839D02*
X79794Y-61707D01*
X79982Y-61614D02*
X79588Y-61614D01*
X79588Y-61764D01*
X79607Y-61801D01*
X79625Y-61820D01*
X79663Y-61839D01*
X79719Y-61839D01*
X79757Y-61820D01*
X79775Y-61801D01*
X79794Y-61764D01*
X79794Y-61614D01*
X79588Y-61970D02*
X79588Y-62214D01*
X79738Y-62082D01*
X79738Y-62139D01*
X79757Y-62176D01*
X79775Y-62195D01*
X79813Y-62214D01*
X79907Y-62214D01*
X79944Y-62195D01*
X79963Y-62176D01*
X79982Y-62139D01*
X79982Y-62026D01*
X79963Y-61989D01*
X79944Y-61970D01*
X83525Y-61426D02*
X83131Y-61426D01*
X83525Y-61839D02*
X83338Y-61707D01*
X83525Y-61614D02*
X83131Y-61614D01*
X83131Y-61764D01*
X83150Y-61801D01*
X83169Y-61820D01*
X83206Y-61839D01*
X83263Y-61839D01*
X83300Y-61820D01*
X83319Y-61801D01*
X83338Y-61764D01*
X83338Y-61614D01*
X83263Y-62176D02*
X83525Y-62176D01*
X83113Y-62082D02*
X83394Y-61989D01*
X83394Y-62232D01*
X90021Y-61426D02*
X89627Y-61426D01*
X90021Y-61839D02*
X89834Y-61707D01*
X90021Y-61614D02*
X89627Y-61614D01*
X89627Y-61764D01*
X89646Y-61801D01*
X89665Y-61820D01*
X89702Y-61839D01*
X89759Y-61839D01*
X89796Y-61820D01*
X89815Y-61801D01*
X89834Y-61764D01*
X89834Y-61614D01*
X89627Y-62195D02*
X89627Y-62007D01*
X89815Y-61989D01*
X89796Y-62007D01*
X89777Y-62045D01*
X89777Y-62139D01*
X89796Y-62176D01*
X89815Y-62195D01*
X89852Y-62214D01*
X89946Y-62214D01*
X89984Y-62195D01*
X90002Y-62176D01*
X90021Y-62139D01*
X90021Y-62045D01*
X90002Y-62007D01*
X89984Y-61989D01*
M02*
