G04 (created by PCBNEW (2013-07-07 BZR 4022)-stable) date 7/8/2014 5:22:45 PM*
%MOIN*%
G04 Gerber Fmt 3.4, Leading zero omitted, Abs format*
%FSLAX34Y34*%
G01*
G70*
G90*
G04 APERTURE LIST*
%ADD10C,0.00590551*%
%ADD11C,0.11811*%
%ADD12R,0.045X0.025*%
%ADD13R,0.06X0.06*%
%ADD14C,0.06*%
%ADD15R,0.0314X0.0314*%
%ADD16C,0.0393701*%
%ADD17C,0.035*%
%ADD18C,0.02*%
%ADD19C,0.01*%
G04 APERTURE END LIST*
G54D10*
G54D11*
X84490Y-42913D03*
X72990Y-42913D03*
X68897Y-32677D03*
X68897Y-25590D03*
X88582Y-25590D03*
X88582Y-32677D03*
G54D12*
X68267Y-59000D03*
X68267Y-58400D03*
X72204Y-59000D03*
X72204Y-58400D03*
X70236Y-59000D03*
X70236Y-58400D03*
X76574Y-59748D03*
X76574Y-59148D03*
X75787Y-59148D03*
X75787Y-59748D03*
G54D13*
X68267Y-57338D03*
G54D14*
X68267Y-56338D03*
X68267Y-55338D03*
G54D13*
X88976Y-54118D03*
G54D14*
X88976Y-55118D03*
X88976Y-56118D03*
G54D13*
X70275Y-57350D03*
G54D14*
X70275Y-56350D03*
G54D13*
X77271Y-25000D03*
G54D14*
X76271Y-25000D03*
G54D13*
X81208Y-25000D03*
G54D14*
X80208Y-25000D03*
G54D13*
X69645Y-52389D03*
G54D14*
X69645Y-51389D03*
G54D13*
X72204Y-57350D03*
G54D14*
X72204Y-56350D03*
G54D13*
X86740Y-38622D03*
G54D14*
X87740Y-38622D03*
X86740Y-39622D03*
X87740Y-39622D03*
X86740Y-40622D03*
X87740Y-40622D03*
X86740Y-41622D03*
X87740Y-41622D03*
X86740Y-42622D03*
X87740Y-42622D03*
X86740Y-43622D03*
X87740Y-43622D03*
X86740Y-44622D03*
X87740Y-44622D03*
X86740Y-45622D03*
X87740Y-45622D03*
X86740Y-46622D03*
X87740Y-46622D03*
X86740Y-47622D03*
X87740Y-47622D03*
G54D13*
X69740Y-38622D03*
G54D14*
X70740Y-38622D03*
X69740Y-39622D03*
X70740Y-39622D03*
X69740Y-40622D03*
X70740Y-40622D03*
X69740Y-41622D03*
X70740Y-41622D03*
X69740Y-42622D03*
X70740Y-42622D03*
X69740Y-43622D03*
X70740Y-43622D03*
X69740Y-44622D03*
X70740Y-44622D03*
X69740Y-45622D03*
X70740Y-45622D03*
X69740Y-46622D03*
X70740Y-46622D03*
X69740Y-47622D03*
X70740Y-47622D03*
G54D15*
X72204Y-59626D03*
X72204Y-60216D03*
X70236Y-59626D03*
X70236Y-60216D03*
X68307Y-59626D03*
X68307Y-60216D03*
G54D16*
X79527Y-60236D03*
X78740Y-60236D03*
X77952Y-60236D03*
G54D17*
X73818Y-40551D03*
X77362Y-41732D03*
X68897Y-49606D03*
X70078Y-55314D03*
X73818Y-61417D03*
X73228Y-58858D03*
X80708Y-60826D03*
X83661Y-41732D03*
X68110Y-43307D03*
X79803Y-38700D03*
X82283Y-47440D03*
X75000Y-49212D03*
X81889Y-44488D03*
X80708Y-47834D03*
X75590Y-48818D03*
X75393Y-52165D03*
X71653Y-44685D03*
X70472Y-50590D03*
X74015Y-50590D03*
X73622Y-51968D03*
X73818Y-59448D03*
X70669Y-50000D03*
X74606Y-50393D03*
X74212Y-52559D03*
X75393Y-58464D03*
X72834Y-46259D03*
X81102Y-61417D03*
X85433Y-60039D03*
X76181Y-35039D03*
X77165Y-34842D03*
X81299Y-36062D03*
X81299Y-36732D03*
X76181Y-44488D03*
X78346Y-39960D03*
X80118Y-41141D03*
X72244Y-61417D03*
X71259Y-52559D03*
X75984Y-50000D03*
X87401Y-62007D03*
X80314Y-51377D03*
X77165Y-51377D03*
X78937Y-42716D03*
X79921Y-41732D03*
X75196Y-44685D03*
X74606Y-47637D03*
G54D18*
X76181Y-40551D02*
X73818Y-40551D01*
X77362Y-41732D02*
X76181Y-40551D01*
X72637Y-55511D02*
X70275Y-55511D01*
X69448Y-38622D02*
X68897Y-39173D01*
X68897Y-39173D02*
X68897Y-49606D01*
X72637Y-55511D02*
X73228Y-56102D01*
X73228Y-58858D02*
X73228Y-56102D01*
G54D19*
X69448Y-38622D02*
X69740Y-38622D01*
G54D18*
X70275Y-55511D02*
X70078Y-55314D01*
X80708Y-60826D02*
X79133Y-60826D01*
X78543Y-61417D02*
X73818Y-61417D01*
X79133Y-60826D02*
X78543Y-61417D01*
X72204Y-58400D02*
X72770Y-58400D01*
X72770Y-58400D02*
X73228Y-58858D01*
X79803Y-38700D02*
X70818Y-38700D01*
X70818Y-38700D02*
X70740Y-38622D01*
X80629Y-38700D02*
X79803Y-38700D01*
X83661Y-41732D02*
X80629Y-38700D01*
X68110Y-43307D02*
X68110Y-38976D01*
X68110Y-38976D02*
X69488Y-37598D01*
X69488Y-37598D02*
X70078Y-37598D01*
X70078Y-37598D02*
X70740Y-38259D01*
X70740Y-38259D02*
X70740Y-38622D01*
G54D19*
X70236Y-58400D02*
X69329Y-58400D01*
X69329Y-58400D02*
X68267Y-57338D01*
X79803Y-38700D02*
X79724Y-38622D01*
G54D18*
X67519Y-57652D02*
X68267Y-58400D01*
X67519Y-52559D02*
X67519Y-57652D01*
X70472Y-49606D02*
X67519Y-52559D01*
X74606Y-49606D02*
X70472Y-49606D01*
X75000Y-49212D02*
X74606Y-49606D01*
X82283Y-47440D02*
X82283Y-44881D01*
X82283Y-44881D02*
X81889Y-44488D01*
X81102Y-47440D02*
X82283Y-47440D01*
X80708Y-47834D02*
X81102Y-47440D01*
X68267Y-55338D02*
X68267Y-53767D01*
X68267Y-53767D02*
X69645Y-52389D01*
G54D19*
X75787Y-59148D02*
X75787Y-58858D01*
X75000Y-48228D02*
X72440Y-48228D01*
X75590Y-48818D02*
X75000Y-48228D01*
X74803Y-52755D02*
X75393Y-52165D01*
X74803Y-56889D02*
X74803Y-52755D01*
X75984Y-58070D02*
X74803Y-56889D01*
X75984Y-58661D02*
X75984Y-58070D01*
X75787Y-58858D02*
X75984Y-58661D01*
G54D18*
X75787Y-59148D02*
X76574Y-59148D01*
G54D19*
X72440Y-48228D02*
X72244Y-48031D01*
X72244Y-48031D02*
X72440Y-48228D01*
X71850Y-46732D02*
X70740Y-45622D01*
X72440Y-48228D02*
X71850Y-47637D01*
X71850Y-47637D02*
X71850Y-46732D01*
X73818Y-53740D02*
X73818Y-52952D01*
X71653Y-44685D02*
X71653Y-44094D01*
X71149Y-41622D02*
X70740Y-41622D01*
X71653Y-42125D02*
X71149Y-41622D01*
X71653Y-44094D02*
X71653Y-42125D01*
X74015Y-50590D02*
X70472Y-50590D01*
X73818Y-59448D02*
X73818Y-55314D01*
X73818Y-55314D02*
X73818Y-53740D01*
X73622Y-52755D02*
X73622Y-51968D01*
X73818Y-52952D02*
X73622Y-52755D01*
X70866Y-50196D02*
X70669Y-50000D01*
X74409Y-50196D02*
X70866Y-50196D01*
X74606Y-50393D02*
X74409Y-50196D01*
X74212Y-57283D02*
X74212Y-52559D01*
X75393Y-58464D02*
X74212Y-57283D01*
X75393Y-44094D02*
X75000Y-44094D01*
X75000Y-44094D02*
X72834Y-46259D01*
X82677Y-44094D02*
X75393Y-44094D01*
X75393Y-44094D02*
X75196Y-44094D01*
X83661Y-45078D02*
X82677Y-44094D01*
X83661Y-58858D02*
X83661Y-45078D01*
X81102Y-61417D02*
X83661Y-58858D01*
X70740Y-44622D02*
X70803Y-44622D01*
X72834Y-45669D02*
X74015Y-44488D01*
X71850Y-45669D02*
X72834Y-45669D01*
X70803Y-44622D02*
X71850Y-45669D01*
X85433Y-60039D02*
X84251Y-58858D01*
X84251Y-58858D02*
X84251Y-44685D01*
X84251Y-44685D02*
X82874Y-43307D01*
X82874Y-43307D02*
X75196Y-43307D01*
X75196Y-43307D02*
X74015Y-44488D01*
X74015Y-44488D02*
X73881Y-44622D01*
X86740Y-36149D02*
X86740Y-38622D01*
X83661Y-33070D02*
X86740Y-36149D01*
X78149Y-33070D02*
X83661Y-33070D01*
X76181Y-35039D02*
X78149Y-33070D01*
X86275Y-39622D02*
X86740Y-39622D01*
X85826Y-39173D02*
X86275Y-39622D01*
X85826Y-36023D02*
X85826Y-39173D01*
X83267Y-33464D02*
X85826Y-36023D01*
X78543Y-33464D02*
X83267Y-33464D01*
X77165Y-34842D02*
X78543Y-33464D01*
X86740Y-40622D02*
X86527Y-40622D01*
X81968Y-36062D02*
X81299Y-36062D01*
X86527Y-40622D02*
X81968Y-36062D01*
X86740Y-41622D02*
X86188Y-41622D01*
X86188Y-41622D02*
X81299Y-36732D01*
G54D18*
X76181Y-44488D02*
X76574Y-44881D01*
X76574Y-44881D02*
X76574Y-49409D01*
X76574Y-49409D02*
X75984Y-50000D01*
X75787Y-59748D02*
X75787Y-59896D01*
X75787Y-59896D02*
X76107Y-60216D01*
X78740Y-60236D02*
X78149Y-60826D01*
X76107Y-60216D02*
X72204Y-60216D01*
X78149Y-60826D02*
X76717Y-60826D01*
X76717Y-60826D02*
X76107Y-60216D01*
X72204Y-60216D02*
X71830Y-60216D01*
X71830Y-60216D02*
X71259Y-59645D01*
X71259Y-58464D02*
X71259Y-59645D01*
X71259Y-58464D02*
X71259Y-58334D01*
X71259Y-57874D02*
X71259Y-58334D01*
X70689Y-60216D02*
X70236Y-60216D01*
X71259Y-59645D02*
X70689Y-60216D01*
X72204Y-57350D02*
X71783Y-57350D01*
X71783Y-57350D02*
X71259Y-57874D01*
X70736Y-57350D02*
X70275Y-57350D01*
X71259Y-57874D02*
X70736Y-57350D01*
X78346Y-39960D02*
X79527Y-41141D01*
X79527Y-41141D02*
X80118Y-41141D01*
X72204Y-61377D02*
X72204Y-60216D01*
X72204Y-61377D02*
X72244Y-61417D01*
X71259Y-52559D02*
X71259Y-51377D01*
G54D19*
X71259Y-51377D02*
X71248Y-51389D01*
G54D18*
X70472Y-51389D02*
X71248Y-51389D01*
X75000Y-50984D02*
X72834Y-50984D01*
X71248Y-51389D02*
X71653Y-50984D01*
X71653Y-50984D02*
X72834Y-50984D01*
X75000Y-50984D02*
X75984Y-50000D01*
X69645Y-51389D02*
X70472Y-51389D01*
G54D19*
X70472Y-51389D02*
X70484Y-51389D01*
G54D18*
X88976Y-54118D02*
X88401Y-54118D01*
X87401Y-55118D02*
X87401Y-62007D01*
X88401Y-54118D02*
X87401Y-55118D01*
X68307Y-60216D02*
X70236Y-60216D01*
X76574Y-59748D02*
X77465Y-59748D01*
X77465Y-59748D02*
X77952Y-60236D01*
X72204Y-59626D02*
X72204Y-59000D01*
X77165Y-51377D02*
X80314Y-51377D01*
X77165Y-51377D02*
X76929Y-51377D01*
G54D19*
X68267Y-56338D02*
X68346Y-56338D01*
G54D18*
X73307Y-51377D02*
X76929Y-51377D01*
X68346Y-56338D02*
X73307Y-51377D01*
X70236Y-59626D02*
X70236Y-59000D01*
G54D19*
X79921Y-41732D02*
X78937Y-42716D01*
G54D18*
X68307Y-59626D02*
X68307Y-59040D01*
G54D19*
X68307Y-59040D02*
X68267Y-59000D01*
X75196Y-47047D02*
X75196Y-44685D01*
X74606Y-47637D02*
X75196Y-47047D01*
G54D10*
G36*
X90281Y-63116D02*
X89526Y-63116D01*
X89526Y-56009D01*
X89442Y-55806D01*
X89288Y-55652D01*
X89206Y-55618D01*
X89287Y-55584D01*
X89442Y-55430D01*
X89526Y-55227D01*
X89526Y-55009D01*
X89442Y-54806D01*
X89304Y-54668D01*
X89326Y-54668D01*
X89418Y-54629D01*
X89488Y-54559D01*
X89526Y-54467D01*
X89526Y-53768D01*
X89488Y-53676D01*
X89423Y-53611D01*
X89423Y-32510D01*
X89423Y-25424D01*
X89295Y-25115D01*
X89059Y-24878D01*
X88750Y-24750D01*
X88416Y-24749D01*
X88107Y-24877D01*
X87870Y-25113D01*
X87742Y-25422D01*
X87741Y-25757D01*
X87869Y-26066D01*
X88105Y-26302D01*
X88414Y-26430D01*
X88749Y-26431D01*
X89058Y-26303D01*
X89294Y-26067D01*
X89423Y-25758D01*
X89423Y-25424D01*
X89423Y-32510D01*
X89295Y-32201D01*
X89059Y-31964D01*
X88750Y-31836D01*
X88416Y-31836D01*
X88107Y-31964D01*
X87870Y-32200D01*
X87742Y-32509D01*
X87741Y-32843D01*
X87869Y-33152D01*
X88105Y-33389D01*
X88414Y-33517D01*
X88749Y-33517D01*
X89058Y-33390D01*
X89294Y-33153D01*
X89423Y-32845D01*
X89423Y-32510D01*
X89423Y-53611D01*
X89418Y-53606D01*
X89326Y-53568D01*
X89226Y-53568D01*
X89088Y-53568D01*
X89026Y-53630D01*
X89026Y-54068D01*
X89463Y-54068D01*
X89526Y-54005D01*
X89526Y-53768D01*
X89526Y-54467D01*
X89526Y-54230D01*
X89463Y-54168D01*
X89026Y-54168D01*
X89026Y-54175D01*
X88926Y-54175D01*
X88926Y-54168D01*
X88926Y-54068D01*
X88926Y-53630D01*
X88863Y-53568D01*
X88725Y-53568D01*
X88626Y-53568D01*
X88534Y-53606D01*
X88464Y-53676D01*
X88426Y-53768D01*
X88426Y-54005D01*
X88488Y-54068D01*
X88926Y-54068D01*
X88926Y-54168D01*
X88488Y-54168D01*
X88426Y-54230D01*
X88426Y-54467D01*
X88464Y-54559D01*
X88534Y-54629D01*
X88626Y-54668D01*
X88648Y-54668D01*
X88510Y-54806D01*
X88426Y-55008D01*
X88426Y-55227D01*
X88509Y-55429D01*
X88664Y-55584D01*
X88746Y-55618D01*
X88665Y-55651D01*
X88510Y-55806D01*
X88426Y-56008D01*
X88426Y-56227D01*
X88509Y-56429D01*
X88664Y-56584D01*
X88866Y-56668D01*
X89085Y-56668D01*
X89287Y-56584D01*
X89442Y-56430D01*
X89526Y-56227D01*
X89526Y-56009D01*
X89526Y-63116D01*
X88294Y-63116D01*
X88294Y-38703D01*
X88284Y-38485D01*
X88221Y-38334D01*
X88126Y-38306D01*
X88055Y-38377D01*
X88055Y-38236D01*
X88028Y-38140D01*
X87821Y-38067D01*
X87603Y-38078D01*
X87452Y-38140D01*
X87424Y-38236D01*
X87740Y-38551D01*
X88055Y-38236D01*
X88055Y-38377D01*
X87810Y-38622D01*
X88126Y-38937D01*
X88221Y-38909D01*
X88294Y-38703D01*
X88294Y-63116D01*
X88290Y-63116D01*
X88290Y-47513D01*
X88206Y-47310D01*
X88052Y-47156D01*
X87970Y-47122D01*
X88051Y-47088D01*
X88206Y-46934D01*
X88290Y-46731D01*
X88290Y-46513D01*
X88206Y-46310D01*
X88052Y-46156D01*
X87970Y-46122D01*
X88051Y-46088D01*
X88206Y-45934D01*
X88290Y-45731D01*
X88290Y-45513D01*
X88206Y-45310D01*
X88052Y-45156D01*
X87970Y-45122D01*
X88051Y-45088D01*
X88206Y-44934D01*
X88290Y-44731D01*
X88290Y-44513D01*
X88206Y-44310D01*
X88052Y-44156D01*
X87970Y-44122D01*
X88051Y-44088D01*
X88206Y-43934D01*
X88290Y-43731D01*
X88290Y-43513D01*
X88206Y-43310D01*
X88052Y-43156D01*
X87970Y-43122D01*
X88051Y-43088D01*
X88206Y-42934D01*
X88290Y-42731D01*
X88290Y-42513D01*
X88206Y-42310D01*
X88052Y-42156D01*
X87970Y-42122D01*
X88051Y-42088D01*
X88206Y-41934D01*
X88290Y-41731D01*
X88290Y-41513D01*
X88206Y-41310D01*
X88052Y-41156D01*
X87970Y-41122D01*
X88051Y-41088D01*
X88206Y-40934D01*
X88290Y-40731D01*
X88290Y-40513D01*
X88206Y-40310D01*
X88052Y-40156D01*
X87970Y-40122D01*
X88051Y-40088D01*
X88206Y-39934D01*
X88290Y-39731D01*
X88290Y-39513D01*
X88206Y-39310D01*
X88052Y-39156D01*
X87976Y-39124D01*
X88028Y-39103D01*
X88055Y-39007D01*
X87740Y-38692D01*
X87424Y-39007D01*
X87452Y-39103D01*
X87507Y-39123D01*
X87429Y-39155D01*
X87274Y-39310D01*
X87240Y-39391D01*
X87206Y-39310D01*
X87068Y-39172D01*
X87089Y-39172D01*
X87181Y-39134D01*
X87251Y-39063D01*
X87290Y-38971D01*
X87290Y-38918D01*
X87354Y-38937D01*
X87669Y-38622D01*
X87354Y-38306D01*
X87290Y-38325D01*
X87290Y-38272D01*
X87252Y-38180D01*
X87181Y-38110D01*
X87090Y-38072D01*
X87040Y-38072D01*
X87040Y-36149D01*
X87017Y-36034D01*
X86952Y-35937D01*
X83873Y-32858D01*
X83776Y-32793D01*
X83661Y-32770D01*
X81758Y-32770D01*
X81758Y-25250D01*
X81758Y-24650D01*
X81720Y-24558D01*
X81650Y-24488D01*
X81558Y-24450D01*
X81459Y-24449D01*
X80859Y-24449D01*
X80767Y-24487D01*
X80696Y-24558D01*
X80658Y-24650D01*
X80658Y-24672D01*
X80520Y-24534D01*
X80318Y-24450D01*
X80099Y-24449D01*
X79897Y-24533D01*
X79742Y-24688D01*
X79658Y-24890D01*
X79658Y-25108D01*
X79742Y-25311D01*
X79896Y-25465D01*
X80098Y-25549D01*
X80317Y-25550D01*
X80519Y-25466D01*
X80658Y-25327D01*
X80658Y-25349D01*
X80696Y-25441D01*
X80766Y-25511D01*
X80858Y-25549D01*
X80958Y-25550D01*
X81558Y-25550D01*
X81650Y-25512D01*
X81720Y-25441D01*
X81758Y-25349D01*
X81758Y-25250D01*
X81758Y-32770D01*
X78149Y-32770D01*
X78034Y-32793D01*
X77937Y-32858D01*
X77821Y-32974D01*
X77821Y-25250D01*
X77821Y-24650D01*
X77783Y-24558D01*
X77713Y-24488D01*
X77621Y-24450D01*
X77522Y-24449D01*
X76922Y-24449D01*
X76830Y-24487D01*
X76759Y-24558D01*
X76721Y-24650D01*
X76721Y-24672D01*
X76583Y-24534D01*
X76381Y-24450D01*
X76162Y-24449D01*
X75960Y-24533D01*
X75805Y-24688D01*
X75721Y-24890D01*
X75721Y-25108D01*
X75805Y-25311D01*
X75959Y-25465D01*
X76161Y-25549D01*
X76380Y-25550D01*
X76582Y-25466D01*
X76721Y-25327D01*
X76721Y-25349D01*
X76759Y-25441D01*
X76829Y-25511D01*
X76921Y-25549D01*
X77021Y-25550D01*
X77621Y-25550D01*
X77713Y-25512D01*
X77783Y-25441D01*
X77821Y-25349D01*
X77821Y-25250D01*
X77821Y-32974D01*
X76181Y-34614D01*
X76096Y-34614D01*
X75940Y-34678D01*
X75821Y-34798D01*
X75756Y-34954D01*
X75756Y-35123D01*
X75820Y-35279D01*
X75940Y-35399D01*
X76096Y-35464D01*
X76265Y-35464D01*
X76421Y-35399D01*
X76541Y-35280D01*
X76606Y-35124D01*
X76606Y-35038D01*
X76740Y-34904D01*
X76740Y-34926D01*
X76804Y-35082D01*
X76924Y-35202D01*
X77080Y-35267D01*
X77249Y-35267D01*
X77405Y-35203D01*
X77525Y-35083D01*
X77590Y-34927D01*
X77590Y-34841D01*
X78667Y-33764D01*
X83143Y-33764D01*
X85526Y-36147D01*
X85526Y-39173D01*
X85532Y-39202D01*
X82180Y-35850D01*
X82083Y-35785D01*
X81968Y-35762D01*
X81600Y-35762D01*
X81540Y-35702D01*
X81384Y-35638D01*
X81215Y-35637D01*
X81058Y-35702D01*
X80939Y-35821D01*
X80874Y-35978D01*
X80874Y-36147D01*
X80938Y-36303D01*
X81032Y-36397D01*
X80939Y-36491D01*
X80874Y-36647D01*
X80874Y-36816D01*
X80938Y-36972D01*
X81058Y-37092D01*
X81214Y-37157D01*
X81299Y-37157D01*
X85976Y-41834D01*
X85976Y-41834D01*
X86074Y-41899D01*
X86188Y-41922D01*
X86269Y-41922D01*
X86273Y-41933D01*
X86428Y-42088D01*
X86510Y-42122D01*
X86429Y-42155D01*
X86274Y-42310D01*
X86190Y-42512D01*
X86190Y-42730D01*
X86273Y-42933D01*
X86428Y-43088D01*
X86510Y-43122D01*
X86429Y-43155D01*
X86274Y-43310D01*
X86190Y-43512D01*
X86190Y-43730D01*
X86273Y-43933D01*
X86428Y-44088D01*
X86510Y-44122D01*
X86429Y-44155D01*
X86274Y-44310D01*
X86190Y-44512D01*
X86190Y-44730D01*
X86273Y-44933D01*
X86428Y-45088D01*
X86510Y-45122D01*
X86429Y-45155D01*
X86274Y-45310D01*
X86190Y-45512D01*
X86190Y-45730D01*
X86273Y-45933D01*
X86428Y-46088D01*
X86510Y-46122D01*
X86429Y-46155D01*
X86274Y-46310D01*
X86190Y-46512D01*
X86190Y-46730D01*
X86273Y-46933D01*
X86428Y-47088D01*
X86510Y-47122D01*
X86429Y-47155D01*
X86274Y-47310D01*
X86190Y-47512D01*
X86190Y-47730D01*
X86273Y-47933D01*
X86428Y-48088D01*
X86630Y-48171D01*
X86849Y-48172D01*
X87051Y-48088D01*
X87206Y-47934D01*
X87240Y-47852D01*
X87273Y-47933D01*
X87428Y-48088D01*
X87630Y-48171D01*
X87849Y-48172D01*
X88051Y-48088D01*
X88206Y-47934D01*
X88290Y-47731D01*
X88290Y-47513D01*
X88290Y-63116D01*
X72611Y-63116D01*
X72611Y-60422D01*
X72611Y-60328D01*
X72549Y-60266D01*
X72254Y-60266D01*
X72254Y-60560D01*
X72317Y-60623D01*
X72312Y-60623D01*
X72411Y-60623D01*
X72503Y-60585D01*
X72573Y-60514D01*
X72611Y-60422D01*
X72611Y-63116D01*
X72154Y-63116D01*
X72154Y-60560D01*
X72154Y-60266D01*
X71860Y-60266D01*
X71797Y-60328D01*
X71797Y-60422D01*
X71835Y-60514D01*
X71905Y-60585D01*
X71997Y-60623D01*
X72097Y-60623D01*
X72092Y-60623D01*
X72154Y-60560D01*
X72154Y-63116D01*
X70825Y-63116D01*
X70825Y-57699D01*
X70825Y-57462D01*
X70763Y-57400D01*
X70325Y-57400D01*
X70325Y-57837D01*
X70388Y-57900D01*
X70526Y-57900D01*
X70625Y-57900D01*
X70717Y-57862D01*
X70787Y-57791D01*
X70825Y-57699D01*
X70825Y-63116D01*
X70643Y-63116D01*
X70643Y-60422D01*
X70643Y-60328D01*
X70580Y-60266D01*
X70286Y-60266D01*
X70286Y-60560D01*
X70348Y-60623D01*
X70343Y-60623D01*
X70443Y-60623D01*
X70535Y-60585D01*
X70605Y-60514D01*
X70643Y-60422D01*
X70643Y-63116D01*
X70186Y-63116D01*
X70186Y-60560D01*
X70186Y-60266D01*
X69891Y-60266D01*
X69829Y-60328D01*
X69829Y-60422D01*
X69867Y-60514D01*
X69937Y-60585D01*
X70029Y-60623D01*
X70128Y-60623D01*
X70123Y-60623D01*
X70186Y-60560D01*
X70186Y-63116D01*
X68714Y-63116D01*
X68714Y-60422D01*
X68714Y-60328D01*
X68651Y-60266D01*
X68357Y-60266D01*
X68357Y-60560D01*
X68419Y-60623D01*
X68414Y-60623D01*
X68514Y-60623D01*
X68605Y-60585D01*
X68676Y-60514D01*
X68714Y-60422D01*
X68714Y-63116D01*
X68257Y-63116D01*
X68257Y-60560D01*
X68257Y-60266D01*
X67962Y-60266D01*
X67900Y-60328D01*
X67900Y-60422D01*
X67938Y-60514D01*
X68008Y-60585D01*
X68100Y-60623D01*
X68199Y-60623D01*
X68194Y-60623D01*
X68257Y-60560D01*
X68257Y-63116D01*
X67198Y-63116D01*
X67198Y-57790D01*
X67272Y-57900D01*
X67792Y-58420D01*
X67792Y-58575D01*
X67830Y-58667D01*
X67864Y-58700D01*
X67830Y-58733D01*
X67792Y-58825D01*
X67792Y-58925D01*
X67792Y-59175D01*
X67830Y-59267D01*
X67900Y-59337D01*
X67929Y-59349D01*
X67900Y-59419D01*
X67900Y-59518D01*
X67900Y-59832D01*
X67936Y-59921D01*
X67900Y-60009D01*
X67900Y-60103D01*
X67962Y-60166D01*
X68257Y-60166D01*
X68257Y-60158D01*
X68357Y-60158D01*
X68357Y-60166D01*
X68651Y-60166D01*
X68714Y-60103D01*
X68714Y-60009D01*
X68677Y-59921D01*
X68714Y-59833D01*
X68714Y-59733D01*
X68714Y-59419D01*
X68676Y-59327D01*
X68660Y-59311D01*
X68704Y-59267D01*
X68742Y-59175D01*
X68742Y-59076D01*
X68742Y-58826D01*
X68704Y-58734D01*
X68671Y-58700D01*
X68704Y-58667D01*
X68742Y-58575D01*
X68742Y-58476D01*
X68742Y-58237D01*
X69117Y-58612D01*
X69117Y-58612D01*
X69215Y-58677D01*
X69329Y-58700D01*
X69832Y-58700D01*
X69799Y-58733D01*
X69761Y-58825D01*
X69761Y-58925D01*
X69761Y-59175D01*
X69799Y-59267D01*
X69865Y-59333D01*
X69829Y-59419D01*
X69829Y-59518D01*
X69829Y-59832D01*
X69865Y-59921D01*
X69829Y-60009D01*
X69829Y-60103D01*
X69891Y-60166D01*
X70186Y-60166D01*
X70186Y-60158D01*
X70286Y-60158D01*
X70286Y-60166D01*
X70580Y-60166D01*
X70643Y-60103D01*
X70643Y-60009D01*
X70606Y-59921D01*
X70643Y-59833D01*
X70643Y-59733D01*
X70643Y-59419D01*
X70607Y-59333D01*
X70673Y-59267D01*
X70711Y-59175D01*
X70711Y-59076D01*
X70711Y-58826D01*
X70673Y-58734D01*
X70639Y-58700D01*
X70673Y-58667D01*
X70711Y-58575D01*
X70711Y-58476D01*
X70711Y-58226D01*
X70673Y-58134D01*
X70603Y-58063D01*
X70511Y-58025D01*
X70411Y-58025D01*
X70225Y-58025D01*
X70225Y-57837D01*
X70225Y-57400D01*
X69788Y-57400D01*
X69725Y-57462D01*
X69725Y-57699D01*
X69763Y-57791D01*
X69833Y-57862D01*
X69925Y-57900D01*
X70025Y-57900D01*
X70163Y-57900D01*
X70225Y-57837D01*
X70225Y-58025D01*
X69961Y-58025D01*
X69869Y-58063D01*
X69832Y-58100D01*
X69454Y-58100D01*
X68817Y-57464D01*
X68817Y-56989D01*
X68779Y-56897D01*
X68709Y-56826D01*
X68617Y-56788D01*
X68595Y-56788D01*
X68733Y-56650D01*
X68817Y-56448D01*
X68817Y-56362D01*
X69690Y-55489D01*
X69718Y-55555D01*
X69837Y-55675D01*
X69993Y-55739D01*
X70008Y-55739D01*
X70028Y-55759D01*
X70028Y-55759D01*
X70118Y-55820D01*
X69964Y-55883D01*
X69809Y-56038D01*
X69725Y-56240D01*
X69725Y-56459D01*
X69809Y-56661D01*
X69947Y-56800D01*
X69925Y-56800D01*
X69833Y-56838D01*
X69763Y-56908D01*
X69725Y-57000D01*
X69725Y-57237D01*
X69788Y-57300D01*
X70225Y-57300D01*
X70225Y-57292D01*
X70325Y-57292D01*
X70325Y-57300D01*
X70763Y-57300D01*
X70825Y-57237D01*
X70825Y-57000D01*
X70787Y-56908D01*
X70717Y-56838D01*
X70625Y-56800D01*
X70603Y-56800D01*
X70741Y-56662D01*
X70825Y-56460D01*
X70825Y-56241D01*
X70742Y-56039D01*
X70587Y-55884D01*
X70533Y-55861D01*
X71946Y-55861D01*
X71893Y-55883D01*
X71738Y-56038D01*
X71654Y-56240D01*
X71654Y-56459D01*
X71738Y-56661D01*
X71876Y-56800D01*
X71854Y-56800D01*
X71762Y-56838D01*
X71692Y-56908D01*
X71654Y-57000D01*
X71654Y-57237D01*
X71717Y-57300D01*
X72154Y-57300D01*
X72154Y-57292D01*
X72254Y-57292D01*
X72254Y-57300D01*
X72692Y-57300D01*
X72754Y-57237D01*
X72754Y-57000D01*
X72716Y-56908D01*
X72646Y-56838D01*
X72554Y-56800D01*
X72532Y-56800D01*
X72670Y-56662D01*
X72754Y-56460D01*
X72754Y-56241D01*
X72671Y-56040D01*
X72878Y-56247D01*
X72878Y-58072D01*
X72770Y-58050D01*
X72754Y-58050D01*
X72754Y-57699D01*
X72754Y-57462D01*
X72692Y-57400D01*
X72254Y-57400D01*
X72254Y-57837D01*
X72317Y-57900D01*
X72455Y-57900D01*
X72554Y-57900D01*
X72646Y-57862D01*
X72716Y-57791D01*
X72754Y-57699D01*
X72754Y-58050D01*
X72539Y-58050D01*
X72479Y-58025D01*
X72380Y-58025D01*
X72154Y-58025D01*
X72154Y-57837D01*
X72154Y-57400D01*
X71717Y-57400D01*
X71654Y-57462D01*
X71654Y-57699D01*
X71692Y-57791D01*
X71762Y-57862D01*
X71854Y-57900D01*
X71954Y-57900D01*
X72092Y-57900D01*
X72154Y-57837D01*
X72154Y-58025D01*
X71930Y-58025D01*
X71838Y-58063D01*
X71767Y-58133D01*
X71729Y-58225D01*
X71729Y-58325D01*
X71729Y-58575D01*
X71767Y-58667D01*
X71801Y-58700D01*
X71767Y-58733D01*
X71729Y-58825D01*
X71729Y-58925D01*
X71729Y-59175D01*
X71767Y-59267D01*
X71833Y-59333D01*
X71797Y-59419D01*
X71797Y-59518D01*
X71797Y-59832D01*
X71834Y-59921D01*
X71797Y-60009D01*
X71797Y-60103D01*
X71860Y-60166D01*
X72154Y-60166D01*
X72154Y-60158D01*
X72254Y-60158D01*
X72254Y-60166D01*
X72549Y-60166D01*
X72611Y-60103D01*
X72611Y-60009D01*
X72575Y-59921D01*
X72611Y-59833D01*
X72611Y-59733D01*
X72611Y-59419D01*
X72575Y-59333D01*
X72641Y-59267D01*
X72679Y-59175D01*
X72679Y-59076D01*
X72679Y-58826D01*
X72664Y-58789D01*
X72803Y-58928D01*
X72803Y-58942D01*
X72867Y-59098D01*
X72987Y-59218D01*
X73143Y-59283D01*
X73312Y-59283D01*
X73451Y-59226D01*
X73393Y-59363D01*
X73393Y-59532D01*
X73458Y-59689D01*
X73577Y-59808D01*
X73733Y-59873D01*
X73903Y-59873D01*
X74059Y-59809D01*
X74178Y-59689D01*
X74243Y-59533D01*
X74243Y-59364D01*
X74179Y-59208D01*
X74118Y-59147D01*
X74118Y-57614D01*
X74968Y-58463D01*
X74968Y-58548D01*
X75033Y-58704D01*
X75152Y-58824D01*
X75308Y-58889D01*
X75347Y-58889D01*
X75312Y-58973D01*
X75312Y-59073D01*
X75312Y-59323D01*
X75350Y-59415D01*
X75383Y-59448D01*
X75350Y-59482D01*
X75312Y-59574D01*
X75312Y-59636D01*
X75374Y-59698D01*
X75737Y-59698D01*
X75737Y-59690D01*
X75837Y-59690D01*
X75837Y-59698D01*
X75845Y-59698D01*
X75845Y-59798D01*
X75837Y-59798D01*
X75837Y-60061D01*
X75899Y-60123D01*
X75962Y-60123D01*
X76062Y-60123D01*
X76154Y-60085D01*
X76181Y-60058D01*
X76208Y-60085D01*
X76299Y-60123D01*
X76399Y-60123D01*
X76849Y-60123D01*
X76909Y-60098D01*
X77320Y-60098D01*
X77505Y-60284D01*
X77505Y-60324D01*
X77573Y-60489D01*
X77699Y-60614D01*
X77863Y-60682D01*
X78041Y-60683D01*
X78205Y-60615D01*
X78331Y-60489D01*
X78343Y-60460D01*
X78344Y-60461D01*
X78429Y-60476D01*
X78669Y-60236D01*
X78429Y-59995D01*
X78344Y-60010D01*
X78343Y-60012D01*
X78331Y-59983D01*
X78206Y-59857D01*
X78042Y-59789D01*
X78000Y-59789D01*
X77712Y-59501D01*
X77599Y-59425D01*
X77465Y-59398D01*
X77018Y-59398D01*
X77049Y-59323D01*
X77049Y-59224D01*
X77049Y-58974D01*
X77011Y-58882D01*
X76941Y-58812D01*
X76849Y-58773D01*
X76750Y-58773D01*
X76300Y-58773D01*
X76248Y-58795D01*
X76261Y-58776D01*
X76284Y-58661D01*
X76284Y-58661D01*
X76284Y-58070D01*
X76261Y-57956D01*
X76196Y-57858D01*
X76196Y-57858D01*
X75103Y-56765D01*
X75103Y-52880D01*
X75392Y-52590D01*
X75477Y-52590D01*
X75634Y-52525D01*
X75753Y-52406D01*
X75818Y-52250D01*
X75818Y-52081D01*
X75754Y-51924D01*
X75634Y-51805D01*
X75478Y-51740D01*
X75309Y-51740D01*
X75153Y-51804D01*
X75033Y-51924D01*
X74968Y-52080D01*
X74968Y-52166D01*
X74637Y-52497D01*
X74637Y-52474D01*
X74573Y-52318D01*
X74453Y-52198D01*
X74297Y-52134D01*
X74128Y-52133D01*
X73989Y-52191D01*
X74046Y-52053D01*
X74047Y-51884D01*
X73982Y-51728D01*
X73982Y-51727D01*
X76914Y-51727D01*
X76924Y-51738D01*
X77080Y-51802D01*
X77249Y-51803D01*
X77405Y-51738D01*
X77416Y-51727D01*
X80063Y-51727D01*
X80073Y-51738D01*
X80230Y-51802D01*
X80399Y-51803D01*
X80555Y-51738D01*
X80675Y-51619D01*
X80739Y-51462D01*
X80740Y-51293D01*
X80675Y-51137D01*
X80556Y-51017D01*
X80399Y-50953D01*
X80230Y-50952D01*
X80074Y-51017D01*
X80064Y-51027D01*
X77416Y-51027D01*
X77406Y-51017D01*
X77250Y-50953D01*
X77081Y-50952D01*
X76924Y-51017D01*
X76914Y-51027D01*
X73307Y-51027D01*
X73173Y-51054D01*
X73059Y-51130D01*
X73059Y-51130D01*
X73059Y-51130D01*
X70200Y-53989D01*
X70200Y-51471D01*
X70189Y-51253D01*
X70126Y-51101D01*
X70031Y-51074D01*
X69716Y-51389D01*
X70031Y-51704D01*
X70126Y-51677D01*
X70200Y-51471D01*
X70200Y-53989D01*
X68817Y-55372D01*
X68817Y-55229D01*
X68734Y-55027D01*
X68617Y-54910D01*
X68617Y-53912D01*
X69590Y-52939D01*
X69995Y-52939D01*
X70087Y-52901D01*
X70157Y-52831D01*
X70195Y-52739D01*
X70195Y-52640D01*
X70195Y-52040D01*
X70157Y-51948D01*
X70087Y-51877D01*
X69995Y-51839D01*
X69942Y-51839D01*
X69960Y-51775D01*
X69645Y-51460D01*
X69330Y-51775D01*
X69348Y-51839D01*
X69296Y-51839D01*
X69204Y-51877D01*
X69133Y-51947D01*
X69095Y-52039D01*
X69095Y-52139D01*
X69095Y-52444D01*
X68020Y-53520D01*
X67944Y-53633D01*
X67917Y-53767D01*
X67917Y-54910D01*
X67869Y-54958D01*
X67869Y-52704D01*
X69099Y-51474D01*
X69101Y-51526D01*
X69164Y-51677D01*
X69259Y-51704D01*
X69574Y-51389D01*
X69569Y-51384D01*
X69640Y-51313D01*
X69645Y-51319D01*
X69960Y-51003D01*
X69933Y-50908D01*
X69735Y-50837D01*
X70047Y-50526D01*
X70047Y-50674D01*
X70111Y-50830D01*
X70231Y-50950D01*
X70387Y-51015D01*
X70556Y-51015D01*
X70712Y-50951D01*
X70773Y-50890D01*
X73714Y-50890D01*
X73774Y-50950D01*
X73930Y-51015D01*
X74099Y-51015D01*
X74256Y-50951D01*
X74375Y-50831D01*
X74401Y-50768D01*
X74521Y-50818D01*
X74690Y-50818D01*
X74846Y-50754D01*
X74966Y-50634D01*
X75031Y-50478D01*
X75031Y-50309D01*
X74966Y-50153D01*
X74847Y-50033D01*
X74691Y-49968D01*
X74597Y-49968D01*
X74579Y-49956D01*
X74606Y-49956D01*
X74740Y-49929D01*
X74740Y-49929D01*
X74853Y-49853D01*
X75069Y-49637D01*
X75084Y-49637D01*
X75240Y-49573D01*
X75360Y-49453D01*
X75424Y-49297D01*
X75425Y-49210D01*
X75505Y-49243D01*
X75674Y-49243D01*
X75830Y-49179D01*
X75950Y-49059D01*
X76015Y-48903D01*
X76015Y-48734D01*
X75951Y-48578D01*
X75831Y-48458D01*
X75675Y-48393D01*
X75589Y-48393D01*
X75212Y-48016D01*
X75114Y-47951D01*
X75000Y-47928D01*
X74916Y-47928D01*
X74966Y-47878D01*
X75031Y-47722D01*
X75031Y-47637D01*
X75408Y-47259D01*
X75408Y-47259D01*
X75474Y-47162D01*
X75496Y-47047D01*
X75496Y-47047D01*
X75496Y-44986D01*
X75556Y-44926D01*
X75621Y-44769D01*
X75621Y-44600D01*
X75557Y-44444D01*
X75507Y-44394D01*
X81468Y-44394D01*
X81464Y-44403D01*
X81464Y-44572D01*
X81529Y-44728D01*
X81648Y-44848D01*
X81804Y-44913D01*
X81819Y-44913D01*
X81933Y-45026D01*
X81933Y-47090D01*
X81102Y-47090D01*
X80968Y-47117D01*
X80854Y-47193D01*
X80638Y-47409D01*
X80624Y-47409D01*
X80468Y-47474D01*
X80348Y-47593D01*
X80283Y-47749D01*
X80283Y-47918D01*
X80348Y-48075D01*
X80467Y-48194D01*
X80623Y-48259D01*
X80792Y-48259D01*
X80949Y-48195D01*
X81068Y-48075D01*
X81133Y-47919D01*
X81133Y-47904D01*
X81247Y-47790D01*
X82032Y-47790D01*
X82042Y-47801D01*
X82198Y-47865D01*
X82367Y-47866D01*
X82523Y-47801D01*
X82643Y-47682D01*
X82708Y-47525D01*
X82708Y-47356D01*
X82643Y-47200D01*
X82633Y-47189D01*
X82633Y-44881D01*
X82606Y-44747D01*
X82530Y-44634D01*
X82314Y-44418D01*
X82314Y-44404D01*
X82310Y-44394D01*
X82552Y-44394D01*
X83361Y-45203D01*
X83361Y-58734D01*
X82117Y-59978D01*
X82117Y-56061D01*
X82095Y-55922D01*
X82078Y-55875D01*
X82065Y-55834D01*
X81979Y-55677D01*
X81979Y-55676D01*
X81911Y-55595D01*
X81771Y-55483D01*
X81677Y-55435D01*
X81677Y-55435D01*
X81634Y-55422D01*
X81509Y-54988D01*
X81494Y-54960D01*
X81474Y-54912D01*
X80885Y-54031D01*
X80810Y-53957D01*
X80806Y-53955D01*
X79932Y-53370D01*
X79929Y-53367D01*
X79832Y-53327D01*
X78792Y-53121D01*
X78751Y-53121D01*
X78710Y-53117D01*
X78108Y-53185D01*
X78058Y-53201D01*
X78028Y-53207D01*
X77060Y-53638D01*
X76974Y-53699D01*
X76972Y-53703D01*
X76248Y-54466D01*
X76244Y-54469D01*
X76188Y-54558D01*
X75861Y-55415D01*
X75816Y-55436D01*
X75776Y-55452D01*
X75627Y-55552D01*
X75626Y-55552D01*
X75552Y-55627D01*
X75452Y-55776D01*
X75412Y-55873D01*
X75412Y-55874D01*
X75377Y-56049D01*
X75377Y-56096D01*
X75375Y-56143D01*
X75397Y-56281D01*
X75412Y-56323D01*
X75426Y-56370D01*
X75513Y-56527D01*
X75580Y-56608D01*
X75581Y-56608D01*
X75720Y-56720D01*
X75720Y-56720D01*
X75814Y-56769D01*
X75844Y-56778D01*
X75971Y-57216D01*
X75990Y-57253D01*
X76006Y-57291D01*
X76593Y-58168D01*
X76594Y-58172D01*
X76669Y-58247D01*
X77550Y-58836D01*
X77647Y-58877D01*
X77651Y-58877D01*
X78687Y-59082D01*
X78718Y-59082D01*
X78770Y-59086D01*
X79372Y-59019D01*
X79411Y-59006D01*
X79451Y-58997D01*
X80419Y-58566D01*
X80505Y-58505D01*
X80508Y-58502D01*
X81235Y-57736D01*
X81291Y-57647D01*
X81292Y-57642D01*
X81616Y-56792D01*
X81630Y-56789D01*
X81670Y-56770D01*
X81715Y-56751D01*
X81865Y-56652D01*
X81939Y-56577D01*
X81940Y-56577D01*
X82038Y-56429D01*
X82039Y-56428D01*
X82079Y-56331D01*
X82115Y-56155D01*
X82115Y-56107D01*
X82117Y-56061D01*
X82117Y-59978D01*
X81103Y-60992D01*
X81100Y-60992D01*
X81133Y-60911D01*
X81133Y-60742D01*
X81069Y-60586D01*
X80949Y-60466D01*
X80793Y-60401D01*
X80624Y-60401D01*
X80468Y-60466D01*
X80457Y-60476D01*
X79911Y-60476D01*
X79974Y-60325D01*
X79974Y-60147D01*
X79906Y-59983D01*
X79781Y-59857D01*
X79616Y-59789D01*
X79439Y-59789D01*
X79274Y-59857D01*
X79148Y-59982D01*
X79136Y-60012D01*
X79135Y-60010D01*
X79051Y-59995D01*
X78980Y-60066D01*
X78980Y-59925D01*
X78965Y-59840D01*
X78797Y-59784D01*
X78619Y-59796D01*
X78514Y-59840D01*
X78499Y-59925D01*
X78740Y-60165D01*
X78980Y-59925D01*
X78980Y-60066D01*
X78810Y-60236D01*
X78816Y-60241D01*
X78745Y-60312D01*
X78740Y-60306D01*
X78499Y-60547D01*
X78514Y-60631D01*
X78683Y-60688D01*
X78784Y-60681D01*
X78398Y-61067D01*
X75737Y-61067D01*
X75737Y-60061D01*
X75737Y-59798D01*
X75374Y-59798D01*
X75312Y-59861D01*
X75312Y-59923D01*
X75350Y-60015D01*
X75420Y-60085D01*
X75512Y-60123D01*
X75611Y-60123D01*
X75674Y-60123D01*
X75737Y-60061D01*
X75737Y-61067D01*
X74070Y-61067D01*
X74059Y-61057D01*
X73903Y-60992D01*
X73734Y-60992D01*
X73578Y-61056D01*
X73458Y-61176D01*
X73393Y-61332D01*
X73393Y-61501D01*
X73458Y-61657D01*
X73577Y-61777D01*
X73733Y-61842D01*
X73903Y-61842D01*
X74059Y-61777D01*
X74069Y-61767D01*
X78543Y-61767D01*
X78677Y-61740D01*
X78677Y-61740D01*
X78790Y-61664D01*
X79278Y-61176D01*
X80457Y-61176D01*
X80467Y-61186D01*
X80623Y-61251D01*
X80710Y-61251D01*
X80677Y-61332D01*
X80677Y-61501D01*
X80741Y-61657D01*
X80861Y-61777D01*
X81017Y-61842D01*
X81186Y-61842D01*
X81342Y-61777D01*
X81462Y-61658D01*
X81527Y-61502D01*
X81527Y-61416D01*
X83873Y-59070D01*
X83938Y-58973D01*
X83956Y-58882D01*
X83974Y-58973D01*
X84039Y-59070D01*
X85008Y-60038D01*
X85007Y-60123D01*
X85072Y-60279D01*
X85192Y-60399D01*
X85348Y-60464D01*
X85517Y-60464D01*
X85673Y-60399D01*
X85793Y-60280D01*
X85857Y-60124D01*
X85858Y-59955D01*
X85793Y-59798D01*
X85674Y-59679D01*
X85517Y-59614D01*
X85432Y-59614D01*
X85330Y-59512D01*
X85330Y-42746D01*
X85203Y-42437D01*
X84966Y-42201D01*
X84658Y-42072D01*
X84323Y-42072D01*
X84014Y-42200D01*
X83777Y-42436D01*
X83649Y-42745D01*
X83649Y-43079D01*
X83777Y-43388D01*
X84013Y-43625D01*
X84322Y-43753D01*
X84656Y-43754D01*
X84965Y-43626D01*
X85202Y-43390D01*
X85330Y-43081D01*
X85330Y-42746D01*
X85330Y-59512D01*
X84551Y-58734D01*
X84551Y-44685D01*
X84529Y-44570D01*
X84464Y-44472D01*
X84464Y-44472D01*
X83086Y-43094D01*
X82988Y-43029D01*
X82874Y-43007D01*
X79247Y-43007D01*
X79297Y-42957D01*
X79361Y-42801D01*
X79362Y-42715D01*
X79920Y-42157D01*
X80005Y-42157D01*
X80161Y-42092D01*
X80281Y-41973D01*
X80346Y-41817D01*
X80346Y-41648D01*
X80281Y-41491D01*
X80162Y-41372D01*
X80006Y-41307D01*
X79837Y-41307D01*
X79680Y-41371D01*
X79561Y-41491D01*
X79496Y-41647D01*
X79496Y-41733D01*
X78937Y-42291D01*
X78852Y-42291D01*
X78696Y-42356D01*
X78576Y-42475D01*
X78512Y-42631D01*
X78511Y-42800D01*
X78576Y-42956D01*
X78626Y-43007D01*
X77787Y-43007D01*
X77787Y-41648D01*
X77722Y-41491D01*
X77603Y-41372D01*
X77447Y-41307D01*
X77432Y-41307D01*
X76428Y-40303D01*
X76315Y-40227D01*
X76181Y-40201D01*
X74070Y-40201D01*
X74059Y-40191D01*
X73903Y-40126D01*
X73734Y-40126D01*
X73578Y-40190D01*
X73458Y-40310D01*
X73393Y-40466D01*
X73393Y-40635D01*
X73458Y-40791D01*
X73577Y-40911D01*
X73733Y-40976D01*
X73903Y-40976D01*
X74059Y-40911D01*
X74069Y-40901D01*
X76036Y-40901D01*
X76937Y-41802D01*
X76937Y-41816D01*
X77001Y-41972D01*
X77121Y-42092D01*
X77277Y-42157D01*
X77446Y-42157D01*
X77602Y-42092D01*
X77722Y-41973D01*
X77787Y-41817D01*
X77787Y-41648D01*
X77787Y-43007D01*
X75196Y-43007D01*
X75082Y-43029D01*
X74984Y-43094D01*
X73830Y-44248D01*
X73830Y-42746D01*
X73703Y-42437D01*
X73466Y-42201D01*
X73158Y-42072D01*
X72823Y-42072D01*
X72514Y-42200D01*
X72277Y-42436D01*
X72149Y-42745D01*
X72149Y-43079D01*
X72277Y-43388D01*
X72513Y-43625D01*
X72822Y-43753D01*
X73156Y-43754D01*
X73465Y-43626D01*
X73702Y-43390D01*
X73830Y-43081D01*
X73830Y-42746D01*
X73830Y-44248D01*
X73803Y-44276D01*
X73803Y-44276D01*
X72710Y-45369D01*
X71974Y-45369D01*
X71715Y-45110D01*
X71737Y-45110D01*
X71893Y-45045D01*
X72013Y-44926D01*
X72078Y-44769D01*
X72078Y-44600D01*
X72014Y-44444D01*
X71953Y-44383D01*
X71953Y-44094D01*
X71953Y-42125D01*
X71930Y-42011D01*
X71865Y-41913D01*
X71865Y-41913D01*
X71361Y-41409D01*
X71294Y-41365D01*
X71294Y-39703D01*
X71284Y-39485D01*
X71221Y-39334D01*
X71126Y-39306D01*
X70810Y-39622D01*
X71126Y-39937D01*
X71221Y-39909D01*
X71294Y-39703D01*
X71294Y-41365D01*
X71264Y-41344D01*
X71216Y-41335D01*
X71206Y-41310D01*
X71052Y-41156D01*
X70970Y-41122D01*
X71051Y-41088D01*
X71206Y-40934D01*
X71290Y-40731D01*
X71290Y-40513D01*
X71206Y-40310D01*
X71052Y-40156D01*
X70976Y-40124D01*
X71028Y-40103D01*
X71055Y-40007D01*
X70740Y-39692D01*
X70424Y-40007D01*
X70452Y-40103D01*
X70507Y-40123D01*
X70429Y-40155D01*
X70274Y-40310D01*
X70240Y-40391D01*
X70206Y-40310D01*
X70052Y-40156D01*
X69970Y-40122D01*
X70051Y-40088D01*
X70206Y-39934D01*
X70237Y-39858D01*
X70258Y-39909D01*
X70354Y-39937D01*
X70669Y-39622D01*
X70354Y-39306D01*
X70258Y-39334D01*
X70239Y-39389D01*
X70206Y-39310D01*
X70068Y-39172D01*
X70089Y-39172D01*
X70181Y-39134D01*
X70251Y-39063D01*
X70290Y-38971D01*
X70290Y-38949D01*
X70428Y-39088D01*
X70503Y-39119D01*
X70452Y-39140D01*
X70424Y-39236D01*
X70740Y-39551D01*
X71055Y-39236D01*
X71028Y-39140D01*
X70972Y-39121D01*
X71051Y-39088D01*
X71089Y-39050D01*
X79552Y-39050D01*
X79562Y-39060D01*
X79718Y-39125D01*
X79887Y-39125D01*
X80043Y-39061D01*
X80054Y-39050D01*
X80484Y-39050D01*
X83236Y-41802D01*
X83236Y-41816D01*
X83300Y-41972D01*
X83420Y-42092D01*
X83576Y-42157D01*
X83745Y-42157D01*
X83901Y-42092D01*
X84021Y-41973D01*
X84086Y-41817D01*
X84086Y-41648D01*
X84021Y-41491D01*
X83902Y-41372D01*
X83746Y-41307D01*
X83731Y-41307D01*
X80877Y-38453D01*
X80763Y-38377D01*
X80629Y-38350D01*
X80054Y-38350D01*
X80044Y-38340D01*
X79888Y-38275D01*
X79718Y-38275D01*
X79562Y-38340D01*
X79552Y-38350D01*
X71223Y-38350D01*
X71206Y-38310D01*
X71073Y-38177D01*
X71073Y-38177D01*
X71063Y-38125D01*
X70987Y-38012D01*
X70987Y-38012D01*
X70326Y-37350D01*
X70212Y-37275D01*
X70078Y-37248D01*
X69738Y-37248D01*
X69738Y-32510D01*
X69738Y-25424D01*
X69610Y-25115D01*
X69374Y-24878D01*
X69065Y-24750D01*
X68731Y-24749D01*
X68422Y-24877D01*
X68185Y-25113D01*
X68057Y-25422D01*
X68056Y-25757D01*
X68184Y-26066D01*
X68420Y-26302D01*
X68729Y-26430D01*
X69064Y-26431D01*
X69373Y-26303D01*
X69609Y-26067D01*
X69738Y-25758D01*
X69738Y-25424D01*
X69738Y-32510D01*
X69610Y-32201D01*
X69374Y-31964D01*
X69065Y-31836D01*
X68731Y-31836D01*
X68422Y-31964D01*
X68185Y-32200D01*
X68057Y-32509D01*
X68056Y-32843D01*
X68184Y-33152D01*
X68420Y-33389D01*
X68729Y-33517D01*
X69064Y-33517D01*
X69373Y-33390D01*
X69609Y-33153D01*
X69738Y-32845D01*
X69738Y-32510D01*
X69738Y-37248D01*
X69488Y-37248D01*
X69354Y-37275D01*
X69240Y-37350D01*
X67862Y-38728D01*
X67786Y-38842D01*
X67760Y-38976D01*
X67760Y-43055D01*
X67750Y-43066D01*
X67685Y-43222D01*
X67685Y-43391D01*
X67749Y-43547D01*
X67869Y-43667D01*
X68025Y-43732D01*
X68194Y-43732D01*
X68350Y-43667D01*
X68470Y-43548D01*
X68535Y-43391D01*
X68535Y-43222D01*
X68470Y-43066D01*
X68460Y-43056D01*
X68460Y-39121D01*
X68638Y-38942D01*
X68574Y-39039D01*
X68547Y-39173D01*
X68547Y-49355D01*
X68537Y-49365D01*
X68472Y-49521D01*
X68472Y-49690D01*
X68537Y-49846D01*
X68656Y-49966D01*
X68812Y-50031D01*
X68981Y-50031D01*
X69138Y-49966D01*
X69257Y-49847D01*
X69322Y-49691D01*
X69322Y-49522D01*
X69258Y-49365D01*
X69247Y-49355D01*
X69247Y-47870D01*
X69273Y-47933D01*
X69428Y-48088D01*
X69630Y-48171D01*
X69849Y-48172D01*
X70051Y-48088D01*
X70206Y-47934D01*
X70240Y-47852D01*
X70273Y-47933D01*
X70428Y-48088D01*
X70630Y-48171D01*
X70849Y-48172D01*
X71051Y-48088D01*
X71206Y-47934D01*
X71290Y-47731D01*
X71290Y-47513D01*
X71206Y-47310D01*
X71052Y-47156D01*
X70970Y-47122D01*
X71051Y-47088D01*
X71206Y-46934D01*
X71290Y-46731D01*
X71290Y-46596D01*
X71550Y-46856D01*
X71550Y-47637D01*
X71573Y-47752D01*
X71638Y-47849D01*
X72031Y-48243D01*
X72228Y-48440D01*
X72228Y-48440D01*
X72326Y-48505D01*
X72440Y-48528D01*
X72440Y-48528D01*
X74875Y-48528D01*
X75165Y-48818D01*
X75165Y-48821D01*
X75084Y-48787D01*
X74915Y-48787D01*
X74759Y-48852D01*
X74639Y-48971D01*
X74575Y-49127D01*
X74575Y-49142D01*
X74461Y-49256D01*
X70472Y-49256D01*
X70472Y-49256D01*
X70338Y-49282D01*
X70224Y-49358D01*
X70224Y-49358D01*
X67272Y-52311D01*
X67198Y-52421D01*
X67198Y-23891D01*
X90281Y-23891D01*
X90281Y-63116D01*
X90281Y-63116D01*
G37*
G54D19*
X90281Y-63116D02*
X89526Y-63116D01*
X89526Y-56009D01*
X89442Y-55806D01*
X89288Y-55652D01*
X89206Y-55618D01*
X89287Y-55584D01*
X89442Y-55430D01*
X89526Y-55227D01*
X89526Y-55009D01*
X89442Y-54806D01*
X89304Y-54668D01*
X89326Y-54668D01*
X89418Y-54629D01*
X89488Y-54559D01*
X89526Y-54467D01*
X89526Y-53768D01*
X89488Y-53676D01*
X89423Y-53611D01*
X89423Y-32510D01*
X89423Y-25424D01*
X89295Y-25115D01*
X89059Y-24878D01*
X88750Y-24750D01*
X88416Y-24749D01*
X88107Y-24877D01*
X87870Y-25113D01*
X87742Y-25422D01*
X87741Y-25757D01*
X87869Y-26066D01*
X88105Y-26302D01*
X88414Y-26430D01*
X88749Y-26431D01*
X89058Y-26303D01*
X89294Y-26067D01*
X89423Y-25758D01*
X89423Y-25424D01*
X89423Y-32510D01*
X89295Y-32201D01*
X89059Y-31964D01*
X88750Y-31836D01*
X88416Y-31836D01*
X88107Y-31964D01*
X87870Y-32200D01*
X87742Y-32509D01*
X87741Y-32843D01*
X87869Y-33152D01*
X88105Y-33389D01*
X88414Y-33517D01*
X88749Y-33517D01*
X89058Y-33390D01*
X89294Y-33153D01*
X89423Y-32845D01*
X89423Y-32510D01*
X89423Y-53611D01*
X89418Y-53606D01*
X89326Y-53568D01*
X89226Y-53568D01*
X89088Y-53568D01*
X89026Y-53630D01*
X89026Y-54068D01*
X89463Y-54068D01*
X89526Y-54005D01*
X89526Y-53768D01*
X89526Y-54467D01*
X89526Y-54230D01*
X89463Y-54168D01*
X89026Y-54168D01*
X89026Y-54175D01*
X88926Y-54175D01*
X88926Y-54168D01*
X88926Y-54068D01*
X88926Y-53630D01*
X88863Y-53568D01*
X88725Y-53568D01*
X88626Y-53568D01*
X88534Y-53606D01*
X88464Y-53676D01*
X88426Y-53768D01*
X88426Y-54005D01*
X88488Y-54068D01*
X88926Y-54068D01*
X88926Y-54168D01*
X88488Y-54168D01*
X88426Y-54230D01*
X88426Y-54467D01*
X88464Y-54559D01*
X88534Y-54629D01*
X88626Y-54668D01*
X88648Y-54668D01*
X88510Y-54806D01*
X88426Y-55008D01*
X88426Y-55227D01*
X88509Y-55429D01*
X88664Y-55584D01*
X88746Y-55618D01*
X88665Y-55651D01*
X88510Y-55806D01*
X88426Y-56008D01*
X88426Y-56227D01*
X88509Y-56429D01*
X88664Y-56584D01*
X88866Y-56668D01*
X89085Y-56668D01*
X89287Y-56584D01*
X89442Y-56430D01*
X89526Y-56227D01*
X89526Y-56009D01*
X89526Y-63116D01*
X88294Y-63116D01*
X88294Y-38703D01*
X88284Y-38485D01*
X88221Y-38334D01*
X88126Y-38306D01*
X88055Y-38377D01*
X88055Y-38236D01*
X88028Y-38140D01*
X87821Y-38067D01*
X87603Y-38078D01*
X87452Y-38140D01*
X87424Y-38236D01*
X87740Y-38551D01*
X88055Y-38236D01*
X88055Y-38377D01*
X87810Y-38622D01*
X88126Y-38937D01*
X88221Y-38909D01*
X88294Y-38703D01*
X88294Y-63116D01*
X88290Y-63116D01*
X88290Y-47513D01*
X88206Y-47310D01*
X88052Y-47156D01*
X87970Y-47122D01*
X88051Y-47088D01*
X88206Y-46934D01*
X88290Y-46731D01*
X88290Y-46513D01*
X88206Y-46310D01*
X88052Y-46156D01*
X87970Y-46122D01*
X88051Y-46088D01*
X88206Y-45934D01*
X88290Y-45731D01*
X88290Y-45513D01*
X88206Y-45310D01*
X88052Y-45156D01*
X87970Y-45122D01*
X88051Y-45088D01*
X88206Y-44934D01*
X88290Y-44731D01*
X88290Y-44513D01*
X88206Y-44310D01*
X88052Y-44156D01*
X87970Y-44122D01*
X88051Y-44088D01*
X88206Y-43934D01*
X88290Y-43731D01*
X88290Y-43513D01*
X88206Y-43310D01*
X88052Y-43156D01*
X87970Y-43122D01*
X88051Y-43088D01*
X88206Y-42934D01*
X88290Y-42731D01*
X88290Y-42513D01*
X88206Y-42310D01*
X88052Y-42156D01*
X87970Y-42122D01*
X88051Y-42088D01*
X88206Y-41934D01*
X88290Y-41731D01*
X88290Y-41513D01*
X88206Y-41310D01*
X88052Y-41156D01*
X87970Y-41122D01*
X88051Y-41088D01*
X88206Y-40934D01*
X88290Y-40731D01*
X88290Y-40513D01*
X88206Y-40310D01*
X88052Y-40156D01*
X87970Y-40122D01*
X88051Y-40088D01*
X88206Y-39934D01*
X88290Y-39731D01*
X88290Y-39513D01*
X88206Y-39310D01*
X88052Y-39156D01*
X87976Y-39124D01*
X88028Y-39103D01*
X88055Y-39007D01*
X87740Y-38692D01*
X87424Y-39007D01*
X87452Y-39103D01*
X87507Y-39123D01*
X87429Y-39155D01*
X87274Y-39310D01*
X87240Y-39391D01*
X87206Y-39310D01*
X87068Y-39172D01*
X87089Y-39172D01*
X87181Y-39134D01*
X87251Y-39063D01*
X87290Y-38971D01*
X87290Y-38918D01*
X87354Y-38937D01*
X87669Y-38622D01*
X87354Y-38306D01*
X87290Y-38325D01*
X87290Y-38272D01*
X87252Y-38180D01*
X87181Y-38110D01*
X87090Y-38072D01*
X87040Y-38072D01*
X87040Y-36149D01*
X87017Y-36034D01*
X86952Y-35937D01*
X83873Y-32858D01*
X83776Y-32793D01*
X83661Y-32770D01*
X81758Y-32770D01*
X81758Y-25250D01*
X81758Y-24650D01*
X81720Y-24558D01*
X81650Y-24488D01*
X81558Y-24450D01*
X81459Y-24449D01*
X80859Y-24449D01*
X80767Y-24487D01*
X80696Y-24558D01*
X80658Y-24650D01*
X80658Y-24672D01*
X80520Y-24534D01*
X80318Y-24450D01*
X80099Y-24449D01*
X79897Y-24533D01*
X79742Y-24688D01*
X79658Y-24890D01*
X79658Y-25108D01*
X79742Y-25311D01*
X79896Y-25465D01*
X80098Y-25549D01*
X80317Y-25550D01*
X80519Y-25466D01*
X80658Y-25327D01*
X80658Y-25349D01*
X80696Y-25441D01*
X80766Y-25511D01*
X80858Y-25549D01*
X80958Y-25550D01*
X81558Y-25550D01*
X81650Y-25512D01*
X81720Y-25441D01*
X81758Y-25349D01*
X81758Y-25250D01*
X81758Y-32770D01*
X78149Y-32770D01*
X78034Y-32793D01*
X77937Y-32858D01*
X77821Y-32974D01*
X77821Y-25250D01*
X77821Y-24650D01*
X77783Y-24558D01*
X77713Y-24488D01*
X77621Y-24450D01*
X77522Y-24449D01*
X76922Y-24449D01*
X76830Y-24487D01*
X76759Y-24558D01*
X76721Y-24650D01*
X76721Y-24672D01*
X76583Y-24534D01*
X76381Y-24450D01*
X76162Y-24449D01*
X75960Y-24533D01*
X75805Y-24688D01*
X75721Y-24890D01*
X75721Y-25108D01*
X75805Y-25311D01*
X75959Y-25465D01*
X76161Y-25549D01*
X76380Y-25550D01*
X76582Y-25466D01*
X76721Y-25327D01*
X76721Y-25349D01*
X76759Y-25441D01*
X76829Y-25511D01*
X76921Y-25549D01*
X77021Y-25550D01*
X77621Y-25550D01*
X77713Y-25512D01*
X77783Y-25441D01*
X77821Y-25349D01*
X77821Y-25250D01*
X77821Y-32974D01*
X76181Y-34614D01*
X76096Y-34614D01*
X75940Y-34678D01*
X75821Y-34798D01*
X75756Y-34954D01*
X75756Y-35123D01*
X75820Y-35279D01*
X75940Y-35399D01*
X76096Y-35464D01*
X76265Y-35464D01*
X76421Y-35399D01*
X76541Y-35280D01*
X76606Y-35124D01*
X76606Y-35038D01*
X76740Y-34904D01*
X76740Y-34926D01*
X76804Y-35082D01*
X76924Y-35202D01*
X77080Y-35267D01*
X77249Y-35267D01*
X77405Y-35203D01*
X77525Y-35083D01*
X77590Y-34927D01*
X77590Y-34841D01*
X78667Y-33764D01*
X83143Y-33764D01*
X85526Y-36147D01*
X85526Y-39173D01*
X85532Y-39202D01*
X82180Y-35850D01*
X82083Y-35785D01*
X81968Y-35762D01*
X81600Y-35762D01*
X81540Y-35702D01*
X81384Y-35638D01*
X81215Y-35637D01*
X81058Y-35702D01*
X80939Y-35821D01*
X80874Y-35978D01*
X80874Y-36147D01*
X80938Y-36303D01*
X81032Y-36397D01*
X80939Y-36491D01*
X80874Y-36647D01*
X80874Y-36816D01*
X80938Y-36972D01*
X81058Y-37092D01*
X81214Y-37157D01*
X81299Y-37157D01*
X85976Y-41834D01*
X85976Y-41834D01*
X86074Y-41899D01*
X86188Y-41922D01*
X86269Y-41922D01*
X86273Y-41933D01*
X86428Y-42088D01*
X86510Y-42122D01*
X86429Y-42155D01*
X86274Y-42310D01*
X86190Y-42512D01*
X86190Y-42730D01*
X86273Y-42933D01*
X86428Y-43088D01*
X86510Y-43122D01*
X86429Y-43155D01*
X86274Y-43310D01*
X86190Y-43512D01*
X86190Y-43730D01*
X86273Y-43933D01*
X86428Y-44088D01*
X86510Y-44122D01*
X86429Y-44155D01*
X86274Y-44310D01*
X86190Y-44512D01*
X86190Y-44730D01*
X86273Y-44933D01*
X86428Y-45088D01*
X86510Y-45122D01*
X86429Y-45155D01*
X86274Y-45310D01*
X86190Y-45512D01*
X86190Y-45730D01*
X86273Y-45933D01*
X86428Y-46088D01*
X86510Y-46122D01*
X86429Y-46155D01*
X86274Y-46310D01*
X86190Y-46512D01*
X86190Y-46730D01*
X86273Y-46933D01*
X86428Y-47088D01*
X86510Y-47122D01*
X86429Y-47155D01*
X86274Y-47310D01*
X86190Y-47512D01*
X86190Y-47730D01*
X86273Y-47933D01*
X86428Y-48088D01*
X86630Y-48171D01*
X86849Y-48172D01*
X87051Y-48088D01*
X87206Y-47934D01*
X87240Y-47852D01*
X87273Y-47933D01*
X87428Y-48088D01*
X87630Y-48171D01*
X87849Y-48172D01*
X88051Y-48088D01*
X88206Y-47934D01*
X88290Y-47731D01*
X88290Y-47513D01*
X88290Y-63116D01*
X72611Y-63116D01*
X72611Y-60422D01*
X72611Y-60328D01*
X72549Y-60266D01*
X72254Y-60266D01*
X72254Y-60560D01*
X72317Y-60623D01*
X72312Y-60623D01*
X72411Y-60623D01*
X72503Y-60585D01*
X72573Y-60514D01*
X72611Y-60422D01*
X72611Y-63116D01*
X72154Y-63116D01*
X72154Y-60560D01*
X72154Y-60266D01*
X71860Y-60266D01*
X71797Y-60328D01*
X71797Y-60422D01*
X71835Y-60514D01*
X71905Y-60585D01*
X71997Y-60623D01*
X72097Y-60623D01*
X72092Y-60623D01*
X72154Y-60560D01*
X72154Y-63116D01*
X70825Y-63116D01*
X70825Y-57699D01*
X70825Y-57462D01*
X70763Y-57400D01*
X70325Y-57400D01*
X70325Y-57837D01*
X70388Y-57900D01*
X70526Y-57900D01*
X70625Y-57900D01*
X70717Y-57862D01*
X70787Y-57791D01*
X70825Y-57699D01*
X70825Y-63116D01*
X70643Y-63116D01*
X70643Y-60422D01*
X70643Y-60328D01*
X70580Y-60266D01*
X70286Y-60266D01*
X70286Y-60560D01*
X70348Y-60623D01*
X70343Y-60623D01*
X70443Y-60623D01*
X70535Y-60585D01*
X70605Y-60514D01*
X70643Y-60422D01*
X70643Y-63116D01*
X70186Y-63116D01*
X70186Y-60560D01*
X70186Y-60266D01*
X69891Y-60266D01*
X69829Y-60328D01*
X69829Y-60422D01*
X69867Y-60514D01*
X69937Y-60585D01*
X70029Y-60623D01*
X70128Y-60623D01*
X70123Y-60623D01*
X70186Y-60560D01*
X70186Y-63116D01*
X68714Y-63116D01*
X68714Y-60422D01*
X68714Y-60328D01*
X68651Y-60266D01*
X68357Y-60266D01*
X68357Y-60560D01*
X68419Y-60623D01*
X68414Y-60623D01*
X68514Y-60623D01*
X68605Y-60585D01*
X68676Y-60514D01*
X68714Y-60422D01*
X68714Y-63116D01*
X68257Y-63116D01*
X68257Y-60560D01*
X68257Y-60266D01*
X67962Y-60266D01*
X67900Y-60328D01*
X67900Y-60422D01*
X67938Y-60514D01*
X68008Y-60585D01*
X68100Y-60623D01*
X68199Y-60623D01*
X68194Y-60623D01*
X68257Y-60560D01*
X68257Y-63116D01*
X67198Y-63116D01*
X67198Y-57790D01*
X67272Y-57900D01*
X67792Y-58420D01*
X67792Y-58575D01*
X67830Y-58667D01*
X67864Y-58700D01*
X67830Y-58733D01*
X67792Y-58825D01*
X67792Y-58925D01*
X67792Y-59175D01*
X67830Y-59267D01*
X67900Y-59337D01*
X67929Y-59349D01*
X67900Y-59419D01*
X67900Y-59518D01*
X67900Y-59832D01*
X67936Y-59921D01*
X67900Y-60009D01*
X67900Y-60103D01*
X67962Y-60166D01*
X68257Y-60166D01*
X68257Y-60158D01*
X68357Y-60158D01*
X68357Y-60166D01*
X68651Y-60166D01*
X68714Y-60103D01*
X68714Y-60009D01*
X68677Y-59921D01*
X68714Y-59833D01*
X68714Y-59733D01*
X68714Y-59419D01*
X68676Y-59327D01*
X68660Y-59311D01*
X68704Y-59267D01*
X68742Y-59175D01*
X68742Y-59076D01*
X68742Y-58826D01*
X68704Y-58734D01*
X68671Y-58700D01*
X68704Y-58667D01*
X68742Y-58575D01*
X68742Y-58476D01*
X68742Y-58237D01*
X69117Y-58612D01*
X69117Y-58612D01*
X69215Y-58677D01*
X69329Y-58700D01*
X69832Y-58700D01*
X69799Y-58733D01*
X69761Y-58825D01*
X69761Y-58925D01*
X69761Y-59175D01*
X69799Y-59267D01*
X69865Y-59333D01*
X69829Y-59419D01*
X69829Y-59518D01*
X69829Y-59832D01*
X69865Y-59921D01*
X69829Y-60009D01*
X69829Y-60103D01*
X69891Y-60166D01*
X70186Y-60166D01*
X70186Y-60158D01*
X70286Y-60158D01*
X70286Y-60166D01*
X70580Y-60166D01*
X70643Y-60103D01*
X70643Y-60009D01*
X70606Y-59921D01*
X70643Y-59833D01*
X70643Y-59733D01*
X70643Y-59419D01*
X70607Y-59333D01*
X70673Y-59267D01*
X70711Y-59175D01*
X70711Y-59076D01*
X70711Y-58826D01*
X70673Y-58734D01*
X70639Y-58700D01*
X70673Y-58667D01*
X70711Y-58575D01*
X70711Y-58476D01*
X70711Y-58226D01*
X70673Y-58134D01*
X70603Y-58063D01*
X70511Y-58025D01*
X70411Y-58025D01*
X70225Y-58025D01*
X70225Y-57837D01*
X70225Y-57400D01*
X69788Y-57400D01*
X69725Y-57462D01*
X69725Y-57699D01*
X69763Y-57791D01*
X69833Y-57862D01*
X69925Y-57900D01*
X70025Y-57900D01*
X70163Y-57900D01*
X70225Y-57837D01*
X70225Y-58025D01*
X69961Y-58025D01*
X69869Y-58063D01*
X69832Y-58100D01*
X69454Y-58100D01*
X68817Y-57464D01*
X68817Y-56989D01*
X68779Y-56897D01*
X68709Y-56826D01*
X68617Y-56788D01*
X68595Y-56788D01*
X68733Y-56650D01*
X68817Y-56448D01*
X68817Y-56362D01*
X69690Y-55489D01*
X69718Y-55555D01*
X69837Y-55675D01*
X69993Y-55739D01*
X70008Y-55739D01*
X70028Y-55759D01*
X70028Y-55759D01*
X70118Y-55820D01*
X69964Y-55883D01*
X69809Y-56038D01*
X69725Y-56240D01*
X69725Y-56459D01*
X69809Y-56661D01*
X69947Y-56800D01*
X69925Y-56800D01*
X69833Y-56838D01*
X69763Y-56908D01*
X69725Y-57000D01*
X69725Y-57237D01*
X69788Y-57300D01*
X70225Y-57300D01*
X70225Y-57292D01*
X70325Y-57292D01*
X70325Y-57300D01*
X70763Y-57300D01*
X70825Y-57237D01*
X70825Y-57000D01*
X70787Y-56908D01*
X70717Y-56838D01*
X70625Y-56800D01*
X70603Y-56800D01*
X70741Y-56662D01*
X70825Y-56460D01*
X70825Y-56241D01*
X70742Y-56039D01*
X70587Y-55884D01*
X70533Y-55861D01*
X71946Y-55861D01*
X71893Y-55883D01*
X71738Y-56038D01*
X71654Y-56240D01*
X71654Y-56459D01*
X71738Y-56661D01*
X71876Y-56800D01*
X71854Y-56800D01*
X71762Y-56838D01*
X71692Y-56908D01*
X71654Y-57000D01*
X71654Y-57237D01*
X71717Y-57300D01*
X72154Y-57300D01*
X72154Y-57292D01*
X72254Y-57292D01*
X72254Y-57300D01*
X72692Y-57300D01*
X72754Y-57237D01*
X72754Y-57000D01*
X72716Y-56908D01*
X72646Y-56838D01*
X72554Y-56800D01*
X72532Y-56800D01*
X72670Y-56662D01*
X72754Y-56460D01*
X72754Y-56241D01*
X72671Y-56040D01*
X72878Y-56247D01*
X72878Y-58072D01*
X72770Y-58050D01*
X72754Y-58050D01*
X72754Y-57699D01*
X72754Y-57462D01*
X72692Y-57400D01*
X72254Y-57400D01*
X72254Y-57837D01*
X72317Y-57900D01*
X72455Y-57900D01*
X72554Y-57900D01*
X72646Y-57862D01*
X72716Y-57791D01*
X72754Y-57699D01*
X72754Y-58050D01*
X72539Y-58050D01*
X72479Y-58025D01*
X72380Y-58025D01*
X72154Y-58025D01*
X72154Y-57837D01*
X72154Y-57400D01*
X71717Y-57400D01*
X71654Y-57462D01*
X71654Y-57699D01*
X71692Y-57791D01*
X71762Y-57862D01*
X71854Y-57900D01*
X71954Y-57900D01*
X72092Y-57900D01*
X72154Y-57837D01*
X72154Y-58025D01*
X71930Y-58025D01*
X71838Y-58063D01*
X71767Y-58133D01*
X71729Y-58225D01*
X71729Y-58325D01*
X71729Y-58575D01*
X71767Y-58667D01*
X71801Y-58700D01*
X71767Y-58733D01*
X71729Y-58825D01*
X71729Y-58925D01*
X71729Y-59175D01*
X71767Y-59267D01*
X71833Y-59333D01*
X71797Y-59419D01*
X71797Y-59518D01*
X71797Y-59832D01*
X71834Y-59921D01*
X71797Y-60009D01*
X71797Y-60103D01*
X71860Y-60166D01*
X72154Y-60166D01*
X72154Y-60158D01*
X72254Y-60158D01*
X72254Y-60166D01*
X72549Y-60166D01*
X72611Y-60103D01*
X72611Y-60009D01*
X72575Y-59921D01*
X72611Y-59833D01*
X72611Y-59733D01*
X72611Y-59419D01*
X72575Y-59333D01*
X72641Y-59267D01*
X72679Y-59175D01*
X72679Y-59076D01*
X72679Y-58826D01*
X72664Y-58789D01*
X72803Y-58928D01*
X72803Y-58942D01*
X72867Y-59098D01*
X72987Y-59218D01*
X73143Y-59283D01*
X73312Y-59283D01*
X73451Y-59226D01*
X73393Y-59363D01*
X73393Y-59532D01*
X73458Y-59689D01*
X73577Y-59808D01*
X73733Y-59873D01*
X73903Y-59873D01*
X74059Y-59809D01*
X74178Y-59689D01*
X74243Y-59533D01*
X74243Y-59364D01*
X74179Y-59208D01*
X74118Y-59147D01*
X74118Y-57614D01*
X74968Y-58463D01*
X74968Y-58548D01*
X75033Y-58704D01*
X75152Y-58824D01*
X75308Y-58889D01*
X75347Y-58889D01*
X75312Y-58973D01*
X75312Y-59073D01*
X75312Y-59323D01*
X75350Y-59415D01*
X75383Y-59448D01*
X75350Y-59482D01*
X75312Y-59574D01*
X75312Y-59636D01*
X75374Y-59698D01*
X75737Y-59698D01*
X75737Y-59690D01*
X75837Y-59690D01*
X75837Y-59698D01*
X75845Y-59698D01*
X75845Y-59798D01*
X75837Y-59798D01*
X75837Y-60061D01*
X75899Y-60123D01*
X75962Y-60123D01*
X76062Y-60123D01*
X76154Y-60085D01*
X76181Y-60058D01*
X76208Y-60085D01*
X76299Y-60123D01*
X76399Y-60123D01*
X76849Y-60123D01*
X76909Y-60098D01*
X77320Y-60098D01*
X77505Y-60284D01*
X77505Y-60324D01*
X77573Y-60489D01*
X77699Y-60614D01*
X77863Y-60682D01*
X78041Y-60683D01*
X78205Y-60615D01*
X78331Y-60489D01*
X78343Y-60460D01*
X78344Y-60461D01*
X78429Y-60476D01*
X78669Y-60236D01*
X78429Y-59995D01*
X78344Y-60010D01*
X78343Y-60012D01*
X78331Y-59983D01*
X78206Y-59857D01*
X78042Y-59789D01*
X78000Y-59789D01*
X77712Y-59501D01*
X77599Y-59425D01*
X77465Y-59398D01*
X77018Y-59398D01*
X77049Y-59323D01*
X77049Y-59224D01*
X77049Y-58974D01*
X77011Y-58882D01*
X76941Y-58812D01*
X76849Y-58773D01*
X76750Y-58773D01*
X76300Y-58773D01*
X76248Y-58795D01*
X76261Y-58776D01*
X76284Y-58661D01*
X76284Y-58661D01*
X76284Y-58070D01*
X76261Y-57956D01*
X76196Y-57858D01*
X76196Y-57858D01*
X75103Y-56765D01*
X75103Y-52880D01*
X75392Y-52590D01*
X75477Y-52590D01*
X75634Y-52525D01*
X75753Y-52406D01*
X75818Y-52250D01*
X75818Y-52081D01*
X75754Y-51924D01*
X75634Y-51805D01*
X75478Y-51740D01*
X75309Y-51740D01*
X75153Y-51804D01*
X75033Y-51924D01*
X74968Y-52080D01*
X74968Y-52166D01*
X74637Y-52497D01*
X74637Y-52474D01*
X74573Y-52318D01*
X74453Y-52198D01*
X74297Y-52134D01*
X74128Y-52133D01*
X73989Y-52191D01*
X74046Y-52053D01*
X74047Y-51884D01*
X73982Y-51728D01*
X73982Y-51727D01*
X76914Y-51727D01*
X76924Y-51738D01*
X77080Y-51802D01*
X77249Y-51803D01*
X77405Y-51738D01*
X77416Y-51727D01*
X80063Y-51727D01*
X80073Y-51738D01*
X80230Y-51802D01*
X80399Y-51803D01*
X80555Y-51738D01*
X80675Y-51619D01*
X80739Y-51462D01*
X80740Y-51293D01*
X80675Y-51137D01*
X80556Y-51017D01*
X80399Y-50953D01*
X80230Y-50952D01*
X80074Y-51017D01*
X80064Y-51027D01*
X77416Y-51027D01*
X77406Y-51017D01*
X77250Y-50953D01*
X77081Y-50952D01*
X76924Y-51017D01*
X76914Y-51027D01*
X73307Y-51027D01*
X73173Y-51054D01*
X73059Y-51130D01*
X73059Y-51130D01*
X73059Y-51130D01*
X70200Y-53989D01*
X70200Y-51471D01*
X70189Y-51253D01*
X70126Y-51101D01*
X70031Y-51074D01*
X69716Y-51389D01*
X70031Y-51704D01*
X70126Y-51677D01*
X70200Y-51471D01*
X70200Y-53989D01*
X68817Y-55372D01*
X68817Y-55229D01*
X68734Y-55027D01*
X68617Y-54910D01*
X68617Y-53912D01*
X69590Y-52939D01*
X69995Y-52939D01*
X70087Y-52901D01*
X70157Y-52831D01*
X70195Y-52739D01*
X70195Y-52640D01*
X70195Y-52040D01*
X70157Y-51948D01*
X70087Y-51877D01*
X69995Y-51839D01*
X69942Y-51839D01*
X69960Y-51775D01*
X69645Y-51460D01*
X69330Y-51775D01*
X69348Y-51839D01*
X69296Y-51839D01*
X69204Y-51877D01*
X69133Y-51947D01*
X69095Y-52039D01*
X69095Y-52139D01*
X69095Y-52444D01*
X68020Y-53520D01*
X67944Y-53633D01*
X67917Y-53767D01*
X67917Y-54910D01*
X67869Y-54958D01*
X67869Y-52704D01*
X69099Y-51474D01*
X69101Y-51526D01*
X69164Y-51677D01*
X69259Y-51704D01*
X69574Y-51389D01*
X69569Y-51384D01*
X69640Y-51313D01*
X69645Y-51319D01*
X69960Y-51003D01*
X69933Y-50908D01*
X69735Y-50837D01*
X70047Y-50526D01*
X70047Y-50674D01*
X70111Y-50830D01*
X70231Y-50950D01*
X70387Y-51015D01*
X70556Y-51015D01*
X70712Y-50951D01*
X70773Y-50890D01*
X73714Y-50890D01*
X73774Y-50950D01*
X73930Y-51015D01*
X74099Y-51015D01*
X74256Y-50951D01*
X74375Y-50831D01*
X74401Y-50768D01*
X74521Y-50818D01*
X74690Y-50818D01*
X74846Y-50754D01*
X74966Y-50634D01*
X75031Y-50478D01*
X75031Y-50309D01*
X74966Y-50153D01*
X74847Y-50033D01*
X74691Y-49968D01*
X74597Y-49968D01*
X74579Y-49956D01*
X74606Y-49956D01*
X74740Y-49929D01*
X74740Y-49929D01*
X74853Y-49853D01*
X75069Y-49637D01*
X75084Y-49637D01*
X75240Y-49573D01*
X75360Y-49453D01*
X75424Y-49297D01*
X75425Y-49210D01*
X75505Y-49243D01*
X75674Y-49243D01*
X75830Y-49179D01*
X75950Y-49059D01*
X76015Y-48903D01*
X76015Y-48734D01*
X75951Y-48578D01*
X75831Y-48458D01*
X75675Y-48393D01*
X75589Y-48393D01*
X75212Y-48016D01*
X75114Y-47951D01*
X75000Y-47928D01*
X74916Y-47928D01*
X74966Y-47878D01*
X75031Y-47722D01*
X75031Y-47637D01*
X75408Y-47259D01*
X75408Y-47259D01*
X75474Y-47162D01*
X75496Y-47047D01*
X75496Y-47047D01*
X75496Y-44986D01*
X75556Y-44926D01*
X75621Y-44769D01*
X75621Y-44600D01*
X75557Y-44444D01*
X75507Y-44394D01*
X81468Y-44394D01*
X81464Y-44403D01*
X81464Y-44572D01*
X81529Y-44728D01*
X81648Y-44848D01*
X81804Y-44913D01*
X81819Y-44913D01*
X81933Y-45026D01*
X81933Y-47090D01*
X81102Y-47090D01*
X80968Y-47117D01*
X80854Y-47193D01*
X80638Y-47409D01*
X80624Y-47409D01*
X80468Y-47474D01*
X80348Y-47593D01*
X80283Y-47749D01*
X80283Y-47918D01*
X80348Y-48075D01*
X80467Y-48194D01*
X80623Y-48259D01*
X80792Y-48259D01*
X80949Y-48195D01*
X81068Y-48075D01*
X81133Y-47919D01*
X81133Y-47904D01*
X81247Y-47790D01*
X82032Y-47790D01*
X82042Y-47801D01*
X82198Y-47865D01*
X82367Y-47866D01*
X82523Y-47801D01*
X82643Y-47682D01*
X82708Y-47525D01*
X82708Y-47356D01*
X82643Y-47200D01*
X82633Y-47189D01*
X82633Y-44881D01*
X82606Y-44747D01*
X82530Y-44634D01*
X82314Y-44418D01*
X82314Y-44404D01*
X82310Y-44394D01*
X82552Y-44394D01*
X83361Y-45203D01*
X83361Y-58734D01*
X82117Y-59978D01*
X82117Y-56061D01*
X82095Y-55922D01*
X82078Y-55875D01*
X82065Y-55834D01*
X81979Y-55677D01*
X81979Y-55676D01*
X81911Y-55595D01*
X81771Y-55483D01*
X81677Y-55435D01*
X81677Y-55435D01*
X81634Y-55422D01*
X81509Y-54988D01*
X81494Y-54960D01*
X81474Y-54912D01*
X80885Y-54031D01*
X80810Y-53957D01*
X80806Y-53955D01*
X79932Y-53370D01*
X79929Y-53367D01*
X79832Y-53327D01*
X78792Y-53121D01*
X78751Y-53121D01*
X78710Y-53117D01*
X78108Y-53185D01*
X78058Y-53201D01*
X78028Y-53207D01*
X77060Y-53638D01*
X76974Y-53699D01*
X76972Y-53703D01*
X76248Y-54466D01*
X76244Y-54469D01*
X76188Y-54558D01*
X75861Y-55415D01*
X75816Y-55436D01*
X75776Y-55452D01*
X75627Y-55552D01*
X75626Y-55552D01*
X75552Y-55627D01*
X75452Y-55776D01*
X75412Y-55873D01*
X75412Y-55874D01*
X75377Y-56049D01*
X75377Y-56096D01*
X75375Y-56143D01*
X75397Y-56281D01*
X75412Y-56323D01*
X75426Y-56370D01*
X75513Y-56527D01*
X75580Y-56608D01*
X75581Y-56608D01*
X75720Y-56720D01*
X75720Y-56720D01*
X75814Y-56769D01*
X75844Y-56778D01*
X75971Y-57216D01*
X75990Y-57253D01*
X76006Y-57291D01*
X76593Y-58168D01*
X76594Y-58172D01*
X76669Y-58247D01*
X77550Y-58836D01*
X77647Y-58877D01*
X77651Y-58877D01*
X78687Y-59082D01*
X78718Y-59082D01*
X78770Y-59086D01*
X79372Y-59019D01*
X79411Y-59006D01*
X79451Y-58997D01*
X80419Y-58566D01*
X80505Y-58505D01*
X80508Y-58502D01*
X81235Y-57736D01*
X81291Y-57647D01*
X81292Y-57642D01*
X81616Y-56792D01*
X81630Y-56789D01*
X81670Y-56770D01*
X81715Y-56751D01*
X81865Y-56652D01*
X81939Y-56577D01*
X81940Y-56577D01*
X82038Y-56429D01*
X82039Y-56428D01*
X82079Y-56331D01*
X82115Y-56155D01*
X82115Y-56107D01*
X82117Y-56061D01*
X82117Y-59978D01*
X81103Y-60992D01*
X81100Y-60992D01*
X81133Y-60911D01*
X81133Y-60742D01*
X81069Y-60586D01*
X80949Y-60466D01*
X80793Y-60401D01*
X80624Y-60401D01*
X80468Y-60466D01*
X80457Y-60476D01*
X79911Y-60476D01*
X79974Y-60325D01*
X79974Y-60147D01*
X79906Y-59983D01*
X79781Y-59857D01*
X79616Y-59789D01*
X79439Y-59789D01*
X79274Y-59857D01*
X79148Y-59982D01*
X79136Y-60012D01*
X79135Y-60010D01*
X79051Y-59995D01*
X78980Y-60066D01*
X78980Y-59925D01*
X78965Y-59840D01*
X78797Y-59784D01*
X78619Y-59796D01*
X78514Y-59840D01*
X78499Y-59925D01*
X78740Y-60165D01*
X78980Y-59925D01*
X78980Y-60066D01*
X78810Y-60236D01*
X78816Y-60241D01*
X78745Y-60312D01*
X78740Y-60306D01*
X78499Y-60547D01*
X78514Y-60631D01*
X78683Y-60688D01*
X78784Y-60681D01*
X78398Y-61067D01*
X75737Y-61067D01*
X75737Y-60061D01*
X75737Y-59798D01*
X75374Y-59798D01*
X75312Y-59861D01*
X75312Y-59923D01*
X75350Y-60015D01*
X75420Y-60085D01*
X75512Y-60123D01*
X75611Y-60123D01*
X75674Y-60123D01*
X75737Y-60061D01*
X75737Y-61067D01*
X74070Y-61067D01*
X74059Y-61057D01*
X73903Y-60992D01*
X73734Y-60992D01*
X73578Y-61056D01*
X73458Y-61176D01*
X73393Y-61332D01*
X73393Y-61501D01*
X73458Y-61657D01*
X73577Y-61777D01*
X73733Y-61842D01*
X73903Y-61842D01*
X74059Y-61777D01*
X74069Y-61767D01*
X78543Y-61767D01*
X78677Y-61740D01*
X78677Y-61740D01*
X78790Y-61664D01*
X79278Y-61176D01*
X80457Y-61176D01*
X80467Y-61186D01*
X80623Y-61251D01*
X80710Y-61251D01*
X80677Y-61332D01*
X80677Y-61501D01*
X80741Y-61657D01*
X80861Y-61777D01*
X81017Y-61842D01*
X81186Y-61842D01*
X81342Y-61777D01*
X81462Y-61658D01*
X81527Y-61502D01*
X81527Y-61416D01*
X83873Y-59070D01*
X83938Y-58973D01*
X83956Y-58882D01*
X83974Y-58973D01*
X84039Y-59070D01*
X85008Y-60038D01*
X85007Y-60123D01*
X85072Y-60279D01*
X85192Y-60399D01*
X85348Y-60464D01*
X85517Y-60464D01*
X85673Y-60399D01*
X85793Y-60280D01*
X85857Y-60124D01*
X85858Y-59955D01*
X85793Y-59798D01*
X85674Y-59679D01*
X85517Y-59614D01*
X85432Y-59614D01*
X85330Y-59512D01*
X85330Y-42746D01*
X85203Y-42437D01*
X84966Y-42201D01*
X84658Y-42072D01*
X84323Y-42072D01*
X84014Y-42200D01*
X83777Y-42436D01*
X83649Y-42745D01*
X83649Y-43079D01*
X83777Y-43388D01*
X84013Y-43625D01*
X84322Y-43753D01*
X84656Y-43754D01*
X84965Y-43626D01*
X85202Y-43390D01*
X85330Y-43081D01*
X85330Y-42746D01*
X85330Y-59512D01*
X84551Y-58734D01*
X84551Y-44685D01*
X84529Y-44570D01*
X84464Y-44472D01*
X84464Y-44472D01*
X83086Y-43094D01*
X82988Y-43029D01*
X82874Y-43007D01*
X79247Y-43007D01*
X79297Y-42957D01*
X79361Y-42801D01*
X79362Y-42715D01*
X79920Y-42157D01*
X80005Y-42157D01*
X80161Y-42092D01*
X80281Y-41973D01*
X80346Y-41817D01*
X80346Y-41648D01*
X80281Y-41491D01*
X80162Y-41372D01*
X80006Y-41307D01*
X79837Y-41307D01*
X79680Y-41371D01*
X79561Y-41491D01*
X79496Y-41647D01*
X79496Y-41733D01*
X78937Y-42291D01*
X78852Y-42291D01*
X78696Y-42356D01*
X78576Y-42475D01*
X78512Y-42631D01*
X78511Y-42800D01*
X78576Y-42956D01*
X78626Y-43007D01*
X77787Y-43007D01*
X77787Y-41648D01*
X77722Y-41491D01*
X77603Y-41372D01*
X77447Y-41307D01*
X77432Y-41307D01*
X76428Y-40303D01*
X76315Y-40227D01*
X76181Y-40201D01*
X74070Y-40201D01*
X74059Y-40191D01*
X73903Y-40126D01*
X73734Y-40126D01*
X73578Y-40190D01*
X73458Y-40310D01*
X73393Y-40466D01*
X73393Y-40635D01*
X73458Y-40791D01*
X73577Y-40911D01*
X73733Y-40976D01*
X73903Y-40976D01*
X74059Y-40911D01*
X74069Y-40901D01*
X76036Y-40901D01*
X76937Y-41802D01*
X76937Y-41816D01*
X77001Y-41972D01*
X77121Y-42092D01*
X77277Y-42157D01*
X77446Y-42157D01*
X77602Y-42092D01*
X77722Y-41973D01*
X77787Y-41817D01*
X77787Y-41648D01*
X77787Y-43007D01*
X75196Y-43007D01*
X75082Y-43029D01*
X74984Y-43094D01*
X73830Y-44248D01*
X73830Y-42746D01*
X73703Y-42437D01*
X73466Y-42201D01*
X73158Y-42072D01*
X72823Y-42072D01*
X72514Y-42200D01*
X72277Y-42436D01*
X72149Y-42745D01*
X72149Y-43079D01*
X72277Y-43388D01*
X72513Y-43625D01*
X72822Y-43753D01*
X73156Y-43754D01*
X73465Y-43626D01*
X73702Y-43390D01*
X73830Y-43081D01*
X73830Y-42746D01*
X73830Y-44248D01*
X73803Y-44276D01*
X73803Y-44276D01*
X72710Y-45369D01*
X71974Y-45369D01*
X71715Y-45110D01*
X71737Y-45110D01*
X71893Y-45045D01*
X72013Y-44926D01*
X72078Y-44769D01*
X72078Y-44600D01*
X72014Y-44444D01*
X71953Y-44383D01*
X71953Y-44094D01*
X71953Y-42125D01*
X71930Y-42011D01*
X71865Y-41913D01*
X71865Y-41913D01*
X71361Y-41409D01*
X71294Y-41365D01*
X71294Y-39703D01*
X71284Y-39485D01*
X71221Y-39334D01*
X71126Y-39306D01*
X70810Y-39622D01*
X71126Y-39937D01*
X71221Y-39909D01*
X71294Y-39703D01*
X71294Y-41365D01*
X71264Y-41344D01*
X71216Y-41335D01*
X71206Y-41310D01*
X71052Y-41156D01*
X70970Y-41122D01*
X71051Y-41088D01*
X71206Y-40934D01*
X71290Y-40731D01*
X71290Y-40513D01*
X71206Y-40310D01*
X71052Y-40156D01*
X70976Y-40124D01*
X71028Y-40103D01*
X71055Y-40007D01*
X70740Y-39692D01*
X70424Y-40007D01*
X70452Y-40103D01*
X70507Y-40123D01*
X70429Y-40155D01*
X70274Y-40310D01*
X70240Y-40391D01*
X70206Y-40310D01*
X70052Y-40156D01*
X69970Y-40122D01*
X70051Y-40088D01*
X70206Y-39934D01*
X70237Y-39858D01*
X70258Y-39909D01*
X70354Y-39937D01*
X70669Y-39622D01*
X70354Y-39306D01*
X70258Y-39334D01*
X70239Y-39389D01*
X70206Y-39310D01*
X70068Y-39172D01*
X70089Y-39172D01*
X70181Y-39134D01*
X70251Y-39063D01*
X70290Y-38971D01*
X70290Y-38949D01*
X70428Y-39088D01*
X70503Y-39119D01*
X70452Y-39140D01*
X70424Y-39236D01*
X70740Y-39551D01*
X71055Y-39236D01*
X71028Y-39140D01*
X70972Y-39121D01*
X71051Y-39088D01*
X71089Y-39050D01*
X79552Y-39050D01*
X79562Y-39060D01*
X79718Y-39125D01*
X79887Y-39125D01*
X80043Y-39061D01*
X80054Y-39050D01*
X80484Y-39050D01*
X83236Y-41802D01*
X83236Y-41816D01*
X83300Y-41972D01*
X83420Y-42092D01*
X83576Y-42157D01*
X83745Y-42157D01*
X83901Y-42092D01*
X84021Y-41973D01*
X84086Y-41817D01*
X84086Y-41648D01*
X84021Y-41491D01*
X83902Y-41372D01*
X83746Y-41307D01*
X83731Y-41307D01*
X80877Y-38453D01*
X80763Y-38377D01*
X80629Y-38350D01*
X80054Y-38350D01*
X80044Y-38340D01*
X79888Y-38275D01*
X79718Y-38275D01*
X79562Y-38340D01*
X79552Y-38350D01*
X71223Y-38350D01*
X71206Y-38310D01*
X71073Y-38177D01*
X71073Y-38177D01*
X71063Y-38125D01*
X70987Y-38012D01*
X70987Y-38012D01*
X70326Y-37350D01*
X70212Y-37275D01*
X70078Y-37248D01*
X69738Y-37248D01*
X69738Y-32510D01*
X69738Y-25424D01*
X69610Y-25115D01*
X69374Y-24878D01*
X69065Y-24750D01*
X68731Y-24749D01*
X68422Y-24877D01*
X68185Y-25113D01*
X68057Y-25422D01*
X68056Y-25757D01*
X68184Y-26066D01*
X68420Y-26302D01*
X68729Y-26430D01*
X69064Y-26431D01*
X69373Y-26303D01*
X69609Y-26067D01*
X69738Y-25758D01*
X69738Y-25424D01*
X69738Y-32510D01*
X69610Y-32201D01*
X69374Y-31964D01*
X69065Y-31836D01*
X68731Y-31836D01*
X68422Y-31964D01*
X68185Y-32200D01*
X68057Y-32509D01*
X68056Y-32843D01*
X68184Y-33152D01*
X68420Y-33389D01*
X68729Y-33517D01*
X69064Y-33517D01*
X69373Y-33390D01*
X69609Y-33153D01*
X69738Y-32845D01*
X69738Y-32510D01*
X69738Y-37248D01*
X69488Y-37248D01*
X69354Y-37275D01*
X69240Y-37350D01*
X67862Y-38728D01*
X67786Y-38842D01*
X67760Y-38976D01*
X67760Y-43055D01*
X67750Y-43066D01*
X67685Y-43222D01*
X67685Y-43391D01*
X67749Y-43547D01*
X67869Y-43667D01*
X68025Y-43732D01*
X68194Y-43732D01*
X68350Y-43667D01*
X68470Y-43548D01*
X68535Y-43391D01*
X68535Y-43222D01*
X68470Y-43066D01*
X68460Y-43056D01*
X68460Y-39121D01*
X68638Y-38942D01*
X68574Y-39039D01*
X68547Y-39173D01*
X68547Y-49355D01*
X68537Y-49365D01*
X68472Y-49521D01*
X68472Y-49690D01*
X68537Y-49846D01*
X68656Y-49966D01*
X68812Y-50031D01*
X68981Y-50031D01*
X69138Y-49966D01*
X69257Y-49847D01*
X69322Y-49691D01*
X69322Y-49522D01*
X69258Y-49365D01*
X69247Y-49355D01*
X69247Y-47870D01*
X69273Y-47933D01*
X69428Y-48088D01*
X69630Y-48171D01*
X69849Y-48172D01*
X70051Y-48088D01*
X70206Y-47934D01*
X70240Y-47852D01*
X70273Y-47933D01*
X70428Y-48088D01*
X70630Y-48171D01*
X70849Y-48172D01*
X71051Y-48088D01*
X71206Y-47934D01*
X71290Y-47731D01*
X71290Y-47513D01*
X71206Y-47310D01*
X71052Y-47156D01*
X70970Y-47122D01*
X71051Y-47088D01*
X71206Y-46934D01*
X71290Y-46731D01*
X71290Y-46596D01*
X71550Y-46856D01*
X71550Y-47637D01*
X71573Y-47752D01*
X71638Y-47849D01*
X72031Y-48243D01*
X72228Y-48440D01*
X72228Y-48440D01*
X72326Y-48505D01*
X72440Y-48528D01*
X72440Y-48528D01*
X74875Y-48528D01*
X75165Y-48818D01*
X75165Y-48821D01*
X75084Y-48787D01*
X74915Y-48787D01*
X74759Y-48852D01*
X74639Y-48971D01*
X74575Y-49127D01*
X74575Y-49142D01*
X74461Y-49256D01*
X70472Y-49256D01*
X70472Y-49256D01*
X70338Y-49282D01*
X70224Y-49358D01*
X70224Y-49358D01*
X67272Y-52311D01*
X67198Y-52421D01*
X67198Y-23891D01*
X90281Y-23891D01*
X90281Y-63116D01*
M02*
