G04 (created by PCBNEW (2013-07-07 BZR 4022)-stable) date 7/8/2014 5:22:45 PM*
%MOIN*%
G04 Gerber Fmt 3.4, Leading zero omitted, Abs format*
%FSLAX34Y34*%
G01*
G70*
G90*
G04 APERTURE LIST*
%ADD10C,0.00590551*%
%ADD11C,0.11811*%
%ADD12R,0.045X0.025*%
%ADD13R,0.06X0.06*%
%ADD14C,0.06*%
%ADD15R,0.0314X0.0314*%
%ADD16C,0.0393701*%
G04 APERTURE END LIST*
G54D10*
G54D11*
X84490Y-42913D03*
X72990Y-42913D03*
X68897Y-32677D03*
X68897Y-25590D03*
X88582Y-25590D03*
X88582Y-32677D03*
G54D12*
X68267Y-59000D03*
X68267Y-58400D03*
X72204Y-59000D03*
X72204Y-58400D03*
X70236Y-59000D03*
X70236Y-58400D03*
X76574Y-59748D03*
X76574Y-59148D03*
X75787Y-59148D03*
X75787Y-59748D03*
G54D13*
X68267Y-57338D03*
G54D14*
X68267Y-56338D03*
X68267Y-55338D03*
G54D13*
X88976Y-54118D03*
G54D14*
X88976Y-55118D03*
X88976Y-56118D03*
G54D13*
X70275Y-57350D03*
G54D14*
X70275Y-56350D03*
G54D13*
X77271Y-25000D03*
G54D14*
X76271Y-25000D03*
G54D13*
X81208Y-25000D03*
G54D14*
X80208Y-25000D03*
G54D13*
X69645Y-52389D03*
G54D14*
X69645Y-51389D03*
G54D13*
X72204Y-57350D03*
G54D14*
X72204Y-56350D03*
G54D13*
X86740Y-38622D03*
G54D14*
X87740Y-38622D03*
X86740Y-39622D03*
X87740Y-39622D03*
X86740Y-40622D03*
X87740Y-40622D03*
X86740Y-41622D03*
X87740Y-41622D03*
X86740Y-42622D03*
X87740Y-42622D03*
X86740Y-43622D03*
X87740Y-43622D03*
X86740Y-44622D03*
X87740Y-44622D03*
X86740Y-45622D03*
X87740Y-45622D03*
X86740Y-46622D03*
X87740Y-46622D03*
X86740Y-47622D03*
X87740Y-47622D03*
G54D13*
X69740Y-38622D03*
G54D14*
X70740Y-38622D03*
X69740Y-39622D03*
X70740Y-39622D03*
X69740Y-40622D03*
X70740Y-40622D03*
X69740Y-41622D03*
X70740Y-41622D03*
X69740Y-42622D03*
X70740Y-42622D03*
X69740Y-43622D03*
X70740Y-43622D03*
X69740Y-44622D03*
X70740Y-44622D03*
X69740Y-45622D03*
X70740Y-45622D03*
X69740Y-46622D03*
X70740Y-46622D03*
X69740Y-47622D03*
X70740Y-47622D03*
G54D15*
X72204Y-59626D03*
X72204Y-60216D03*
X70236Y-59626D03*
X70236Y-60216D03*
X68307Y-59626D03*
X68307Y-60216D03*
G54D16*
X79527Y-60236D03*
X78740Y-60236D03*
X77952Y-60236D03*
M02*
