G04 (created by PCBNEW (2013-07-07 BZR 4022)-stable) date 7/8/2014 5:22:45 PM*
%MOIN*%
G04 Gerber Fmt 3.4, Leading zero omitted, Abs format*
%FSLAX34Y34*%
G01*
G70*
G90*
G04 APERTURE LIST*
%ADD10C,0.00590551*%
%ADD11C,0.11811*%
%ADD12R,0.0165X0.0579*%
%ADD13R,0.0787X0.1181*%
%ADD14R,0.15X0.055*%
%ADD15R,0.06X0.08*%
%ADD16R,0.025X0.045*%
%ADD17R,0.045X0.025*%
%ADD18R,0.06X0.06*%
%ADD19C,0.06*%
%ADD20R,0.0402X0.0161*%
%ADD21C,0.0393701*%
%ADD22R,0.0866X0.0709*%
%ADD23R,0.0629921X0.224409*%
%ADD24R,0.03X0.02*%
%ADD25R,0.0393701X0.0433071*%
%ADD26C,0.035*%
%ADD27C,0.02*%
%ADD28C,0.01*%
G04 APERTURE END LIST*
G54D10*
G54D11*
X84490Y-42913D03*
X72990Y-42913D03*
X68897Y-32677D03*
X68897Y-25590D03*
X88582Y-25590D03*
X88582Y-32677D03*
G54D12*
X78513Y-33838D03*
X78769Y-33838D03*
X79025Y-33838D03*
X79281Y-33838D03*
X77749Y-36040D03*
X77745Y-33838D03*
X78001Y-33838D03*
X78257Y-33838D03*
X79537Y-36042D03*
X79281Y-36042D03*
X79025Y-36042D03*
X78769Y-36042D03*
X78513Y-36042D03*
X78257Y-36042D03*
X79537Y-33838D03*
X78001Y-36040D03*
G54D13*
X74819Y-39968D03*
X77181Y-39968D03*
X81015Y-39968D03*
X83377Y-39968D03*
G54D14*
X77165Y-50506D03*
X77165Y-48706D03*
G54D15*
X82146Y-46259D03*
X80846Y-46259D03*
G54D16*
X79424Y-46259D03*
X80024Y-46259D03*
X75684Y-43208D03*
X76284Y-43208D03*
X78341Y-37696D03*
X78941Y-37696D03*
X77751Y-36909D03*
X78351Y-36909D03*
X79532Y-36909D03*
X78932Y-36909D03*
X81885Y-43208D03*
X82485Y-43208D03*
G54D17*
X76377Y-46550D03*
X76377Y-47150D03*
X80314Y-61511D03*
X80314Y-62111D03*
G54D16*
X75496Y-60236D03*
X74896Y-60236D03*
G54D17*
X77362Y-62111D03*
X77362Y-61511D03*
X83661Y-61511D03*
X83661Y-62111D03*
X76574Y-61511D03*
X76574Y-62111D03*
G54D16*
X82583Y-60236D03*
X81983Y-60236D03*
X88479Y-59448D03*
X89079Y-59448D03*
X89079Y-60236D03*
X88479Y-60236D03*
G54D17*
X74803Y-41727D03*
X74803Y-42327D03*
X81023Y-41707D03*
X81023Y-42307D03*
X81496Y-47937D03*
X81496Y-47337D03*
G54D16*
X77062Y-46456D03*
X77662Y-46456D03*
X78843Y-46259D03*
X78243Y-46259D03*
G54D17*
X77165Y-47740D03*
X77165Y-47140D03*
X70078Y-61707D03*
X70078Y-62307D03*
G54D16*
X69000Y-60236D03*
X68400Y-60236D03*
X76629Y-33818D03*
X77229Y-33818D03*
G54D18*
X68267Y-57338D03*
G54D19*
X68267Y-56338D03*
X68267Y-55338D03*
G54D18*
X88976Y-54118D03*
G54D19*
X88976Y-55118D03*
X88976Y-56118D03*
G54D18*
X70275Y-57350D03*
G54D19*
X70275Y-56350D03*
G54D18*
X77271Y-25000D03*
G54D19*
X76271Y-25000D03*
G54D18*
X81208Y-25000D03*
G54D19*
X80208Y-25000D03*
G54D18*
X69645Y-52389D03*
G54D19*
X69645Y-51389D03*
G54D18*
X72204Y-57350D03*
G54D19*
X72204Y-56350D03*
G54D18*
X86740Y-38622D03*
G54D19*
X87740Y-38622D03*
X86740Y-39622D03*
X87740Y-39622D03*
X86740Y-40622D03*
X87740Y-40622D03*
X86740Y-41622D03*
X87740Y-41622D03*
X86740Y-42622D03*
X87740Y-42622D03*
X86740Y-43622D03*
X87740Y-43622D03*
X86740Y-44622D03*
X87740Y-44622D03*
X86740Y-45622D03*
X87740Y-45622D03*
X86740Y-46622D03*
X87740Y-46622D03*
X86740Y-47622D03*
X87740Y-47622D03*
G54D18*
X69740Y-38622D03*
G54D19*
X70740Y-38622D03*
X69740Y-39622D03*
X70740Y-39622D03*
X69740Y-40622D03*
X70740Y-40622D03*
X69740Y-41622D03*
X70740Y-41622D03*
X69740Y-42622D03*
X70740Y-42622D03*
X69740Y-43622D03*
X70740Y-43622D03*
X69740Y-44622D03*
X70740Y-44622D03*
X69740Y-45622D03*
X70740Y-45622D03*
X69740Y-46622D03*
X70740Y-46622D03*
X69740Y-47622D03*
X70740Y-47622D03*
G54D20*
X78016Y-47729D03*
X78016Y-47473D03*
X78016Y-47217D03*
X78016Y-46961D03*
X79828Y-46961D03*
X79828Y-47217D03*
X79828Y-47473D03*
X79828Y-47729D03*
G54D21*
X79527Y-60236D03*
X78740Y-60236D03*
X77952Y-60236D03*
G54D22*
X82874Y-50002D03*
X82874Y-48422D03*
G54D23*
X80649Y-49803D03*
X78799Y-49803D03*
G54D24*
X81696Y-42343D03*
X81696Y-41593D03*
X82696Y-42343D03*
X81696Y-41968D03*
X82696Y-41593D03*
X75500Y-42343D03*
X75500Y-41593D03*
X76500Y-42343D03*
X75500Y-41968D03*
X76500Y-41593D03*
G54D25*
X69055Y-62362D03*
X68346Y-62362D03*
X68346Y-61259D03*
X69055Y-61259D03*
X75551Y-62362D03*
X74842Y-62362D03*
X74842Y-61259D03*
X75551Y-61259D03*
X79094Y-62362D03*
X78385Y-62362D03*
X78385Y-61259D03*
X79094Y-61259D03*
X82637Y-62362D03*
X81929Y-62362D03*
X81929Y-61259D03*
X82637Y-61259D03*
X89133Y-62362D03*
X88425Y-62362D03*
X88425Y-61259D03*
X89133Y-61259D03*
G54D26*
X73818Y-40551D03*
X77362Y-41732D03*
X68897Y-49606D03*
X70078Y-55314D03*
X73818Y-61417D03*
X73228Y-58858D03*
X80708Y-60826D03*
X83661Y-41732D03*
X68110Y-43307D03*
X79803Y-38700D03*
X82283Y-47440D03*
X75000Y-49212D03*
X81889Y-44488D03*
X80708Y-47834D03*
X75590Y-48818D03*
X75393Y-52165D03*
X71653Y-44685D03*
X70472Y-50590D03*
X74015Y-50590D03*
X73622Y-51968D03*
X73818Y-59448D03*
X70669Y-50000D03*
X74606Y-50393D03*
X74212Y-52559D03*
X75393Y-58464D03*
X72834Y-46259D03*
X81102Y-61417D03*
X85433Y-60039D03*
X76181Y-35039D03*
X77165Y-34842D03*
X81299Y-36062D03*
X81299Y-36732D03*
X76181Y-44488D03*
X78346Y-39960D03*
X80118Y-41141D03*
X72244Y-61417D03*
X71259Y-52559D03*
X75984Y-50000D03*
X87401Y-62007D03*
X80314Y-51377D03*
X77165Y-51377D03*
X78937Y-42716D03*
X79921Y-41732D03*
X75196Y-44685D03*
X74606Y-47637D03*
G54D27*
X76500Y-42343D02*
X76750Y-42343D01*
X74212Y-39976D02*
X74220Y-39968D01*
X74212Y-40157D02*
X74212Y-39976D01*
X73818Y-40551D02*
X74212Y-40157D01*
X76750Y-42343D02*
X77362Y-41732D01*
X80708Y-60826D02*
X80905Y-60826D01*
X82086Y-59448D02*
X82677Y-59448D01*
X81692Y-59448D02*
X82086Y-59448D01*
X81496Y-59645D02*
X81692Y-59448D01*
X81496Y-60236D02*
X81496Y-59645D01*
X80905Y-60826D02*
X81496Y-60236D01*
G54D28*
X77362Y-62111D02*
X77174Y-62111D01*
X77174Y-62111D02*
X76574Y-61511D01*
G54D27*
X82583Y-60236D02*
X82583Y-59448D01*
G54D28*
X82583Y-59448D02*
X82677Y-59448D01*
G54D27*
X83661Y-59448D02*
X82677Y-59448D01*
X83661Y-59448D02*
X88479Y-59448D01*
X68897Y-49606D02*
X68897Y-53937D01*
X68897Y-54133D02*
X68897Y-53937D01*
X70078Y-55314D02*
X68897Y-54133D01*
X76629Y-33818D02*
X75629Y-33818D01*
X75629Y-33818D02*
X71850Y-37598D01*
X75496Y-60236D02*
X75496Y-59355D01*
X75496Y-59355D02*
X75000Y-58858D01*
X75000Y-58858D02*
X73228Y-58858D01*
X73228Y-60826D02*
X73228Y-59448D01*
X73818Y-61417D02*
X73228Y-60826D01*
X83661Y-61511D02*
X83661Y-61314D01*
X83661Y-61314D02*
X82583Y-60236D01*
X73228Y-58858D02*
X73228Y-59448D01*
X69788Y-59448D02*
X69000Y-60236D01*
X73228Y-59448D02*
X69788Y-59448D01*
X76574Y-61511D02*
X76574Y-61314D01*
X76574Y-61314D02*
X75496Y-60236D01*
X70078Y-61707D02*
X70078Y-61314D01*
X70078Y-61314D02*
X69000Y-60236D01*
X74819Y-39968D02*
X74220Y-39968D01*
X70763Y-37598D02*
X69740Y-38622D01*
X71850Y-37598D02*
X70763Y-37598D01*
X74220Y-39968D02*
X71850Y-37598D01*
G54D28*
X89079Y-60236D02*
X89079Y-60048D01*
X89079Y-60048D02*
X88479Y-59448D01*
G54D27*
X80314Y-61220D02*
X80314Y-61511D01*
X80708Y-60826D02*
X80314Y-61220D01*
X76181Y-58267D02*
X75787Y-57874D01*
X68362Y-57338D02*
X69291Y-58267D01*
G54D28*
X68267Y-57338D02*
X68362Y-57338D01*
G54D27*
X77362Y-59448D02*
X76181Y-58267D01*
X77952Y-59448D02*
X77362Y-59448D01*
X77952Y-59448D02*
X80118Y-59448D01*
X72637Y-58267D02*
X69291Y-58267D01*
X73031Y-57874D02*
X72637Y-58267D01*
X75787Y-57874D02*
X73031Y-57874D01*
X79527Y-60236D02*
X80314Y-59448D01*
X80314Y-59448D02*
X80118Y-59448D01*
X82696Y-42343D02*
X83050Y-42343D01*
X83050Y-42343D02*
X83661Y-41732D01*
X80314Y-59448D02*
X80118Y-59448D01*
X84645Y-55118D02*
X80314Y-59448D01*
X88976Y-55118D02*
X84645Y-55118D01*
X68267Y-57338D02*
X68645Y-57338D01*
X68645Y-57338D02*
X68897Y-57086D01*
X68897Y-57086D02*
X68897Y-54724D01*
X68897Y-54724D02*
X68110Y-53937D01*
X68110Y-53937D02*
X68110Y-43307D01*
G54D28*
X81015Y-39968D02*
X81015Y-39913D01*
G54D27*
X81015Y-39913D02*
X79803Y-38700D01*
X81696Y-42343D02*
X81059Y-42343D01*
X81059Y-42343D02*
X81023Y-42307D01*
X81696Y-42343D02*
X81696Y-43020D01*
X81696Y-43020D02*
X81885Y-43208D01*
X82283Y-47440D02*
X82874Y-47440D01*
X82874Y-48422D02*
X82874Y-47440D01*
X82874Y-47440D02*
X82874Y-46987D01*
X82874Y-46987D02*
X82146Y-46259D01*
X81023Y-42307D02*
X79512Y-42307D01*
X79512Y-42307D02*
X78941Y-41737D01*
X78941Y-41737D02*
X78941Y-37696D01*
G54D28*
X76377Y-46550D02*
X76284Y-46550D01*
G54D27*
X75000Y-47834D02*
X75000Y-49212D01*
X76284Y-46550D02*
X75000Y-47834D01*
X77062Y-46456D02*
X77062Y-46166D01*
X78740Y-44488D02*
X81889Y-44488D01*
X77062Y-46166D02*
X78740Y-44488D01*
X81885Y-44483D02*
X81885Y-43208D01*
G54D28*
X81889Y-44488D02*
X81885Y-44483D01*
X79828Y-47473D02*
X80347Y-47473D01*
X80347Y-47473D02*
X80708Y-47834D01*
X78769Y-36042D02*
X78769Y-36746D01*
X78769Y-36746D02*
X78932Y-36909D01*
G54D27*
X78941Y-37696D02*
X78941Y-36918D01*
G54D28*
X78941Y-36918D02*
X78932Y-36909D01*
G54D27*
X76377Y-46550D02*
X76968Y-46550D01*
G54D28*
X76968Y-46550D02*
X77062Y-46456D01*
G54D27*
X75500Y-42343D02*
X75500Y-43024D01*
X75500Y-43024D02*
X75684Y-43208D01*
X75500Y-42343D02*
X74819Y-42343D01*
X74819Y-42343D02*
X74803Y-42327D01*
X75684Y-43208D02*
X75684Y-44945D01*
X73228Y-48807D02*
X69645Y-52389D01*
X73228Y-47401D02*
X73228Y-48807D01*
X75684Y-44945D02*
X73228Y-47401D01*
G54D28*
X75590Y-49409D02*
X75590Y-48818D01*
X75196Y-49803D02*
X75590Y-49409D01*
X75196Y-51968D02*
X75196Y-49803D01*
X75393Y-52165D02*
X75196Y-51968D01*
X68400Y-60236D02*
X68400Y-58951D01*
X70220Y-41141D02*
X70740Y-40622D01*
X69094Y-41141D02*
X70220Y-41141D01*
X67519Y-42716D02*
X69094Y-41141D01*
X67519Y-58070D02*
X67519Y-42716D01*
X68400Y-58951D02*
X67519Y-58070D01*
X68346Y-61259D02*
X68346Y-60290D01*
X68346Y-60290D02*
X68400Y-60236D01*
X70472Y-50590D02*
X70078Y-50590D01*
X74896Y-60236D02*
X74606Y-60236D01*
X71259Y-48622D02*
X71653Y-48228D01*
X74015Y-51574D02*
X74015Y-50590D01*
X73622Y-51968D02*
X74015Y-51574D01*
X74606Y-60236D02*
X73818Y-59448D01*
X71653Y-48228D02*
X71653Y-44685D01*
X69881Y-50000D02*
X71259Y-48622D01*
X69881Y-50393D02*
X69881Y-50000D01*
X70078Y-50590D02*
X69881Y-50393D01*
X74842Y-61259D02*
X74842Y-60290D01*
X74842Y-60290D02*
X74896Y-60236D01*
X70740Y-42622D02*
X71362Y-42622D01*
X72440Y-47440D02*
X73622Y-46259D01*
X73622Y-46259D02*
X73622Y-44881D01*
X73622Y-44881D02*
X71850Y-43110D01*
X75787Y-58858D02*
X75393Y-58464D01*
X75787Y-58858D02*
X77362Y-60433D01*
X70669Y-50000D02*
X72440Y-48228D01*
X74606Y-52165D02*
X74606Y-50393D01*
X74212Y-52559D02*
X74606Y-52165D01*
X72440Y-48228D02*
X72440Y-47440D01*
X71362Y-42622D02*
X71850Y-43110D01*
X78385Y-61259D02*
X78188Y-61259D01*
X78188Y-61259D02*
X77362Y-60433D01*
X77362Y-61511D02*
X77362Y-61220D01*
X77362Y-61220D02*
X77362Y-60433D01*
X77362Y-61417D02*
X77362Y-61511D01*
X77362Y-61259D02*
X77362Y-61417D01*
X70740Y-42622D02*
X70763Y-42622D01*
X71653Y-43700D02*
X70818Y-43700D01*
X72440Y-46259D02*
X72834Y-46259D01*
X72440Y-46259D02*
X72244Y-46062D01*
X72244Y-46062D02*
X72244Y-44291D01*
X72244Y-44291D02*
X71653Y-43700D01*
X70818Y-43700D02*
X70740Y-43622D01*
X81983Y-60236D02*
X81983Y-61205D01*
X81983Y-61205D02*
X81929Y-61259D01*
X81929Y-61259D02*
X81259Y-61259D01*
X81259Y-61259D02*
X81102Y-61417D01*
X81929Y-60290D02*
X81983Y-60236D01*
X88479Y-60236D02*
X85629Y-60236D01*
X85629Y-60236D02*
X85433Y-60039D01*
X88425Y-61259D02*
X88425Y-60290D01*
X88425Y-60290D02*
X88479Y-60236D01*
X77749Y-36040D02*
X76592Y-36040D01*
X76181Y-35629D02*
X76181Y-35039D01*
X76592Y-36040D02*
X76181Y-35629D01*
X78001Y-36040D02*
X78001Y-35482D01*
X77165Y-35039D02*
X77165Y-34842D01*
X77362Y-35236D02*
X77165Y-35039D01*
X77755Y-35236D02*
X77362Y-35236D01*
X78001Y-35482D02*
X77755Y-35236D01*
X81279Y-36042D02*
X79537Y-36042D01*
X81299Y-36062D02*
X81279Y-36042D01*
X79281Y-36376D02*
X79281Y-36042D01*
X79401Y-36496D02*
X79281Y-36376D01*
X81062Y-36496D02*
X79401Y-36496D01*
X81299Y-36732D02*
X81062Y-36496D01*
G54D27*
X88976Y-56118D02*
X89354Y-56118D01*
X88244Y-39622D02*
X87740Y-39622D01*
X88779Y-40157D02*
X88244Y-39622D01*
X88779Y-49015D02*
X88779Y-40157D01*
X89763Y-50000D02*
X88779Y-49015D01*
X89763Y-55708D02*
X89763Y-50000D01*
X89354Y-56118D02*
X89763Y-55708D01*
X76284Y-43208D02*
X76284Y-44385D01*
X76284Y-44385D02*
X76181Y-44488D01*
X78740Y-60236D02*
X78740Y-60905D01*
X78740Y-60905D02*
X79094Y-61259D01*
X75500Y-41968D02*
X75984Y-41968D01*
X75984Y-41968D02*
X75984Y-41929D01*
X75984Y-41141D02*
X75984Y-41929D01*
X75984Y-41929D02*
X75984Y-42125D01*
X76284Y-43208D02*
X76284Y-42819D01*
X76284Y-42819D02*
X75984Y-42519D01*
X75984Y-42519D02*
X75984Y-42125D01*
X82485Y-43208D02*
X82485Y-43114D01*
X82086Y-41929D02*
X82047Y-41968D01*
X82086Y-42716D02*
X82086Y-41929D01*
X82485Y-43114D02*
X82086Y-42716D01*
X77181Y-39968D02*
X78338Y-39968D01*
X78338Y-39968D02*
X78346Y-39960D01*
X82283Y-41141D02*
X82283Y-41062D01*
X80118Y-41141D02*
X82283Y-41141D01*
X81696Y-41968D02*
X82047Y-41968D01*
X82047Y-41968D02*
X82283Y-41732D01*
X82283Y-41732D02*
X82283Y-41062D01*
X82283Y-41062D02*
X83377Y-39968D01*
X73622Y-41141D02*
X75984Y-41141D01*
X75984Y-41141D02*
X76007Y-41141D01*
X77181Y-39968D02*
X76416Y-40733D01*
X72102Y-39622D02*
X73622Y-41141D01*
X72102Y-39622D02*
X70740Y-39622D01*
X76007Y-41141D02*
X76416Y-40733D01*
X72244Y-62362D02*
X72244Y-61417D01*
X74842Y-62362D02*
X72244Y-62362D01*
X72244Y-62362D02*
X71299Y-62362D01*
X71299Y-62362D02*
X70866Y-62795D01*
X70866Y-62795D02*
X70669Y-62795D01*
X68346Y-62637D02*
X68346Y-62362D01*
X68503Y-62795D02*
X70669Y-62795D01*
X68346Y-62637D02*
X68503Y-62795D01*
X71259Y-52559D02*
X71259Y-56366D01*
X70275Y-57350D02*
X71259Y-56366D01*
X77165Y-48706D02*
X77165Y-47740D01*
X80024Y-46259D02*
X80846Y-46259D01*
X83377Y-39968D02*
X83456Y-39968D01*
X87740Y-37937D02*
X87740Y-38622D01*
X87401Y-37598D02*
X87740Y-37937D01*
X85826Y-37598D02*
X87401Y-37598D01*
X83456Y-39968D02*
X85826Y-37598D01*
G54D28*
X78513Y-34655D02*
X78730Y-34655D01*
X79025Y-34360D02*
X79025Y-33838D01*
X78730Y-34655D02*
X79025Y-34360D01*
X77165Y-48706D02*
X76490Y-48706D01*
G54D27*
X76490Y-48706D02*
X75984Y-49212D01*
X75984Y-49212D02*
X75984Y-50000D01*
X82485Y-43208D02*
X82485Y-44620D01*
X82485Y-44620D02*
X80846Y-46259D01*
X87755Y-62362D02*
X88425Y-62362D01*
X87401Y-62007D02*
X87755Y-62362D01*
G54D28*
X81929Y-62362D02*
X81929Y-62440D01*
G54D27*
X87992Y-62795D02*
X88425Y-62362D01*
X82283Y-62795D02*
X87992Y-62795D01*
X81929Y-62440D02*
X82283Y-62795D01*
X78385Y-62362D02*
X78385Y-62637D01*
X81496Y-62795D02*
X81929Y-62362D01*
X78543Y-62795D02*
X81496Y-62795D01*
X78385Y-62637D02*
X78543Y-62795D01*
X89133Y-61259D02*
X89133Y-61653D01*
X89133Y-61653D02*
X88425Y-62362D01*
X82637Y-61259D02*
X82637Y-61653D01*
X82637Y-61653D02*
X81929Y-62362D01*
X78385Y-62362D02*
X78385Y-61968D01*
X78385Y-61968D02*
X79094Y-61259D01*
X74842Y-62362D02*
X74842Y-61968D01*
X74842Y-61968D02*
X75551Y-61259D01*
X68346Y-62362D02*
X68346Y-61968D01*
X68346Y-61968D02*
X69055Y-61259D01*
X77181Y-39968D02*
X77181Y-38857D01*
X77181Y-38857D02*
X78341Y-37696D01*
X78341Y-37696D02*
X78341Y-36918D01*
G54D28*
X78341Y-36918D02*
X78351Y-36909D01*
X78513Y-36042D02*
X78513Y-36746D01*
X78513Y-36746D02*
X78351Y-36909D01*
X78513Y-36042D02*
X78513Y-34655D01*
X78513Y-34655D02*
X78385Y-34527D01*
X78257Y-34399D02*
X78257Y-33838D01*
X78385Y-34527D02*
X78257Y-34399D01*
X79828Y-46961D02*
X79828Y-46456D01*
X79828Y-46456D02*
X80024Y-46259D01*
X78016Y-47729D02*
X77176Y-47729D01*
X77176Y-47729D02*
X77165Y-47740D01*
X77165Y-47140D02*
X76387Y-47140D01*
X76387Y-47140D02*
X76377Y-47150D01*
X77662Y-46456D02*
X77662Y-46644D01*
X77662Y-46644D02*
X77165Y-47140D01*
X78016Y-46961D02*
X78016Y-46810D01*
X78016Y-46810D02*
X77662Y-46456D01*
X78257Y-36042D02*
X78257Y-36402D01*
X78257Y-36402D02*
X77751Y-36909D01*
X79025Y-36042D02*
X79025Y-36402D01*
X79025Y-36402D02*
X79532Y-36909D01*
G54D27*
X69055Y-62362D02*
X70024Y-62362D01*
G54D28*
X70024Y-62362D02*
X70078Y-62307D01*
X78016Y-47217D02*
X78372Y-47217D01*
X78464Y-46481D02*
X78243Y-46259D01*
X78464Y-47125D02*
X78464Y-46481D01*
X78372Y-47217D02*
X78464Y-47125D01*
G54D27*
X78799Y-49803D02*
X78799Y-51043D01*
X80908Y-51968D02*
X82874Y-50002D01*
X79724Y-51968D02*
X80908Y-51968D01*
X78799Y-51043D02*
X79724Y-51968D01*
G54D28*
X78799Y-49803D02*
X78799Y-48758D01*
X78799Y-48758D02*
X79828Y-47729D01*
X77745Y-33838D02*
X77249Y-33838D01*
X77249Y-33838D02*
X77229Y-33818D01*
G54D27*
X80649Y-51043D02*
X80314Y-51377D01*
X80649Y-51043D02*
X80649Y-49803D01*
X77165Y-50506D02*
X77165Y-51377D01*
X81496Y-47937D02*
X81496Y-48956D01*
X81496Y-48956D02*
X80649Y-49803D01*
X81696Y-41593D02*
X81137Y-41593D01*
X81137Y-41593D02*
X81023Y-41707D01*
G54D28*
X81023Y-41707D02*
X79945Y-41707D01*
X70669Y-55956D02*
X70275Y-56350D01*
X70669Y-52362D02*
X70669Y-55956D01*
X73818Y-49212D02*
X70669Y-52362D01*
X73818Y-47637D02*
X73818Y-49212D01*
X74409Y-47047D02*
X73818Y-47637D01*
X74606Y-47047D02*
X74409Y-47047D01*
X78937Y-42716D02*
X74606Y-47047D01*
X79945Y-41707D02*
X79921Y-41732D01*
G54D27*
X78843Y-46259D02*
X79424Y-46259D01*
G54D28*
X79828Y-47217D02*
X81375Y-47217D01*
X81375Y-47217D02*
X81496Y-47337D01*
X79828Y-47217D02*
X78949Y-47217D01*
X78949Y-47217D02*
X78843Y-47111D01*
X78016Y-47473D02*
X78510Y-47473D01*
X78510Y-47473D02*
X78843Y-47140D01*
X78843Y-47140D02*
X78843Y-47111D01*
X78843Y-47111D02*
X78843Y-46259D01*
G54D27*
X89079Y-59448D02*
X89370Y-59448D01*
X89763Y-61732D02*
X89133Y-62362D01*
X89763Y-59842D02*
X89763Y-61732D01*
X89370Y-59448D02*
X89763Y-59842D01*
X75500Y-41593D02*
X74937Y-41593D01*
X74937Y-41593D02*
X74803Y-41727D01*
G54D28*
X72204Y-56350D02*
X72204Y-51811D01*
X74414Y-41727D02*
X74803Y-41727D01*
X74015Y-42125D02*
X74414Y-41727D01*
X74015Y-43503D02*
X74015Y-42125D01*
X75196Y-44685D02*
X74015Y-43503D01*
X74606Y-49409D02*
X74606Y-47637D01*
X72204Y-51811D02*
X74606Y-49409D01*
G54D27*
X82637Y-62362D02*
X83410Y-62362D01*
X83410Y-62362D02*
X83661Y-62111D01*
X81208Y-25000D02*
X81208Y-25484D01*
X79527Y-27165D02*
X79527Y-32086D01*
X81208Y-25484D02*
X79527Y-27165D01*
G54D28*
X79281Y-33838D02*
X79281Y-32726D01*
X79527Y-32480D02*
X79527Y-32086D01*
X79527Y-32086D02*
X79527Y-31889D01*
X79281Y-32726D02*
X79527Y-32480D01*
G54D27*
X80208Y-25000D02*
X80208Y-25500D01*
X78937Y-26771D02*
X78937Y-32283D01*
X80208Y-25500D02*
X78937Y-26771D01*
G54D28*
X78769Y-33838D02*
X78769Y-32844D01*
X78937Y-32677D02*
X78937Y-32283D01*
X78937Y-32283D02*
X78937Y-31889D01*
X78769Y-32844D02*
X78937Y-32677D01*
G54D27*
X76271Y-25000D02*
X76271Y-27255D01*
X76271Y-27255D02*
X78346Y-29330D01*
X78346Y-31889D02*
X78346Y-29330D01*
G54D28*
X78513Y-33838D02*
X78513Y-32253D01*
X78346Y-32086D02*
X78346Y-31889D01*
X78346Y-31889D02*
X78346Y-31496D01*
X78513Y-32253D02*
X78346Y-32086D01*
G54D27*
X77271Y-25000D02*
X77271Y-24515D01*
X77755Y-30511D02*
X77755Y-32480D01*
X75000Y-27755D02*
X77755Y-30511D01*
X75000Y-25000D02*
X75000Y-27755D01*
X75787Y-24212D02*
X75000Y-25000D01*
X76968Y-24212D02*
X75787Y-24212D01*
X77271Y-24515D02*
X76968Y-24212D01*
X77271Y-25000D02*
X77271Y-24712D01*
G54D28*
X78001Y-33838D02*
X78001Y-32922D01*
X77755Y-32677D02*
X77755Y-32480D01*
X78001Y-32922D02*
X77755Y-32677D01*
X77755Y-32480D02*
X77755Y-32086D01*
G54D27*
X79094Y-62362D02*
X80063Y-62362D01*
X80063Y-62362D02*
X80314Y-62111D01*
X75551Y-62362D02*
X76323Y-62362D01*
X76323Y-62362D02*
X76574Y-62111D01*
G54D10*
G36*
X71353Y-48104D02*
X71047Y-48409D01*
X71047Y-48409D01*
X69669Y-49787D01*
X69604Y-49885D01*
X69581Y-50000D01*
X69581Y-50393D01*
X69604Y-50508D01*
X69669Y-50605D01*
X69866Y-50802D01*
X69866Y-50802D01*
X69963Y-50867D01*
X70078Y-50890D01*
X70078Y-50890D01*
X70171Y-50890D01*
X70231Y-50950D01*
X70387Y-51015D01*
X70524Y-51015D01*
X70194Y-51346D01*
X70189Y-51253D01*
X70126Y-51101D01*
X70031Y-51074D01*
X69960Y-51145D01*
X69960Y-51003D01*
X69933Y-50908D01*
X69727Y-50834D01*
X69508Y-50845D01*
X69357Y-50908D01*
X69330Y-51003D01*
X69645Y-51319D01*
X69960Y-51003D01*
X69960Y-51145D01*
X69716Y-51389D01*
X69721Y-51395D01*
X69651Y-51466D01*
X69645Y-51460D01*
X69330Y-51775D01*
X69348Y-51839D01*
X69296Y-51839D01*
X69247Y-51859D01*
X69247Y-51701D01*
X69259Y-51704D01*
X69574Y-51389D01*
X69259Y-51074D01*
X69247Y-51078D01*
X69247Y-49857D01*
X69257Y-49847D01*
X69322Y-49691D01*
X69322Y-49522D01*
X69258Y-49365D01*
X69138Y-49246D01*
X68982Y-49181D01*
X68813Y-49181D01*
X68657Y-49245D01*
X68537Y-49365D01*
X68472Y-49521D01*
X68472Y-49690D01*
X68537Y-49846D01*
X68547Y-49857D01*
X68547Y-53879D01*
X68460Y-53792D01*
X68460Y-43558D01*
X68470Y-43548D01*
X68535Y-43391D01*
X68535Y-43222D01*
X68470Y-43066D01*
X68351Y-42946D01*
X68195Y-42882D01*
X68026Y-42882D01*
X67869Y-42946D01*
X67819Y-42996D01*
X67819Y-42840D01*
X69218Y-41441D01*
X69219Y-41441D01*
X69190Y-41512D01*
X69190Y-41730D01*
X69273Y-41933D01*
X69428Y-42088D01*
X69510Y-42122D01*
X69429Y-42155D01*
X69274Y-42310D01*
X69190Y-42512D01*
X69190Y-42730D01*
X69273Y-42933D01*
X69428Y-43088D01*
X69510Y-43122D01*
X69429Y-43155D01*
X69274Y-43310D01*
X69190Y-43512D01*
X69190Y-43730D01*
X69273Y-43933D01*
X69428Y-44088D01*
X69510Y-44122D01*
X69429Y-44155D01*
X69274Y-44310D01*
X69190Y-44512D01*
X69190Y-44730D01*
X69273Y-44933D01*
X69428Y-45088D01*
X69510Y-45122D01*
X69429Y-45155D01*
X69274Y-45310D01*
X69190Y-45512D01*
X69190Y-45730D01*
X69273Y-45933D01*
X69428Y-46088D01*
X69510Y-46122D01*
X69429Y-46155D01*
X69274Y-46310D01*
X69190Y-46512D01*
X69190Y-46730D01*
X69273Y-46933D01*
X69428Y-47088D01*
X69510Y-47122D01*
X69429Y-47155D01*
X69274Y-47310D01*
X69190Y-47512D01*
X69190Y-47730D01*
X69273Y-47933D01*
X69428Y-48088D01*
X69630Y-48171D01*
X69849Y-48172D01*
X70051Y-48088D01*
X70206Y-47934D01*
X70240Y-47852D01*
X70273Y-47933D01*
X70428Y-48088D01*
X70630Y-48171D01*
X70849Y-48172D01*
X71051Y-48088D01*
X71206Y-47934D01*
X71290Y-47731D01*
X71290Y-47513D01*
X71206Y-47310D01*
X71052Y-47156D01*
X70970Y-47122D01*
X71051Y-47088D01*
X71206Y-46934D01*
X71290Y-46731D01*
X71290Y-46513D01*
X71206Y-46310D01*
X71052Y-46156D01*
X70970Y-46122D01*
X71051Y-46088D01*
X71206Y-45934D01*
X71290Y-45731D01*
X71290Y-45513D01*
X71206Y-45310D01*
X71052Y-45156D01*
X70970Y-45122D01*
X71051Y-45088D01*
X71206Y-44934D01*
X71251Y-44824D01*
X71293Y-44925D01*
X71353Y-44986D01*
X71353Y-48104D01*
X71353Y-48104D01*
G37*
G54D28*
X71353Y-48104D02*
X71047Y-48409D01*
X71047Y-48409D01*
X69669Y-49787D01*
X69604Y-49885D01*
X69581Y-50000D01*
X69581Y-50393D01*
X69604Y-50508D01*
X69669Y-50605D01*
X69866Y-50802D01*
X69866Y-50802D01*
X69963Y-50867D01*
X70078Y-50890D01*
X70078Y-50890D01*
X70171Y-50890D01*
X70231Y-50950D01*
X70387Y-51015D01*
X70524Y-51015D01*
X70194Y-51346D01*
X70189Y-51253D01*
X70126Y-51101D01*
X70031Y-51074D01*
X69960Y-51145D01*
X69960Y-51003D01*
X69933Y-50908D01*
X69727Y-50834D01*
X69508Y-50845D01*
X69357Y-50908D01*
X69330Y-51003D01*
X69645Y-51319D01*
X69960Y-51003D01*
X69960Y-51145D01*
X69716Y-51389D01*
X69721Y-51395D01*
X69651Y-51466D01*
X69645Y-51460D01*
X69330Y-51775D01*
X69348Y-51839D01*
X69296Y-51839D01*
X69247Y-51859D01*
X69247Y-51701D01*
X69259Y-51704D01*
X69574Y-51389D01*
X69259Y-51074D01*
X69247Y-51078D01*
X69247Y-49857D01*
X69257Y-49847D01*
X69322Y-49691D01*
X69322Y-49522D01*
X69258Y-49365D01*
X69138Y-49246D01*
X68982Y-49181D01*
X68813Y-49181D01*
X68657Y-49245D01*
X68537Y-49365D01*
X68472Y-49521D01*
X68472Y-49690D01*
X68537Y-49846D01*
X68547Y-49857D01*
X68547Y-53879D01*
X68460Y-53792D01*
X68460Y-43558D01*
X68470Y-43548D01*
X68535Y-43391D01*
X68535Y-43222D01*
X68470Y-43066D01*
X68351Y-42946D01*
X68195Y-42882D01*
X68026Y-42882D01*
X67869Y-42946D01*
X67819Y-42996D01*
X67819Y-42840D01*
X69218Y-41441D01*
X69219Y-41441D01*
X69190Y-41512D01*
X69190Y-41730D01*
X69273Y-41933D01*
X69428Y-42088D01*
X69510Y-42122D01*
X69429Y-42155D01*
X69274Y-42310D01*
X69190Y-42512D01*
X69190Y-42730D01*
X69273Y-42933D01*
X69428Y-43088D01*
X69510Y-43122D01*
X69429Y-43155D01*
X69274Y-43310D01*
X69190Y-43512D01*
X69190Y-43730D01*
X69273Y-43933D01*
X69428Y-44088D01*
X69510Y-44122D01*
X69429Y-44155D01*
X69274Y-44310D01*
X69190Y-44512D01*
X69190Y-44730D01*
X69273Y-44933D01*
X69428Y-45088D01*
X69510Y-45122D01*
X69429Y-45155D01*
X69274Y-45310D01*
X69190Y-45512D01*
X69190Y-45730D01*
X69273Y-45933D01*
X69428Y-46088D01*
X69510Y-46122D01*
X69429Y-46155D01*
X69274Y-46310D01*
X69190Y-46512D01*
X69190Y-46730D01*
X69273Y-46933D01*
X69428Y-47088D01*
X69510Y-47122D01*
X69429Y-47155D01*
X69274Y-47310D01*
X69190Y-47512D01*
X69190Y-47730D01*
X69273Y-47933D01*
X69428Y-48088D01*
X69630Y-48171D01*
X69849Y-48172D01*
X70051Y-48088D01*
X70206Y-47934D01*
X70240Y-47852D01*
X70273Y-47933D01*
X70428Y-48088D01*
X70630Y-48171D01*
X70849Y-48172D01*
X71051Y-48088D01*
X71206Y-47934D01*
X71290Y-47731D01*
X71290Y-47513D01*
X71206Y-47310D01*
X71052Y-47156D01*
X70970Y-47122D01*
X71051Y-47088D01*
X71206Y-46934D01*
X71290Y-46731D01*
X71290Y-46513D01*
X71206Y-46310D01*
X71052Y-46156D01*
X70970Y-46122D01*
X71051Y-46088D01*
X71206Y-45934D01*
X71290Y-45731D01*
X71290Y-45513D01*
X71206Y-45310D01*
X71052Y-45156D01*
X70970Y-45122D01*
X71051Y-45088D01*
X71206Y-44934D01*
X71251Y-44824D01*
X71293Y-44925D01*
X71353Y-44986D01*
X71353Y-48104D01*
G54D10*
G36*
X90281Y-63116D02*
X90113Y-63116D01*
X90113Y-61732D01*
X90113Y-59842D01*
X90087Y-59708D01*
X90011Y-59595D01*
X89617Y-59201D01*
X89504Y-59125D01*
X89428Y-59110D01*
X89416Y-59082D01*
X89346Y-59012D01*
X89254Y-58973D01*
X89155Y-58973D01*
X88905Y-58973D01*
X88813Y-59011D01*
X88779Y-59045D01*
X88746Y-59012D01*
X88654Y-58973D01*
X88555Y-58973D01*
X88305Y-58973D01*
X88213Y-59011D01*
X88142Y-59082D01*
X88135Y-59098D01*
X83661Y-59098D01*
X82677Y-59098D01*
X82583Y-59098D01*
X82086Y-59098D01*
X81692Y-59098D01*
X81692Y-59098D01*
X81558Y-59125D01*
X81445Y-59201D01*
X81445Y-59201D01*
X81248Y-59398D01*
X81172Y-59511D01*
X81146Y-59645D01*
X81146Y-60091D01*
X80823Y-60414D01*
X80793Y-60401D01*
X80624Y-60401D01*
X80468Y-60466D01*
X80348Y-60585D01*
X80283Y-60741D01*
X80283Y-60756D01*
X80067Y-60972D01*
X79991Y-61086D01*
X79976Y-61162D01*
X79948Y-61173D01*
X79878Y-61244D01*
X79840Y-61336D01*
X79839Y-61435D01*
X79839Y-61685D01*
X79877Y-61777D01*
X79911Y-61811D01*
X79878Y-61844D01*
X79840Y-61936D01*
X79839Y-62012D01*
X79541Y-62012D01*
X79541Y-61525D01*
X79541Y-60993D01*
X79503Y-60901D01*
X79433Y-60831D01*
X79341Y-60793D01*
X79241Y-60793D01*
X79206Y-60793D01*
X79144Y-60855D01*
X79144Y-61209D01*
X79478Y-61209D01*
X79541Y-61147D01*
X79541Y-60993D01*
X79541Y-61525D01*
X79541Y-61372D01*
X79478Y-61309D01*
X79144Y-61309D01*
X79144Y-61663D01*
X79206Y-61726D01*
X79241Y-61726D01*
X79341Y-61726D01*
X79433Y-61688D01*
X79503Y-61617D01*
X79541Y-61525D01*
X79541Y-62012D01*
X79506Y-62012D01*
X79503Y-62004D01*
X79433Y-61933D01*
X79341Y-61895D01*
X79241Y-61895D01*
X78848Y-61895D01*
X78756Y-61933D01*
X78740Y-61949D01*
X78724Y-61933D01*
X78632Y-61895D01*
X78533Y-61895D01*
X78498Y-61895D01*
X78435Y-61958D01*
X78435Y-62312D01*
X78443Y-62312D01*
X78443Y-62412D01*
X78435Y-62412D01*
X78435Y-62766D01*
X78498Y-62828D01*
X78533Y-62828D01*
X78632Y-62828D01*
X78724Y-62790D01*
X78740Y-62774D01*
X78755Y-62790D01*
X78847Y-62828D01*
X78947Y-62828D01*
X79340Y-62828D01*
X79432Y-62790D01*
X79503Y-62720D01*
X79506Y-62712D01*
X80063Y-62712D01*
X80197Y-62685D01*
X80197Y-62685D01*
X80311Y-62609D01*
X80434Y-62486D01*
X80589Y-62486D01*
X80681Y-62448D01*
X80751Y-62377D01*
X80789Y-62285D01*
X80790Y-62186D01*
X80790Y-61936D01*
X80752Y-61844D01*
X80718Y-61811D01*
X80751Y-61777D01*
X80784Y-61700D01*
X80861Y-61777D01*
X81017Y-61842D01*
X81186Y-61842D01*
X81342Y-61777D01*
X81462Y-61658D01*
X81499Y-61568D01*
X81520Y-61617D01*
X81590Y-61688D01*
X81682Y-61726D01*
X81781Y-61726D01*
X82175Y-61726D01*
X82267Y-61688D01*
X82283Y-61672D01*
X82299Y-61688D01*
X82390Y-61726D01*
X82490Y-61726D01*
X82525Y-61726D01*
X82587Y-61663D01*
X82587Y-61309D01*
X82579Y-61309D01*
X82579Y-61209D01*
X82587Y-61209D01*
X82587Y-60855D01*
X82525Y-60793D01*
X82490Y-60793D01*
X82390Y-60793D01*
X82299Y-60831D01*
X82283Y-60847D01*
X82283Y-60639D01*
X82316Y-60673D01*
X82408Y-60711D01*
X82507Y-60711D01*
X82563Y-60711D01*
X82697Y-60845D01*
X82687Y-60855D01*
X82687Y-61209D01*
X83022Y-61209D01*
X83042Y-61189D01*
X83187Y-61334D01*
X83186Y-61336D01*
X83186Y-61435D01*
X83186Y-61685D01*
X83224Y-61777D01*
X83257Y-61811D01*
X83224Y-61844D01*
X83186Y-61936D01*
X83186Y-62012D01*
X83084Y-62012D01*
X83084Y-61525D01*
X83084Y-61372D01*
X83022Y-61309D01*
X82687Y-61309D01*
X82687Y-61663D01*
X82750Y-61726D01*
X82785Y-61726D01*
X82884Y-61726D01*
X82976Y-61688D01*
X83046Y-61617D01*
X83084Y-61525D01*
X83084Y-62012D01*
X83049Y-62012D01*
X83046Y-62004D01*
X82976Y-61933D01*
X82884Y-61895D01*
X82785Y-61895D01*
X82391Y-61895D01*
X82299Y-61933D01*
X82283Y-61949D01*
X82267Y-61933D01*
X82175Y-61895D01*
X82076Y-61895D01*
X82041Y-61895D01*
X81979Y-61958D01*
X81979Y-62312D01*
X81987Y-62312D01*
X81987Y-62412D01*
X81979Y-62412D01*
X81979Y-62766D01*
X82041Y-62828D01*
X82076Y-62828D01*
X82175Y-62828D01*
X82267Y-62790D01*
X82283Y-62774D01*
X82299Y-62790D01*
X82390Y-62828D01*
X82490Y-62828D01*
X82884Y-62828D01*
X82976Y-62790D01*
X83046Y-62720D01*
X83049Y-62712D01*
X83410Y-62712D01*
X83544Y-62685D01*
X83544Y-62685D01*
X83657Y-62609D01*
X83781Y-62486D01*
X83935Y-62486D01*
X84027Y-62448D01*
X84098Y-62377D01*
X84136Y-62285D01*
X84136Y-62186D01*
X84136Y-61936D01*
X84098Y-61844D01*
X84064Y-61811D01*
X84098Y-61777D01*
X84136Y-61685D01*
X84136Y-61586D01*
X84136Y-61336D01*
X84098Y-61244D01*
X84028Y-61174D01*
X83962Y-61146D01*
X83908Y-61066D01*
X83908Y-61066D01*
X82958Y-60116D01*
X82958Y-59961D01*
X82933Y-59901D01*
X82933Y-59798D01*
X83661Y-59798D01*
X85072Y-59798D01*
X85008Y-59954D01*
X85007Y-60123D01*
X85072Y-60279D01*
X85192Y-60399D01*
X85348Y-60464D01*
X85441Y-60464D01*
X85441Y-60464D01*
X85515Y-60513D01*
X85629Y-60536D01*
X85629Y-60536D01*
X88115Y-60536D01*
X88125Y-60560D01*
X88125Y-60815D01*
X88086Y-60831D01*
X88016Y-60901D01*
X87978Y-60993D01*
X87978Y-61092D01*
X87978Y-61525D01*
X88016Y-61617D01*
X88086Y-61688D01*
X88178Y-61726D01*
X88277Y-61726D01*
X88671Y-61726D01*
X88763Y-61688D01*
X88779Y-61672D01*
X88795Y-61688D01*
X88887Y-61726D01*
X88986Y-61726D01*
X89021Y-61726D01*
X89083Y-61663D01*
X89083Y-61309D01*
X89075Y-61309D01*
X89075Y-61209D01*
X89083Y-61209D01*
X89083Y-60855D01*
X89021Y-60793D01*
X88986Y-60793D01*
X88887Y-60793D01*
X88795Y-60831D01*
X88779Y-60847D01*
X88763Y-60831D01*
X88725Y-60815D01*
X88725Y-60681D01*
X88745Y-60673D01*
X88779Y-60639D01*
X88812Y-60673D01*
X88904Y-60711D01*
X89004Y-60711D01*
X89254Y-60711D01*
X89345Y-60673D01*
X89413Y-60605D01*
X89413Y-60807D01*
X89380Y-60793D01*
X89281Y-60793D01*
X89246Y-60793D01*
X89183Y-60855D01*
X89183Y-61209D01*
X89191Y-61209D01*
X89191Y-61309D01*
X89183Y-61309D01*
X89183Y-61663D01*
X89246Y-61726D01*
X89274Y-61726D01*
X89105Y-61895D01*
X88887Y-61895D01*
X88795Y-61933D01*
X88779Y-61949D01*
X88763Y-61933D01*
X88671Y-61895D01*
X88572Y-61895D01*
X88537Y-61895D01*
X88475Y-61958D01*
X88475Y-62312D01*
X88483Y-62312D01*
X88483Y-62412D01*
X88475Y-62412D01*
X88475Y-62766D01*
X88537Y-62828D01*
X88572Y-62828D01*
X88671Y-62828D01*
X88763Y-62790D01*
X88779Y-62774D01*
X88795Y-62790D01*
X88887Y-62828D01*
X88986Y-62828D01*
X89380Y-62828D01*
X89472Y-62790D01*
X89542Y-62720D01*
X89580Y-62628D01*
X89580Y-62529D01*
X89580Y-62410D01*
X90011Y-61979D01*
X90011Y-61979D01*
X90011Y-61979D01*
X90087Y-61866D01*
X90113Y-61732D01*
X90113Y-63116D01*
X88375Y-63116D01*
X88375Y-62766D01*
X88375Y-62412D01*
X88375Y-62312D01*
X88375Y-61958D01*
X88312Y-61895D01*
X88277Y-61895D01*
X88178Y-61895D01*
X88086Y-61933D01*
X88016Y-62004D01*
X87978Y-62096D01*
X87978Y-62249D01*
X88040Y-62312D01*
X88375Y-62312D01*
X88375Y-62412D01*
X88040Y-62412D01*
X87978Y-62474D01*
X87978Y-62628D01*
X88016Y-62720D01*
X88086Y-62790D01*
X88178Y-62828D01*
X88277Y-62828D01*
X88312Y-62828D01*
X88375Y-62766D01*
X88375Y-63116D01*
X81879Y-63116D01*
X81879Y-62766D01*
X81879Y-62412D01*
X81879Y-62312D01*
X81879Y-61958D01*
X81816Y-61895D01*
X81781Y-61895D01*
X81682Y-61895D01*
X81590Y-61933D01*
X81520Y-62004D01*
X81482Y-62096D01*
X81482Y-62249D01*
X81544Y-62312D01*
X81879Y-62312D01*
X81879Y-62412D01*
X81544Y-62412D01*
X81482Y-62474D01*
X81482Y-62628D01*
X81520Y-62720D01*
X81590Y-62790D01*
X81682Y-62828D01*
X81781Y-62828D01*
X81816Y-62828D01*
X81879Y-62766D01*
X81879Y-63116D01*
X78335Y-63116D01*
X78335Y-62766D01*
X78335Y-62412D01*
X78335Y-62312D01*
X78335Y-61958D01*
X78273Y-61895D01*
X78238Y-61895D01*
X78139Y-61895D01*
X78047Y-61933D01*
X77976Y-62004D01*
X77938Y-62096D01*
X77938Y-62249D01*
X78001Y-62312D01*
X78335Y-62312D01*
X78335Y-62412D01*
X78001Y-62412D01*
X77938Y-62474D01*
X77938Y-62628D01*
X77976Y-62720D01*
X78047Y-62790D01*
X78139Y-62828D01*
X78238Y-62828D01*
X78273Y-62828D01*
X78335Y-62766D01*
X78335Y-63116D01*
X74792Y-63116D01*
X74792Y-62766D01*
X74792Y-62412D01*
X74792Y-62312D01*
X74792Y-61958D01*
X74730Y-61895D01*
X74695Y-61895D01*
X74595Y-61895D01*
X74503Y-61933D01*
X74433Y-62004D01*
X74395Y-62096D01*
X74395Y-62249D01*
X74458Y-62312D01*
X74792Y-62312D01*
X74792Y-62412D01*
X74458Y-62412D01*
X74395Y-62474D01*
X74395Y-62628D01*
X74433Y-62720D01*
X74503Y-62790D01*
X74595Y-62828D01*
X74695Y-62828D01*
X74730Y-62828D01*
X74792Y-62766D01*
X74792Y-63116D01*
X68296Y-63116D01*
X68296Y-62766D01*
X68296Y-62412D01*
X68296Y-62312D01*
X68296Y-61958D01*
X68233Y-61895D01*
X68199Y-61895D01*
X68099Y-61895D01*
X68007Y-61933D01*
X67937Y-62004D01*
X67899Y-62096D01*
X67899Y-62249D01*
X67962Y-62312D01*
X68296Y-62312D01*
X68296Y-62412D01*
X67962Y-62412D01*
X67899Y-62474D01*
X67899Y-62628D01*
X67937Y-62720D01*
X68007Y-62790D01*
X68099Y-62828D01*
X68199Y-62828D01*
X68233Y-62828D01*
X68296Y-62766D01*
X68296Y-63116D01*
X67198Y-63116D01*
X67198Y-23891D01*
X75649Y-23891D01*
X75539Y-23965D01*
X74752Y-24752D01*
X74676Y-24866D01*
X74650Y-25000D01*
X74650Y-27755D01*
X74676Y-27889D01*
X74752Y-28003D01*
X77405Y-30656D01*
X77405Y-32480D01*
X77432Y-32614D01*
X77455Y-32649D01*
X77455Y-32677D01*
X77478Y-32791D01*
X77543Y-32889D01*
X77701Y-33047D01*
X77701Y-33299D01*
X77613Y-33299D01*
X77521Y-33337D01*
X77482Y-33376D01*
X77404Y-33343D01*
X77304Y-33343D01*
X77054Y-33343D01*
X76962Y-33381D01*
X76929Y-33415D01*
X76895Y-33382D01*
X76804Y-33343D01*
X76704Y-33343D01*
X76454Y-33343D01*
X76362Y-33381D01*
X76292Y-33452D01*
X76285Y-33468D01*
X75629Y-33468D01*
X75495Y-33495D01*
X75382Y-33571D01*
X71705Y-37248D01*
X70763Y-37248D01*
X70629Y-37275D01*
X70516Y-37350D01*
X69795Y-38072D01*
X69738Y-38072D01*
X69738Y-32510D01*
X69738Y-25424D01*
X69610Y-25115D01*
X69374Y-24878D01*
X69065Y-24750D01*
X68731Y-24749D01*
X68422Y-24877D01*
X68185Y-25113D01*
X68057Y-25422D01*
X68056Y-25757D01*
X68184Y-26066D01*
X68420Y-26302D01*
X68729Y-26430D01*
X69064Y-26431D01*
X69373Y-26303D01*
X69609Y-26067D01*
X69738Y-25758D01*
X69738Y-25424D01*
X69738Y-32510D01*
X69610Y-32201D01*
X69374Y-31964D01*
X69065Y-31836D01*
X68731Y-31836D01*
X68422Y-31964D01*
X68185Y-32200D01*
X68057Y-32509D01*
X68056Y-32843D01*
X68184Y-33152D01*
X68420Y-33389D01*
X68729Y-33517D01*
X69064Y-33517D01*
X69373Y-33390D01*
X69609Y-33153D01*
X69738Y-32845D01*
X69738Y-32510D01*
X69738Y-38072D01*
X69390Y-38072D01*
X69298Y-38109D01*
X69228Y-38180D01*
X69190Y-38272D01*
X69190Y-38371D01*
X69190Y-38971D01*
X69228Y-39063D01*
X69298Y-39133D01*
X69390Y-39172D01*
X69412Y-39172D01*
X69274Y-39310D01*
X69190Y-39512D01*
X69190Y-39730D01*
X69273Y-39933D01*
X69428Y-40088D01*
X69510Y-40122D01*
X69429Y-40155D01*
X69274Y-40310D01*
X69190Y-40512D01*
X69190Y-40730D01*
X69235Y-40841D01*
X69094Y-40841D01*
X68979Y-40864D01*
X68882Y-40929D01*
X67307Y-42504D01*
X67242Y-42601D01*
X67219Y-42716D01*
X67219Y-58070D01*
X67242Y-58185D01*
X67307Y-58282D01*
X68100Y-59076D01*
X68100Y-59832D01*
X68063Y-59869D01*
X68025Y-59961D01*
X68025Y-60060D01*
X68025Y-60510D01*
X68046Y-60560D01*
X68046Y-60815D01*
X68008Y-60831D01*
X67937Y-60901D01*
X67899Y-60993D01*
X67899Y-61092D01*
X67899Y-61525D01*
X67937Y-61617D01*
X68007Y-61688D01*
X68099Y-61726D01*
X68199Y-61726D01*
X68592Y-61726D01*
X68684Y-61688D01*
X68700Y-61672D01*
X68716Y-61688D01*
X68808Y-61726D01*
X68907Y-61726D01*
X68942Y-61726D01*
X69005Y-61663D01*
X69005Y-61309D01*
X68997Y-61309D01*
X68997Y-61209D01*
X69005Y-61209D01*
X69005Y-60855D01*
X68942Y-60793D01*
X68907Y-60793D01*
X68808Y-60793D01*
X68716Y-60831D01*
X68700Y-60847D01*
X68685Y-60831D01*
X68646Y-60815D01*
X68646Y-60681D01*
X68667Y-60673D01*
X68700Y-60639D01*
X68733Y-60673D01*
X68825Y-60711D01*
X68925Y-60711D01*
X68980Y-60711D01*
X69115Y-60845D01*
X69105Y-60855D01*
X69105Y-61209D01*
X69439Y-61209D01*
X69459Y-61189D01*
X69676Y-61406D01*
X69641Y-61441D01*
X69603Y-61532D01*
X69603Y-61632D01*
X69603Y-61882D01*
X69641Y-61974D01*
X69675Y-62007D01*
X69670Y-62012D01*
X69502Y-62012D01*
X69502Y-61525D01*
X69501Y-61372D01*
X69439Y-61309D01*
X69105Y-61309D01*
X69105Y-61663D01*
X69167Y-61726D01*
X69202Y-61726D01*
X69301Y-61726D01*
X69393Y-61688D01*
X69464Y-61617D01*
X69502Y-61525D01*
X69502Y-62012D01*
X69467Y-62012D01*
X69464Y-62004D01*
X69393Y-61933D01*
X69301Y-61895D01*
X69202Y-61895D01*
X68808Y-61895D01*
X68716Y-61933D01*
X68700Y-61949D01*
X68685Y-61933D01*
X68593Y-61895D01*
X68493Y-61895D01*
X68458Y-61895D01*
X68396Y-61958D01*
X68396Y-62312D01*
X68404Y-62312D01*
X68404Y-62412D01*
X68396Y-62412D01*
X68396Y-62766D01*
X68458Y-62828D01*
X68493Y-62828D01*
X68593Y-62828D01*
X68685Y-62790D01*
X68700Y-62774D01*
X68716Y-62790D01*
X68808Y-62828D01*
X68907Y-62828D01*
X69301Y-62828D01*
X69393Y-62790D01*
X69463Y-62720D01*
X69467Y-62712D01*
X70024Y-62712D01*
X70158Y-62685D01*
X70162Y-62682D01*
X70353Y-62682D01*
X70445Y-62644D01*
X70515Y-62574D01*
X70553Y-62482D01*
X70553Y-62383D01*
X70553Y-62133D01*
X70515Y-62041D01*
X70482Y-62007D01*
X70515Y-61974D01*
X70553Y-61882D01*
X70553Y-61783D01*
X70553Y-61533D01*
X70515Y-61441D01*
X70445Y-61371D01*
X70428Y-61364D01*
X70428Y-61314D01*
X70428Y-61314D01*
X70428Y-61314D01*
X70402Y-61180D01*
X70326Y-61066D01*
X70326Y-61066D01*
X69495Y-60236D01*
X69933Y-59798D01*
X72878Y-59798D01*
X72878Y-60826D01*
X72904Y-60960D01*
X72980Y-61074D01*
X73393Y-61487D01*
X73393Y-61501D01*
X73458Y-61657D01*
X73577Y-61777D01*
X73733Y-61842D01*
X73903Y-61842D01*
X74059Y-61777D01*
X74178Y-61658D01*
X74243Y-61502D01*
X74243Y-61333D01*
X74179Y-61176D01*
X74059Y-61057D01*
X73903Y-60992D01*
X73888Y-60992D01*
X73578Y-60681D01*
X73578Y-59809D01*
X73733Y-59873D01*
X73819Y-59873D01*
X74394Y-60448D01*
X74491Y-60513D01*
X74525Y-60520D01*
X74542Y-60560D01*
X74542Y-60815D01*
X74504Y-60831D01*
X74433Y-60901D01*
X74395Y-60993D01*
X74395Y-61092D01*
X74395Y-61525D01*
X74433Y-61617D01*
X74503Y-61688D01*
X74595Y-61726D01*
X74695Y-61726D01*
X75088Y-61726D01*
X75180Y-61688D01*
X75196Y-61672D01*
X75212Y-61688D01*
X75304Y-61726D01*
X75403Y-61726D01*
X75438Y-61726D01*
X75501Y-61663D01*
X75501Y-61309D01*
X75493Y-61309D01*
X75493Y-61209D01*
X75501Y-61209D01*
X75501Y-60855D01*
X75438Y-60793D01*
X75403Y-60793D01*
X75304Y-60793D01*
X75212Y-60831D01*
X75196Y-60847D01*
X75181Y-60831D01*
X75142Y-60815D01*
X75142Y-60681D01*
X75163Y-60673D01*
X75196Y-60639D01*
X75230Y-60673D01*
X75321Y-60711D01*
X75421Y-60711D01*
X75476Y-60711D01*
X75611Y-60845D01*
X75601Y-60855D01*
X75601Y-61209D01*
X75935Y-61209D01*
X75955Y-61189D01*
X76100Y-61334D01*
X76099Y-61336D01*
X76099Y-61435D01*
X76099Y-61685D01*
X76137Y-61777D01*
X76171Y-61811D01*
X76137Y-61844D01*
X76099Y-61936D01*
X76099Y-62012D01*
X75998Y-62012D01*
X75998Y-61525D01*
X75998Y-61372D01*
X75935Y-61309D01*
X75601Y-61309D01*
X75601Y-61663D01*
X75663Y-61726D01*
X75698Y-61726D01*
X75797Y-61726D01*
X75889Y-61688D01*
X75960Y-61617D01*
X75998Y-61525D01*
X75998Y-62012D01*
X75963Y-62012D01*
X75960Y-62004D01*
X75889Y-61933D01*
X75797Y-61895D01*
X75698Y-61895D01*
X75304Y-61895D01*
X75212Y-61933D01*
X75196Y-61949D01*
X75181Y-61933D01*
X75089Y-61895D01*
X74989Y-61895D01*
X74955Y-61895D01*
X74892Y-61958D01*
X74892Y-62312D01*
X74900Y-62312D01*
X74900Y-62412D01*
X74892Y-62412D01*
X74892Y-62766D01*
X74955Y-62828D01*
X74989Y-62828D01*
X75089Y-62828D01*
X75181Y-62790D01*
X75196Y-62774D01*
X75212Y-62790D01*
X75304Y-62828D01*
X75403Y-62828D01*
X75797Y-62828D01*
X75889Y-62790D01*
X75959Y-62720D01*
X75963Y-62712D01*
X76323Y-62712D01*
X76457Y-62685D01*
X76457Y-62685D01*
X76571Y-62609D01*
X76694Y-62486D01*
X76849Y-62486D01*
X76941Y-62448D01*
X76968Y-62420D01*
X76995Y-62447D01*
X77087Y-62485D01*
X77186Y-62486D01*
X77636Y-62486D01*
X77728Y-62448D01*
X77799Y-62377D01*
X77837Y-62285D01*
X77837Y-62186D01*
X77837Y-61936D01*
X77799Y-61844D01*
X77765Y-61811D01*
X77799Y-61777D01*
X77837Y-61685D01*
X77837Y-61586D01*
X77837Y-61336D01*
X77834Y-61329D01*
X77938Y-61434D01*
X77938Y-61525D01*
X77976Y-61617D01*
X78047Y-61688D01*
X78139Y-61726D01*
X78238Y-61726D01*
X78632Y-61726D01*
X78724Y-61688D01*
X78740Y-61672D01*
X78755Y-61688D01*
X78847Y-61726D01*
X78947Y-61726D01*
X78981Y-61726D01*
X79044Y-61663D01*
X79044Y-61309D01*
X79036Y-61309D01*
X79036Y-61209D01*
X79044Y-61209D01*
X79044Y-60855D01*
X78981Y-60793D01*
X78980Y-60793D01*
X78980Y-60547D01*
X78740Y-60306D01*
X78499Y-60547D01*
X78514Y-60631D01*
X78683Y-60688D01*
X78860Y-60675D01*
X78965Y-60631D01*
X78980Y-60547D01*
X78980Y-60793D01*
X78947Y-60793D01*
X78847Y-60793D01*
X78755Y-60831D01*
X78740Y-60847D01*
X78724Y-60831D01*
X78632Y-60793D01*
X78533Y-60793D01*
X78146Y-60793D01*
X78036Y-60683D01*
X78041Y-60683D01*
X78205Y-60615D01*
X78331Y-60489D01*
X78343Y-60460D01*
X78344Y-60461D01*
X78429Y-60476D01*
X78669Y-60236D01*
X78429Y-59995D01*
X78344Y-60010D01*
X78343Y-60012D01*
X78331Y-59983D01*
X78206Y-59857D01*
X78064Y-59798D01*
X78614Y-59798D01*
X78514Y-59840D01*
X78499Y-59925D01*
X78740Y-60165D01*
X78980Y-59925D01*
X78965Y-59840D01*
X78841Y-59798D01*
X79416Y-59798D01*
X79274Y-59857D01*
X79148Y-59982D01*
X79136Y-60012D01*
X79135Y-60010D01*
X79051Y-59995D01*
X78810Y-60236D01*
X79051Y-60476D01*
X79135Y-60461D01*
X79136Y-60460D01*
X79148Y-60489D01*
X79274Y-60614D01*
X79438Y-60682D01*
X79616Y-60683D01*
X79780Y-60615D01*
X79906Y-60489D01*
X79974Y-60325D01*
X79974Y-60284D01*
X80562Y-59696D01*
X84790Y-55468D01*
X88548Y-55468D01*
X88664Y-55584D01*
X88746Y-55618D01*
X88665Y-55651D01*
X88510Y-55806D01*
X88426Y-56008D01*
X88426Y-56227D01*
X88509Y-56429D01*
X88664Y-56584D01*
X88866Y-56668D01*
X89085Y-56668D01*
X89287Y-56584D01*
X89416Y-56455D01*
X89488Y-56441D01*
X89488Y-56441D01*
X89601Y-56365D01*
X90011Y-55956D01*
X90087Y-55842D01*
X90087Y-55842D01*
X90113Y-55708D01*
X90113Y-50000D01*
X90113Y-49999D01*
X90087Y-49866D01*
X90011Y-49752D01*
X90011Y-49752D01*
X89423Y-49164D01*
X89423Y-32510D01*
X89423Y-25424D01*
X89295Y-25115D01*
X89059Y-24878D01*
X88750Y-24750D01*
X88416Y-24749D01*
X88107Y-24877D01*
X87870Y-25113D01*
X87742Y-25422D01*
X87741Y-25757D01*
X87869Y-26066D01*
X88105Y-26302D01*
X88414Y-26430D01*
X88749Y-26431D01*
X89058Y-26303D01*
X89294Y-26067D01*
X89423Y-25758D01*
X89423Y-25424D01*
X89423Y-32510D01*
X89295Y-32201D01*
X89059Y-31964D01*
X88750Y-31836D01*
X88416Y-31836D01*
X88107Y-31964D01*
X87870Y-32200D01*
X87742Y-32509D01*
X87741Y-32843D01*
X87869Y-33152D01*
X88105Y-33389D01*
X88414Y-33517D01*
X88749Y-33517D01*
X89058Y-33390D01*
X89294Y-33153D01*
X89423Y-32845D01*
X89423Y-32510D01*
X89423Y-49164D01*
X89129Y-48870D01*
X89129Y-40157D01*
X89102Y-40023D01*
X89027Y-39909D01*
X88491Y-39374D01*
X88378Y-39298D01*
X88294Y-39282D01*
X88294Y-38703D01*
X88284Y-38485D01*
X88221Y-38334D01*
X88126Y-38306D01*
X88055Y-38377D01*
X88055Y-38236D01*
X88028Y-38140D01*
X87821Y-38067D01*
X87603Y-38078D01*
X87452Y-38140D01*
X87424Y-38236D01*
X87740Y-38551D01*
X88055Y-38236D01*
X88055Y-38377D01*
X87810Y-38622D01*
X88126Y-38937D01*
X88221Y-38909D01*
X88294Y-38703D01*
X88294Y-39282D01*
X88244Y-39272D01*
X88167Y-39272D01*
X88052Y-39156D01*
X87976Y-39124D01*
X88028Y-39103D01*
X88055Y-39007D01*
X87740Y-38692D01*
X87424Y-39007D01*
X87452Y-39103D01*
X87507Y-39123D01*
X87429Y-39155D01*
X87274Y-39310D01*
X87240Y-39391D01*
X87206Y-39310D01*
X87068Y-39172D01*
X87089Y-39172D01*
X87181Y-39134D01*
X87251Y-39063D01*
X87290Y-38971D01*
X87290Y-38918D01*
X87354Y-38937D01*
X87669Y-38622D01*
X87354Y-38306D01*
X87290Y-38325D01*
X87290Y-38272D01*
X87252Y-38180D01*
X87181Y-38110D01*
X87090Y-38072D01*
X86990Y-38072D01*
X86390Y-38072D01*
X86298Y-38109D01*
X86228Y-38180D01*
X86190Y-38272D01*
X86190Y-38371D01*
X86190Y-38971D01*
X86228Y-39063D01*
X86298Y-39133D01*
X86390Y-39172D01*
X86412Y-39172D01*
X86274Y-39310D01*
X86190Y-39512D01*
X86190Y-39730D01*
X86273Y-39933D01*
X86428Y-40088D01*
X86510Y-40122D01*
X86429Y-40155D01*
X86274Y-40310D01*
X86190Y-40512D01*
X86190Y-40730D01*
X86273Y-40933D01*
X86428Y-41088D01*
X86510Y-41122D01*
X86429Y-41155D01*
X86274Y-41310D01*
X86190Y-41512D01*
X86190Y-41730D01*
X86273Y-41933D01*
X86428Y-42088D01*
X86510Y-42122D01*
X86429Y-42155D01*
X86274Y-42310D01*
X86190Y-42512D01*
X86190Y-42730D01*
X86273Y-42933D01*
X86428Y-43088D01*
X86510Y-43122D01*
X86429Y-43155D01*
X86274Y-43310D01*
X86190Y-43512D01*
X86190Y-43730D01*
X86273Y-43933D01*
X86428Y-44088D01*
X86510Y-44122D01*
X86429Y-44155D01*
X86274Y-44310D01*
X86190Y-44512D01*
X86190Y-44730D01*
X86273Y-44933D01*
X86428Y-45088D01*
X86510Y-45122D01*
X86429Y-45155D01*
X86274Y-45310D01*
X86190Y-45512D01*
X86190Y-45730D01*
X86273Y-45933D01*
X86428Y-46088D01*
X86510Y-46122D01*
X86429Y-46155D01*
X86274Y-46310D01*
X86190Y-46512D01*
X86190Y-46730D01*
X86273Y-46933D01*
X86428Y-47088D01*
X86510Y-47122D01*
X86429Y-47155D01*
X86274Y-47310D01*
X86190Y-47512D01*
X86190Y-47730D01*
X86273Y-47933D01*
X86428Y-48088D01*
X86630Y-48171D01*
X86849Y-48172D01*
X87051Y-48088D01*
X87206Y-47934D01*
X87240Y-47852D01*
X87273Y-47933D01*
X87428Y-48088D01*
X87630Y-48171D01*
X87849Y-48172D01*
X88051Y-48088D01*
X88206Y-47934D01*
X88290Y-47731D01*
X88290Y-47513D01*
X88206Y-47310D01*
X88052Y-47156D01*
X87970Y-47122D01*
X88051Y-47088D01*
X88206Y-46934D01*
X88290Y-46731D01*
X88290Y-46513D01*
X88206Y-46310D01*
X88052Y-46156D01*
X87970Y-46122D01*
X88051Y-46088D01*
X88206Y-45934D01*
X88290Y-45731D01*
X88290Y-45513D01*
X88206Y-45310D01*
X88052Y-45156D01*
X87970Y-45122D01*
X88051Y-45088D01*
X88206Y-44934D01*
X88290Y-44731D01*
X88290Y-44513D01*
X88206Y-44310D01*
X88052Y-44156D01*
X87970Y-44122D01*
X88051Y-44088D01*
X88206Y-43934D01*
X88290Y-43731D01*
X88290Y-43513D01*
X88206Y-43310D01*
X88052Y-43156D01*
X87970Y-43122D01*
X88051Y-43088D01*
X88206Y-42934D01*
X88290Y-42731D01*
X88290Y-42513D01*
X88206Y-42310D01*
X88052Y-42156D01*
X87970Y-42122D01*
X88051Y-42088D01*
X88206Y-41934D01*
X88290Y-41731D01*
X88290Y-41513D01*
X88206Y-41310D01*
X88052Y-41156D01*
X87970Y-41122D01*
X88051Y-41088D01*
X88206Y-40934D01*
X88290Y-40731D01*
X88290Y-40513D01*
X88206Y-40310D01*
X88052Y-40156D01*
X87970Y-40122D01*
X88051Y-40088D01*
X88133Y-40006D01*
X88429Y-40302D01*
X88429Y-49015D01*
X88456Y-49149D01*
X88532Y-49263D01*
X89413Y-50144D01*
X89413Y-53604D01*
X89326Y-53568D01*
X89226Y-53568D01*
X89088Y-53568D01*
X89026Y-53630D01*
X89026Y-54068D01*
X89034Y-54068D01*
X89034Y-54168D01*
X89026Y-54168D01*
X89026Y-54175D01*
X88926Y-54175D01*
X88926Y-54168D01*
X88926Y-54068D01*
X88926Y-53630D01*
X88863Y-53568D01*
X88725Y-53568D01*
X88626Y-53568D01*
X88534Y-53606D01*
X88464Y-53676D01*
X88426Y-53768D01*
X88426Y-54005D01*
X88488Y-54068D01*
X88926Y-54068D01*
X88926Y-54168D01*
X88488Y-54168D01*
X88426Y-54230D01*
X88426Y-54467D01*
X88464Y-54559D01*
X88534Y-54629D01*
X88626Y-54668D01*
X88648Y-54668D01*
X88548Y-54768D01*
X85330Y-54768D01*
X85330Y-42746D01*
X85203Y-42437D01*
X84966Y-42201D01*
X84658Y-42072D01*
X84323Y-42072D01*
X84086Y-42170D01*
X84086Y-41648D01*
X84021Y-41491D01*
X84021Y-41491D01*
X84021Y-40509D01*
X84021Y-39427D01*
X84021Y-39328D01*
X83983Y-39236D01*
X83912Y-39165D01*
X83820Y-39127D01*
X83490Y-39128D01*
X83427Y-39190D01*
X83427Y-39918D01*
X83958Y-39918D01*
X84021Y-39856D01*
X84021Y-39427D01*
X84021Y-40509D01*
X84021Y-40081D01*
X83958Y-40018D01*
X83427Y-40018D01*
X83427Y-40746D01*
X83490Y-40809D01*
X83820Y-40809D01*
X83912Y-40771D01*
X83983Y-40700D01*
X84021Y-40608D01*
X84021Y-40509D01*
X84021Y-41491D01*
X83902Y-41372D01*
X83746Y-41307D01*
X83577Y-41307D01*
X83420Y-41371D01*
X83327Y-41464D01*
X83327Y-40746D01*
X83327Y-40018D01*
X83327Y-39918D01*
X83327Y-39190D01*
X83265Y-39128D01*
X82934Y-39127D01*
X82842Y-39165D01*
X82772Y-39236D01*
X82734Y-39328D01*
X82734Y-39427D01*
X82734Y-39856D01*
X82796Y-39918D01*
X83327Y-39918D01*
X83327Y-40018D01*
X82796Y-40018D01*
X82734Y-40081D01*
X82734Y-40509D01*
X82734Y-40608D01*
X82772Y-40700D01*
X82842Y-40771D01*
X82934Y-40809D01*
X83265Y-40809D01*
X83327Y-40746D01*
X83327Y-41464D01*
X83301Y-41491D01*
X83236Y-41647D01*
X83236Y-41662D01*
X83096Y-41801D01*
X83096Y-41643D01*
X83096Y-41443D01*
X83058Y-41352D01*
X82988Y-41281D01*
X82896Y-41243D01*
X82797Y-41243D01*
X82497Y-41243D01*
X82405Y-41281D01*
X82335Y-41351D01*
X82296Y-41443D01*
X82296Y-41543D01*
X82296Y-41743D01*
X82334Y-41834D01*
X82405Y-41905D01*
X82496Y-41943D01*
X82596Y-41943D01*
X82896Y-41943D01*
X82988Y-41905D01*
X83058Y-41835D01*
X83096Y-41743D01*
X83096Y-41643D01*
X83096Y-41801D01*
X82905Y-41993D01*
X82846Y-41993D01*
X82797Y-41993D01*
X82497Y-41993D01*
X82405Y-42031D01*
X82335Y-42101D01*
X82296Y-42193D01*
X82296Y-42293D01*
X82296Y-42493D01*
X82334Y-42584D01*
X82405Y-42655D01*
X82496Y-42693D01*
X82596Y-42693D01*
X82896Y-42693D01*
X82896Y-42693D01*
X83050Y-42693D01*
X83184Y-42666D01*
X83184Y-42666D01*
X83297Y-42590D01*
X83731Y-42157D01*
X83745Y-42157D01*
X83901Y-42092D01*
X84021Y-41973D01*
X84086Y-41817D01*
X84086Y-41648D01*
X84086Y-42170D01*
X84014Y-42200D01*
X83777Y-42436D01*
X83649Y-42745D01*
X83649Y-43079D01*
X83777Y-43388D01*
X84013Y-43625D01*
X84322Y-43753D01*
X84656Y-43754D01*
X84965Y-43626D01*
X85202Y-43390D01*
X85330Y-43081D01*
X85330Y-42746D01*
X85330Y-54768D01*
X84645Y-54768D01*
X84511Y-54794D01*
X84398Y-54870D01*
X82117Y-57151D01*
X82117Y-56061D01*
X82095Y-55922D01*
X82078Y-55875D01*
X82065Y-55834D01*
X81979Y-55677D01*
X81979Y-55676D01*
X81911Y-55595D01*
X81771Y-55483D01*
X81677Y-55435D01*
X81677Y-55435D01*
X81634Y-55422D01*
X81509Y-54988D01*
X81494Y-54960D01*
X81474Y-54912D01*
X80885Y-54031D01*
X80810Y-53957D01*
X80806Y-53955D01*
X79932Y-53370D01*
X79929Y-53367D01*
X79832Y-53327D01*
X78792Y-53121D01*
X78751Y-53121D01*
X78710Y-53117D01*
X78165Y-53178D01*
X78165Y-50731D01*
X78165Y-50181D01*
X78165Y-49030D01*
X78165Y-48381D01*
X78127Y-48289D01*
X78057Y-48219D01*
X77965Y-48181D01*
X77865Y-48181D01*
X77277Y-48181D01*
X77215Y-48243D01*
X77215Y-48656D01*
X78102Y-48656D01*
X78165Y-48593D01*
X78165Y-48381D01*
X78165Y-49030D01*
X78165Y-48818D01*
X78102Y-48756D01*
X77215Y-48756D01*
X77215Y-49168D01*
X77277Y-49231D01*
X77865Y-49231D01*
X77965Y-49231D01*
X78057Y-49193D01*
X78127Y-49122D01*
X78165Y-49030D01*
X78165Y-50181D01*
X78127Y-50089D01*
X78057Y-50019D01*
X77965Y-49981D01*
X77865Y-49981D01*
X77115Y-49981D01*
X77115Y-49168D01*
X77115Y-48756D01*
X77115Y-48656D01*
X77115Y-48243D01*
X77115Y-48053D01*
X77115Y-47790D01*
X76752Y-47790D01*
X76690Y-47853D01*
X76690Y-47915D01*
X76728Y-48007D01*
X76798Y-48077D01*
X76890Y-48115D01*
X76989Y-48115D01*
X77052Y-48115D01*
X77115Y-48053D01*
X77115Y-48243D01*
X77052Y-48181D01*
X76464Y-48181D01*
X76365Y-48181D01*
X76273Y-48219D01*
X76203Y-48289D01*
X76165Y-48381D01*
X76165Y-48593D01*
X76227Y-48656D01*
X77115Y-48656D01*
X77115Y-48756D01*
X76227Y-48756D01*
X76165Y-48818D01*
X76165Y-49030D01*
X76203Y-49122D01*
X76273Y-49193D01*
X76365Y-49231D01*
X76464Y-49231D01*
X77052Y-49231D01*
X77115Y-49168D01*
X77115Y-49981D01*
X76365Y-49981D01*
X76273Y-50019D01*
X76203Y-50089D01*
X76165Y-50181D01*
X76165Y-50280D01*
X76165Y-50830D01*
X76203Y-50922D01*
X76273Y-50993D01*
X76365Y-51031D01*
X76464Y-51031D01*
X76815Y-51031D01*
X76815Y-51126D01*
X76805Y-51136D01*
X76740Y-51293D01*
X76740Y-51462D01*
X76804Y-51618D01*
X76924Y-51738D01*
X77080Y-51802D01*
X77249Y-51803D01*
X77405Y-51738D01*
X77525Y-51619D01*
X77590Y-51462D01*
X77590Y-51293D01*
X77525Y-51137D01*
X77515Y-51126D01*
X77515Y-51031D01*
X77964Y-51031D01*
X78056Y-50993D01*
X78127Y-50923D01*
X78165Y-50831D01*
X78165Y-50731D01*
X78165Y-53178D01*
X78108Y-53185D01*
X78058Y-53201D01*
X78028Y-53207D01*
X77060Y-53638D01*
X76974Y-53699D01*
X76972Y-53703D01*
X76248Y-54466D01*
X76244Y-54469D01*
X76188Y-54558D01*
X75861Y-55415D01*
X75816Y-55436D01*
X75776Y-55452D01*
X75627Y-55552D01*
X75626Y-55552D01*
X75552Y-55627D01*
X75452Y-55776D01*
X75412Y-55873D01*
X75412Y-55874D01*
X75377Y-56049D01*
X75377Y-56096D01*
X75375Y-56143D01*
X75397Y-56281D01*
X75412Y-56323D01*
X75426Y-56370D01*
X75513Y-56527D01*
X75580Y-56608D01*
X75581Y-56608D01*
X75720Y-56720D01*
X75720Y-56720D01*
X75814Y-56769D01*
X75844Y-56778D01*
X75971Y-57216D01*
X75990Y-57253D01*
X76006Y-57291D01*
X76593Y-58168D01*
X76594Y-58172D01*
X76669Y-58247D01*
X77550Y-58836D01*
X77647Y-58877D01*
X77651Y-58877D01*
X78687Y-59082D01*
X78718Y-59082D01*
X78770Y-59086D01*
X79372Y-59019D01*
X79411Y-59006D01*
X79451Y-58997D01*
X80419Y-58566D01*
X80505Y-58505D01*
X80508Y-58502D01*
X81235Y-57736D01*
X81291Y-57647D01*
X81292Y-57642D01*
X81616Y-56792D01*
X81630Y-56789D01*
X81670Y-56770D01*
X81715Y-56751D01*
X81865Y-56652D01*
X81939Y-56577D01*
X81940Y-56577D01*
X82038Y-56429D01*
X82039Y-56428D01*
X82079Y-56331D01*
X82115Y-56155D01*
X82115Y-56107D01*
X82117Y-56061D01*
X82117Y-57151D01*
X80169Y-59098D01*
X80118Y-59098D01*
X77952Y-59098D01*
X77507Y-59098D01*
X76428Y-58020D01*
X76034Y-57626D01*
X75921Y-57550D01*
X75787Y-57524D01*
X73031Y-57524D01*
X72897Y-57550D01*
X72784Y-57626D01*
X72754Y-57655D01*
X72754Y-57462D01*
X72692Y-57400D01*
X72254Y-57400D01*
X72254Y-57837D01*
X72317Y-57900D01*
X72455Y-57900D01*
X72510Y-57900D01*
X72492Y-57917D01*
X72154Y-57917D01*
X72154Y-57837D01*
X72154Y-57400D01*
X71717Y-57400D01*
X71654Y-57462D01*
X71654Y-57699D01*
X71692Y-57791D01*
X71762Y-57862D01*
X71854Y-57900D01*
X71954Y-57900D01*
X72092Y-57900D01*
X72154Y-57837D01*
X72154Y-57917D01*
X70825Y-57917D01*
X70825Y-57699D01*
X70825Y-57462D01*
X70763Y-57400D01*
X70325Y-57400D01*
X70325Y-57837D01*
X70388Y-57900D01*
X70526Y-57900D01*
X70625Y-57900D01*
X70717Y-57862D01*
X70787Y-57791D01*
X70825Y-57699D01*
X70825Y-57917D01*
X70225Y-57917D01*
X70225Y-57837D01*
X70225Y-57400D01*
X69788Y-57400D01*
X69725Y-57462D01*
X69725Y-57699D01*
X69763Y-57791D01*
X69833Y-57862D01*
X69925Y-57900D01*
X70025Y-57900D01*
X70163Y-57900D01*
X70225Y-57837D01*
X70225Y-57917D01*
X69436Y-57917D01*
X68998Y-57480D01*
X69145Y-57334D01*
X69145Y-57334D01*
X69145Y-57334D01*
X69220Y-57220D01*
X69247Y-57086D01*
X69247Y-54978D01*
X69653Y-55384D01*
X69653Y-55399D01*
X69718Y-55555D01*
X69837Y-55675D01*
X69993Y-55739D01*
X70162Y-55740D01*
X70319Y-55675D01*
X70369Y-55625D01*
X70369Y-55800D01*
X70166Y-55800D01*
X69964Y-55883D01*
X69809Y-56038D01*
X69725Y-56240D01*
X69725Y-56459D01*
X69809Y-56661D01*
X69947Y-56800D01*
X69925Y-56800D01*
X69833Y-56838D01*
X69763Y-56908D01*
X69725Y-57000D01*
X69725Y-57237D01*
X69788Y-57300D01*
X70225Y-57300D01*
X70225Y-57292D01*
X70325Y-57292D01*
X70325Y-57300D01*
X70763Y-57300D01*
X70825Y-57237D01*
X70825Y-57000D01*
X70787Y-56908D01*
X70717Y-56838D01*
X70625Y-56800D01*
X70603Y-56800D01*
X70741Y-56662D01*
X70825Y-56460D01*
X70825Y-56241D01*
X70820Y-56229D01*
X70881Y-56168D01*
X70881Y-56168D01*
X70946Y-56071D01*
X70969Y-55956D01*
X70969Y-55956D01*
X70969Y-52486D01*
X74031Y-49424D01*
X74031Y-49424D01*
X74096Y-49327D01*
X74118Y-49212D01*
X74118Y-49212D01*
X74118Y-47762D01*
X74181Y-47699D01*
X74181Y-47721D01*
X74245Y-47878D01*
X74306Y-47938D01*
X74306Y-49285D01*
X71992Y-51598D01*
X71927Y-51696D01*
X71904Y-51811D01*
X71904Y-55879D01*
X71893Y-55883D01*
X71738Y-56038D01*
X71654Y-56240D01*
X71654Y-56459D01*
X71738Y-56661D01*
X71876Y-56800D01*
X71854Y-56800D01*
X71762Y-56838D01*
X71692Y-56908D01*
X71654Y-57000D01*
X71654Y-57237D01*
X71717Y-57300D01*
X72154Y-57300D01*
X72154Y-57292D01*
X72254Y-57292D01*
X72254Y-57300D01*
X72692Y-57300D01*
X72754Y-57237D01*
X72754Y-57000D01*
X72716Y-56908D01*
X72646Y-56838D01*
X72554Y-56800D01*
X72532Y-56800D01*
X72670Y-56662D01*
X72754Y-56460D01*
X72754Y-56241D01*
X72671Y-56039D01*
X72516Y-55884D01*
X72504Y-55879D01*
X72504Y-51935D01*
X73641Y-50798D01*
X73655Y-50830D01*
X73715Y-50891D01*
X73715Y-51450D01*
X73622Y-51543D01*
X73537Y-51543D01*
X73381Y-51607D01*
X73261Y-51727D01*
X73197Y-51883D01*
X73196Y-52052D01*
X73261Y-52208D01*
X73380Y-52328D01*
X73537Y-52393D01*
X73706Y-52393D01*
X73844Y-52336D01*
X73787Y-52474D01*
X73787Y-52643D01*
X73852Y-52799D01*
X73971Y-52919D01*
X74127Y-52983D01*
X74296Y-52984D01*
X74453Y-52919D01*
X74572Y-52800D01*
X74637Y-52643D01*
X74637Y-52558D01*
X74818Y-52377D01*
X74818Y-52377D01*
X74883Y-52280D01*
X74906Y-52165D01*
X74906Y-52165D01*
X74906Y-52016D01*
X74919Y-52083D01*
X74968Y-52156D01*
X74968Y-52249D01*
X75033Y-52405D01*
X75152Y-52525D01*
X75308Y-52590D01*
X75477Y-52590D01*
X75634Y-52525D01*
X75753Y-52406D01*
X75818Y-52250D01*
X75818Y-52081D01*
X75754Y-51924D01*
X75634Y-51805D01*
X75496Y-51748D01*
X75496Y-49927D01*
X75802Y-49621D01*
X75802Y-49621D01*
X75867Y-49524D01*
X75890Y-49409D01*
X75890Y-49409D01*
X75890Y-49119D01*
X75950Y-49059D01*
X76015Y-48903D01*
X76015Y-48734D01*
X75951Y-48578D01*
X75831Y-48458D01*
X75675Y-48393D01*
X75506Y-48393D01*
X75350Y-48458D01*
X75350Y-48458D01*
X75350Y-47979D01*
X75932Y-47396D01*
X75940Y-47416D01*
X76011Y-47487D01*
X76103Y-47525D01*
X76202Y-47525D01*
X76652Y-47525D01*
X76718Y-47498D01*
X76690Y-47566D01*
X76690Y-47628D01*
X76752Y-47690D01*
X77115Y-47690D01*
X77115Y-47683D01*
X77215Y-47683D01*
X77215Y-47690D01*
X77577Y-47690D01*
X77594Y-47674D01*
X77602Y-47695D01*
X77673Y-47765D01*
X77682Y-47769D01*
X77627Y-47769D01*
X77592Y-47805D01*
X77577Y-47790D01*
X77215Y-47790D01*
X77215Y-48053D01*
X77277Y-48115D01*
X77340Y-48115D01*
X77440Y-48115D01*
X77532Y-48077D01*
X77602Y-48007D01*
X77618Y-47967D01*
X77673Y-48021D01*
X77765Y-48060D01*
X77864Y-48060D01*
X77903Y-48060D01*
X77966Y-47997D01*
X77966Y-47804D01*
X78066Y-47804D01*
X78066Y-47997D01*
X78128Y-48060D01*
X78167Y-48060D01*
X78266Y-48060D01*
X78358Y-48021D01*
X78429Y-47951D01*
X78467Y-47859D01*
X78467Y-47832D01*
X78414Y-47779D01*
X78467Y-47779D01*
X78467Y-47773D01*
X78510Y-47773D01*
X78510Y-47773D01*
X78625Y-47750D01*
X78625Y-47750D01*
X78722Y-47685D01*
X78900Y-47507D01*
X78949Y-47517D01*
X79377Y-47517D01*
X79377Y-47603D01*
X79377Y-47603D01*
X79377Y-47698D01*
X79377Y-47756D01*
X78702Y-48431D01*
X78434Y-48431D01*
X78342Y-48469D01*
X78272Y-48539D01*
X78234Y-48631D01*
X78234Y-48730D01*
X78234Y-50974D01*
X78272Y-51066D01*
X78342Y-51137D01*
X78434Y-51175D01*
X78475Y-51175D01*
X78475Y-51177D01*
X78551Y-51290D01*
X79476Y-52215D01*
X79476Y-52215D01*
X79590Y-52291D01*
X79724Y-52318D01*
X79724Y-52318D01*
X80908Y-52318D01*
X81042Y-52291D01*
X81042Y-52291D01*
X81155Y-52215D01*
X82764Y-50607D01*
X83356Y-50607D01*
X83448Y-50569D01*
X83518Y-50498D01*
X83556Y-50407D01*
X83557Y-50307D01*
X83557Y-49598D01*
X83519Y-49506D01*
X83448Y-49436D01*
X83356Y-49398D01*
X83257Y-49398D01*
X82391Y-49398D01*
X82299Y-49436D01*
X82229Y-49506D01*
X82191Y-49598D01*
X82190Y-49697D01*
X82190Y-50190D01*
X80763Y-51618D01*
X80675Y-51618D01*
X80739Y-51462D01*
X80739Y-51447D01*
X80897Y-51290D01*
X80972Y-51177D01*
X80973Y-51175D01*
X81014Y-51175D01*
X81105Y-51137D01*
X81176Y-51066D01*
X81214Y-50975D01*
X81214Y-50875D01*
X81214Y-49733D01*
X81743Y-49204D01*
X81819Y-49090D01*
X81819Y-49090D01*
X81846Y-48956D01*
X81846Y-48281D01*
X81862Y-48274D01*
X81932Y-48204D01*
X81971Y-48112D01*
X81971Y-48013D01*
X81971Y-47763D01*
X81947Y-47705D01*
X82042Y-47801D01*
X82198Y-47865D01*
X82289Y-47865D01*
X82229Y-47926D01*
X82191Y-48018D01*
X82190Y-48117D01*
X82190Y-48826D01*
X82228Y-48918D01*
X82299Y-48988D01*
X82391Y-49027D01*
X82490Y-49027D01*
X83356Y-49027D01*
X83448Y-48989D01*
X83518Y-48918D01*
X83556Y-48827D01*
X83557Y-48727D01*
X83557Y-48018D01*
X83519Y-47926D01*
X83448Y-47856D01*
X83356Y-47818D01*
X83257Y-47818D01*
X83224Y-47818D01*
X83224Y-47440D01*
X83224Y-46987D01*
X83224Y-46987D01*
X83197Y-46853D01*
X83121Y-46740D01*
X83121Y-46740D01*
X82860Y-46478D01*
X82860Y-43384D01*
X82860Y-43033D01*
X82859Y-42933D01*
X82821Y-42841D01*
X82751Y-42771D01*
X82659Y-42733D01*
X82597Y-42733D01*
X82535Y-42796D01*
X82535Y-43158D01*
X82797Y-43158D01*
X82860Y-43096D01*
X82860Y-43033D01*
X82860Y-43384D01*
X82860Y-43321D01*
X82797Y-43258D01*
X82535Y-43258D01*
X82535Y-43621D01*
X82597Y-43683D01*
X82659Y-43683D01*
X82751Y-43645D01*
X82821Y-43575D01*
X82859Y-43483D01*
X82860Y-43384D01*
X82860Y-46478D01*
X82696Y-46314D01*
X82696Y-45810D01*
X82658Y-45718D01*
X82587Y-45648D01*
X82496Y-45609D01*
X82396Y-45609D01*
X81796Y-45609D01*
X81704Y-45647D01*
X81634Y-45718D01*
X81596Y-45809D01*
X81596Y-45909D01*
X81596Y-46709D01*
X81633Y-46801D01*
X81704Y-46871D01*
X81796Y-46909D01*
X81895Y-46909D01*
X82301Y-46909D01*
X82434Y-47043D01*
X82368Y-47016D01*
X82199Y-47015D01*
X82043Y-47080D01*
X81967Y-47155D01*
X81933Y-47071D01*
X81862Y-47000D01*
X81771Y-46962D01*
X81671Y-46962D01*
X81524Y-46962D01*
X81490Y-46940D01*
X81396Y-46921D01*
X81396Y-46610D01*
X81396Y-45909D01*
X81396Y-45809D01*
X81357Y-45718D01*
X81287Y-45647D01*
X81195Y-45609D01*
X80958Y-45609D01*
X80896Y-45672D01*
X80896Y-46209D01*
X81333Y-46209D01*
X81396Y-46147D01*
X81396Y-45909D01*
X81396Y-46610D01*
X81396Y-46372D01*
X81333Y-46309D01*
X80896Y-46309D01*
X80896Y-46847D01*
X80958Y-46909D01*
X81195Y-46909D01*
X81287Y-46871D01*
X81357Y-46801D01*
X81396Y-46709D01*
X81396Y-46610D01*
X81396Y-46921D01*
X81375Y-46917D01*
X80279Y-46917D01*
X80279Y-46911D01*
X80226Y-46911D01*
X80279Y-46858D01*
X80279Y-46831D01*
X80241Y-46739D01*
X80225Y-46723D01*
X80290Y-46696D01*
X80296Y-46691D01*
X80296Y-46709D01*
X80334Y-46801D01*
X80404Y-46871D01*
X80496Y-46909D01*
X80733Y-46909D01*
X80796Y-46847D01*
X80796Y-46309D01*
X80796Y-46209D01*
X80796Y-45672D01*
X80733Y-45609D01*
X80496Y-45609D01*
X80404Y-45647D01*
X80334Y-45718D01*
X80296Y-45809D01*
X80296Y-45828D01*
X80290Y-45822D01*
X80198Y-45784D01*
X80136Y-45784D01*
X80074Y-45847D01*
X80074Y-46209D01*
X80336Y-46209D01*
X80347Y-46199D01*
X80358Y-46209D01*
X80796Y-46209D01*
X80796Y-46309D01*
X80358Y-46309D01*
X80347Y-46320D01*
X80336Y-46309D01*
X80074Y-46309D01*
X80074Y-46317D01*
X79974Y-46317D01*
X79974Y-46309D01*
X79966Y-46309D01*
X79966Y-46209D01*
X79974Y-46209D01*
X79974Y-45847D01*
X79911Y-45784D01*
X79849Y-45784D01*
X79757Y-45822D01*
X79724Y-45856D01*
X79691Y-45823D01*
X79599Y-45784D01*
X79499Y-45784D01*
X79249Y-45784D01*
X79157Y-45822D01*
X79133Y-45846D01*
X79110Y-45823D01*
X79018Y-45784D01*
X78918Y-45784D01*
X78668Y-45784D01*
X78576Y-45822D01*
X78543Y-45856D01*
X78510Y-45823D01*
X78418Y-45784D01*
X78318Y-45784D01*
X78068Y-45784D01*
X77976Y-45822D01*
X77906Y-45893D01*
X77868Y-45984D01*
X77868Y-45994D01*
X77837Y-45981D01*
X77741Y-45981D01*
X78885Y-44838D01*
X81638Y-44838D01*
X81648Y-44848D01*
X81804Y-44913D01*
X81973Y-44913D01*
X82130Y-44848D01*
X82249Y-44729D01*
X82314Y-44573D01*
X82314Y-44404D01*
X82250Y-44247D01*
X82235Y-44232D01*
X82235Y-43652D01*
X82310Y-43683D01*
X82372Y-43683D01*
X82435Y-43621D01*
X82435Y-43258D01*
X82427Y-43258D01*
X82427Y-43158D01*
X82435Y-43158D01*
X82435Y-42796D01*
X82372Y-42733D01*
X82310Y-42733D01*
X82218Y-42771D01*
X82185Y-42805D01*
X82151Y-42771D01*
X82059Y-42733D01*
X82046Y-42733D01*
X82046Y-42597D01*
X82058Y-42585D01*
X82096Y-42493D01*
X82096Y-42393D01*
X82096Y-42193D01*
X82081Y-42156D01*
X82096Y-42118D01*
X82096Y-42081D01*
X82034Y-42018D01*
X81956Y-42018D01*
X81896Y-41993D01*
X81797Y-41993D01*
X81638Y-41993D01*
X81638Y-41943D01*
X81896Y-41943D01*
X81956Y-41918D01*
X82034Y-41918D01*
X82096Y-41856D01*
X82096Y-41818D01*
X82081Y-41781D01*
X82096Y-41743D01*
X82096Y-41643D01*
X82096Y-41443D01*
X82058Y-41352D01*
X81988Y-41281D01*
X81896Y-41243D01*
X81797Y-41243D01*
X81659Y-41243D01*
X81659Y-40509D01*
X81659Y-39328D01*
X81621Y-39236D01*
X81551Y-39166D01*
X81459Y-39128D01*
X81359Y-39127D01*
X80725Y-39127D01*
X80228Y-38630D01*
X80228Y-38616D01*
X80163Y-38460D01*
X80044Y-38340D01*
X79888Y-38275D01*
X79718Y-38275D01*
X79562Y-38340D01*
X79443Y-38459D01*
X79378Y-38615D01*
X79378Y-38784D01*
X79442Y-38941D01*
X79562Y-39060D01*
X79718Y-39125D01*
X79733Y-39125D01*
X80372Y-39764D01*
X80372Y-40608D01*
X80410Y-40700D01*
X80480Y-40770D01*
X80572Y-40808D01*
X80671Y-40809D01*
X81458Y-40809D01*
X81550Y-40771D01*
X81621Y-40700D01*
X81659Y-40608D01*
X81659Y-40509D01*
X81659Y-41243D01*
X81497Y-41243D01*
X81497Y-41243D01*
X81137Y-41243D01*
X81004Y-41270D01*
X80910Y-41332D01*
X80749Y-41332D01*
X80657Y-41370D01*
X80620Y-41407D01*
X80197Y-41407D01*
X80162Y-41372D01*
X80006Y-41307D01*
X79837Y-41307D01*
X79680Y-41371D01*
X79561Y-41491D01*
X79496Y-41647D01*
X79496Y-41796D01*
X79291Y-41592D01*
X79291Y-38031D01*
X79316Y-37971D01*
X79316Y-37872D01*
X79316Y-37422D01*
X79291Y-37361D01*
X79291Y-37357D01*
X79357Y-37384D01*
X79456Y-37384D01*
X79706Y-37384D01*
X79798Y-37346D01*
X79869Y-37276D01*
X79907Y-37184D01*
X79907Y-37084D01*
X79907Y-36796D01*
X80874Y-36796D01*
X80874Y-36816D01*
X80938Y-36972D01*
X81058Y-37092D01*
X81214Y-37157D01*
X81383Y-37157D01*
X81539Y-37092D01*
X81659Y-36973D01*
X81724Y-36817D01*
X81724Y-36648D01*
X81659Y-36491D01*
X81565Y-36397D01*
X81659Y-36304D01*
X81724Y-36147D01*
X81724Y-35978D01*
X81659Y-35822D01*
X81540Y-35702D01*
X81384Y-35638D01*
X81215Y-35637D01*
X81058Y-35702D01*
X81018Y-35742D01*
X79870Y-35742D01*
X79870Y-35703D01*
X79832Y-35612D01*
X79762Y-35541D01*
X79670Y-35503D01*
X79570Y-35503D01*
X79405Y-35503D01*
X79405Y-35503D01*
X79314Y-35503D01*
X79149Y-35503D01*
X79149Y-35503D01*
X79058Y-35503D01*
X78893Y-35503D01*
X78893Y-35503D01*
X78802Y-35503D01*
X78645Y-35503D01*
X78637Y-35503D01*
X78637Y-35503D01*
X78617Y-35503D01*
X78603Y-35517D01*
X78545Y-35541D01*
X78513Y-35573D01*
X78482Y-35541D01*
X78424Y-35517D01*
X78409Y-35503D01*
X78381Y-35503D01*
X78381Y-35503D01*
X78301Y-35503D01*
X78301Y-35482D01*
X78301Y-35482D01*
X78278Y-35367D01*
X78213Y-35269D01*
X78213Y-35269D01*
X77968Y-35024D01*
X77870Y-34959D01*
X77755Y-34936D01*
X77586Y-34936D01*
X77590Y-34927D01*
X77590Y-34758D01*
X77525Y-34602D01*
X77406Y-34482D01*
X77250Y-34417D01*
X77081Y-34417D01*
X76924Y-34482D01*
X76805Y-34601D01*
X76740Y-34757D01*
X76740Y-34926D01*
X76804Y-35082D01*
X76912Y-35191D01*
X76912Y-35191D01*
X76953Y-35251D01*
X77150Y-35448D01*
X77150Y-35448D01*
X77247Y-35513D01*
X77362Y-35536D01*
X77362Y-35536D01*
X77533Y-35536D01*
X77525Y-35539D01*
X77455Y-35609D01*
X77417Y-35701D01*
X77417Y-35740D01*
X76716Y-35740D01*
X76481Y-35505D01*
X76481Y-35340D01*
X76541Y-35280D01*
X76606Y-35124D01*
X76606Y-34955D01*
X76541Y-34798D01*
X76422Y-34679D01*
X76266Y-34614D01*
X76096Y-34614D01*
X75940Y-34678D01*
X75821Y-34798D01*
X75756Y-34954D01*
X75756Y-35123D01*
X75820Y-35279D01*
X75881Y-35340D01*
X75881Y-35629D01*
X75903Y-35744D01*
X75968Y-35842D01*
X76379Y-36253D01*
X76379Y-36253D01*
X76477Y-36318D01*
X76592Y-36340D01*
X76592Y-36340D01*
X77417Y-36340D01*
X77417Y-36379D01*
X77455Y-36471D01*
X77470Y-36486D01*
X77414Y-36542D01*
X77376Y-36634D01*
X77376Y-36733D01*
X77376Y-37183D01*
X77414Y-37275D01*
X77484Y-37346D01*
X77576Y-37384D01*
X77675Y-37384D01*
X77925Y-37384D01*
X77994Y-37356D01*
X77966Y-37421D01*
X77966Y-37521D01*
X77966Y-37584D01*
X78029Y-37646D01*
X78291Y-37646D01*
X78291Y-37331D01*
X78301Y-37321D01*
X78301Y-36959D01*
X78293Y-36959D01*
X78293Y-36859D01*
X78301Y-36859D01*
X78301Y-36851D01*
X78401Y-36851D01*
X78401Y-36859D01*
X78409Y-36859D01*
X78409Y-36959D01*
X78401Y-36959D01*
X78401Y-37274D01*
X78391Y-37284D01*
X78391Y-37646D01*
X78399Y-37646D01*
X78399Y-37746D01*
X78391Y-37746D01*
X78391Y-38109D01*
X78454Y-38171D01*
X78516Y-38171D01*
X78591Y-38140D01*
X78591Y-41737D01*
X78618Y-41870D01*
X78694Y-41984D01*
X79001Y-42291D01*
X78852Y-42291D01*
X78696Y-42356D01*
X78576Y-42475D01*
X78512Y-42631D01*
X78512Y-42717D01*
X78291Y-42937D01*
X78291Y-38109D01*
X78291Y-37746D01*
X78029Y-37746D01*
X77966Y-37809D01*
X77966Y-37872D01*
X77966Y-37971D01*
X78004Y-38063D01*
X78075Y-38133D01*
X78167Y-38171D01*
X78229Y-38171D01*
X78291Y-38109D01*
X78291Y-42937D01*
X77824Y-43404D01*
X77824Y-40509D01*
X77824Y-39427D01*
X77824Y-39328D01*
X77786Y-39236D01*
X77715Y-39165D01*
X77624Y-39127D01*
X77293Y-39128D01*
X77231Y-39190D01*
X77231Y-39918D01*
X77762Y-39918D01*
X77824Y-39856D01*
X77824Y-39427D01*
X77824Y-40509D01*
X77824Y-40081D01*
X77762Y-40018D01*
X77231Y-40018D01*
X77231Y-40746D01*
X77293Y-40809D01*
X77624Y-40809D01*
X77715Y-40771D01*
X77786Y-40700D01*
X77824Y-40608D01*
X77824Y-40509D01*
X77824Y-43404D01*
X77787Y-43442D01*
X77787Y-41648D01*
X77722Y-41491D01*
X77603Y-41372D01*
X77447Y-41307D01*
X77278Y-41307D01*
X77131Y-41367D01*
X77131Y-40746D01*
X77131Y-40018D01*
X77131Y-39918D01*
X77131Y-39190D01*
X77068Y-39128D01*
X76737Y-39127D01*
X76646Y-39165D01*
X76575Y-39236D01*
X76537Y-39328D01*
X76537Y-39427D01*
X76537Y-39856D01*
X76600Y-39918D01*
X77131Y-39918D01*
X77131Y-40018D01*
X76600Y-40018D01*
X76537Y-40081D01*
X76537Y-40509D01*
X76537Y-40608D01*
X76575Y-40700D01*
X76646Y-40771D01*
X76737Y-40809D01*
X77068Y-40809D01*
X77131Y-40746D01*
X77131Y-41367D01*
X77121Y-41371D01*
X77002Y-41491D01*
X76937Y-41647D01*
X76937Y-41662D01*
X76899Y-41699D01*
X76900Y-41643D01*
X76900Y-41443D01*
X76862Y-41352D01*
X76791Y-41281D01*
X76699Y-41243D01*
X76600Y-41243D01*
X76300Y-41243D01*
X76208Y-41281D01*
X76138Y-41351D01*
X76100Y-41443D01*
X76099Y-41543D01*
X76099Y-41743D01*
X76137Y-41834D01*
X76208Y-41905D01*
X76300Y-41943D01*
X76399Y-41943D01*
X76655Y-41943D01*
X76606Y-41993D01*
X76600Y-41993D01*
X76300Y-41993D01*
X76208Y-42031D01*
X76138Y-42101D01*
X76100Y-42193D01*
X76099Y-42293D01*
X76099Y-42493D01*
X76137Y-42584D01*
X76208Y-42655D01*
X76300Y-42693D01*
X76399Y-42693D01*
X76699Y-42693D01*
X76699Y-42693D01*
X76750Y-42693D01*
X76884Y-42666D01*
X76884Y-42666D01*
X76998Y-42590D01*
X77432Y-42157D01*
X77446Y-42157D01*
X77602Y-42092D01*
X77722Y-41973D01*
X77787Y-41817D01*
X77787Y-41648D01*
X77787Y-43442D01*
X76659Y-44569D01*
X76659Y-43384D01*
X76659Y-43033D01*
X76659Y-42933D01*
X76621Y-42841D01*
X76550Y-42771D01*
X76458Y-42733D01*
X76396Y-42733D01*
X76334Y-42796D01*
X76334Y-43158D01*
X76596Y-43158D01*
X76659Y-43096D01*
X76659Y-43033D01*
X76659Y-43384D01*
X76659Y-43321D01*
X76596Y-43258D01*
X76334Y-43258D01*
X76334Y-43621D01*
X76396Y-43683D01*
X76458Y-43683D01*
X76550Y-43645D01*
X76621Y-43575D01*
X76659Y-43483D01*
X76659Y-43384D01*
X76659Y-44569D01*
X74482Y-46747D01*
X74409Y-46747D01*
X74369Y-46755D01*
X75931Y-45193D01*
X76007Y-45079D01*
X76007Y-45079D01*
X76034Y-44945D01*
X76034Y-43652D01*
X76109Y-43683D01*
X76171Y-43683D01*
X76234Y-43621D01*
X76234Y-43258D01*
X76226Y-43258D01*
X76226Y-43158D01*
X76234Y-43158D01*
X76234Y-42796D01*
X76171Y-42733D01*
X76109Y-42733D01*
X76017Y-42771D01*
X75984Y-42805D01*
X75951Y-42771D01*
X75859Y-42733D01*
X75850Y-42733D01*
X75850Y-42597D01*
X75861Y-42585D01*
X75899Y-42493D01*
X75900Y-42393D01*
X75900Y-42193D01*
X75884Y-42156D01*
X75900Y-42118D01*
X75900Y-42081D01*
X75837Y-42018D01*
X75760Y-42018D01*
X75699Y-41993D01*
X75600Y-41993D01*
X75442Y-41993D01*
X75442Y-41943D01*
X75699Y-41943D01*
X75760Y-41918D01*
X75837Y-41918D01*
X75900Y-41856D01*
X75900Y-41818D01*
X75884Y-41781D01*
X75899Y-41743D01*
X75900Y-41643D01*
X75900Y-41443D01*
X75862Y-41352D01*
X75791Y-41281D01*
X75699Y-41243D01*
X75600Y-41243D01*
X75300Y-41243D01*
X75300Y-41243D01*
X74937Y-41243D01*
X74937Y-41243D01*
X74803Y-41270D01*
X74689Y-41346D01*
X74689Y-41346D01*
X74683Y-41352D01*
X74528Y-41352D01*
X74436Y-41390D01*
X74395Y-41431D01*
X74299Y-41450D01*
X74202Y-41515D01*
X73803Y-41913D01*
X73738Y-42011D01*
X73715Y-42125D01*
X73715Y-42468D01*
X73703Y-42437D01*
X73466Y-42201D01*
X73158Y-42072D01*
X72823Y-42072D01*
X72514Y-42200D01*
X72277Y-42436D01*
X72149Y-42745D01*
X72149Y-42985D01*
X72062Y-42898D01*
X72062Y-42898D01*
X72062Y-42898D01*
X71574Y-42409D01*
X71477Y-42344D01*
X71362Y-42322D01*
X71294Y-42322D01*
X71294Y-39703D01*
X71284Y-39485D01*
X71221Y-39334D01*
X71126Y-39306D01*
X70810Y-39622D01*
X71126Y-39937D01*
X71221Y-39909D01*
X71294Y-39703D01*
X71294Y-42322D01*
X71211Y-42322D01*
X71206Y-42310D01*
X71052Y-42156D01*
X70970Y-42122D01*
X71051Y-42088D01*
X71206Y-41934D01*
X71290Y-41731D01*
X71290Y-41513D01*
X71206Y-41310D01*
X71052Y-41156D01*
X70970Y-41122D01*
X71051Y-41088D01*
X71206Y-40934D01*
X71290Y-40731D01*
X71290Y-40513D01*
X71206Y-40310D01*
X71052Y-40156D01*
X70976Y-40124D01*
X71028Y-40103D01*
X71055Y-40007D01*
X70740Y-39692D01*
X70424Y-40007D01*
X70452Y-40103D01*
X70507Y-40123D01*
X70429Y-40155D01*
X70274Y-40310D01*
X70240Y-40391D01*
X70206Y-40310D01*
X70052Y-40156D01*
X69970Y-40122D01*
X70051Y-40088D01*
X70206Y-39934D01*
X70237Y-39858D01*
X70258Y-39909D01*
X70354Y-39937D01*
X70669Y-39622D01*
X70354Y-39306D01*
X70258Y-39334D01*
X70239Y-39389D01*
X70206Y-39310D01*
X70068Y-39172D01*
X70089Y-39172D01*
X70181Y-39134D01*
X70251Y-39063D01*
X70290Y-38971D01*
X70290Y-38949D01*
X70428Y-39088D01*
X70503Y-39119D01*
X70452Y-39140D01*
X70424Y-39236D01*
X70740Y-39551D01*
X71055Y-39236D01*
X71028Y-39140D01*
X70972Y-39121D01*
X71051Y-39088D01*
X71206Y-38934D01*
X71290Y-38731D01*
X71290Y-38513D01*
X71206Y-38310D01*
X71052Y-38156D01*
X70850Y-38072D01*
X70785Y-38072D01*
X70908Y-37948D01*
X71705Y-37948D01*
X73816Y-40059D01*
X73748Y-40126D01*
X73734Y-40126D01*
X73578Y-40190D01*
X73458Y-40310D01*
X73393Y-40466D01*
X73393Y-40635D01*
X73458Y-40791D01*
X73577Y-40911D01*
X73733Y-40976D01*
X73903Y-40976D01*
X74059Y-40911D01*
X74178Y-40792D01*
X74216Y-40703D01*
X74283Y-40770D01*
X74375Y-40808D01*
X74475Y-40809D01*
X75262Y-40809D01*
X75353Y-40771D01*
X75424Y-40700D01*
X75462Y-40608D01*
X75462Y-40509D01*
X75462Y-39328D01*
X75424Y-39236D01*
X75354Y-39166D01*
X75262Y-39128D01*
X75162Y-39127D01*
X74375Y-39127D01*
X74284Y-39165D01*
X74213Y-39236D01*
X74175Y-39328D01*
X74175Y-39427D01*
X74175Y-39428D01*
X72345Y-37598D01*
X75774Y-34168D01*
X76285Y-34168D01*
X76292Y-34185D01*
X76362Y-34255D01*
X76454Y-34293D01*
X76553Y-34293D01*
X76803Y-34293D01*
X76895Y-34255D01*
X76929Y-34222D01*
X76962Y-34255D01*
X77054Y-34293D01*
X77153Y-34293D01*
X77403Y-34293D01*
X77454Y-34273D01*
X77521Y-34340D01*
X77613Y-34378D01*
X77712Y-34378D01*
X77877Y-34378D01*
X77877Y-34378D01*
X77968Y-34378D01*
X78125Y-34378D01*
X78133Y-34378D01*
X78133Y-34378D01*
X78153Y-34378D01*
X78168Y-34364D01*
X78225Y-34340D01*
X78257Y-34308D01*
X78289Y-34340D01*
X78347Y-34364D01*
X78361Y-34378D01*
X78389Y-34378D01*
X78389Y-34378D01*
X78480Y-34378D01*
X78645Y-34378D01*
X78645Y-34378D01*
X78736Y-34378D01*
X78893Y-34378D01*
X78901Y-34378D01*
X78901Y-34378D01*
X78921Y-34378D01*
X78936Y-34364D01*
X78993Y-34340D01*
X79025Y-34308D01*
X79057Y-34340D01*
X79115Y-34364D01*
X79129Y-34378D01*
X79157Y-34378D01*
X79157Y-34378D01*
X79248Y-34378D01*
X79413Y-34378D01*
X79413Y-34378D01*
X79504Y-34378D01*
X79669Y-34378D01*
X79761Y-34340D01*
X79832Y-34270D01*
X79870Y-34178D01*
X79870Y-34078D01*
X79870Y-33499D01*
X79832Y-33408D01*
X79762Y-33337D01*
X79670Y-33299D01*
X79581Y-33299D01*
X79581Y-32850D01*
X79739Y-32692D01*
X79739Y-32692D01*
X79804Y-32595D01*
X79827Y-32480D01*
X79827Y-32480D01*
X79827Y-32255D01*
X79850Y-32220D01*
X79877Y-32086D01*
X79877Y-27310D01*
X81456Y-25731D01*
X81456Y-25731D01*
X81456Y-25731D01*
X81532Y-25618D01*
X81545Y-25550D01*
X81558Y-25550D01*
X81650Y-25512D01*
X81720Y-25441D01*
X81758Y-25349D01*
X81758Y-25250D01*
X81758Y-24650D01*
X81720Y-24558D01*
X81650Y-24488D01*
X81558Y-24450D01*
X81459Y-24449D01*
X80859Y-24449D01*
X80767Y-24487D01*
X80696Y-24558D01*
X80658Y-24650D01*
X80658Y-24672D01*
X80520Y-24534D01*
X80318Y-24450D01*
X80099Y-24449D01*
X79897Y-24533D01*
X79742Y-24688D01*
X79658Y-24890D01*
X79658Y-25108D01*
X79742Y-25311D01*
X79822Y-25391D01*
X78689Y-26524D01*
X78613Y-26637D01*
X78587Y-26771D01*
X78587Y-29076D01*
X76621Y-27110D01*
X76621Y-25427D01*
X76721Y-25327D01*
X76721Y-25349D01*
X76759Y-25441D01*
X76829Y-25511D01*
X76921Y-25549D01*
X77021Y-25550D01*
X77621Y-25550D01*
X77713Y-25512D01*
X77783Y-25441D01*
X77821Y-25349D01*
X77821Y-25250D01*
X77821Y-24650D01*
X77783Y-24558D01*
X77713Y-24488D01*
X77621Y-24450D01*
X77608Y-24450D01*
X77595Y-24381D01*
X77519Y-24268D01*
X77215Y-23965D01*
X77106Y-23891D01*
X90281Y-23891D01*
X90281Y-63116D01*
X90281Y-63116D01*
G37*
G54D28*
X90281Y-63116D02*
X90113Y-63116D01*
X90113Y-61732D01*
X90113Y-59842D01*
X90087Y-59708D01*
X90011Y-59595D01*
X89617Y-59201D01*
X89504Y-59125D01*
X89428Y-59110D01*
X89416Y-59082D01*
X89346Y-59012D01*
X89254Y-58973D01*
X89155Y-58973D01*
X88905Y-58973D01*
X88813Y-59011D01*
X88779Y-59045D01*
X88746Y-59012D01*
X88654Y-58973D01*
X88555Y-58973D01*
X88305Y-58973D01*
X88213Y-59011D01*
X88142Y-59082D01*
X88135Y-59098D01*
X83661Y-59098D01*
X82677Y-59098D01*
X82583Y-59098D01*
X82086Y-59098D01*
X81692Y-59098D01*
X81692Y-59098D01*
X81558Y-59125D01*
X81445Y-59201D01*
X81445Y-59201D01*
X81248Y-59398D01*
X81172Y-59511D01*
X81146Y-59645D01*
X81146Y-60091D01*
X80823Y-60414D01*
X80793Y-60401D01*
X80624Y-60401D01*
X80468Y-60466D01*
X80348Y-60585D01*
X80283Y-60741D01*
X80283Y-60756D01*
X80067Y-60972D01*
X79991Y-61086D01*
X79976Y-61162D01*
X79948Y-61173D01*
X79878Y-61244D01*
X79840Y-61336D01*
X79839Y-61435D01*
X79839Y-61685D01*
X79877Y-61777D01*
X79911Y-61811D01*
X79878Y-61844D01*
X79840Y-61936D01*
X79839Y-62012D01*
X79541Y-62012D01*
X79541Y-61525D01*
X79541Y-60993D01*
X79503Y-60901D01*
X79433Y-60831D01*
X79341Y-60793D01*
X79241Y-60793D01*
X79206Y-60793D01*
X79144Y-60855D01*
X79144Y-61209D01*
X79478Y-61209D01*
X79541Y-61147D01*
X79541Y-60993D01*
X79541Y-61525D01*
X79541Y-61372D01*
X79478Y-61309D01*
X79144Y-61309D01*
X79144Y-61663D01*
X79206Y-61726D01*
X79241Y-61726D01*
X79341Y-61726D01*
X79433Y-61688D01*
X79503Y-61617D01*
X79541Y-61525D01*
X79541Y-62012D01*
X79506Y-62012D01*
X79503Y-62004D01*
X79433Y-61933D01*
X79341Y-61895D01*
X79241Y-61895D01*
X78848Y-61895D01*
X78756Y-61933D01*
X78740Y-61949D01*
X78724Y-61933D01*
X78632Y-61895D01*
X78533Y-61895D01*
X78498Y-61895D01*
X78435Y-61958D01*
X78435Y-62312D01*
X78443Y-62312D01*
X78443Y-62412D01*
X78435Y-62412D01*
X78435Y-62766D01*
X78498Y-62828D01*
X78533Y-62828D01*
X78632Y-62828D01*
X78724Y-62790D01*
X78740Y-62774D01*
X78755Y-62790D01*
X78847Y-62828D01*
X78947Y-62828D01*
X79340Y-62828D01*
X79432Y-62790D01*
X79503Y-62720D01*
X79506Y-62712D01*
X80063Y-62712D01*
X80197Y-62685D01*
X80197Y-62685D01*
X80311Y-62609D01*
X80434Y-62486D01*
X80589Y-62486D01*
X80681Y-62448D01*
X80751Y-62377D01*
X80789Y-62285D01*
X80790Y-62186D01*
X80790Y-61936D01*
X80752Y-61844D01*
X80718Y-61811D01*
X80751Y-61777D01*
X80784Y-61700D01*
X80861Y-61777D01*
X81017Y-61842D01*
X81186Y-61842D01*
X81342Y-61777D01*
X81462Y-61658D01*
X81499Y-61568D01*
X81520Y-61617D01*
X81590Y-61688D01*
X81682Y-61726D01*
X81781Y-61726D01*
X82175Y-61726D01*
X82267Y-61688D01*
X82283Y-61672D01*
X82299Y-61688D01*
X82390Y-61726D01*
X82490Y-61726D01*
X82525Y-61726D01*
X82587Y-61663D01*
X82587Y-61309D01*
X82579Y-61309D01*
X82579Y-61209D01*
X82587Y-61209D01*
X82587Y-60855D01*
X82525Y-60793D01*
X82490Y-60793D01*
X82390Y-60793D01*
X82299Y-60831D01*
X82283Y-60847D01*
X82283Y-60639D01*
X82316Y-60673D01*
X82408Y-60711D01*
X82507Y-60711D01*
X82563Y-60711D01*
X82697Y-60845D01*
X82687Y-60855D01*
X82687Y-61209D01*
X83022Y-61209D01*
X83042Y-61189D01*
X83187Y-61334D01*
X83186Y-61336D01*
X83186Y-61435D01*
X83186Y-61685D01*
X83224Y-61777D01*
X83257Y-61811D01*
X83224Y-61844D01*
X83186Y-61936D01*
X83186Y-62012D01*
X83084Y-62012D01*
X83084Y-61525D01*
X83084Y-61372D01*
X83022Y-61309D01*
X82687Y-61309D01*
X82687Y-61663D01*
X82750Y-61726D01*
X82785Y-61726D01*
X82884Y-61726D01*
X82976Y-61688D01*
X83046Y-61617D01*
X83084Y-61525D01*
X83084Y-62012D01*
X83049Y-62012D01*
X83046Y-62004D01*
X82976Y-61933D01*
X82884Y-61895D01*
X82785Y-61895D01*
X82391Y-61895D01*
X82299Y-61933D01*
X82283Y-61949D01*
X82267Y-61933D01*
X82175Y-61895D01*
X82076Y-61895D01*
X82041Y-61895D01*
X81979Y-61958D01*
X81979Y-62312D01*
X81987Y-62312D01*
X81987Y-62412D01*
X81979Y-62412D01*
X81979Y-62766D01*
X82041Y-62828D01*
X82076Y-62828D01*
X82175Y-62828D01*
X82267Y-62790D01*
X82283Y-62774D01*
X82299Y-62790D01*
X82390Y-62828D01*
X82490Y-62828D01*
X82884Y-62828D01*
X82976Y-62790D01*
X83046Y-62720D01*
X83049Y-62712D01*
X83410Y-62712D01*
X83544Y-62685D01*
X83544Y-62685D01*
X83657Y-62609D01*
X83781Y-62486D01*
X83935Y-62486D01*
X84027Y-62448D01*
X84098Y-62377D01*
X84136Y-62285D01*
X84136Y-62186D01*
X84136Y-61936D01*
X84098Y-61844D01*
X84064Y-61811D01*
X84098Y-61777D01*
X84136Y-61685D01*
X84136Y-61586D01*
X84136Y-61336D01*
X84098Y-61244D01*
X84028Y-61174D01*
X83962Y-61146D01*
X83908Y-61066D01*
X83908Y-61066D01*
X82958Y-60116D01*
X82958Y-59961D01*
X82933Y-59901D01*
X82933Y-59798D01*
X83661Y-59798D01*
X85072Y-59798D01*
X85008Y-59954D01*
X85007Y-60123D01*
X85072Y-60279D01*
X85192Y-60399D01*
X85348Y-60464D01*
X85441Y-60464D01*
X85441Y-60464D01*
X85515Y-60513D01*
X85629Y-60536D01*
X85629Y-60536D01*
X88115Y-60536D01*
X88125Y-60560D01*
X88125Y-60815D01*
X88086Y-60831D01*
X88016Y-60901D01*
X87978Y-60993D01*
X87978Y-61092D01*
X87978Y-61525D01*
X88016Y-61617D01*
X88086Y-61688D01*
X88178Y-61726D01*
X88277Y-61726D01*
X88671Y-61726D01*
X88763Y-61688D01*
X88779Y-61672D01*
X88795Y-61688D01*
X88887Y-61726D01*
X88986Y-61726D01*
X89021Y-61726D01*
X89083Y-61663D01*
X89083Y-61309D01*
X89075Y-61309D01*
X89075Y-61209D01*
X89083Y-61209D01*
X89083Y-60855D01*
X89021Y-60793D01*
X88986Y-60793D01*
X88887Y-60793D01*
X88795Y-60831D01*
X88779Y-60847D01*
X88763Y-60831D01*
X88725Y-60815D01*
X88725Y-60681D01*
X88745Y-60673D01*
X88779Y-60639D01*
X88812Y-60673D01*
X88904Y-60711D01*
X89004Y-60711D01*
X89254Y-60711D01*
X89345Y-60673D01*
X89413Y-60605D01*
X89413Y-60807D01*
X89380Y-60793D01*
X89281Y-60793D01*
X89246Y-60793D01*
X89183Y-60855D01*
X89183Y-61209D01*
X89191Y-61209D01*
X89191Y-61309D01*
X89183Y-61309D01*
X89183Y-61663D01*
X89246Y-61726D01*
X89274Y-61726D01*
X89105Y-61895D01*
X88887Y-61895D01*
X88795Y-61933D01*
X88779Y-61949D01*
X88763Y-61933D01*
X88671Y-61895D01*
X88572Y-61895D01*
X88537Y-61895D01*
X88475Y-61958D01*
X88475Y-62312D01*
X88483Y-62312D01*
X88483Y-62412D01*
X88475Y-62412D01*
X88475Y-62766D01*
X88537Y-62828D01*
X88572Y-62828D01*
X88671Y-62828D01*
X88763Y-62790D01*
X88779Y-62774D01*
X88795Y-62790D01*
X88887Y-62828D01*
X88986Y-62828D01*
X89380Y-62828D01*
X89472Y-62790D01*
X89542Y-62720D01*
X89580Y-62628D01*
X89580Y-62529D01*
X89580Y-62410D01*
X90011Y-61979D01*
X90011Y-61979D01*
X90011Y-61979D01*
X90087Y-61866D01*
X90113Y-61732D01*
X90113Y-63116D01*
X88375Y-63116D01*
X88375Y-62766D01*
X88375Y-62412D01*
X88375Y-62312D01*
X88375Y-61958D01*
X88312Y-61895D01*
X88277Y-61895D01*
X88178Y-61895D01*
X88086Y-61933D01*
X88016Y-62004D01*
X87978Y-62096D01*
X87978Y-62249D01*
X88040Y-62312D01*
X88375Y-62312D01*
X88375Y-62412D01*
X88040Y-62412D01*
X87978Y-62474D01*
X87978Y-62628D01*
X88016Y-62720D01*
X88086Y-62790D01*
X88178Y-62828D01*
X88277Y-62828D01*
X88312Y-62828D01*
X88375Y-62766D01*
X88375Y-63116D01*
X81879Y-63116D01*
X81879Y-62766D01*
X81879Y-62412D01*
X81879Y-62312D01*
X81879Y-61958D01*
X81816Y-61895D01*
X81781Y-61895D01*
X81682Y-61895D01*
X81590Y-61933D01*
X81520Y-62004D01*
X81482Y-62096D01*
X81482Y-62249D01*
X81544Y-62312D01*
X81879Y-62312D01*
X81879Y-62412D01*
X81544Y-62412D01*
X81482Y-62474D01*
X81482Y-62628D01*
X81520Y-62720D01*
X81590Y-62790D01*
X81682Y-62828D01*
X81781Y-62828D01*
X81816Y-62828D01*
X81879Y-62766D01*
X81879Y-63116D01*
X78335Y-63116D01*
X78335Y-62766D01*
X78335Y-62412D01*
X78335Y-62312D01*
X78335Y-61958D01*
X78273Y-61895D01*
X78238Y-61895D01*
X78139Y-61895D01*
X78047Y-61933D01*
X77976Y-62004D01*
X77938Y-62096D01*
X77938Y-62249D01*
X78001Y-62312D01*
X78335Y-62312D01*
X78335Y-62412D01*
X78001Y-62412D01*
X77938Y-62474D01*
X77938Y-62628D01*
X77976Y-62720D01*
X78047Y-62790D01*
X78139Y-62828D01*
X78238Y-62828D01*
X78273Y-62828D01*
X78335Y-62766D01*
X78335Y-63116D01*
X74792Y-63116D01*
X74792Y-62766D01*
X74792Y-62412D01*
X74792Y-62312D01*
X74792Y-61958D01*
X74730Y-61895D01*
X74695Y-61895D01*
X74595Y-61895D01*
X74503Y-61933D01*
X74433Y-62004D01*
X74395Y-62096D01*
X74395Y-62249D01*
X74458Y-62312D01*
X74792Y-62312D01*
X74792Y-62412D01*
X74458Y-62412D01*
X74395Y-62474D01*
X74395Y-62628D01*
X74433Y-62720D01*
X74503Y-62790D01*
X74595Y-62828D01*
X74695Y-62828D01*
X74730Y-62828D01*
X74792Y-62766D01*
X74792Y-63116D01*
X68296Y-63116D01*
X68296Y-62766D01*
X68296Y-62412D01*
X68296Y-62312D01*
X68296Y-61958D01*
X68233Y-61895D01*
X68199Y-61895D01*
X68099Y-61895D01*
X68007Y-61933D01*
X67937Y-62004D01*
X67899Y-62096D01*
X67899Y-62249D01*
X67962Y-62312D01*
X68296Y-62312D01*
X68296Y-62412D01*
X67962Y-62412D01*
X67899Y-62474D01*
X67899Y-62628D01*
X67937Y-62720D01*
X68007Y-62790D01*
X68099Y-62828D01*
X68199Y-62828D01*
X68233Y-62828D01*
X68296Y-62766D01*
X68296Y-63116D01*
X67198Y-63116D01*
X67198Y-23891D01*
X75649Y-23891D01*
X75539Y-23965D01*
X74752Y-24752D01*
X74676Y-24866D01*
X74650Y-25000D01*
X74650Y-27755D01*
X74676Y-27889D01*
X74752Y-28003D01*
X77405Y-30656D01*
X77405Y-32480D01*
X77432Y-32614D01*
X77455Y-32649D01*
X77455Y-32677D01*
X77478Y-32791D01*
X77543Y-32889D01*
X77701Y-33047D01*
X77701Y-33299D01*
X77613Y-33299D01*
X77521Y-33337D01*
X77482Y-33376D01*
X77404Y-33343D01*
X77304Y-33343D01*
X77054Y-33343D01*
X76962Y-33381D01*
X76929Y-33415D01*
X76895Y-33382D01*
X76804Y-33343D01*
X76704Y-33343D01*
X76454Y-33343D01*
X76362Y-33381D01*
X76292Y-33452D01*
X76285Y-33468D01*
X75629Y-33468D01*
X75495Y-33495D01*
X75382Y-33571D01*
X71705Y-37248D01*
X70763Y-37248D01*
X70629Y-37275D01*
X70516Y-37350D01*
X69795Y-38072D01*
X69738Y-38072D01*
X69738Y-32510D01*
X69738Y-25424D01*
X69610Y-25115D01*
X69374Y-24878D01*
X69065Y-24750D01*
X68731Y-24749D01*
X68422Y-24877D01*
X68185Y-25113D01*
X68057Y-25422D01*
X68056Y-25757D01*
X68184Y-26066D01*
X68420Y-26302D01*
X68729Y-26430D01*
X69064Y-26431D01*
X69373Y-26303D01*
X69609Y-26067D01*
X69738Y-25758D01*
X69738Y-25424D01*
X69738Y-32510D01*
X69610Y-32201D01*
X69374Y-31964D01*
X69065Y-31836D01*
X68731Y-31836D01*
X68422Y-31964D01*
X68185Y-32200D01*
X68057Y-32509D01*
X68056Y-32843D01*
X68184Y-33152D01*
X68420Y-33389D01*
X68729Y-33517D01*
X69064Y-33517D01*
X69373Y-33390D01*
X69609Y-33153D01*
X69738Y-32845D01*
X69738Y-32510D01*
X69738Y-38072D01*
X69390Y-38072D01*
X69298Y-38109D01*
X69228Y-38180D01*
X69190Y-38272D01*
X69190Y-38371D01*
X69190Y-38971D01*
X69228Y-39063D01*
X69298Y-39133D01*
X69390Y-39172D01*
X69412Y-39172D01*
X69274Y-39310D01*
X69190Y-39512D01*
X69190Y-39730D01*
X69273Y-39933D01*
X69428Y-40088D01*
X69510Y-40122D01*
X69429Y-40155D01*
X69274Y-40310D01*
X69190Y-40512D01*
X69190Y-40730D01*
X69235Y-40841D01*
X69094Y-40841D01*
X68979Y-40864D01*
X68882Y-40929D01*
X67307Y-42504D01*
X67242Y-42601D01*
X67219Y-42716D01*
X67219Y-58070D01*
X67242Y-58185D01*
X67307Y-58282D01*
X68100Y-59076D01*
X68100Y-59832D01*
X68063Y-59869D01*
X68025Y-59961D01*
X68025Y-60060D01*
X68025Y-60510D01*
X68046Y-60560D01*
X68046Y-60815D01*
X68008Y-60831D01*
X67937Y-60901D01*
X67899Y-60993D01*
X67899Y-61092D01*
X67899Y-61525D01*
X67937Y-61617D01*
X68007Y-61688D01*
X68099Y-61726D01*
X68199Y-61726D01*
X68592Y-61726D01*
X68684Y-61688D01*
X68700Y-61672D01*
X68716Y-61688D01*
X68808Y-61726D01*
X68907Y-61726D01*
X68942Y-61726D01*
X69005Y-61663D01*
X69005Y-61309D01*
X68997Y-61309D01*
X68997Y-61209D01*
X69005Y-61209D01*
X69005Y-60855D01*
X68942Y-60793D01*
X68907Y-60793D01*
X68808Y-60793D01*
X68716Y-60831D01*
X68700Y-60847D01*
X68685Y-60831D01*
X68646Y-60815D01*
X68646Y-60681D01*
X68667Y-60673D01*
X68700Y-60639D01*
X68733Y-60673D01*
X68825Y-60711D01*
X68925Y-60711D01*
X68980Y-60711D01*
X69115Y-60845D01*
X69105Y-60855D01*
X69105Y-61209D01*
X69439Y-61209D01*
X69459Y-61189D01*
X69676Y-61406D01*
X69641Y-61441D01*
X69603Y-61532D01*
X69603Y-61632D01*
X69603Y-61882D01*
X69641Y-61974D01*
X69675Y-62007D01*
X69670Y-62012D01*
X69502Y-62012D01*
X69502Y-61525D01*
X69501Y-61372D01*
X69439Y-61309D01*
X69105Y-61309D01*
X69105Y-61663D01*
X69167Y-61726D01*
X69202Y-61726D01*
X69301Y-61726D01*
X69393Y-61688D01*
X69464Y-61617D01*
X69502Y-61525D01*
X69502Y-62012D01*
X69467Y-62012D01*
X69464Y-62004D01*
X69393Y-61933D01*
X69301Y-61895D01*
X69202Y-61895D01*
X68808Y-61895D01*
X68716Y-61933D01*
X68700Y-61949D01*
X68685Y-61933D01*
X68593Y-61895D01*
X68493Y-61895D01*
X68458Y-61895D01*
X68396Y-61958D01*
X68396Y-62312D01*
X68404Y-62312D01*
X68404Y-62412D01*
X68396Y-62412D01*
X68396Y-62766D01*
X68458Y-62828D01*
X68493Y-62828D01*
X68593Y-62828D01*
X68685Y-62790D01*
X68700Y-62774D01*
X68716Y-62790D01*
X68808Y-62828D01*
X68907Y-62828D01*
X69301Y-62828D01*
X69393Y-62790D01*
X69463Y-62720D01*
X69467Y-62712D01*
X70024Y-62712D01*
X70158Y-62685D01*
X70162Y-62682D01*
X70353Y-62682D01*
X70445Y-62644D01*
X70515Y-62574D01*
X70553Y-62482D01*
X70553Y-62383D01*
X70553Y-62133D01*
X70515Y-62041D01*
X70482Y-62007D01*
X70515Y-61974D01*
X70553Y-61882D01*
X70553Y-61783D01*
X70553Y-61533D01*
X70515Y-61441D01*
X70445Y-61371D01*
X70428Y-61364D01*
X70428Y-61314D01*
X70428Y-61314D01*
X70428Y-61314D01*
X70402Y-61180D01*
X70326Y-61066D01*
X70326Y-61066D01*
X69495Y-60236D01*
X69933Y-59798D01*
X72878Y-59798D01*
X72878Y-60826D01*
X72904Y-60960D01*
X72980Y-61074D01*
X73393Y-61487D01*
X73393Y-61501D01*
X73458Y-61657D01*
X73577Y-61777D01*
X73733Y-61842D01*
X73903Y-61842D01*
X74059Y-61777D01*
X74178Y-61658D01*
X74243Y-61502D01*
X74243Y-61333D01*
X74179Y-61176D01*
X74059Y-61057D01*
X73903Y-60992D01*
X73888Y-60992D01*
X73578Y-60681D01*
X73578Y-59809D01*
X73733Y-59873D01*
X73819Y-59873D01*
X74394Y-60448D01*
X74491Y-60513D01*
X74525Y-60520D01*
X74542Y-60560D01*
X74542Y-60815D01*
X74504Y-60831D01*
X74433Y-60901D01*
X74395Y-60993D01*
X74395Y-61092D01*
X74395Y-61525D01*
X74433Y-61617D01*
X74503Y-61688D01*
X74595Y-61726D01*
X74695Y-61726D01*
X75088Y-61726D01*
X75180Y-61688D01*
X75196Y-61672D01*
X75212Y-61688D01*
X75304Y-61726D01*
X75403Y-61726D01*
X75438Y-61726D01*
X75501Y-61663D01*
X75501Y-61309D01*
X75493Y-61309D01*
X75493Y-61209D01*
X75501Y-61209D01*
X75501Y-60855D01*
X75438Y-60793D01*
X75403Y-60793D01*
X75304Y-60793D01*
X75212Y-60831D01*
X75196Y-60847D01*
X75181Y-60831D01*
X75142Y-60815D01*
X75142Y-60681D01*
X75163Y-60673D01*
X75196Y-60639D01*
X75230Y-60673D01*
X75321Y-60711D01*
X75421Y-60711D01*
X75476Y-60711D01*
X75611Y-60845D01*
X75601Y-60855D01*
X75601Y-61209D01*
X75935Y-61209D01*
X75955Y-61189D01*
X76100Y-61334D01*
X76099Y-61336D01*
X76099Y-61435D01*
X76099Y-61685D01*
X76137Y-61777D01*
X76171Y-61811D01*
X76137Y-61844D01*
X76099Y-61936D01*
X76099Y-62012D01*
X75998Y-62012D01*
X75998Y-61525D01*
X75998Y-61372D01*
X75935Y-61309D01*
X75601Y-61309D01*
X75601Y-61663D01*
X75663Y-61726D01*
X75698Y-61726D01*
X75797Y-61726D01*
X75889Y-61688D01*
X75960Y-61617D01*
X75998Y-61525D01*
X75998Y-62012D01*
X75963Y-62012D01*
X75960Y-62004D01*
X75889Y-61933D01*
X75797Y-61895D01*
X75698Y-61895D01*
X75304Y-61895D01*
X75212Y-61933D01*
X75196Y-61949D01*
X75181Y-61933D01*
X75089Y-61895D01*
X74989Y-61895D01*
X74955Y-61895D01*
X74892Y-61958D01*
X74892Y-62312D01*
X74900Y-62312D01*
X74900Y-62412D01*
X74892Y-62412D01*
X74892Y-62766D01*
X74955Y-62828D01*
X74989Y-62828D01*
X75089Y-62828D01*
X75181Y-62790D01*
X75196Y-62774D01*
X75212Y-62790D01*
X75304Y-62828D01*
X75403Y-62828D01*
X75797Y-62828D01*
X75889Y-62790D01*
X75959Y-62720D01*
X75963Y-62712D01*
X76323Y-62712D01*
X76457Y-62685D01*
X76457Y-62685D01*
X76571Y-62609D01*
X76694Y-62486D01*
X76849Y-62486D01*
X76941Y-62448D01*
X76968Y-62420D01*
X76995Y-62447D01*
X77087Y-62485D01*
X77186Y-62486D01*
X77636Y-62486D01*
X77728Y-62448D01*
X77799Y-62377D01*
X77837Y-62285D01*
X77837Y-62186D01*
X77837Y-61936D01*
X77799Y-61844D01*
X77765Y-61811D01*
X77799Y-61777D01*
X77837Y-61685D01*
X77837Y-61586D01*
X77837Y-61336D01*
X77834Y-61329D01*
X77938Y-61434D01*
X77938Y-61525D01*
X77976Y-61617D01*
X78047Y-61688D01*
X78139Y-61726D01*
X78238Y-61726D01*
X78632Y-61726D01*
X78724Y-61688D01*
X78740Y-61672D01*
X78755Y-61688D01*
X78847Y-61726D01*
X78947Y-61726D01*
X78981Y-61726D01*
X79044Y-61663D01*
X79044Y-61309D01*
X79036Y-61309D01*
X79036Y-61209D01*
X79044Y-61209D01*
X79044Y-60855D01*
X78981Y-60793D01*
X78980Y-60793D01*
X78980Y-60547D01*
X78740Y-60306D01*
X78499Y-60547D01*
X78514Y-60631D01*
X78683Y-60688D01*
X78860Y-60675D01*
X78965Y-60631D01*
X78980Y-60547D01*
X78980Y-60793D01*
X78947Y-60793D01*
X78847Y-60793D01*
X78755Y-60831D01*
X78740Y-60847D01*
X78724Y-60831D01*
X78632Y-60793D01*
X78533Y-60793D01*
X78146Y-60793D01*
X78036Y-60683D01*
X78041Y-60683D01*
X78205Y-60615D01*
X78331Y-60489D01*
X78343Y-60460D01*
X78344Y-60461D01*
X78429Y-60476D01*
X78669Y-60236D01*
X78429Y-59995D01*
X78344Y-60010D01*
X78343Y-60012D01*
X78331Y-59983D01*
X78206Y-59857D01*
X78064Y-59798D01*
X78614Y-59798D01*
X78514Y-59840D01*
X78499Y-59925D01*
X78740Y-60165D01*
X78980Y-59925D01*
X78965Y-59840D01*
X78841Y-59798D01*
X79416Y-59798D01*
X79274Y-59857D01*
X79148Y-59982D01*
X79136Y-60012D01*
X79135Y-60010D01*
X79051Y-59995D01*
X78810Y-60236D01*
X79051Y-60476D01*
X79135Y-60461D01*
X79136Y-60460D01*
X79148Y-60489D01*
X79274Y-60614D01*
X79438Y-60682D01*
X79616Y-60683D01*
X79780Y-60615D01*
X79906Y-60489D01*
X79974Y-60325D01*
X79974Y-60284D01*
X80562Y-59696D01*
X84790Y-55468D01*
X88548Y-55468D01*
X88664Y-55584D01*
X88746Y-55618D01*
X88665Y-55651D01*
X88510Y-55806D01*
X88426Y-56008D01*
X88426Y-56227D01*
X88509Y-56429D01*
X88664Y-56584D01*
X88866Y-56668D01*
X89085Y-56668D01*
X89287Y-56584D01*
X89416Y-56455D01*
X89488Y-56441D01*
X89488Y-56441D01*
X89601Y-56365D01*
X90011Y-55956D01*
X90087Y-55842D01*
X90087Y-55842D01*
X90113Y-55708D01*
X90113Y-50000D01*
X90113Y-49999D01*
X90087Y-49866D01*
X90011Y-49752D01*
X90011Y-49752D01*
X89423Y-49164D01*
X89423Y-32510D01*
X89423Y-25424D01*
X89295Y-25115D01*
X89059Y-24878D01*
X88750Y-24750D01*
X88416Y-24749D01*
X88107Y-24877D01*
X87870Y-25113D01*
X87742Y-25422D01*
X87741Y-25757D01*
X87869Y-26066D01*
X88105Y-26302D01*
X88414Y-26430D01*
X88749Y-26431D01*
X89058Y-26303D01*
X89294Y-26067D01*
X89423Y-25758D01*
X89423Y-25424D01*
X89423Y-32510D01*
X89295Y-32201D01*
X89059Y-31964D01*
X88750Y-31836D01*
X88416Y-31836D01*
X88107Y-31964D01*
X87870Y-32200D01*
X87742Y-32509D01*
X87741Y-32843D01*
X87869Y-33152D01*
X88105Y-33389D01*
X88414Y-33517D01*
X88749Y-33517D01*
X89058Y-33390D01*
X89294Y-33153D01*
X89423Y-32845D01*
X89423Y-32510D01*
X89423Y-49164D01*
X89129Y-48870D01*
X89129Y-40157D01*
X89102Y-40023D01*
X89027Y-39909D01*
X88491Y-39374D01*
X88378Y-39298D01*
X88294Y-39282D01*
X88294Y-38703D01*
X88284Y-38485D01*
X88221Y-38334D01*
X88126Y-38306D01*
X88055Y-38377D01*
X88055Y-38236D01*
X88028Y-38140D01*
X87821Y-38067D01*
X87603Y-38078D01*
X87452Y-38140D01*
X87424Y-38236D01*
X87740Y-38551D01*
X88055Y-38236D01*
X88055Y-38377D01*
X87810Y-38622D01*
X88126Y-38937D01*
X88221Y-38909D01*
X88294Y-38703D01*
X88294Y-39282D01*
X88244Y-39272D01*
X88167Y-39272D01*
X88052Y-39156D01*
X87976Y-39124D01*
X88028Y-39103D01*
X88055Y-39007D01*
X87740Y-38692D01*
X87424Y-39007D01*
X87452Y-39103D01*
X87507Y-39123D01*
X87429Y-39155D01*
X87274Y-39310D01*
X87240Y-39391D01*
X87206Y-39310D01*
X87068Y-39172D01*
X87089Y-39172D01*
X87181Y-39134D01*
X87251Y-39063D01*
X87290Y-38971D01*
X87290Y-38918D01*
X87354Y-38937D01*
X87669Y-38622D01*
X87354Y-38306D01*
X87290Y-38325D01*
X87290Y-38272D01*
X87252Y-38180D01*
X87181Y-38110D01*
X87090Y-38072D01*
X86990Y-38072D01*
X86390Y-38072D01*
X86298Y-38109D01*
X86228Y-38180D01*
X86190Y-38272D01*
X86190Y-38371D01*
X86190Y-38971D01*
X86228Y-39063D01*
X86298Y-39133D01*
X86390Y-39172D01*
X86412Y-39172D01*
X86274Y-39310D01*
X86190Y-39512D01*
X86190Y-39730D01*
X86273Y-39933D01*
X86428Y-40088D01*
X86510Y-40122D01*
X86429Y-40155D01*
X86274Y-40310D01*
X86190Y-40512D01*
X86190Y-40730D01*
X86273Y-40933D01*
X86428Y-41088D01*
X86510Y-41122D01*
X86429Y-41155D01*
X86274Y-41310D01*
X86190Y-41512D01*
X86190Y-41730D01*
X86273Y-41933D01*
X86428Y-42088D01*
X86510Y-42122D01*
X86429Y-42155D01*
X86274Y-42310D01*
X86190Y-42512D01*
X86190Y-42730D01*
X86273Y-42933D01*
X86428Y-43088D01*
X86510Y-43122D01*
X86429Y-43155D01*
X86274Y-43310D01*
X86190Y-43512D01*
X86190Y-43730D01*
X86273Y-43933D01*
X86428Y-44088D01*
X86510Y-44122D01*
X86429Y-44155D01*
X86274Y-44310D01*
X86190Y-44512D01*
X86190Y-44730D01*
X86273Y-44933D01*
X86428Y-45088D01*
X86510Y-45122D01*
X86429Y-45155D01*
X86274Y-45310D01*
X86190Y-45512D01*
X86190Y-45730D01*
X86273Y-45933D01*
X86428Y-46088D01*
X86510Y-46122D01*
X86429Y-46155D01*
X86274Y-46310D01*
X86190Y-46512D01*
X86190Y-46730D01*
X86273Y-46933D01*
X86428Y-47088D01*
X86510Y-47122D01*
X86429Y-47155D01*
X86274Y-47310D01*
X86190Y-47512D01*
X86190Y-47730D01*
X86273Y-47933D01*
X86428Y-48088D01*
X86630Y-48171D01*
X86849Y-48172D01*
X87051Y-48088D01*
X87206Y-47934D01*
X87240Y-47852D01*
X87273Y-47933D01*
X87428Y-48088D01*
X87630Y-48171D01*
X87849Y-48172D01*
X88051Y-48088D01*
X88206Y-47934D01*
X88290Y-47731D01*
X88290Y-47513D01*
X88206Y-47310D01*
X88052Y-47156D01*
X87970Y-47122D01*
X88051Y-47088D01*
X88206Y-46934D01*
X88290Y-46731D01*
X88290Y-46513D01*
X88206Y-46310D01*
X88052Y-46156D01*
X87970Y-46122D01*
X88051Y-46088D01*
X88206Y-45934D01*
X88290Y-45731D01*
X88290Y-45513D01*
X88206Y-45310D01*
X88052Y-45156D01*
X87970Y-45122D01*
X88051Y-45088D01*
X88206Y-44934D01*
X88290Y-44731D01*
X88290Y-44513D01*
X88206Y-44310D01*
X88052Y-44156D01*
X87970Y-44122D01*
X88051Y-44088D01*
X88206Y-43934D01*
X88290Y-43731D01*
X88290Y-43513D01*
X88206Y-43310D01*
X88052Y-43156D01*
X87970Y-43122D01*
X88051Y-43088D01*
X88206Y-42934D01*
X88290Y-42731D01*
X88290Y-42513D01*
X88206Y-42310D01*
X88052Y-42156D01*
X87970Y-42122D01*
X88051Y-42088D01*
X88206Y-41934D01*
X88290Y-41731D01*
X88290Y-41513D01*
X88206Y-41310D01*
X88052Y-41156D01*
X87970Y-41122D01*
X88051Y-41088D01*
X88206Y-40934D01*
X88290Y-40731D01*
X88290Y-40513D01*
X88206Y-40310D01*
X88052Y-40156D01*
X87970Y-40122D01*
X88051Y-40088D01*
X88133Y-40006D01*
X88429Y-40302D01*
X88429Y-49015D01*
X88456Y-49149D01*
X88532Y-49263D01*
X89413Y-50144D01*
X89413Y-53604D01*
X89326Y-53568D01*
X89226Y-53568D01*
X89088Y-53568D01*
X89026Y-53630D01*
X89026Y-54068D01*
X89034Y-54068D01*
X89034Y-54168D01*
X89026Y-54168D01*
X89026Y-54175D01*
X88926Y-54175D01*
X88926Y-54168D01*
X88926Y-54068D01*
X88926Y-53630D01*
X88863Y-53568D01*
X88725Y-53568D01*
X88626Y-53568D01*
X88534Y-53606D01*
X88464Y-53676D01*
X88426Y-53768D01*
X88426Y-54005D01*
X88488Y-54068D01*
X88926Y-54068D01*
X88926Y-54168D01*
X88488Y-54168D01*
X88426Y-54230D01*
X88426Y-54467D01*
X88464Y-54559D01*
X88534Y-54629D01*
X88626Y-54668D01*
X88648Y-54668D01*
X88548Y-54768D01*
X85330Y-54768D01*
X85330Y-42746D01*
X85203Y-42437D01*
X84966Y-42201D01*
X84658Y-42072D01*
X84323Y-42072D01*
X84086Y-42170D01*
X84086Y-41648D01*
X84021Y-41491D01*
X84021Y-41491D01*
X84021Y-40509D01*
X84021Y-39427D01*
X84021Y-39328D01*
X83983Y-39236D01*
X83912Y-39165D01*
X83820Y-39127D01*
X83490Y-39128D01*
X83427Y-39190D01*
X83427Y-39918D01*
X83958Y-39918D01*
X84021Y-39856D01*
X84021Y-39427D01*
X84021Y-40509D01*
X84021Y-40081D01*
X83958Y-40018D01*
X83427Y-40018D01*
X83427Y-40746D01*
X83490Y-40809D01*
X83820Y-40809D01*
X83912Y-40771D01*
X83983Y-40700D01*
X84021Y-40608D01*
X84021Y-40509D01*
X84021Y-41491D01*
X83902Y-41372D01*
X83746Y-41307D01*
X83577Y-41307D01*
X83420Y-41371D01*
X83327Y-41464D01*
X83327Y-40746D01*
X83327Y-40018D01*
X83327Y-39918D01*
X83327Y-39190D01*
X83265Y-39128D01*
X82934Y-39127D01*
X82842Y-39165D01*
X82772Y-39236D01*
X82734Y-39328D01*
X82734Y-39427D01*
X82734Y-39856D01*
X82796Y-39918D01*
X83327Y-39918D01*
X83327Y-40018D01*
X82796Y-40018D01*
X82734Y-40081D01*
X82734Y-40509D01*
X82734Y-40608D01*
X82772Y-40700D01*
X82842Y-40771D01*
X82934Y-40809D01*
X83265Y-40809D01*
X83327Y-40746D01*
X83327Y-41464D01*
X83301Y-41491D01*
X83236Y-41647D01*
X83236Y-41662D01*
X83096Y-41801D01*
X83096Y-41643D01*
X83096Y-41443D01*
X83058Y-41352D01*
X82988Y-41281D01*
X82896Y-41243D01*
X82797Y-41243D01*
X82497Y-41243D01*
X82405Y-41281D01*
X82335Y-41351D01*
X82296Y-41443D01*
X82296Y-41543D01*
X82296Y-41743D01*
X82334Y-41834D01*
X82405Y-41905D01*
X82496Y-41943D01*
X82596Y-41943D01*
X82896Y-41943D01*
X82988Y-41905D01*
X83058Y-41835D01*
X83096Y-41743D01*
X83096Y-41643D01*
X83096Y-41801D01*
X82905Y-41993D01*
X82846Y-41993D01*
X82797Y-41993D01*
X82497Y-41993D01*
X82405Y-42031D01*
X82335Y-42101D01*
X82296Y-42193D01*
X82296Y-42293D01*
X82296Y-42493D01*
X82334Y-42584D01*
X82405Y-42655D01*
X82496Y-42693D01*
X82596Y-42693D01*
X82896Y-42693D01*
X82896Y-42693D01*
X83050Y-42693D01*
X83184Y-42666D01*
X83184Y-42666D01*
X83297Y-42590D01*
X83731Y-42157D01*
X83745Y-42157D01*
X83901Y-42092D01*
X84021Y-41973D01*
X84086Y-41817D01*
X84086Y-41648D01*
X84086Y-42170D01*
X84014Y-42200D01*
X83777Y-42436D01*
X83649Y-42745D01*
X83649Y-43079D01*
X83777Y-43388D01*
X84013Y-43625D01*
X84322Y-43753D01*
X84656Y-43754D01*
X84965Y-43626D01*
X85202Y-43390D01*
X85330Y-43081D01*
X85330Y-42746D01*
X85330Y-54768D01*
X84645Y-54768D01*
X84511Y-54794D01*
X84398Y-54870D01*
X82117Y-57151D01*
X82117Y-56061D01*
X82095Y-55922D01*
X82078Y-55875D01*
X82065Y-55834D01*
X81979Y-55677D01*
X81979Y-55676D01*
X81911Y-55595D01*
X81771Y-55483D01*
X81677Y-55435D01*
X81677Y-55435D01*
X81634Y-55422D01*
X81509Y-54988D01*
X81494Y-54960D01*
X81474Y-54912D01*
X80885Y-54031D01*
X80810Y-53957D01*
X80806Y-53955D01*
X79932Y-53370D01*
X79929Y-53367D01*
X79832Y-53327D01*
X78792Y-53121D01*
X78751Y-53121D01*
X78710Y-53117D01*
X78165Y-53178D01*
X78165Y-50731D01*
X78165Y-50181D01*
X78165Y-49030D01*
X78165Y-48381D01*
X78127Y-48289D01*
X78057Y-48219D01*
X77965Y-48181D01*
X77865Y-48181D01*
X77277Y-48181D01*
X77215Y-48243D01*
X77215Y-48656D01*
X78102Y-48656D01*
X78165Y-48593D01*
X78165Y-48381D01*
X78165Y-49030D01*
X78165Y-48818D01*
X78102Y-48756D01*
X77215Y-48756D01*
X77215Y-49168D01*
X77277Y-49231D01*
X77865Y-49231D01*
X77965Y-49231D01*
X78057Y-49193D01*
X78127Y-49122D01*
X78165Y-49030D01*
X78165Y-50181D01*
X78127Y-50089D01*
X78057Y-50019D01*
X77965Y-49981D01*
X77865Y-49981D01*
X77115Y-49981D01*
X77115Y-49168D01*
X77115Y-48756D01*
X77115Y-48656D01*
X77115Y-48243D01*
X77115Y-48053D01*
X77115Y-47790D01*
X76752Y-47790D01*
X76690Y-47853D01*
X76690Y-47915D01*
X76728Y-48007D01*
X76798Y-48077D01*
X76890Y-48115D01*
X76989Y-48115D01*
X77052Y-48115D01*
X77115Y-48053D01*
X77115Y-48243D01*
X77052Y-48181D01*
X76464Y-48181D01*
X76365Y-48181D01*
X76273Y-48219D01*
X76203Y-48289D01*
X76165Y-48381D01*
X76165Y-48593D01*
X76227Y-48656D01*
X77115Y-48656D01*
X77115Y-48756D01*
X76227Y-48756D01*
X76165Y-48818D01*
X76165Y-49030D01*
X76203Y-49122D01*
X76273Y-49193D01*
X76365Y-49231D01*
X76464Y-49231D01*
X77052Y-49231D01*
X77115Y-49168D01*
X77115Y-49981D01*
X76365Y-49981D01*
X76273Y-50019D01*
X76203Y-50089D01*
X76165Y-50181D01*
X76165Y-50280D01*
X76165Y-50830D01*
X76203Y-50922D01*
X76273Y-50993D01*
X76365Y-51031D01*
X76464Y-51031D01*
X76815Y-51031D01*
X76815Y-51126D01*
X76805Y-51136D01*
X76740Y-51293D01*
X76740Y-51462D01*
X76804Y-51618D01*
X76924Y-51738D01*
X77080Y-51802D01*
X77249Y-51803D01*
X77405Y-51738D01*
X77525Y-51619D01*
X77590Y-51462D01*
X77590Y-51293D01*
X77525Y-51137D01*
X77515Y-51126D01*
X77515Y-51031D01*
X77964Y-51031D01*
X78056Y-50993D01*
X78127Y-50923D01*
X78165Y-50831D01*
X78165Y-50731D01*
X78165Y-53178D01*
X78108Y-53185D01*
X78058Y-53201D01*
X78028Y-53207D01*
X77060Y-53638D01*
X76974Y-53699D01*
X76972Y-53703D01*
X76248Y-54466D01*
X76244Y-54469D01*
X76188Y-54558D01*
X75861Y-55415D01*
X75816Y-55436D01*
X75776Y-55452D01*
X75627Y-55552D01*
X75626Y-55552D01*
X75552Y-55627D01*
X75452Y-55776D01*
X75412Y-55873D01*
X75412Y-55874D01*
X75377Y-56049D01*
X75377Y-56096D01*
X75375Y-56143D01*
X75397Y-56281D01*
X75412Y-56323D01*
X75426Y-56370D01*
X75513Y-56527D01*
X75580Y-56608D01*
X75581Y-56608D01*
X75720Y-56720D01*
X75720Y-56720D01*
X75814Y-56769D01*
X75844Y-56778D01*
X75971Y-57216D01*
X75990Y-57253D01*
X76006Y-57291D01*
X76593Y-58168D01*
X76594Y-58172D01*
X76669Y-58247D01*
X77550Y-58836D01*
X77647Y-58877D01*
X77651Y-58877D01*
X78687Y-59082D01*
X78718Y-59082D01*
X78770Y-59086D01*
X79372Y-59019D01*
X79411Y-59006D01*
X79451Y-58997D01*
X80419Y-58566D01*
X80505Y-58505D01*
X80508Y-58502D01*
X81235Y-57736D01*
X81291Y-57647D01*
X81292Y-57642D01*
X81616Y-56792D01*
X81630Y-56789D01*
X81670Y-56770D01*
X81715Y-56751D01*
X81865Y-56652D01*
X81939Y-56577D01*
X81940Y-56577D01*
X82038Y-56429D01*
X82039Y-56428D01*
X82079Y-56331D01*
X82115Y-56155D01*
X82115Y-56107D01*
X82117Y-56061D01*
X82117Y-57151D01*
X80169Y-59098D01*
X80118Y-59098D01*
X77952Y-59098D01*
X77507Y-59098D01*
X76428Y-58020D01*
X76034Y-57626D01*
X75921Y-57550D01*
X75787Y-57524D01*
X73031Y-57524D01*
X72897Y-57550D01*
X72784Y-57626D01*
X72754Y-57655D01*
X72754Y-57462D01*
X72692Y-57400D01*
X72254Y-57400D01*
X72254Y-57837D01*
X72317Y-57900D01*
X72455Y-57900D01*
X72510Y-57900D01*
X72492Y-57917D01*
X72154Y-57917D01*
X72154Y-57837D01*
X72154Y-57400D01*
X71717Y-57400D01*
X71654Y-57462D01*
X71654Y-57699D01*
X71692Y-57791D01*
X71762Y-57862D01*
X71854Y-57900D01*
X71954Y-57900D01*
X72092Y-57900D01*
X72154Y-57837D01*
X72154Y-57917D01*
X70825Y-57917D01*
X70825Y-57699D01*
X70825Y-57462D01*
X70763Y-57400D01*
X70325Y-57400D01*
X70325Y-57837D01*
X70388Y-57900D01*
X70526Y-57900D01*
X70625Y-57900D01*
X70717Y-57862D01*
X70787Y-57791D01*
X70825Y-57699D01*
X70825Y-57917D01*
X70225Y-57917D01*
X70225Y-57837D01*
X70225Y-57400D01*
X69788Y-57400D01*
X69725Y-57462D01*
X69725Y-57699D01*
X69763Y-57791D01*
X69833Y-57862D01*
X69925Y-57900D01*
X70025Y-57900D01*
X70163Y-57900D01*
X70225Y-57837D01*
X70225Y-57917D01*
X69436Y-57917D01*
X68998Y-57480D01*
X69145Y-57334D01*
X69145Y-57334D01*
X69145Y-57334D01*
X69220Y-57220D01*
X69247Y-57086D01*
X69247Y-54978D01*
X69653Y-55384D01*
X69653Y-55399D01*
X69718Y-55555D01*
X69837Y-55675D01*
X69993Y-55739D01*
X70162Y-55740D01*
X70319Y-55675D01*
X70369Y-55625D01*
X70369Y-55800D01*
X70166Y-55800D01*
X69964Y-55883D01*
X69809Y-56038D01*
X69725Y-56240D01*
X69725Y-56459D01*
X69809Y-56661D01*
X69947Y-56800D01*
X69925Y-56800D01*
X69833Y-56838D01*
X69763Y-56908D01*
X69725Y-57000D01*
X69725Y-57237D01*
X69788Y-57300D01*
X70225Y-57300D01*
X70225Y-57292D01*
X70325Y-57292D01*
X70325Y-57300D01*
X70763Y-57300D01*
X70825Y-57237D01*
X70825Y-57000D01*
X70787Y-56908D01*
X70717Y-56838D01*
X70625Y-56800D01*
X70603Y-56800D01*
X70741Y-56662D01*
X70825Y-56460D01*
X70825Y-56241D01*
X70820Y-56229D01*
X70881Y-56168D01*
X70881Y-56168D01*
X70946Y-56071D01*
X70969Y-55956D01*
X70969Y-55956D01*
X70969Y-52486D01*
X74031Y-49424D01*
X74031Y-49424D01*
X74096Y-49327D01*
X74118Y-49212D01*
X74118Y-49212D01*
X74118Y-47762D01*
X74181Y-47699D01*
X74181Y-47721D01*
X74245Y-47878D01*
X74306Y-47938D01*
X74306Y-49285D01*
X71992Y-51598D01*
X71927Y-51696D01*
X71904Y-51811D01*
X71904Y-55879D01*
X71893Y-55883D01*
X71738Y-56038D01*
X71654Y-56240D01*
X71654Y-56459D01*
X71738Y-56661D01*
X71876Y-56800D01*
X71854Y-56800D01*
X71762Y-56838D01*
X71692Y-56908D01*
X71654Y-57000D01*
X71654Y-57237D01*
X71717Y-57300D01*
X72154Y-57300D01*
X72154Y-57292D01*
X72254Y-57292D01*
X72254Y-57300D01*
X72692Y-57300D01*
X72754Y-57237D01*
X72754Y-57000D01*
X72716Y-56908D01*
X72646Y-56838D01*
X72554Y-56800D01*
X72532Y-56800D01*
X72670Y-56662D01*
X72754Y-56460D01*
X72754Y-56241D01*
X72671Y-56039D01*
X72516Y-55884D01*
X72504Y-55879D01*
X72504Y-51935D01*
X73641Y-50798D01*
X73655Y-50830D01*
X73715Y-50891D01*
X73715Y-51450D01*
X73622Y-51543D01*
X73537Y-51543D01*
X73381Y-51607D01*
X73261Y-51727D01*
X73197Y-51883D01*
X73196Y-52052D01*
X73261Y-52208D01*
X73380Y-52328D01*
X73537Y-52393D01*
X73706Y-52393D01*
X73844Y-52336D01*
X73787Y-52474D01*
X73787Y-52643D01*
X73852Y-52799D01*
X73971Y-52919D01*
X74127Y-52983D01*
X74296Y-52984D01*
X74453Y-52919D01*
X74572Y-52800D01*
X74637Y-52643D01*
X74637Y-52558D01*
X74818Y-52377D01*
X74818Y-52377D01*
X74883Y-52280D01*
X74906Y-52165D01*
X74906Y-52165D01*
X74906Y-52016D01*
X74919Y-52083D01*
X74968Y-52156D01*
X74968Y-52249D01*
X75033Y-52405D01*
X75152Y-52525D01*
X75308Y-52590D01*
X75477Y-52590D01*
X75634Y-52525D01*
X75753Y-52406D01*
X75818Y-52250D01*
X75818Y-52081D01*
X75754Y-51924D01*
X75634Y-51805D01*
X75496Y-51748D01*
X75496Y-49927D01*
X75802Y-49621D01*
X75802Y-49621D01*
X75867Y-49524D01*
X75890Y-49409D01*
X75890Y-49409D01*
X75890Y-49119D01*
X75950Y-49059D01*
X76015Y-48903D01*
X76015Y-48734D01*
X75951Y-48578D01*
X75831Y-48458D01*
X75675Y-48393D01*
X75506Y-48393D01*
X75350Y-48458D01*
X75350Y-48458D01*
X75350Y-47979D01*
X75932Y-47396D01*
X75940Y-47416D01*
X76011Y-47487D01*
X76103Y-47525D01*
X76202Y-47525D01*
X76652Y-47525D01*
X76718Y-47498D01*
X76690Y-47566D01*
X76690Y-47628D01*
X76752Y-47690D01*
X77115Y-47690D01*
X77115Y-47683D01*
X77215Y-47683D01*
X77215Y-47690D01*
X77577Y-47690D01*
X77594Y-47674D01*
X77602Y-47695D01*
X77673Y-47765D01*
X77682Y-47769D01*
X77627Y-47769D01*
X77592Y-47805D01*
X77577Y-47790D01*
X77215Y-47790D01*
X77215Y-48053D01*
X77277Y-48115D01*
X77340Y-48115D01*
X77440Y-48115D01*
X77532Y-48077D01*
X77602Y-48007D01*
X77618Y-47967D01*
X77673Y-48021D01*
X77765Y-48060D01*
X77864Y-48060D01*
X77903Y-48060D01*
X77966Y-47997D01*
X77966Y-47804D01*
X78066Y-47804D01*
X78066Y-47997D01*
X78128Y-48060D01*
X78167Y-48060D01*
X78266Y-48060D01*
X78358Y-48021D01*
X78429Y-47951D01*
X78467Y-47859D01*
X78467Y-47832D01*
X78414Y-47779D01*
X78467Y-47779D01*
X78467Y-47773D01*
X78510Y-47773D01*
X78510Y-47773D01*
X78625Y-47750D01*
X78625Y-47750D01*
X78722Y-47685D01*
X78900Y-47507D01*
X78949Y-47517D01*
X79377Y-47517D01*
X79377Y-47603D01*
X79377Y-47603D01*
X79377Y-47698D01*
X79377Y-47756D01*
X78702Y-48431D01*
X78434Y-48431D01*
X78342Y-48469D01*
X78272Y-48539D01*
X78234Y-48631D01*
X78234Y-48730D01*
X78234Y-50974D01*
X78272Y-51066D01*
X78342Y-51137D01*
X78434Y-51175D01*
X78475Y-51175D01*
X78475Y-51177D01*
X78551Y-51290D01*
X79476Y-52215D01*
X79476Y-52215D01*
X79590Y-52291D01*
X79724Y-52318D01*
X79724Y-52318D01*
X80908Y-52318D01*
X81042Y-52291D01*
X81042Y-52291D01*
X81155Y-52215D01*
X82764Y-50607D01*
X83356Y-50607D01*
X83448Y-50569D01*
X83518Y-50498D01*
X83556Y-50407D01*
X83557Y-50307D01*
X83557Y-49598D01*
X83519Y-49506D01*
X83448Y-49436D01*
X83356Y-49398D01*
X83257Y-49398D01*
X82391Y-49398D01*
X82299Y-49436D01*
X82229Y-49506D01*
X82191Y-49598D01*
X82190Y-49697D01*
X82190Y-50190D01*
X80763Y-51618D01*
X80675Y-51618D01*
X80739Y-51462D01*
X80739Y-51447D01*
X80897Y-51290D01*
X80972Y-51177D01*
X80973Y-51175D01*
X81014Y-51175D01*
X81105Y-51137D01*
X81176Y-51066D01*
X81214Y-50975D01*
X81214Y-50875D01*
X81214Y-49733D01*
X81743Y-49204D01*
X81819Y-49090D01*
X81819Y-49090D01*
X81846Y-48956D01*
X81846Y-48281D01*
X81862Y-48274D01*
X81932Y-48204D01*
X81971Y-48112D01*
X81971Y-48013D01*
X81971Y-47763D01*
X81947Y-47705D01*
X82042Y-47801D01*
X82198Y-47865D01*
X82289Y-47865D01*
X82229Y-47926D01*
X82191Y-48018D01*
X82190Y-48117D01*
X82190Y-48826D01*
X82228Y-48918D01*
X82299Y-48988D01*
X82391Y-49027D01*
X82490Y-49027D01*
X83356Y-49027D01*
X83448Y-48989D01*
X83518Y-48918D01*
X83556Y-48827D01*
X83557Y-48727D01*
X83557Y-48018D01*
X83519Y-47926D01*
X83448Y-47856D01*
X83356Y-47818D01*
X83257Y-47818D01*
X83224Y-47818D01*
X83224Y-47440D01*
X83224Y-46987D01*
X83224Y-46987D01*
X83197Y-46853D01*
X83121Y-46740D01*
X83121Y-46740D01*
X82860Y-46478D01*
X82860Y-43384D01*
X82860Y-43033D01*
X82859Y-42933D01*
X82821Y-42841D01*
X82751Y-42771D01*
X82659Y-42733D01*
X82597Y-42733D01*
X82535Y-42796D01*
X82535Y-43158D01*
X82797Y-43158D01*
X82860Y-43096D01*
X82860Y-43033D01*
X82860Y-43384D01*
X82860Y-43321D01*
X82797Y-43258D01*
X82535Y-43258D01*
X82535Y-43621D01*
X82597Y-43683D01*
X82659Y-43683D01*
X82751Y-43645D01*
X82821Y-43575D01*
X82859Y-43483D01*
X82860Y-43384D01*
X82860Y-46478D01*
X82696Y-46314D01*
X82696Y-45810D01*
X82658Y-45718D01*
X82587Y-45648D01*
X82496Y-45609D01*
X82396Y-45609D01*
X81796Y-45609D01*
X81704Y-45647D01*
X81634Y-45718D01*
X81596Y-45809D01*
X81596Y-45909D01*
X81596Y-46709D01*
X81633Y-46801D01*
X81704Y-46871D01*
X81796Y-46909D01*
X81895Y-46909D01*
X82301Y-46909D01*
X82434Y-47043D01*
X82368Y-47016D01*
X82199Y-47015D01*
X82043Y-47080D01*
X81967Y-47155D01*
X81933Y-47071D01*
X81862Y-47000D01*
X81771Y-46962D01*
X81671Y-46962D01*
X81524Y-46962D01*
X81490Y-46940D01*
X81396Y-46921D01*
X81396Y-46610D01*
X81396Y-45909D01*
X81396Y-45809D01*
X81357Y-45718D01*
X81287Y-45647D01*
X81195Y-45609D01*
X80958Y-45609D01*
X80896Y-45672D01*
X80896Y-46209D01*
X81333Y-46209D01*
X81396Y-46147D01*
X81396Y-45909D01*
X81396Y-46610D01*
X81396Y-46372D01*
X81333Y-46309D01*
X80896Y-46309D01*
X80896Y-46847D01*
X80958Y-46909D01*
X81195Y-46909D01*
X81287Y-46871D01*
X81357Y-46801D01*
X81396Y-46709D01*
X81396Y-46610D01*
X81396Y-46921D01*
X81375Y-46917D01*
X80279Y-46917D01*
X80279Y-46911D01*
X80226Y-46911D01*
X80279Y-46858D01*
X80279Y-46831D01*
X80241Y-46739D01*
X80225Y-46723D01*
X80290Y-46696D01*
X80296Y-46691D01*
X80296Y-46709D01*
X80334Y-46801D01*
X80404Y-46871D01*
X80496Y-46909D01*
X80733Y-46909D01*
X80796Y-46847D01*
X80796Y-46309D01*
X80796Y-46209D01*
X80796Y-45672D01*
X80733Y-45609D01*
X80496Y-45609D01*
X80404Y-45647D01*
X80334Y-45718D01*
X80296Y-45809D01*
X80296Y-45828D01*
X80290Y-45822D01*
X80198Y-45784D01*
X80136Y-45784D01*
X80074Y-45847D01*
X80074Y-46209D01*
X80336Y-46209D01*
X80347Y-46199D01*
X80358Y-46209D01*
X80796Y-46209D01*
X80796Y-46309D01*
X80358Y-46309D01*
X80347Y-46320D01*
X80336Y-46309D01*
X80074Y-46309D01*
X80074Y-46317D01*
X79974Y-46317D01*
X79974Y-46309D01*
X79966Y-46309D01*
X79966Y-46209D01*
X79974Y-46209D01*
X79974Y-45847D01*
X79911Y-45784D01*
X79849Y-45784D01*
X79757Y-45822D01*
X79724Y-45856D01*
X79691Y-45823D01*
X79599Y-45784D01*
X79499Y-45784D01*
X79249Y-45784D01*
X79157Y-45822D01*
X79133Y-45846D01*
X79110Y-45823D01*
X79018Y-45784D01*
X78918Y-45784D01*
X78668Y-45784D01*
X78576Y-45822D01*
X78543Y-45856D01*
X78510Y-45823D01*
X78418Y-45784D01*
X78318Y-45784D01*
X78068Y-45784D01*
X77976Y-45822D01*
X77906Y-45893D01*
X77868Y-45984D01*
X77868Y-45994D01*
X77837Y-45981D01*
X77741Y-45981D01*
X78885Y-44838D01*
X81638Y-44838D01*
X81648Y-44848D01*
X81804Y-44913D01*
X81973Y-44913D01*
X82130Y-44848D01*
X82249Y-44729D01*
X82314Y-44573D01*
X82314Y-44404D01*
X82250Y-44247D01*
X82235Y-44232D01*
X82235Y-43652D01*
X82310Y-43683D01*
X82372Y-43683D01*
X82435Y-43621D01*
X82435Y-43258D01*
X82427Y-43258D01*
X82427Y-43158D01*
X82435Y-43158D01*
X82435Y-42796D01*
X82372Y-42733D01*
X82310Y-42733D01*
X82218Y-42771D01*
X82185Y-42805D01*
X82151Y-42771D01*
X82059Y-42733D01*
X82046Y-42733D01*
X82046Y-42597D01*
X82058Y-42585D01*
X82096Y-42493D01*
X82096Y-42393D01*
X82096Y-42193D01*
X82081Y-42156D01*
X82096Y-42118D01*
X82096Y-42081D01*
X82034Y-42018D01*
X81956Y-42018D01*
X81896Y-41993D01*
X81797Y-41993D01*
X81638Y-41993D01*
X81638Y-41943D01*
X81896Y-41943D01*
X81956Y-41918D01*
X82034Y-41918D01*
X82096Y-41856D01*
X82096Y-41818D01*
X82081Y-41781D01*
X82096Y-41743D01*
X82096Y-41643D01*
X82096Y-41443D01*
X82058Y-41352D01*
X81988Y-41281D01*
X81896Y-41243D01*
X81797Y-41243D01*
X81659Y-41243D01*
X81659Y-40509D01*
X81659Y-39328D01*
X81621Y-39236D01*
X81551Y-39166D01*
X81459Y-39128D01*
X81359Y-39127D01*
X80725Y-39127D01*
X80228Y-38630D01*
X80228Y-38616D01*
X80163Y-38460D01*
X80044Y-38340D01*
X79888Y-38275D01*
X79718Y-38275D01*
X79562Y-38340D01*
X79443Y-38459D01*
X79378Y-38615D01*
X79378Y-38784D01*
X79442Y-38941D01*
X79562Y-39060D01*
X79718Y-39125D01*
X79733Y-39125D01*
X80372Y-39764D01*
X80372Y-40608D01*
X80410Y-40700D01*
X80480Y-40770D01*
X80572Y-40808D01*
X80671Y-40809D01*
X81458Y-40809D01*
X81550Y-40771D01*
X81621Y-40700D01*
X81659Y-40608D01*
X81659Y-40509D01*
X81659Y-41243D01*
X81497Y-41243D01*
X81497Y-41243D01*
X81137Y-41243D01*
X81004Y-41270D01*
X80910Y-41332D01*
X80749Y-41332D01*
X80657Y-41370D01*
X80620Y-41407D01*
X80197Y-41407D01*
X80162Y-41372D01*
X80006Y-41307D01*
X79837Y-41307D01*
X79680Y-41371D01*
X79561Y-41491D01*
X79496Y-41647D01*
X79496Y-41796D01*
X79291Y-41592D01*
X79291Y-38031D01*
X79316Y-37971D01*
X79316Y-37872D01*
X79316Y-37422D01*
X79291Y-37361D01*
X79291Y-37357D01*
X79357Y-37384D01*
X79456Y-37384D01*
X79706Y-37384D01*
X79798Y-37346D01*
X79869Y-37276D01*
X79907Y-37184D01*
X79907Y-37084D01*
X79907Y-36796D01*
X80874Y-36796D01*
X80874Y-36816D01*
X80938Y-36972D01*
X81058Y-37092D01*
X81214Y-37157D01*
X81383Y-37157D01*
X81539Y-37092D01*
X81659Y-36973D01*
X81724Y-36817D01*
X81724Y-36648D01*
X81659Y-36491D01*
X81565Y-36397D01*
X81659Y-36304D01*
X81724Y-36147D01*
X81724Y-35978D01*
X81659Y-35822D01*
X81540Y-35702D01*
X81384Y-35638D01*
X81215Y-35637D01*
X81058Y-35702D01*
X81018Y-35742D01*
X79870Y-35742D01*
X79870Y-35703D01*
X79832Y-35612D01*
X79762Y-35541D01*
X79670Y-35503D01*
X79570Y-35503D01*
X79405Y-35503D01*
X79405Y-35503D01*
X79314Y-35503D01*
X79149Y-35503D01*
X79149Y-35503D01*
X79058Y-35503D01*
X78893Y-35503D01*
X78893Y-35503D01*
X78802Y-35503D01*
X78645Y-35503D01*
X78637Y-35503D01*
X78637Y-35503D01*
X78617Y-35503D01*
X78603Y-35517D01*
X78545Y-35541D01*
X78513Y-35573D01*
X78482Y-35541D01*
X78424Y-35517D01*
X78409Y-35503D01*
X78381Y-35503D01*
X78381Y-35503D01*
X78301Y-35503D01*
X78301Y-35482D01*
X78301Y-35482D01*
X78278Y-35367D01*
X78213Y-35269D01*
X78213Y-35269D01*
X77968Y-35024D01*
X77870Y-34959D01*
X77755Y-34936D01*
X77586Y-34936D01*
X77590Y-34927D01*
X77590Y-34758D01*
X77525Y-34602D01*
X77406Y-34482D01*
X77250Y-34417D01*
X77081Y-34417D01*
X76924Y-34482D01*
X76805Y-34601D01*
X76740Y-34757D01*
X76740Y-34926D01*
X76804Y-35082D01*
X76912Y-35191D01*
X76912Y-35191D01*
X76953Y-35251D01*
X77150Y-35448D01*
X77150Y-35448D01*
X77247Y-35513D01*
X77362Y-35536D01*
X77362Y-35536D01*
X77533Y-35536D01*
X77525Y-35539D01*
X77455Y-35609D01*
X77417Y-35701D01*
X77417Y-35740D01*
X76716Y-35740D01*
X76481Y-35505D01*
X76481Y-35340D01*
X76541Y-35280D01*
X76606Y-35124D01*
X76606Y-34955D01*
X76541Y-34798D01*
X76422Y-34679D01*
X76266Y-34614D01*
X76096Y-34614D01*
X75940Y-34678D01*
X75821Y-34798D01*
X75756Y-34954D01*
X75756Y-35123D01*
X75820Y-35279D01*
X75881Y-35340D01*
X75881Y-35629D01*
X75903Y-35744D01*
X75968Y-35842D01*
X76379Y-36253D01*
X76379Y-36253D01*
X76477Y-36318D01*
X76592Y-36340D01*
X76592Y-36340D01*
X77417Y-36340D01*
X77417Y-36379D01*
X77455Y-36471D01*
X77470Y-36486D01*
X77414Y-36542D01*
X77376Y-36634D01*
X77376Y-36733D01*
X77376Y-37183D01*
X77414Y-37275D01*
X77484Y-37346D01*
X77576Y-37384D01*
X77675Y-37384D01*
X77925Y-37384D01*
X77994Y-37356D01*
X77966Y-37421D01*
X77966Y-37521D01*
X77966Y-37584D01*
X78029Y-37646D01*
X78291Y-37646D01*
X78291Y-37331D01*
X78301Y-37321D01*
X78301Y-36959D01*
X78293Y-36959D01*
X78293Y-36859D01*
X78301Y-36859D01*
X78301Y-36851D01*
X78401Y-36851D01*
X78401Y-36859D01*
X78409Y-36859D01*
X78409Y-36959D01*
X78401Y-36959D01*
X78401Y-37274D01*
X78391Y-37284D01*
X78391Y-37646D01*
X78399Y-37646D01*
X78399Y-37746D01*
X78391Y-37746D01*
X78391Y-38109D01*
X78454Y-38171D01*
X78516Y-38171D01*
X78591Y-38140D01*
X78591Y-41737D01*
X78618Y-41870D01*
X78694Y-41984D01*
X79001Y-42291D01*
X78852Y-42291D01*
X78696Y-42356D01*
X78576Y-42475D01*
X78512Y-42631D01*
X78512Y-42717D01*
X78291Y-42937D01*
X78291Y-38109D01*
X78291Y-37746D01*
X78029Y-37746D01*
X77966Y-37809D01*
X77966Y-37872D01*
X77966Y-37971D01*
X78004Y-38063D01*
X78075Y-38133D01*
X78167Y-38171D01*
X78229Y-38171D01*
X78291Y-38109D01*
X78291Y-42937D01*
X77824Y-43404D01*
X77824Y-40509D01*
X77824Y-39427D01*
X77824Y-39328D01*
X77786Y-39236D01*
X77715Y-39165D01*
X77624Y-39127D01*
X77293Y-39128D01*
X77231Y-39190D01*
X77231Y-39918D01*
X77762Y-39918D01*
X77824Y-39856D01*
X77824Y-39427D01*
X77824Y-40509D01*
X77824Y-40081D01*
X77762Y-40018D01*
X77231Y-40018D01*
X77231Y-40746D01*
X77293Y-40809D01*
X77624Y-40809D01*
X77715Y-40771D01*
X77786Y-40700D01*
X77824Y-40608D01*
X77824Y-40509D01*
X77824Y-43404D01*
X77787Y-43442D01*
X77787Y-41648D01*
X77722Y-41491D01*
X77603Y-41372D01*
X77447Y-41307D01*
X77278Y-41307D01*
X77131Y-41367D01*
X77131Y-40746D01*
X77131Y-40018D01*
X77131Y-39918D01*
X77131Y-39190D01*
X77068Y-39128D01*
X76737Y-39127D01*
X76646Y-39165D01*
X76575Y-39236D01*
X76537Y-39328D01*
X76537Y-39427D01*
X76537Y-39856D01*
X76600Y-39918D01*
X77131Y-39918D01*
X77131Y-40018D01*
X76600Y-40018D01*
X76537Y-40081D01*
X76537Y-40509D01*
X76537Y-40608D01*
X76575Y-40700D01*
X76646Y-40771D01*
X76737Y-40809D01*
X77068Y-40809D01*
X77131Y-40746D01*
X77131Y-41367D01*
X77121Y-41371D01*
X77002Y-41491D01*
X76937Y-41647D01*
X76937Y-41662D01*
X76899Y-41699D01*
X76900Y-41643D01*
X76900Y-41443D01*
X76862Y-41352D01*
X76791Y-41281D01*
X76699Y-41243D01*
X76600Y-41243D01*
X76300Y-41243D01*
X76208Y-41281D01*
X76138Y-41351D01*
X76100Y-41443D01*
X76099Y-41543D01*
X76099Y-41743D01*
X76137Y-41834D01*
X76208Y-41905D01*
X76300Y-41943D01*
X76399Y-41943D01*
X76655Y-41943D01*
X76606Y-41993D01*
X76600Y-41993D01*
X76300Y-41993D01*
X76208Y-42031D01*
X76138Y-42101D01*
X76100Y-42193D01*
X76099Y-42293D01*
X76099Y-42493D01*
X76137Y-42584D01*
X76208Y-42655D01*
X76300Y-42693D01*
X76399Y-42693D01*
X76699Y-42693D01*
X76699Y-42693D01*
X76750Y-42693D01*
X76884Y-42666D01*
X76884Y-42666D01*
X76998Y-42590D01*
X77432Y-42157D01*
X77446Y-42157D01*
X77602Y-42092D01*
X77722Y-41973D01*
X77787Y-41817D01*
X77787Y-41648D01*
X77787Y-43442D01*
X76659Y-44569D01*
X76659Y-43384D01*
X76659Y-43033D01*
X76659Y-42933D01*
X76621Y-42841D01*
X76550Y-42771D01*
X76458Y-42733D01*
X76396Y-42733D01*
X76334Y-42796D01*
X76334Y-43158D01*
X76596Y-43158D01*
X76659Y-43096D01*
X76659Y-43033D01*
X76659Y-43384D01*
X76659Y-43321D01*
X76596Y-43258D01*
X76334Y-43258D01*
X76334Y-43621D01*
X76396Y-43683D01*
X76458Y-43683D01*
X76550Y-43645D01*
X76621Y-43575D01*
X76659Y-43483D01*
X76659Y-43384D01*
X76659Y-44569D01*
X74482Y-46747D01*
X74409Y-46747D01*
X74369Y-46755D01*
X75931Y-45193D01*
X76007Y-45079D01*
X76007Y-45079D01*
X76034Y-44945D01*
X76034Y-43652D01*
X76109Y-43683D01*
X76171Y-43683D01*
X76234Y-43621D01*
X76234Y-43258D01*
X76226Y-43258D01*
X76226Y-43158D01*
X76234Y-43158D01*
X76234Y-42796D01*
X76171Y-42733D01*
X76109Y-42733D01*
X76017Y-42771D01*
X75984Y-42805D01*
X75951Y-42771D01*
X75859Y-42733D01*
X75850Y-42733D01*
X75850Y-42597D01*
X75861Y-42585D01*
X75899Y-42493D01*
X75900Y-42393D01*
X75900Y-42193D01*
X75884Y-42156D01*
X75900Y-42118D01*
X75900Y-42081D01*
X75837Y-42018D01*
X75760Y-42018D01*
X75699Y-41993D01*
X75600Y-41993D01*
X75442Y-41993D01*
X75442Y-41943D01*
X75699Y-41943D01*
X75760Y-41918D01*
X75837Y-41918D01*
X75900Y-41856D01*
X75900Y-41818D01*
X75884Y-41781D01*
X75899Y-41743D01*
X75900Y-41643D01*
X75900Y-41443D01*
X75862Y-41352D01*
X75791Y-41281D01*
X75699Y-41243D01*
X75600Y-41243D01*
X75300Y-41243D01*
X75300Y-41243D01*
X74937Y-41243D01*
X74937Y-41243D01*
X74803Y-41270D01*
X74689Y-41346D01*
X74689Y-41346D01*
X74683Y-41352D01*
X74528Y-41352D01*
X74436Y-41390D01*
X74395Y-41431D01*
X74299Y-41450D01*
X74202Y-41515D01*
X73803Y-41913D01*
X73738Y-42011D01*
X73715Y-42125D01*
X73715Y-42468D01*
X73703Y-42437D01*
X73466Y-42201D01*
X73158Y-42072D01*
X72823Y-42072D01*
X72514Y-42200D01*
X72277Y-42436D01*
X72149Y-42745D01*
X72149Y-42985D01*
X72062Y-42898D01*
X72062Y-42898D01*
X72062Y-42898D01*
X71574Y-42409D01*
X71477Y-42344D01*
X71362Y-42322D01*
X71294Y-42322D01*
X71294Y-39703D01*
X71284Y-39485D01*
X71221Y-39334D01*
X71126Y-39306D01*
X70810Y-39622D01*
X71126Y-39937D01*
X71221Y-39909D01*
X71294Y-39703D01*
X71294Y-42322D01*
X71211Y-42322D01*
X71206Y-42310D01*
X71052Y-42156D01*
X70970Y-42122D01*
X71051Y-42088D01*
X71206Y-41934D01*
X71290Y-41731D01*
X71290Y-41513D01*
X71206Y-41310D01*
X71052Y-41156D01*
X70970Y-41122D01*
X71051Y-41088D01*
X71206Y-40934D01*
X71290Y-40731D01*
X71290Y-40513D01*
X71206Y-40310D01*
X71052Y-40156D01*
X70976Y-40124D01*
X71028Y-40103D01*
X71055Y-40007D01*
X70740Y-39692D01*
X70424Y-40007D01*
X70452Y-40103D01*
X70507Y-40123D01*
X70429Y-40155D01*
X70274Y-40310D01*
X70240Y-40391D01*
X70206Y-40310D01*
X70052Y-40156D01*
X69970Y-40122D01*
X70051Y-40088D01*
X70206Y-39934D01*
X70237Y-39858D01*
X70258Y-39909D01*
X70354Y-39937D01*
X70669Y-39622D01*
X70354Y-39306D01*
X70258Y-39334D01*
X70239Y-39389D01*
X70206Y-39310D01*
X70068Y-39172D01*
X70089Y-39172D01*
X70181Y-39134D01*
X70251Y-39063D01*
X70290Y-38971D01*
X70290Y-38949D01*
X70428Y-39088D01*
X70503Y-39119D01*
X70452Y-39140D01*
X70424Y-39236D01*
X70740Y-39551D01*
X71055Y-39236D01*
X71028Y-39140D01*
X70972Y-39121D01*
X71051Y-39088D01*
X71206Y-38934D01*
X71290Y-38731D01*
X71290Y-38513D01*
X71206Y-38310D01*
X71052Y-38156D01*
X70850Y-38072D01*
X70785Y-38072D01*
X70908Y-37948D01*
X71705Y-37948D01*
X73816Y-40059D01*
X73748Y-40126D01*
X73734Y-40126D01*
X73578Y-40190D01*
X73458Y-40310D01*
X73393Y-40466D01*
X73393Y-40635D01*
X73458Y-40791D01*
X73577Y-40911D01*
X73733Y-40976D01*
X73903Y-40976D01*
X74059Y-40911D01*
X74178Y-40792D01*
X74216Y-40703D01*
X74283Y-40770D01*
X74375Y-40808D01*
X74475Y-40809D01*
X75262Y-40809D01*
X75353Y-40771D01*
X75424Y-40700D01*
X75462Y-40608D01*
X75462Y-40509D01*
X75462Y-39328D01*
X75424Y-39236D01*
X75354Y-39166D01*
X75262Y-39128D01*
X75162Y-39127D01*
X74375Y-39127D01*
X74284Y-39165D01*
X74213Y-39236D01*
X74175Y-39328D01*
X74175Y-39427D01*
X74175Y-39428D01*
X72345Y-37598D01*
X75774Y-34168D01*
X76285Y-34168D01*
X76292Y-34185D01*
X76362Y-34255D01*
X76454Y-34293D01*
X76553Y-34293D01*
X76803Y-34293D01*
X76895Y-34255D01*
X76929Y-34222D01*
X76962Y-34255D01*
X77054Y-34293D01*
X77153Y-34293D01*
X77403Y-34293D01*
X77454Y-34273D01*
X77521Y-34340D01*
X77613Y-34378D01*
X77712Y-34378D01*
X77877Y-34378D01*
X77877Y-34378D01*
X77968Y-34378D01*
X78125Y-34378D01*
X78133Y-34378D01*
X78133Y-34378D01*
X78153Y-34378D01*
X78168Y-34364D01*
X78225Y-34340D01*
X78257Y-34308D01*
X78289Y-34340D01*
X78347Y-34364D01*
X78361Y-34378D01*
X78389Y-34378D01*
X78389Y-34378D01*
X78480Y-34378D01*
X78645Y-34378D01*
X78645Y-34378D01*
X78736Y-34378D01*
X78893Y-34378D01*
X78901Y-34378D01*
X78901Y-34378D01*
X78921Y-34378D01*
X78936Y-34364D01*
X78993Y-34340D01*
X79025Y-34308D01*
X79057Y-34340D01*
X79115Y-34364D01*
X79129Y-34378D01*
X79157Y-34378D01*
X79157Y-34378D01*
X79248Y-34378D01*
X79413Y-34378D01*
X79413Y-34378D01*
X79504Y-34378D01*
X79669Y-34378D01*
X79761Y-34340D01*
X79832Y-34270D01*
X79870Y-34178D01*
X79870Y-34078D01*
X79870Y-33499D01*
X79832Y-33408D01*
X79762Y-33337D01*
X79670Y-33299D01*
X79581Y-33299D01*
X79581Y-32850D01*
X79739Y-32692D01*
X79739Y-32692D01*
X79804Y-32595D01*
X79827Y-32480D01*
X79827Y-32480D01*
X79827Y-32255D01*
X79850Y-32220D01*
X79877Y-32086D01*
X79877Y-27310D01*
X81456Y-25731D01*
X81456Y-25731D01*
X81456Y-25731D01*
X81532Y-25618D01*
X81545Y-25550D01*
X81558Y-25550D01*
X81650Y-25512D01*
X81720Y-25441D01*
X81758Y-25349D01*
X81758Y-25250D01*
X81758Y-24650D01*
X81720Y-24558D01*
X81650Y-24488D01*
X81558Y-24450D01*
X81459Y-24449D01*
X80859Y-24449D01*
X80767Y-24487D01*
X80696Y-24558D01*
X80658Y-24650D01*
X80658Y-24672D01*
X80520Y-24534D01*
X80318Y-24450D01*
X80099Y-24449D01*
X79897Y-24533D01*
X79742Y-24688D01*
X79658Y-24890D01*
X79658Y-25108D01*
X79742Y-25311D01*
X79822Y-25391D01*
X78689Y-26524D01*
X78613Y-26637D01*
X78587Y-26771D01*
X78587Y-29076D01*
X76621Y-27110D01*
X76621Y-25427D01*
X76721Y-25327D01*
X76721Y-25349D01*
X76759Y-25441D01*
X76829Y-25511D01*
X76921Y-25549D01*
X77021Y-25550D01*
X77621Y-25550D01*
X77713Y-25512D01*
X77783Y-25441D01*
X77821Y-25349D01*
X77821Y-25250D01*
X77821Y-24650D01*
X77783Y-24558D01*
X77713Y-24488D01*
X77621Y-24450D01*
X77608Y-24450D01*
X77595Y-24381D01*
X77519Y-24268D01*
X77215Y-23965D01*
X77106Y-23891D01*
X90281Y-23891D01*
X90281Y-63116D01*
M02*
