M48
;DRILL file {Pcbnew (2013-07-07 BZR 4022)-stable} date 7/8/2014 5:22:42 PM
;FORMAT={-:-/ absolute / inch / decimal}
FMAT,2
INCH,TZ
T1C0.025
T2C0.028
T3C0.040
T4C0.094
%
G90
G05
M72
T1
X6.811Y-4.3307
X6.8898Y-4.9606
X7.0079Y-5.5315
X7.0472Y-5.0591
X7.0669Y-5.
X7.126Y-5.2559
X7.1654Y-4.4685
X7.2244Y-6.1417
X7.2835Y-4.626
X7.3228Y-5.8858
X7.3622Y-5.1969
X7.3819Y-4.0551
X7.3819Y-5.9449
X7.3819Y-6.1417
X7.4016Y-5.0591
X7.4213Y-5.2559
X7.4606Y-4.7638
X7.4606Y-5.0394
X7.5Y-4.9213
X7.5197Y-4.4685
X7.5394Y-5.2165
X7.5394Y-5.8465
X7.5591Y-4.8819
X7.5984Y-5.
X7.6181Y-3.5039
X7.6181Y-4.4488
X7.7165Y-3.4843
X7.7165Y-5.1378
X7.7362Y-4.1732
X7.8346Y-3.9961
X7.8937Y-4.2717
X7.9803Y-3.8701
X7.9921Y-4.1732
X8.0118Y-4.1142
X8.0315Y-5.1378
X8.0709Y-4.7835
X8.0709Y-6.0827
X8.1102Y-6.1417
X8.1299Y-3.6063
X8.1299Y-3.6732
X8.189Y-4.4488
X8.2283Y-4.7441
X8.3661Y-4.1732
X8.5433Y-6.0039
X8.7402Y-6.2008
T2
X7.7953Y-6.0236
X7.874Y-6.0236
X7.9528Y-6.0236
T3
X6.8268Y-5.5339
X6.8268Y-5.6339
X6.8268Y-5.7339
X6.9646Y-5.139
X6.9646Y-5.239
X6.974Y-3.8622
X6.974Y-3.9622
X6.974Y-4.0622
X6.974Y-4.1622
X6.974Y-4.2622
X6.974Y-4.3622
X6.974Y-4.4622
X6.974Y-4.5622
X6.974Y-4.6622
X6.974Y-4.7622
X7.0276Y-5.635
X7.0276Y-5.735
X7.074Y-3.8622
X7.074Y-3.9622
X7.074Y-4.0622
X7.074Y-4.1622
X7.074Y-4.2622
X7.074Y-4.3622
X7.074Y-4.4622
X7.074Y-4.5622
X7.074Y-4.6622
X7.074Y-4.7622
X7.2205Y-5.635
X7.2205Y-5.735
X7.6272Y-2.5
X7.7272Y-2.5
X8.0209Y-2.5
X8.1209Y-2.5
X8.674Y-3.8622
X8.674Y-3.9622
X8.674Y-4.0622
X8.674Y-4.1622
X8.674Y-4.2622
X8.674Y-4.3622
X8.674Y-4.4622
X8.674Y-4.5622
X8.674Y-4.6622
X8.674Y-4.7622
X8.774Y-3.8622
X8.774Y-3.9622
X8.774Y-4.0622
X8.774Y-4.1622
X8.774Y-4.2622
X8.774Y-4.3622
X8.774Y-4.4622
X8.774Y-4.5622
X8.774Y-4.6622
X8.774Y-4.7622
X8.8976Y-5.4118
X8.8976Y-5.5118
X8.8976Y-5.6118
T4
X6.8898Y-2.5591
X6.8898Y-3.2677
X7.299Y-4.2913
X8.449Y-4.2913
X8.8583Y-2.5591
X8.8583Y-3.2677
T0
M30
