G04 (created by PCBNEW (2013-07-07 BZR 4022)-stable) date 7/8/2014 5:22:45 PM*
%MOIN*%
G04 Gerber Fmt 3.4, Leading zero omitted, Abs format*
%FSLAX34Y34*%
G01*
G70*
G90*
G04 APERTURE LIST*
%ADD10C,0.00590551*%
%ADD11C,0.011811*%
%ADD12C,0.00393701*%
G04 APERTURE END LIST*
G54D10*
G54D11*
X77320Y-56285D02*
X77291Y-56313D01*
X77207Y-56341D01*
X77151Y-56341D01*
X77066Y-56313D01*
X77010Y-56257D01*
X76982Y-56200D01*
X76954Y-56088D01*
X76954Y-56003D01*
X76982Y-55891D01*
X77010Y-55835D01*
X77066Y-55778D01*
X77151Y-55750D01*
X77207Y-55750D01*
X77291Y-55778D01*
X77320Y-55807D01*
X77573Y-55750D02*
X77573Y-56228D01*
X77601Y-56285D01*
X77629Y-56313D01*
X77685Y-56341D01*
X77798Y-56341D01*
X77854Y-56313D01*
X77882Y-56285D01*
X77910Y-56228D01*
X77910Y-55750D01*
X78107Y-55750D02*
X78444Y-55750D01*
X78276Y-56341D02*
X78276Y-55750D01*
X79204Y-55750D02*
X79316Y-55750D01*
X79372Y-55778D01*
X79429Y-55835D01*
X79457Y-55947D01*
X79457Y-56144D01*
X79429Y-56257D01*
X79372Y-56313D01*
X79316Y-56341D01*
X79204Y-56341D01*
X79147Y-56313D01*
X79091Y-56257D01*
X79063Y-56144D01*
X79063Y-55947D01*
X79091Y-55835D01*
X79147Y-55778D01*
X79204Y-55750D01*
X79710Y-55750D02*
X79710Y-56228D01*
X79738Y-56285D01*
X79766Y-56313D01*
X79822Y-56341D01*
X79935Y-56341D01*
X79991Y-56313D01*
X80019Y-56285D01*
X80047Y-56228D01*
X80047Y-55750D01*
X80244Y-55750D02*
X80582Y-55750D01*
X80413Y-56341D02*
X80413Y-55750D01*
G54D12*
X81430Y-56560D02*
G75*
G03X81850Y-56102I-40J458D01*
G74*
G01*
X81390Y-56102D02*
G75*
G02X81390Y-56102I0J0D01*
G74*
G01*
X76062Y-56560D02*
G75*
G02X75642Y-56102I40J458D01*
G74*
G01*
X76062Y-55643D02*
G75*
G03X75642Y-56102I40J-458D01*
G74*
G01*
X81417Y-56560D02*
G75*
G02X78740Y-58818I-2677J457D01*
G74*
G01*
X76062Y-55644D02*
G75*
G02X78740Y-53385I2677J-457D01*
G74*
G01*
X76062Y-56560D02*
G75*
G03X78740Y-58818I2677J457D01*
G74*
G01*
X81430Y-55643D02*
G75*
G02X81850Y-56102I-40J-458D01*
G74*
G01*
X81417Y-55644D02*
G75*
G03X78740Y-53385I-2677J-457D01*
G74*
G01*
X66929Y-23622D02*
X90551Y-23622D01*
X90551Y-23622D02*
X90551Y-63385D01*
X66929Y-63385D02*
X90551Y-63385D01*
X66929Y-23622D02*
X66929Y-63385D01*
M02*
