G04 (created by PCBNEW (2013-07-07 BZR 4022)-stable) date 7/8/2014 5:22:45 PM*
%MOIN*%
G04 Gerber Fmt 3.4, Leading zero omitted, Abs format*
%FSLAX34Y34*%
G01*
G70*
G90*
G04 APERTURE LIST*
%ADD10C,0.00590551*%
%ADD11C,0.00688976*%
%ADD12C,0.00393701*%
%ADD13C,0.005*%
%ADD14C,0.006*%
%ADD15C,0.012*%
%ADD16C,0.0026*%
%ADD17C,0.004*%
%ADD18C,0.0045*%
G04 APERTURE END LIST*
G54D10*
G54D11*
X70406Y-51504D02*
X70406Y-51295D01*
G54D12*
X70295Y-52406D02*
X70504Y-52406D01*
X70400Y-52511D02*
X70400Y-52301D01*
X87617Y-56198D02*
X87657Y-56211D01*
X87722Y-56211D01*
X87749Y-56198D01*
X87762Y-56185D01*
X87775Y-56159D01*
X87775Y-56132D01*
X87762Y-56106D01*
X87749Y-56093D01*
X87722Y-56080D01*
X87670Y-56067D01*
X87644Y-56054D01*
X87630Y-56040D01*
X87617Y-56014D01*
X87617Y-55988D01*
X87630Y-55962D01*
X87644Y-55949D01*
X87670Y-55935D01*
X87735Y-55935D01*
X87775Y-55949D01*
X87893Y-56211D02*
X87893Y-55935D01*
X88169Y-55949D02*
X88142Y-55935D01*
X88103Y-55935D01*
X88064Y-55949D01*
X88037Y-55975D01*
X88024Y-56001D01*
X88011Y-56054D01*
X88011Y-56093D01*
X88024Y-56145D01*
X88037Y-56172D01*
X88064Y-56198D01*
X88103Y-56211D01*
X88129Y-56211D01*
X88169Y-56198D01*
X88182Y-56185D01*
X88182Y-56093D01*
X88129Y-56093D01*
X87847Y-54935D02*
X87716Y-54935D01*
X87703Y-55067D01*
X87716Y-55054D01*
X87742Y-55040D01*
X87808Y-55040D01*
X87834Y-55054D01*
X87847Y-55067D01*
X87860Y-55093D01*
X87860Y-55159D01*
X87847Y-55185D01*
X87834Y-55198D01*
X87808Y-55211D01*
X87742Y-55211D01*
X87716Y-55198D01*
X87703Y-55185D01*
X87939Y-54935D02*
X88031Y-55211D01*
X88123Y-54935D01*
X87690Y-53949D02*
X87663Y-53935D01*
X87624Y-53935D01*
X87585Y-53949D01*
X87558Y-53975D01*
X87545Y-54001D01*
X87532Y-54054D01*
X87532Y-54093D01*
X87545Y-54145D01*
X87558Y-54172D01*
X87585Y-54198D01*
X87624Y-54211D01*
X87650Y-54211D01*
X87690Y-54198D01*
X87703Y-54185D01*
X87703Y-54093D01*
X87650Y-54093D01*
X87821Y-54211D02*
X87821Y-53935D01*
X87978Y-54211D01*
X87978Y-53935D01*
X88109Y-54211D02*
X88109Y-53935D01*
X88175Y-53935D01*
X88214Y-53949D01*
X88241Y-53975D01*
X88254Y-54001D01*
X88267Y-54054D01*
X88267Y-54093D01*
X88254Y-54145D01*
X88241Y-54172D01*
X88214Y-54198D01*
X88175Y-54211D01*
X88109Y-54211D01*
X67365Y-57395D02*
X67365Y-57526D01*
X67496Y-57539D01*
X67483Y-57526D01*
X67470Y-57500D01*
X67470Y-57434D01*
X67483Y-57408D01*
X67496Y-57395D01*
X67522Y-57381D01*
X67588Y-57381D01*
X67614Y-57395D01*
X67627Y-57408D01*
X67641Y-57434D01*
X67641Y-57500D01*
X67627Y-57526D01*
X67614Y-57539D01*
X67365Y-57303D02*
X67641Y-57211D01*
X67365Y-57119D01*
X67496Y-55643D02*
X67509Y-55603D01*
X67522Y-55590D01*
X67549Y-55577D01*
X67588Y-55577D01*
X67614Y-55590D01*
X67627Y-55603D01*
X67641Y-55629D01*
X67641Y-55734D01*
X67365Y-55734D01*
X67365Y-55643D01*
X67378Y-55616D01*
X67391Y-55603D01*
X67417Y-55590D01*
X67444Y-55590D01*
X67470Y-55603D01*
X67483Y-55616D01*
X67496Y-55643D01*
X67496Y-55734D01*
X67562Y-55472D02*
X67562Y-55341D01*
X67641Y-55498D02*
X67365Y-55406D01*
X67641Y-55314D01*
X67365Y-55262D02*
X67365Y-55104D01*
X67641Y-55183D02*
X67365Y-55183D01*
X67365Y-55052D02*
X67365Y-54895D01*
X67641Y-54973D02*
X67365Y-54973D01*
G54D10*
X85990Y-32834D02*
X71490Y-32834D01*
X71490Y-32834D02*
X71490Y-52992D01*
X71490Y-52992D02*
X85990Y-52992D01*
X85990Y-52992D02*
X85990Y-32834D01*
X70570Y-26181D02*
X70570Y-25590D01*
X70570Y-32677D02*
X70570Y-32086D01*
X71751Y-32086D02*
X67224Y-32086D01*
X67224Y-26181D02*
X71751Y-26181D01*
X71751Y-32086D02*
X71751Y-26181D01*
X67224Y-32677D02*
X67224Y-25590D01*
X70570Y-25590D02*
G75*
G03X67224Y-25590I-1673J0D01*
G74*
G01*
X67224Y-32677D02*
G75*
G03X70570Y-32677I1673J0D01*
G74*
G01*
X86909Y-32086D02*
X86909Y-32677D01*
X86909Y-25590D02*
X86909Y-26181D01*
X85728Y-26181D02*
X90255Y-26181D01*
X90255Y-32086D02*
X85728Y-32086D01*
X85728Y-26181D02*
X85728Y-32086D01*
X90255Y-25590D02*
X90255Y-32677D01*
X86909Y-32677D02*
G75*
G03X90255Y-32677I1673J0D01*
G74*
G01*
X90255Y-25590D02*
G75*
G03X86909Y-25590I-1673J0D01*
G74*
G01*
G54D13*
X68017Y-59150D02*
X68017Y-58250D01*
X68017Y-58250D02*
X68517Y-58250D01*
X68517Y-58250D02*
X68517Y-59150D01*
X68517Y-59150D02*
X68017Y-59150D01*
X71954Y-59150D02*
X71954Y-58250D01*
X71954Y-58250D02*
X72454Y-58250D01*
X72454Y-58250D02*
X72454Y-59150D01*
X72454Y-59150D02*
X71954Y-59150D01*
X69986Y-59150D02*
X69986Y-58250D01*
X69986Y-58250D02*
X70486Y-58250D01*
X70486Y-58250D02*
X70486Y-59150D01*
X70486Y-59150D02*
X69986Y-59150D01*
X76324Y-59898D02*
X76324Y-58998D01*
X76324Y-58998D02*
X76824Y-58998D01*
X76824Y-58998D02*
X76824Y-59898D01*
X76824Y-59898D02*
X76324Y-59898D01*
X76037Y-58998D02*
X76037Y-59898D01*
X76037Y-59898D02*
X75537Y-59898D01*
X75537Y-59898D02*
X75537Y-58998D01*
X75537Y-58998D02*
X76037Y-58998D01*
G54D14*
X68767Y-57838D02*
X67767Y-57838D01*
X67767Y-57838D02*
X67767Y-54838D01*
X67767Y-54838D02*
X68767Y-54838D01*
X68767Y-54838D02*
X68767Y-57838D01*
X67767Y-56838D02*
X68767Y-56838D01*
X88476Y-53618D02*
X89476Y-53618D01*
X89476Y-53618D02*
X89476Y-56618D01*
X89476Y-56618D02*
X88476Y-56618D01*
X88476Y-56618D02*
X88476Y-53618D01*
X89476Y-54618D02*
X88476Y-54618D01*
X70775Y-57850D02*
X69775Y-57850D01*
X69775Y-57850D02*
X69775Y-55850D01*
X69775Y-55850D02*
X70775Y-55850D01*
X70775Y-55850D02*
X70775Y-57850D01*
X77771Y-24500D02*
X77771Y-25500D01*
X77771Y-25500D02*
X75771Y-25500D01*
X75771Y-25500D02*
X75771Y-24500D01*
X75771Y-24500D02*
X77771Y-24500D01*
X81708Y-24500D02*
X81708Y-25500D01*
X81708Y-25500D02*
X79708Y-25500D01*
X79708Y-25500D02*
X79708Y-24500D01*
X79708Y-24500D02*
X81708Y-24500D01*
X70145Y-52889D02*
X69145Y-52889D01*
X69145Y-52889D02*
X69145Y-50889D01*
X69145Y-50889D02*
X70145Y-50889D01*
X70145Y-50889D02*
X70145Y-52889D01*
X72704Y-57850D02*
X71704Y-57850D01*
X71704Y-57850D02*
X71704Y-55850D01*
X71704Y-55850D02*
X72704Y-55850D01*
X72704Y-55850D02*
X72704Y-57850D01*
G54D15*
X86240Y-43122D02*
X86240Y-48122D01*
X88240Y-38122D02*
X88240Y-43122D01*
X88240Y-43122D02*
X88240Y-48122D01*
X88240Y-48122D02*
X86240Y-48122D01*
X86240Y-43122D02*
X86240Y-38122D01*
X86240Y-38122D02*
X88240Y-38122D01*
X69240Y-43122D02*
X69240Y-48122D01*
X71240Y-38122D02*
X71240Y-43122D01*
X71240Y-43122D02*
X71240Y-48122D01*
X71240Y-48122D02*
X69240Y-48122D01*
X69240Y-43122D02*
X69240Y-38122D01*
X69240Y-38122D02*
X71240Y-38122D01*
G54D16*
X72381Y-60098D02*
X72027Y-60098D01*
X72027Y-60098D02*
X72027Y-60255D01*
X72381Y-60255D02*
X72027Y-60255D01*
X72381Y-60098D02*
X72381Y-60255D01*
X72381Y-59587D02*
X72027Y-59587D01*
X72027Y-59587D02*
X72027Y-59744D01*
X72381Y-59744D02*
X72027Y-59744D01*
X72381Y-59587D02*
X72381Y-59744D01*
X72381Y-59921D02*
X72322Y-59921D01*
X72322Y-59921D02*
X72322Y-60039D01*
X72381Y-60039D02*
X72322Y-60039D01*
X72381Y-59921D02*
X72381Y-60039D01*
X72086Y-59921D02*
X72027Y-59921D01*
X72027Y-59921D02*
X72027Y-60039D01*
X72086Y-60039D02*
X72027Y-60039D01*
X72086Y-59921D02*
X72086Y-60039D01*
X72263Y-59921D02*
X72145Y-59921D01*
X72145Y-59921D02*
X72145Y-60039D01*
X72263Y-60039D02*
X72145Y-60039D01*
X72263Y-59921D02*
X72263Y-60039D01*
G54D17*
X72361Y-60098D02*
X72361Y-59744D01*
X72047Y-60098D02*
X72047Y-59744D01*
G54D16*
X70413Y-60098D02*
X70059Y-60098D01*
X70059Y-60098D02*
X70059Y-60255D01*
X70413Y-60255D02*
X70059Y-60255D01*
X70413Y-60098D02*
X70413Y-60255D01*
X70413Y-59587D02*
X70059Y-59587D01*
X70059Y-59587D02*
X70059Y-59744D01*
X70413Y-59744D02*
X70059Y-59744D01*
X70413Y-59587D02*
X70413Y-59744D01*
X70413Y-59921D02*
X70354Y-59921D01*
X70354Y-59921D02*
X70354Y-60039D01*
X70413Y-60039D02*
X70354Y-60039D01*
X70413Y-59921D02*
X70413Y-60039D01*
X70118Y-59921D02*
X70059Y-59921D01*
X70059Y-59921D02*
X70059Y-60039D01*
X70118Y-60039D02*
X70059Y-60039D01*
X70118Y-59921D02*
X70118Y-60039D01*
X70295Y-59921D02*
X70177Y-59921D01*
X70177Y-59921D02*
X70177Y-60039D01*
X70295Y-60039D02*
X70177Y-60039D01*
X70295Y-59921D02*
X70295Y-60039D01*
G54D17*
X70393Y-60098D02*
X70393Y-59744D01*
X70079Y-60098D02*
X70079Y-59744D01*
G54D16*
X68484Y-60098D02*
X68130Y-60098D01*
X68130Y-60098D02*
X68130Y-60255D01*
X68484Y-60255D02*
X68130Y-60255D01*
X68484Y-60098D02*
X68484Y-60255D01*
X68484Y-59587D02*
X68130Y-59587D01*
X68130Y-59587D02*
X68130Y-59744D01*
X68484Y-59744D02*
X68130Y-59744D01*
X68484Y-59587D02*
X68484Y-59744D01*
X68484Y-59921D02*
X68425Y-59921D01*
X68425Y-59921D02*
X68425Y-60039D01*
X68484Y-60039D02*
X68425Y-60039D01*
X68484Y-59921D02*
X68484Y-60039D01*
X68189Y-59921D02*
X68130Y-59921D01*
X68130Y-59921D02*
X68130Y-60039D01*
X68189Y-60039D02*
X68130Y-60039D01*
X68189Y-59921D02*
X68189Y-60039D01*
X68366Y-59921D02*
X68248Y-59921D01*
X68248Y-59921D02*
X68248Y-60039D01*
X68366Y-60039D02*
X68248Y-60039D01*
X68366Y-59921D02*
X68366Y-60039D01*
G54D17*
X68464Y-60098D02*
X68464Y-59744D01*
X68150Y-60098D02*
X68150Y-59744D01*
G54D10*
X79921Y-60629D02*
X77559Y-60629D01*
X77559Y-60629D02*
X77559Y-59842D01*
X77559Y-59842D02*
X79921Y-59842D01*
X79921Y-60629D02*
X79921Y-59842D01*
G54D18*
X68348Y-58816D02*
X68253Y-58876D01*
X68348Y-58919D02*
X68148Y-58919D01*
X68148Y-58850D01*
X68158Y-58833D01*
X68167Y-58825D01*
X68186Y-58816D01*
X68215Y-58816D01*
X68234Y-58825D01*
X68243Y-58833D01*
X68253Y-58850D01*
X68253Y-58919D01*
X68348Y-58645D02*
X68348Y-58747D01*
X68348Y-58696D02*
X68148Y-58696D01*
X68177Y-58713D01*
X68196Y-58730D01*
X68205Y-58747D01*
X68234Y-58542D02*
X68224Y-58559D01*
X68215Y-58567D01*
X68196Y-58576D01*
X68186Y-58576D01*
X68167Y-58567D01*
X68158Y-58559D01*
X68148Y-58542D01*
X68148Y-58507D01*
X68158Y-58490D01*
X68167Y-58482D01*
X68186Y-58473D01*
X68196Y-58473D01*
X68215Y-58482D01*
X68224Y-58490D01*
X68234Y-58507D01*
X68234Y-58542D01*
X68243Y-58559D01*
X68253Y-58567D01*
X68272Y-58576D01*
X68310Y-58576D01*
X68329Y-58567D01*
X68339Y-58559D01*
X68348Y-58542D01*
X68348Y-58507D01*
X68339Y-58490D01*
X68329Y-58482D01*
X68310Y-58473D01*
X68272Y-58473D01*
X68253Y-58482D01*
X68243Y-58490D01*
X68234Y-58507D01*
X72285Y-58816D02*
X72190Y-58876D01*
X72285Y-58919D02*
X72085Y-58919D01*
X72085Y-58850D01*
X72095Y-58833D01*
X72104Y-58825D01*
X72123Y-58816D01*
X72152Y-58816D01*
X72171Y-58825D01*
X72180Y-58833D01*
X72190Y-58850D01*
X72190Y-58919D01*
X72285Y-58645D02*
X72285Y-58747D01*
X72285Y-58696D02*
X72085Y-58696D01*
X72114Y-58713D01*
X72133Y-58730D01*
X72142Y-58747D01*
X72085Y-58490D02*
X72085Y-58525D01*
X72095Y-58542D01*
X72104Y-58550D01*
X72133Y-58567D01*
X72171Y-58576D01*
X72247Y-58576D01*
X72266Y-58567D01*
X72276Y-58559D01*
X72285Y-58542D01*
X72285Y-58507D01*
X72276Y-58490D01*
X72266Y-58482D01*
X72247Y-58473D01*
X72199Y-58473D01*
X72180Y-58482D01*
X72171Y-58490D01*
X72161Y-58507D01*
X72161Y-58542D01*
X72171Y-58559D01*
X72180Y-58567D01*
X72199Y-58576D01*
X70317Y-58816D02*
X70221Y-58876D01*
X70317Y-58919D02*
X70117Y-58919D01*
X70117Y-58850D01*
X70126Y-58833D01*
X70136Y-58825D01*
X70155Y-58816D01*
X70183Y-58816D01*
X70202Y-58825D01*
X70212Y-58833D01*
X70221Y-58850D01*
X70221Y-58919D01*
X70317Y-58645D02*
X70317Y-58747D01*
X70317Y-58696D02*
X70117Y-58696D01*
X70145Y-58713D01*
X70164Y-58730D01*
X70174Y-58747D01*
X70117Y-58585D02*
X70117Y-58465D01*
X70317Y-58542D01*
X76655Y-59478D02*
X76560Y-59538D01*
X76655Y-59581D02*
X76455Y-59581D01*
X76455Y-59513D01*
X76465Y-59495D01*
X76474Y-59487D01*
X76493Y-59478D01*
X76522Y-59478D01*
X76541Y-59487D01*
X76550Y-59495D01*
X76560Y-59513D01*
X76560Y-59581D01*
X76474Y-59410D02*
X76465Y-59401D01*
X76455Y-59384D01*
X76455Y-59341D01*
X76465Y-59324D01*
X76474Y-59315D01*
X76493Y-59307D01*
X76512Y-59307D01*
X76541Y-59315D01*
X76655Y-59418D01*
X76655Y-59307D01*
X75868Y-59478D02*
X75773Y-59538D01*
X75868Y-59581D02*
X75668Y-59581D01*
X75668Y-59513D01*
X75677Y-59495D01*
X75687Y-59487D01*
X75706Y-59478D01*
X75735Y-59478D01*
X75754Y-59487D01*
X75763Y-59495D01*
X75773Y-59513D01*
X75773Y-59581D01*
X75668Y-59418D02*
X75668Y-59307D01*
X75744Y-59367D01*
X75744Y-59341D01*
X75754Y-59324D01*
X75763Y-59315D01*
X75782Y-59307D01*
X75830Y-59307D01*
X75849Y-59315D01*
X75858Y-59324D01*
X75868Y-59341D01*
X75868Y-59393D01*
X75858Y-59410D01*
X75849Y-59418D01*
G54D14*
X67579Y-56586D02*
X67579Y-56510D01*
X67560Y-56471D01*
X67541Y-56452D01*
X67484Y-56414D01*
X67408Y-56395D01*
X67255Y-56395D01*
X67217Y-56414D01*
X67198Y-56433D01*
X67179Y-56471D01*
X67179Y-56548D01*
X67198Y-56586D01*
X67217Y-56605D01*
X67255Y-56624D01*
X67351Y-56624D01*
X67389Y-56605D01*
X67408Y-56586D01*
X67427Y-56548D01*
X67427Y-56471D01*
X67408Y-56433D01*
X67389Y-56414D01*
X67351Y-56395D01*
X67179Y-56281D02*
X67579Y-56148D01*
X67179Y-56014D01*
X89969Y-55994D02*
X89988Y-55937D01*
X89988Y-55841D01*
X89969Y-55803D01*
X89950Y-55784D01*
X89912Y-55765D01*
X89873Y-55765D01*
X89835Y-55784D01*
X89816Y-55803D01*
X89797Y-55841D01*
X89778Y-55918D01*
X89759Y-55956D01*
X89740Y-55975D01*
X89702Y-55994D01*
X89664Y-55994D01*
X89626Y-55975D01*
X89607Y-55956D01*
X89588Y-55918D01*
X89588Y-55822D01*
X89607Y-55765D01*
X89778Y-55594D02*
X89778Y-55460D01*
X89988Y-55403D02*
X89988Y-55594D01*
X89588Y-55594D01*
X89588Y-55403D01*
X89988Y-55003D02*
X89797Y-55137D01*
X89988Y-55232D02*
X89588Y-55232D01*
X89588Y-55080D01*
X89607Y-55041D01*
X89626Y-55022D01*
X89664Y-55003D01*
X89721Y-55003D01*
X89759Y-55022D01*
X89778Y-55041D01*
X89797Y-55080D01*
X89797Y-55232D01*
X89588Y-54889D02*
X89988Y-54756D01*
X89588Y-54622D01*
X89588Y-54413D02*
X89588Y-54337D01*
X89607Y-54299D01*
X89645Y-54260D01*
X89721Y-54241D01*
X89854Y-54241D01*
X89931Y-54260D01*
X89969Y-54299D01*
X89988Y-54337D01*
X89988Y-54413D01*
X89969Y-54451D01*
X89931Y-54489D01*
X89854Y-54508D01*
X89721Y-54508D01*
X89645Y-54489D01*
X89607Y-54451D01*
X89588Y-54413D01*
X69347Y-56907D02*
X69347Y-57050D01*
X69489Y-57064D01*
X69475Y-57050D01*
X69461Y-57021D01*
X69461Y-56950D01*
X69475Y-56921D01*
X69489Y-56907D01*
X69518Y-56893D01*
X69589Y-56893D01*
X69618Y-56907D01*
X69632Y-56921D01*
X69647Y-56950D01*
X69647Y-57021D01*
X69632Y-57050D01*
X69618Y-57064D01*
X69347Y-56807D02*
X69647Y-56707D01*
X69347Y-56607D01*
X76528Y-25871D02*
X76528Y-25571D01*
X76628Y-25785D01*
X76728Y-25571D01*
X76728Y-25871D01*
X77028Y-25871D02*
X76857Y-25871D01*
X76943Y-25871D02*
X76943Y-25571D01*
X76914Y-25614D01*
X76885Y-25642D01*
X76857Y-25657D01*
X80465Y-25871D02*
X80465Y-25571D01*
X80565Y-25785D01*
X80665Y-25571D01*
X80665Y-25871D01*
X80794Y-25600D02*
X80808Y-25585D01*
X80837Y-25571D01*
X80908Y-25571D01*
X80937Y-25585D01*
X80951Y-25600D01*
X80965Y-25628D01*
X80965Y-25657D01*
X80951Y-25700D01*
X80780Y-25871D01*
X80965Y-25871D01*
X68731Y-52889D02*
X68750Y-52832D01*
X68770Y-52813D01*
X68808Y-52794D01*
X68865Y-52794D01*
X68903Y-52813D01*
X68922Y-52832D01*
X68941Y-52870D01*
X68941Y-53023D01*
X68541Y-53023D01*
X68541Y-52889D01*
X68560Y-52851D01*
X68579Y-52832D01*
X68617Y-52813D01*
X68655Y-52813D01*
X68693Y-52832D01*
X68712Y-52851D01*
X68731Y-52889D01*
X68731Y-53023D01*
X68827Y-52642D02*
X68827Y-52451D01*
X68941Y-52680D02*
X68541Y-52546D01*
X68941Y-52413D01*
X68541Y-52337D02*
X68541Y-52108D01*
X68941Y-52223D02*
X68541Y-52223D01*
X68541Y-52032D02*
X68541Y-51804D01*
X68941Y-51918D02*
X68541Y-51918D01*
X68731Y-51670D02*
X68731Y-51537D01*
X68941Y-51480D02*
X68941Y-51670D01*
X68541Y-51670D01*
X68541Y-51480D01*
X68941Y-51080D02*
X68750Y-51213D01*
X68941Y-51308D02*
X68541Y-51308D01*
X68541Y-51156D01*
X68560Y-51118D01*
X68579Y-51099D01*
X68617Y-51080D01*
X68674Y-51080D01*
X68712Y-51099D01*
X68731Y-51118D01*
X68750Y-51156D01*
X68750Y-51308D01*
X68750Y-50832D02*
X68941Y-50832D01*
X68541Y-50965D02*
X68750Y-50832D01*
X68541Y-50699D01*
X71276Y-57293D02*
X71276Y-57107D01*
X71390Y-57207D01*
X71390Y-57164D01*
X71404Y-57136D01*
X71419Y-57121D01*
X71447Y-57107D01*
X71519Y-57107D01*
X71547Y-57121D01*
X71561Y-57136D01*
X71576Y-57164D01*
X71576Y-57250D01*
X71561Y-57278D01*
X71547Y-57293D01*
X71547Y-56978D02*
X71561Y-56964D01*
X71576Y-56978D01*
X71561Y-56993D01*
X71547Y-56978D01*
X71576Y-56978D01*
X71276Y-56864D02*
X71276Y-56678D01*
X71390Y-56778D01*
X71390Y-56736D01*
X71404Y-56707D01*
X71419Y-56693D01*
X71447Y-56678D01*
X71519Y-56678D01*
X71547Y-56693D01*
X71561Y-56707D01*
X71576Y-56736D01*
X71576Y-56821D01*
X71561Y-56850D01*
X71547Y-56864D01*
X71276Y-56593D02*
X71576Y-56493D01*
X71276Y-56393D01*
G54D13*
X72685Y-60068D02*
X72485Y-60068D01*
X72485Y-60021D01*
X72495Y-59992D01*
X72514Y-59973D01*
X72533Y-59964D01*
X72571Y-59954D01*
X72599Y-59954D01*
X72638Y-59964D01*
X72657Y-59973D01*
X72676Y-59992D01*
X72685Y-60021D01*
X72685Y-60068D01*
X72685Y-59764D02*
X72685Y-59878D01*
X72685Y-59821D02*
X72485Y-59821D01*
X72514Y-59840D01*
X72533Y-59859D01*
X72542Y-59878D01*
X71885Y-60049D02*
X71885Y-60145D01*
X71685Y-60145D01*
X71780Y-59983D02*
X71780Y-59916D01*
X71885Y-59887D02*
X71885Y-59983D01*
X71685Y-59983D01*
X71685Y-59887D01*
X71885Y-59802D02*
X71685Y-59802D01*
X71685Y-59754D01*
X71695Y-59726D01*
X71714Y-59706D01*
X71733Y-59697D01*
X71771Y-59687D01*
X71799Y-59687D01*
X71838Y-59697D01*
X71857Y-59706D01*
X71876Y-59726D01*
X71885Y-59754D01*
X71885Y-59802D01*
X70717Y-60068D02*
X70517Y-60068D01*
X70517Y-60021D01*
X70526Y-59992D01*
X70545Y-59973D01*
X70564Y-59964D01*
X70602Y-59954D01*
X70631Y-59954D01*
X70669Y-59964D01*
X70688Y-59973D01*
X70707Y-59992D01*
X70717Y-60021D01*
X70717Y-60068D01*
X70536Y-59878D02*
X70526Y-59868D01*
X70517Y-59849D01*
X70517Y-59802D01*
X70526Y-59783D01*
X70536Y-59773D01*
X70555Y-59764D01*
X70574Y-59764D01*
X70602Y-59773D01*
X70717Y-59887D01*
X70717Y-59764D01*
X69917Y-60049D02*
X69917Y-60145D01*
X69717Y-60145D01*
X69812Y-59983D02*
X69812Y-59916D01*
X69917Y-59887D02*
X69917Y-59983D01*
X69717Y-59983D01*
X69717Y-59887D01*
X69917Y-59802D02*
X69717Y-59802D01*
X69717Y-59754D01*
X69726Y-59726D01*
X69745Y-59706D01*
X69764Y-59697D01*
X69802Y-59687D01*
X69831Y-59687D01*
X69869Y-59697D01*
X69888Y-59706D01*
X69907Y-59726D01*
X69917Y-59754D01*
X69917Y-59802D01*
X68788Y-60068D02*
X68588Y-60068D01*
X68588Y-60021D01*
X68597Y-59992D01*
X68616Y-59973D01*
X68635Y-59964D01*
X68673Y-59954D01*
X68702Y-59954D01*
X68740Y-59964D01*
X68759Y-59973D01*
X68778Y-59992D01*
X68788Y-60021D01*
X68788Y-60068D01*
X68588Y-59887D02*
X68588Y-59764D01*
X68664Y-59830D01*
X68664Y-59802D01*
X68673Y-59783D01*
X68683Y-59773D01*
X68702Y-59764D01*
X68749Y-59764D01*
X68768Y-59773D01*
X68778Y-59783D01*
X68788Y-59802D01*
X68788Y-59859D01*
X68778Y-59878D01*
X68768Y-59887D01*
X67988Y-60049D02*
X67988Y-60145D01*
X67788Y-60145D01*
X67883Y-59983D02*
X67883Y-59916D01*
X67988Y-59887D02*
X67988Y-59983D01*
X67788Y-59983D01*
X67788Y-59887D01*
X67988Y-59802D02*
X67788Y-59802D01*
X67788Y-59754D01*
X67797Y-59726D01*
X67816Y-59706D01*
X67835Y-59697D01*
X67873Y-59687D01*
X67902Y-59687D01*
X67940Y-59697D01*
X67959Y-59706D01*
X67978Y-59726D01*
X67988Y-59754D01*
X67988Y-59802D01*
G54D10*
X77455Y-61182D02*
X77455Y-60789D01*
X77549Y-60789D01*
X77605Y-60808D01*
X77643Y-60845D01*
X77662Y-60883D01*
X77680Y-60958D01*
X77680Y-61014D01*
X77662Y-61089D01*
X77643Y-61126D01*
X77605Y-61164D01*
X77549Y-61182D01*
X77455Y-61182D01*
X77849Y-61182D02*
X77849Y-60789D01*
X78018Y-61164D02*
X78074Y-61182D01*
X78168Y-61182D01*
X78205Y-61164D01*
X78224Y-61145D01*
X78243Y-61107D01*
X78243Y-61070D01*
X78224Y-61032D01*
X78205Y-61014D01*
X78168Y-60995D01*
X78093Y-60976D01*
X78055Y-60958D01*
X78037Y-60939D01*
X78018Y-60901D01*
X78018Y-60864D01*
X78037Y-60826D01*
X78055Y-60808D01*
X78093Y-60789D01*
X78187Y-60789D01*
X78243Y-60808D01*
X78355Y-60789D02*
X78580Y-60789D01*
X78468Y-61182D02*
X78468Y-60789D01*
X78693Y-61070D02*
X78880Y-61070D01*
X78655Y-61182D02*
X78787Y-60789D01*
X78918Y-61182D01*
X79049Y-61182D02*
X79049Y-60789D01*
X79274Y-61182D01*
X79274Y-60789D01*
X79686Y-61145D02*
X79668Y-61164D01*
X79611Y-61182D01*
X79574Y-61182D01*
X79518Y-61164D01*
X79480Y-61126D01*
X79461Y-61089D01*
X79443Y-61014D01*
X79443Y-60958D01*
X79461Y-60883D01*
X79480Y-60845D01*
X79518Y-60808D01*
X79574Y-60789D01*
X79611Y-60789D01*
X79668Y-60808D01*
X79686Y-60826D01*
X79855Y-60976D02*
X79986Y-60976D01*
X80043Y-61182D02*
X79855Y-61182D01*
X79855Y-60789D01*
X80043Y-60789D01*
M02*
