G04 (created by PCBNEW (2013-07-07 BZR 4022)-stable) date 7/8/2014 5:22:45 PM*
%MOIN*%
G04 Gerber Fmt 3.4, Leading zero omitted, Abs format*
%FSLAX34Y34*%
G01*
G70*
G90*
G04 APERTURE LIST*
%ADD10C,0.00590551*%
%ADD11C,0.11811*%
%ADD12R,0.0165X0.0579*%
%ADD13R,0.0787X0.1181*%
%ADD14R,0.15X0.055*%
%ADD15R,0.06X0.08*%
%ADD16R,0.025X0.045*%
%ADD17R,0.045X0.025*%
%ADD18R,0.06X0.06*%
%ADD19C,0.06*%
%ADD20R,0.0402X0.0161*%
%ADD21C,0.0393701*%
%ADD22R,0.0866X0.0709*%
%ADD23R,0.0629921X0.224409*%
%ADD24R,0.03X0.02*%
%ADD25R,0.0393701X0.0433071*%
G04 APERTURE END LIST*
G54D10*
G54D11*
X84490Y-42913D03*
X72990Y-42913D03*
X68897Y-32677D03*
X68897Y-25590D03*
X88582Y-25590D03*
X88582Y-32677D03*
G54D12*
X78513Y-33838D03*
X78769Y-33838D03*
X79025Y-33838D03*
X79281Y-33838D03*
X77749Y-36040D03*
X77745Y-33838D03*
X78001Y-33838D03*
X78257Y-33838D03*
X79537Y-36042D03*
X79281Y-36042D03*
X79025Y-36042D03*
X78769Y-36042D03*
X78513Y-36042D03*
X78257Y-36042D03*
X79537Y-33838D03*
X78001Y-36040D03*
G54D13*
X74819Y-39968D03*
X77181Y-39968D03*
X81015Y-39968D03*
X83377Y-39968D03*
G54D14*
X77165Y-50506D03*
X77165Y-48706D03*
G54D15*
X82146Y-46259D03*
X80846Y-46259D03*
G54D16*
X79424Y-46259D03*
X80024Y-46259D03*
X75684Y-43208D03*
X76284Y-43208D03*
X78341Y-37696D03*
X78941Y-37696D03*
X77751Y-36909D03*
X78351Y-36909D03*
X79532Y-36909D03*
X78932Y-36909D03*
X81885Y-43208D03*
X82485Y-43208D03*
G54D17*
X76377Y-46550D03*
X76377Y-47150D03*
X80314Y-61511D03*
X80314Y-62111D03*
G54D16*
X75496Y-60236D03*
X74896Y-60236D03*
G54D17*
X77362Y-62111D03*
X77362Y-61511D03*
X83661Y-61511D03*
X83661Y-62111D03*
X76574Y-61511D03*
X76574Y-62111D03*
G54D16*
X82583Y-60236D03*
X81983Y-60236D03*
X88479Y-59448D03*
X89079Y-59448D03*
X89079Y-60236D03*
X88479Y-60236D03*
G54D17*
X74803Y-41727D03*
X74803Y-42327D03*
X81023Y-41707D03*
X81023Y-42307D03*
X81496Y-47937D03*
X81496Y-47337D03*
G54D16*
X77062Y-46456D03*
X77662Y-46456D03*
X78843Y-46259D03*
X78243Y-46259D03*
G54D17*
X77165Y-47740D03*
X77165Y-47140D03*
X70078Y-61707D03*
X70078Y-62307D03*
G54D16*
X69000Y-60236D03*
X68400Y-60236D03*
X76629Y-33818D03*
X77229Y-33818D03*
G54D18*
X68267Y-57338D03*
G54D19*
X68267Y-56338D03*
X68267Y-55338D03*
G54D18*
X88976Y-54118D03*
G54D19*
X88976Y-55118D03*
X88976Y-56118D03*
G54D18*
X70275Y-57350D03*
G54D19*
X70275Y-56350D03*
G54D18*
X77271Y-25000D03*
G54D19*
X76271Y-25000D03*
G54D18*
X81208Y-25000D03*
G54D19*
X80208Y-25000D03*
G54D18*
X69645Y-52389D03*
G54D19*
X69645Y-51389D03*
G54D18*
X72204Y-57350D03*
G54D19*
X72204Y-56350D03*
G54D18*
X86740Y-38622D03*
G54D19*
X87740Y-38622D03*
X86740Y-39622D03*
X87740Y-39622D03*
X86740Y-40622D03*
X87740Y-40622D03*
X86740Y-41622D03*
X87740Y-41622D03*
X86740Y-42622D03*
X87740Y-42622D03*
X86740Y-43622D03*
X87740Y-43622D03*
X86740Y-44622D03*
X87740Y-44622D03*
X86740Y-45622D03*
X87740Y-45622D03*
X86740Y-46622D03*
X87740Y-46622D03*
X86740Y-47622D03*
X87740Y-47622D03*
G54D18*
X69740Y-38622D03*
G54D19*
X70740Y-38622D03*
X69740Y-39622D03*
X70740Y-39622D03*
X69740Y-40622D03*
X70740Y-40622D03*
X69740Y-41622D03*
X70740Y-41622D03*
X69740Y-42622D03*
X70740Y-42622D03*
X69740Y-43622D03*
X70740Y-43622D03*
X69740Y-44622D03*
X70740Y-44622D03*
X69740Y-45622D03*
X70740Y-45622D03*
X69740Y-46622D03*
X70740Y-46622D03*
X69740Y-47622D03*
X70740Y-47622D03*
G54D20*
X78016Y-47729D03*
X78016Y-47473D03*
X78016Y-47217D03*
X78016Y-46961D03*
X79828Y-46961D03*
X79828Y-47217D03*
X79828Y-47473D03*
X79828Y-47729D03*
G54D21*
X79527Y-60236D03*
X78740Y-60236D03*
X77952Y-60236D03*
G54D22*
X82874Y-50002D03*
X82874Y-48422D03*
G54D23*
X80649Y-49803D03*
X78799Y-49803D03*
G54D24*
X81696Y-42343D03*
X81696Y-41593D03*
X82696Y-42343D03*
X81696Y-41968D03*
X82696Y-41593D03*
X75500Y-42343D03*
X75500Y-41593D03*
X76500Y-42343D03*
X75500Y-41968D03*
X76500Y-41593D03*
G54D25*
X69055Y-62362D03*
X68346Y-62362D03*
X68346Y-61259D03*
X69055Y-61259D03*
X75551Y-62362D03*
X74842Y-62362D03*
X74842Y-61259D03*
X75551Y-61259D03*
X79094Y-62362D03*
X78385Y-62362D03*
X78385Y-61259D03*
X79094Y-61259D03*
X82637Y-62362D03*
X81929Y-62362D03*
X81929Y-61259D03*
X82637Y-61259D03*
X89133Y-62362D03*
X88425Y-62362D03*
X88425Y-61259D03*
X89133Y-61259D03*
M02*
